%TF.GenerationSoftware,KiCad,Pcbnew,9.0.6*%
%TF.CreationDate,2026-04-08T11:52:09-04:00*%
%TF.ProjectId,f411_shimmer,66343131-5f73-4686-996d-6d65722e6b69,rev?*%
%TF.SameCoordinates,Original*%
%TF.FileFunction,Copper,L1,Top*%
%TF.FilePolarity,Positive*%
%FSLAX46Y46*%
G04 Gerber Fmt 4.6, Leading zero omitted, Abs format (unit mm)*
G04 Created by KiCad (PCBNEW 9.0.6) date 2026-04-08 11:52:09*
%MOMM*%
%LPD*%
G01*
G04 APERTURE LIST*
G04 Aperture macros list*
%AMRoundRect*
0 Rectangle with rounded corners*
0 $1 Rounding radius*
0 $2 $3 $4 $5 $6 $7 $8 $9 X,Y pos of 4 corners*
0 Add a 4 corners polygon primitive as box body*
4,1,4,$2,$3,$4,$5,$6,$7,$8,$9,$2,$3,0*
0 Add four circle primitives for the rounded corners*
1,1,$1+$1,$2,$3*
1,1,$1+$1,$4,$5*
1,1,$1+$1,$6,$7*
1,1,$1+$1,$8,$9*
0 Add four rect primitives between the rounded corners*
20,1,$1+$1,$2,$3,$4,$5,0*
20,1,$1+$1,$4,$5,$6,$7,0*
20,1,$1+$1,$6,$7,$8,$9,0*
20,1,$1+$1,$8,$9,$2,$3,0*%
G04 Aperture macros list end*
%TA.AperFunction,SMDPad,CuDef*%
%ADD10RoundRect,0.200000X-0.200000X-0.275000X0.200000X-0.275000X0.200000X0.275000X-0.200000X0.275000X0*%
%TD*%
%TA.AperFunction,ComponentPad*%
%ADD11C,3.600000*%
%TD*%
%TA.AperFunction,ConnectorPad*%
%ADD12C,6.400000*%
%TD*%
%TA.AperFunction,SMDPad,CuDef*%
%ADD13RoundRect,0.075000X-0.700000X-0.075000X0.700000X-0.075000X0.700000X0.075000X-0.700000X0.075000X0*%
%TD*%
%TA.AperFunction,SMDPad,CuDef*%
%ADD14RoundRect,0.075000X-0.075000X-0.700000X0.075000X-0.700000X0.075000X0.700000X-0.075000X0.700000X0*%
%TD*%
%TA.AperFunction,SMDPad,CuDef*%
%ADD15RoundRect,0.225000X0.225000X0.250000X-0.225000X0.250000X-0.225000X-0.250000X0.225000X-0.250000X0*%
%TD*%
%TA.AperFunction,ComponentPad*%
%ADD16RoundRect,0.250000X-0.600000X-0.750000X0.600000X-0.750000X0.600000X0.750000X-0.600000X0.750000X0*%
%TD*%
%TA.AperFunction,ComponentPad*%
%ADD17O,1.700000X2.000000*%
%TD*%
%TA.AperFunction,SMDPad,CuDef*%
%ADD18C,1.000000*%
%TD*%
%TA.AperFunction,SMDPad,CuDef*%
%ADD19RoundRect,0.225000X0.250000X-0.225000X0.250000X0.225000X-0.250000X0.225000X-0.250000X-0.225000X0*%
%TD*%
%TA.AperFunction,ComponentPad*%
%ADD20R,1.700000X1.700000*%
%TD*%
%TA.AperFunction,ComponentPad*%
%ADD21C,1.700000*%
%TD*%
%TA.AperFunction,SMDPad,CuDef*%
%ADD22RoundRect,0.250000X-0.250000X-0.475000X0.250000X-0.475000X0.250000X0.475000X-0.250000X0.475000X0*%
%TD*%
%TA.AperFunction,ComponentPad*%
%ADD23RoundRect,0.250000X-0.600000X-0.725000X0.600000X-0.725000X0.600000X0.725000X-0.600000X0.725000X0*%
%TD*%
%TA.AperFunction,ComponentPad*%
%ADD24O,1.700000X1.950000*%
%TD*%
%TA.AperFunction,SMDPad,CuDef*%
%ADD25RoundRect,0.250000X0.262500X0.450000X-0.262500X0.450000X-0.262500X-0.450000X0.262500X-0.450000X0*%
%TD*%
%TA.AperFunction,SMDPad,CuDef*%
%ADD26RoundRect,0.200000X0.200000X0.275000X-0.200000X0.275000X-0.200000X-0.275000X0.200000X-0.275000X0*%
%TD*%
%TA.AperFunction,SMDPad,CuDef*%
%ADD27RoundRect,0.225000X-0.225000X-0.250000X0.225000X-0.250000X0.225000X0.250000X-0.225000X0.250000X0*%
%TD*%
%TA.AperFunction,SMDPad,CuDef*%
%ADD28RoundRect,0.250000X-0.350000X0.450000X-0.350000X-0.450000X0.350000X-0.450000X0.350000X0.450000X0*%
%TD*%
%TA.AperFunction,SMDPad,CuDef*%
%ADD29RoundRect,0.225000X-0.250000X0.225000X-0.250000X-0.225000X0.250000X-0.225000X0.250000X0.225000X0*%
%TD*%
%TA.AperFunction,SMDPad,CuDef*%
%ADD30RoundRect,0.218750X-0.256250X0.218750X-0.256250X-0.218750X0.256250X-0.218750X0.256250X0.218750X0*%
%TD*%
%TA.AperFunction,SMDPad,CuDef*%
%ADD31R,0.450000X1.300000*%
%TD*%
%TA.AperFunction,HeatsinkPad*%
%ADD32O,1.150000X1.800000*%
%TD*%
%TA.AperFunction,HeatsinkPad*%
%ADD33O,1.450000X2.000000*%
%TD*%
%TA.AperFunction,SMDPad,CuDef*%
%ADD34RoundRect,0.218750X-0.218750X-0.256250X0.218750X-0.256250X0.218750X0.256250X-0.218750X0.256250X0*%
%TD*%
%TA.AperFunction,SMDPad,CuDef*%
%ADD35RoundRect,0.375000X-0.375000X0.625000X-0.375000X-0.625000X0.375000X-0.625000X0.375000X0.625000X0*%
%TD*%
%TA.AperFunction,SMDPad,CuDef*%
%ADD36RoundRect,0.500000X-1.400000X0.500000X-1.400000X-0.500000X1.400000X-0.500000X1.400000X0.500000X0*%
%TD*%
%TA.AperFunction,ViaPad*%
%ADD37C,0.700000*%
%TD*%
%TA.AperFunction,ViaPad*%
%ADD38C,0.600000*%
%TD*%
%TA.AperFunction,Conductor*%
%ADD39C,0.300000*%
%TD*%
%TA.AperFunction,Conductor*%
%ADD40C,0.500000*%
%TD*%
%TA.AperFunction,Conductor*%
%ADD41C,0.200000*%
%TD*%
G04 APERTURE END LIST*
D10*
%TO.P,R6,1*%
%TO.N,Net-(U1-BOOT0)*%
X137300000Y-63450000D03*
%TO.P,R6,2*%
%TO.N,GND*%
X138950000Y-63450000D03*
%TD*%
D11*
%TO.P,H3,1,1*%
%TO.N,GND*%
X183000000Y-55500000D03*
D12*
X183000000Y-55500000D03*
%TD*%
D13*
%TO.P,U1,1,VBAT*%
%TO.N,+3.3V*%
X132475000Y-69125000D03*
%TO.P,U1,2,PC13*%
%TO.N,unconnected-(U1-PC13-Pad2)*%
X132475000Y-69625000D03*
%TO.P,U1,3,PC14*%
%TO.N,unconnected-(U1-PC14-Pad3)*%
X132475000Y-70125000D03*
%TO.P,U1,4,PC15*%
%TO.N,unconnected-(U1-PC15-Pad4)*%
X132475000Y-70625000D03*
%TO.P,U1,5,PH0*%
%TO.N,/HSE_IN*%
X132475000Y-71125000D03*
%TO.P,U1,6,PH1*%
%TO.N,/HSE_OUT*%
X132475000Y-71625000D03*
%TO.P,U1,7,NRST*%
%TO.N,Net-(U1-NRST)*%
X132475000Y-72125000D03*
%TO.P,U1,8,PC0*%
%TO.N,POT5*%
X132475000Y-72625000D03*
%TO.P,U1,9,PC1*%
%TO.N,POT1*%
X132475000Y-73125000D03*
%TO.P,U1,10,PC2*%
%TO.N,POT2*%
X132475000Y-73625000D03*
%TO.P,U1,11,PC3*%
%TO.N,POT3*%
X132475000Y-74125000D03*
%TO.P,U1,12,VSSA*%
%TO.N,GND*%
X132475000Y-74625000D03*
%TO.P,U1,13,VDDA*%
%TO.N,+3.3VA*%
X132475000Y-75125000D03*
%TO.P,U1,14,PA0*%
%TO.N,POT4*%
X132475000Y-75625000D03*
%TO.P,U1,15,PA1*%
%TO.N,unconnected-(U1-PA1-Pad15)*%
X132475000Y-76125000D03*
%TO.P,U1,16,PA2*%
%TO.N,unconnected-(U1-PA2-Pad16)*%
X132475000Y-76625000D03*
D14*
%TO.P,U1,17,PA3*%
%TO.N,unconnected-(U1-PA3-Pad17)*%
X134400000Y-78550000D03*
%TO.P,U1,18,VSS*%
%TO.N,GND*%
X134900000Y-78550000D03*
%TO.P,U1,19,VDD*%
%TO.N,+3.3V*%
X135400000Y-78550000D03*
%TO.P,U1,20,PA4*%
%TO.N,unconnected-(U1-PA4-Pad20)*%
X135900000Y-78550000D03*
%TO.P,U1,21,PA5*%
%TO.N,unconnected-(U1-PA5-Pad21)*%
X136400000Y-78550000D03*
%TO.P,U1,22,PA6*%
%TO.N,unconnected-(U1-PA6-Pad22)*%
X136900000Y-78550000D03*
%TO.P,U1,23,PA7*%
%TO.N,SW1*%
X137400000Y-78550000D03*
%TO.P,U1,24,PC4*%
%TO.N,SW2*%
X137900000Y-78550000D03*
%TO.P,U1,25,PC5*%
%TO.N,SW3*%
X138400000Y-78550000D03*
%TO.P,U1,26,PB0*%
%TO.N,SW4*%
X138900000Y-78550000D03*
%TO.P,U1,27,PB1*%
%TO.N,unconnected-(U1-PB1-Pad27)*%
X139400000Y-78550000D03*
%TO.P,U1,28,PB2*%
%TO.N,unconnected-(U1-PB2-Pad28)*%
X139900000Y-78550000D03*
%TO.P,U1,29,PB10*%
%TO.N,unconnected-(U1-PB10-Pad29)*%
X140400000Y-78550000D03*
%TO.P,U1,30,VCAP1*%
%TO.N,/VCAP*%
X140900000Y-78550000D03*
%TO.P,U1,31,VSS*%
%TO.N,GND*%
X141400000Y-78550000D03*
%TO.P,U1,32,VDD*%
%TO.N,+3.3V*%
X141900000Y-78550000D03*
D13*
%TO.P,U1,33,PB12*%
%TO.N,PB12*%
X143825000Y-76625000D03*
%TO.P,U1,34,PB13*%
%TO.N,PB13*%
X143825000Y-76125000D03*
%TO.P,U1,35,PB14*%
%TO.N,PB14*%
X143825000Y-75625000D03*
%TO.P,U1,36,PB15*%
%TO.N,PB15*%
X143825000Y-75125000D03*
%TO.P,U1,37,PC6*%
%TO.N,PC6*%
X143825000Y-74625000D03*
%TO.P,U1,38,PC7*%
%TO.N,PC7*%
X143825000Y-74125000D03*
%TO.P,U1,39,PC8*%
%TO.N,unconnected-(U1-PC8-Pad39)*%
X143825000Y-73625000D03*
%TO.P,U1,40,PC9*%
%TO.N,/USART1_TX*%
X143825000Y-73125000D03*
%TO.P,U1,41,PA8*%
%TO.N,unconnected-(U1-PA8-Pad41)*%
X143825000Y-72625000D03*
%TO.P,U1,42,PA9*%
%TO.N,unconnected-(U1-PA9-Pad42)*%
X143825000Y-72125000D03*
%TO.P,U1,43,PA10*%
%TO.N,unconnected-(U1-PA10-Pad43)*%
X143825000Y-71625000D03*
%TO.P,U1,44,PA11*%
%TO.N,/USB_D-*%
X143825000Y-71125000D03*
%TO.P,U1,45,PA12*%
%TO.N,/USB_D+*%
X143825000Y-70625000D03*
%TO.P,U1,46,PA13*%
%TO.N,/SWDIO*%
X143825000Y-70125000D03*
%TO.P,U1,47,VSS*%
%TO.N,GND*%
X143825000Y-69625000D03*
%TO.P,U1,48,VDD*%
%TO.N,+3.3V*%
X143825000Y-69125000D03*
D14*
%TO.P,U1,49,PA14*%
%TO.N,/SWCLK*%
X141900000Y-67200000D03*
%TO.P,U1,50,PA15*%
%TO.N,unconnected-(U1-PA15-Pad50)*%
X141400000Y-67200000D03*
%TO.P,U1,51,PC10*%
%TO.N,/USART1_RX*%
X140900000Y-67200000D03*
%TO.P,U1,52,PC11*%
%TO.N,LED_3*%
X140400000Y-67200000D03*
%TO.P,U1,53,PC12*%
%TO.N,LED_2*%
X139900000Y-67200000D03*
%TO.P,U1,54,PD2*%
%TO.N,LED_1*%
X139400000Y-67200000D03*
%TO.P,U1,55,PB3*%
%TO.N,unconnected-(U1-PB3-Pad55)*%
X138900000Y-67200000D03*
%TO.P,U1,56,PB4*%
%TO.N,unconnected-(U1-PB4-Pad56)*%
X138400000Y-67200000D03*
%TO.P,U1,57,PB5*%
%TO.N,unconnected-(U1-PB5-Pad57)*%
X137900000Y-67200000D03*
%TO.P,U1,58,PB6*%
%TO.N,unconnected-(U1-PB6-Pad58)*%
X137400000Y-67200000D03*
%TO.P,U1,59,PB7*%
%TO.N,unconnected-(U1-PB7-Pad59)*%
X136900000Y-67200000D03*
%TO.P,U1,60,BOOT0*%
%TO.N,Net-(U1-BOOT0)*%
X136400000Y-67200000D03*
%TO.P,U1,61,PB8*%
%TO.N,unconnected-(U1-PB8-Pad61)*%
X135900000Y-67200000D03*
%TO.P,U1,62,PB9*%
%TO.N,unconnected-(U1-PB9-Pad62)*%
X135400000Y-67200000D03*
%TO.P,U1,63,VSS*%
%TO.N,GND*%
X134900000Y-67200000D03*
%TO.P,U1,64,VDD*%
%TO.N,+3.3V*%
X134400000Y-67200000D03*
%TD*%
D15*
%TO.P,C22,1*%
%TO.N,Net-(U1-NRST)*%
X128200000Y-65000000D03*
%TO.P,C22,2*%
%TO.N,GND*%
X126650000Y-65000000D03*
%TD*%
D16*
%TO.P,J12,1,Pin_1*%
%TO.N,SW4*%
X153500000Y-91500000D03*
D17*
%TO.P,J12,2,Pin_2*%
%TO.N,GND*%
X156000000Y-91500000D03*
%TD*%
D18*
%TO.P,TP4,1,1*%
%TO.N,SW1*%
X120600000Y-97100000D03*
%TD*%
D16*
%TO.P,J11,1,Pin_1*%
%TO.N,SW3*%
X143825000Y-91475000D03*
D17*
%TO.P,J11,2,Pin_2*%
%TO.N,GND*%
X146325000Y-91475000D03*
%TD*%
D18*
%TO.P,TP7,1,1*%
%TO.N,POT1*%
X160480000Y-63050000D03*
%TD*%
D19*
%TO.P,C20,1*%
%TO.N,+3.3VA*%
X128900000Y-80550000D03*
%TO.P,C20,2*%
%TO.N,GND*%
X128900000Y-79000000D03*
%TD*%
D18*
%TO.P,TP10,1,1*%
%TO.N,POT4*%
X181540000Y-91510000D03*
%TD*%
D20*
%TO.P,J5,1,Pin_1*%
%TO.N,+3.3V*%
X116750000Y-75070000D03*
D21*
%TO.P,J5,2,Pin_2*%
%TO.N,/USART1_TX*%
X116750000Y-72530000D03*
%TO.P,J5,3,Pin_3*%
%TO.N,/USART1_RX*%
X116750000Y-69990000D03*
%TO.P,J5,4,Pin_4*%
%TO.N,GND*%
X116750000Y-67450000D03*
%TD*%
D19*
%TO.P,C19,1*%
%TO.N,+3.3VA*%
X130250000Y-75550000D03*
%TO.P,C19,2*%
%TO.N,GND*%
X130250000Y-74000000D03*
%TD*%
D22*
%TO.P,C13,1*%
%TO.N,+3.3V*%
X151700000Y-70050000D03*
%TO.P,C13,2*%
%TO.N,GND*%
X153600000Y-70050000D03*
%TD*%
D23*
%TO.P,J1,1,Pin_1*%
%TO.N,+3.3V*%
X166900000Y-65200000D03*
D24*
%TO.P,J1,2,Pin_2*%
%TO.N,POT1*%
X169400000Y-65200000D03*
%TO.P,J1,3,Pin_3*%
%TO.N,GND*%
X171900000Y-65200000D03*
%TD*%
D25*
%TO.P,R4,1*%
%TO.N,+3.3V*%
X155225000Y-87700000D03*
%TO.P,R4,2*%
%TO.N,SW4*%
X153400000Y-87700000D03*
%TD*%
D16*
%TO.P,J15,1,Pin_1*%
%TO.N,VBUS*%
X157380000Y-58410000D03*
D17*
%TO.P,J15,2,Pin_2*%
%TO.N,GND*%
X159880000Y-58410000D03*
%TD*%
D23*
%TO.P,J8,1,Pin_1*%
%TO.N,+3.3V*%
X128850000Y-58500000D03*
D24*
%TO.P,J8,2,Pin_2*%
%TO.N,POT5*%
X131350000Y-58500000D03*
%TO.P,J8,3,Pin_3*%
%TO.N,GND*%
X133850000Y-58500000D03*
%TD*%
D25*
%TO.P,R5,1*%
%TO.N,+3.3V*%
X146050000Y-87875000D03*
%TO.P,R5,2*%
%TO.N,SW3*%
X144225000Y-87875000D03*
%TD*%
D20*
%TO.P,J13,1,Pin_1*%
%TO.N,PC7*%
X177800000Y-72820000D03*
D21*
%TO.P,J13,2,Pin_2*%
%TO.N,PC6*%
X177800000Y-70280000D03*
%TO.P,J13,3,Pin_3*%
%TO.N,+3.3V*%
X177800000Y-67740000D03*
%TO.P,J13,4,Pin_4*%
%TO.N,GND*%
X177800000Y-65200000D03*
%TD*%
D26*
%TO.P,R3,1*%
%TO.N,/PWR_LED_K*%
X119260000Y-57510000D03*
%TO.P,R3,2*%
%TO.N,GND*%
X117610000Y-57510000D03*
%TD*%
D27*
%TO.P,C14,1*%
%TO.N,+3.3V*%
X133875000Y-63450000D03*
%TO.P,C14,2*%
%TO.N,GND*%
X135425000Y-63450000D03*
%TD*%
D20*
%TO.P,J6,1,Pin_1*%
%TO.N,+3.3V*%
X116775000Y-86240000D03*
D21*
%TO.P,J6,2,Pin_2*%
%TO.N,/SWDIO*%
X116775000Y-83700000D03*
%TO.P,J6,3,Pin_3*%
%TO.N,/SWCLK*%
X116775000Y-81160000D03*
%TO.P,J6,4,Pin_4*%
%TO.N,GND*%
X116775000Y-78620000D03*
%TD*%
D16*
%TO.P,J10,1,Pin_1*%
%TO.N,SW2*%
X134025000Y-91475000D03*
D17*
%TO.P,J10,2,Pin_2*%
%TO.N,GND*%
X136525000Y-91475000D03*
%TD*%
D18*
%TO.P,TP6,1,1*%
%TO.N,SW4*%
X149700000Y-97100000D03*
%TD*%
D28*
%TO.P,Y2,1,1*%
%TO.N,/HSE_IN*%
X123800000Y-72200000D03*
%TO.P,Y2,2,2*%
%TO.N,GND*%
X123800000Y-74400000D03*
%TO.P,Y2,3,3*%
%TO.N,/HSE_OUT*%
X125500000Y-74400000D03*
%TO.P,Y2,4,4*%
%TO.N,GND*%
X125500000Y-72200000D03*
%TD*%
D22*
%TO.P,C12,1*%
%TO.N,VBUS*%
X151700000Y-67550000D03*
%TO.P,C12,2*%
%TO.N,GND*%
X153600000Y-67550000D03*
%TD*%
D16*
%TO.P,J9,1,Pin_1*%
%TO.N,SW1*%
X124125000Y-91500000D03*
D17*
%TO.P,J9,2,Pin_2*%
%TO.N,GND*%
X126625000Y-91500000D03*
%TD*%
D27*
%TO.P,C15,1*%
%TO.N,+3.3V*%
X133900000Y-65200000D03*
%TO.P,C15,2*%
%TO.N,GND*%
X135450000Y-65200000D03*
%TD*%
D29*
%TO.P,C18,1*%
%TO.N,+3.3V*%
X145900000Y-67950000D03*
%TO.P,C18,2*%
%TO.N,GND*%
X145900000Y-69500000D03*
%TD*%
D30*
%TO.P,FB2,1*%
%TO.N,+3.3VA*%
X128900000Y-82350000D03*
%TO.P,FB2,2*%
%TO.N,+3.3V*%
X128900000Y-83925000D03*
%TD*%
D19*
%TO.P,C21,1*%
%TO.N,+3.3V*%
X130750000Y-83925000D03*
%TO.P,C21,2*%
%TO.N,GND*%
X130750000Y-82375000D03*
%TD*%
D23*
%TO.P,J3,1,Pin_1*%
%TO.N,+3.3V*%
X166900000Y-71300000D03*
D24*
%TO.P,J3,2,Pin_2*%
%TO.N,POT2*%
X169400000Y-71300000D03*
%TO.P,J3,3,Pin_3*%
%TO.N,GND*%
X171900000Y-71300000D03*
%TD*%
D18*
%TO.P,TP3,1,1*%
%TO.N,SW3*%
X140200000Y-97100000D03*
%TD*%
D25*
%TO.P,R8,1*%
%TO.N,Net-(D3-K)*%
X168732500Y-58407500D03*
%TO.P,R8,2*%
%TO.N,GND*%
X166907500Y-58407500D03*
%TD*%
D18*
%TO.P,TP8,1,1*%
%TO.N,POT3*%
X181540000Y-87890000D03*
%TD*%
D11*
%TO.P,H1,1,1*%
%TO.N,GND*%
X112000000Y-55500000D03*
D12*
X112000000Y-55500000D03*
%TD*%
D27*
%TO.P,C7,1*%
%TO.N,/VCAP*%
X140905000Y-82650000D03*
%TO.P,C7,2*%
%TO.N,GND*%
X142455000Y-82650000D03*
%TD*%
D25*
%TO.P,R2,1*%
%TO.N,+3.3V*%
X136050000Y-87825000D03*
%TO.P,R2,2*%
%TO.N,SW2*%
X134225000Y-87825000D03*
%TD*%
D19*
%TO.P,C1,1*%
%TO.N,+3.3V*%
X130200000Y-69150000D03*
%TO.P,C1,2*%
%TO.N,GND*%
X130200000Y-67600000D03*
%TD*%
D11*
%TO.P,H4,1,1*%
%TO.N,GND*%
X183000000Y-96500000D03*
D12*
X183000000Y-96500000D03*
%TD*%
D31*
%TO.P,J7,1,VBUS*%
%TO.N,VBUS*%
X148775000Y-56970000D03*
%TO.P,J7,2,D-*%
%TO.N,/USB_D-*%
X148125000Y-56970000D03*
%TO.P,J7,3,D+*%
%TO.N,/USB_D+*%
X147475000Y-56970000D03*
%TO.P,J7,4,ID*%
%TO.N,unconnected-(J7-ID-Pad4)*%
X146825000Y-56970000D03*
%TO.P,J7,5,GND*%
%TO.N,GND*%
X146175000Y-56970000D03*
D32*
%TO.P,J7,6,Shield*%
%TO.N,unconnected-(J7-Shield-Pad6)*%
X151350000Y-53120000D03*
D33*
%TO.N,unconnected-(J7-Shield-Pad6)_1*%
X151200000Y-56920000D03*
%TO.N,unconnected-(J7-Shield-Pad6)_2*%
X143750000Y-56920000D03*
D32*
%TO.N,unconnected-(J7-Shield-Pad6)_3*%
X143600000Y-53120000D03*
%TD*%
D18*
%TO.P,TP2,1,1*%
%TO.N,GND*%
X115981508Y-91686825D03*
%TD*%
D15*
%TO.P,C17,1*%
%TO.N,+3.3V*%
X142450000Y-80900000D03*
%TO.P,C17,2*%
%TO.N,GND*%
X140900000Y-80900000D03*
%TD*%
D25*
%TO.P,R7,1*%
%TO.N,Net-(D2-K)*%
X168732500Y-56182500D03*
%TO.P,R7,2*%
%TO.N,GND*%
X166907500Y-56182500D03*
%TD*%
D34*
%TO.P,D4,1,K*%
%TO.N,Net-(D4-K)*%
X170682500Y-60657500D03*
%TO.P,D4,2,A*%
%TO.N,LED_3*%
X172257500Y-60657500D03*
%TD*%
%TO.P,D1,1,K*%
%TO.N,/PWR_LED_K*%
X120935000Y-57520000D03*
%TO.P,D1,2,A*%
%TO.N,+3.3V*%
X122510000Y-57520000D03*
%TD*%
D18*
%TO.P,TP9,1,1*%
%TO.N,POT5*%
X139630000Y-57270000D03*
%TD*%
D11*
%TO.P,H2,1,1*%
%TO.N,GND*%
X112000000Y-97000000D03*
D12*
X112000000Y-97000000D03*
%TD*%
D23*
%TO.P,J4,1,Pin_1*%
%TO.N,+3.3V*%
X166900000Y-82925000D03*
D24*
%TO.P,J4,2,Pin_2*%
%TO.N,POT4*%
X169400000Y-82925000D03*
%TO.P,J4,3,Pin_3*%
%TO.N,GND*%
X171900000Y-82925000D03*
%TD*%
D18*
%TO.P,TP1,1,1*%
%TO.N,+3.3V*%
X112581508Y-91686825D03*
%TD*%
D34*
%TO.P,D3,1,K*%
%TO.N,Net-(D3-K)*%
X170607500Y-58457500D03*
%TO.P,D3,2,A*%
%TO.N,LED_2*%
X172182500Y-58457500D03*
%TD*%
D18*
%TO.P,TP5,1,1*%
%TO.N,SW2*%
X130300000Y-97200000D03*
%TD*%
D34*
%TO.P,D2,1,K*%
%TO.N,Net-(D2-K)*%
X170632500Y-56257500D03*
%TO.P,D2,2,A*%
%TO.N,LED_1*%
X172207500Y-56257500D03*
%TD*%
D15*
%TO.P,C16,1*%
%TO.N,+3.3V*%
X135950000Y-80850000D03*
%TO.P,C16,2*%
%TO.N,GND*%
X134400000Y-80850000D03*
%TD*%
D29*
%TO.P,C24,1*%
%TO.N,/HSE_OUT*%
X127850000Y-74025000D03*
%TO.P,C24,2*%
%TO.N,GND*%
X127850000Y-75575000D03*
%TD*%
D23*
%TO.P,J2,1,Pin_1*%
%TO.N,+3.3V*%
X166900000Y-77200000D03*
D24*
%TO.P,J2,2,Pin_2*%
%TO.N,POT3*%
X169400000Y-77200000D03*
%TO.P,J2,3,Pin_3*%
%TO.N,GND*%
X171900000Y-77200000D03*
%TD*%
D25*
%TO.P,R9,1*%
%TO.N,Net-(D4-K)*%
X168682500Y-60707500D03*
%TO.P,R9,2*%
%TO.N,GND*%
X166857500Y-60707500D03*
%TD*%
D20*
%TO.P,J14,1,Pin_1*%
%TO.N,PB12*%
X177800000Y-84010000D03*
D21*
%TO.P,J14,2,Pin_2*%
%TO.N,PB13*%
X177800000Y-81470000D03*
%TO.P,J14,3,Pin_3*%
%TO.N,PB14*%
X177800000Y-78930000D03*
%TO.P,J14,4,Pin_4*%
%TO.N,PB15*%
X177800000Y-76390000D03*
%TD*%
D19*
%TO.P,C23,1*%
%TO.N,/HSE_IN*%
X127850000Y-72325000D03*
%TO.P,C23,2*%
%TO.N,GND*%
X127850000Y-70775000D03*
%TD*%
D25*
%TO.P,R1,1*%
%TO.N,+3.3V*%
X126225000Y-87875000D03*
%TO.P,R1,2*%
%TO.N,SW1*%
X124400000Y-87875000D03*
%TD*%
D35*
%TO.P,U2,1,GND*%
%TO.N,GND*%
X153850000Y-72600000D03*
%TO.P,U2,2,VO*%
%TO.N,+3.3V*%
X151550000Y-72600000D03*
D36*
X151550000Y-78900000D03*
D35*
%TO.P,U2,3,VI*%
%TO.N,VBUS*%
X149250000Y-72600000D03*
%TD*%
D18*
%TO.P,TP12,1,1*%
%TO.N,Net-(U1-NRST)*%
X125390000Y-63080000D03*
%TD*%
%TO.P,TP11,1,1*%
%TO.N,POT2*%
X160520000Y-69220000D03*
%TD*%
D37*
%TO.N,GND*%
X164600000Y-99650000D03*
X182860000Y-63710000D03*
X109600000Y-96900000D03*
X186050000Y-68550000D03*
D38*
X147300000Y-69300000D03*
D37*
X131080000Y-81160000D03*
X186050000Y-93550000D03*
X185400000Y-55400000D03*
X179600000Y-99650000D03*
X180600000Y-96400000D03*
X163460000Y-59450000D03*
X163420000Y-57410000D03*
X186050000Y-78550000D03*
X170210000Y-68590000D03*
X141200000Y-58330000D03*
D38*
X164260000Y-82710000D03*
D37*
X114950000Y-52650000D03*
X111090000Y-81300000D03*
X146060000Y-97700000D03*
X117481508Y-91686825D03*
X109600000Y-55400000D03*
X176670000Y-94940000D03*
X137470000Y-71380000D03*
X183100000Y-57800000D03*
X112000000Y-94700000D03*
X124550000Y-67160000D03*
X180600000Y-55300000D03*
X124600000Y-99650000D03*
X112100000Y-57900000D03*
X109150000Y-88650000D03*
X124380000Y-79970000D03*
X170730000Y-78920000D03*
X145640000Y-82550000D03*
X126470000Y-97620000D03*
X186050000Y-88550000D03*
X109150000Y-83650000D03*
X117070000Y-65980000D03*
X183840000Y-91410000D03*
X119600000Y-99650000D03*
X134600000Y-99650000D03*
X173980000Y-59570000D03*
X146570000Y-62830000D03*
X149600000Y-99650000D03*
X183000000Y-94200000D03*
X117110000Y-95840000D03*
X139950000Y-52650000D03*
X112000000Y-53200000D03*
X161150000Y-93450000D03*
X129600000Y-99650000D03*
X140240000Y-63720000D03*
X129950000Y-52650000D03*
X159190000Y-87600000D03*
X112900000Y-88700000D03*
X174600000Y-99650000D03*
X154950000Y-52650000D03*
X186050000Y-63550000D03*
X169600000Y-99650000D03*
X156780000Y-97860000D03*
X158340000Y-69180000D03*
X132260000Y-80650000D03*
X149870000Y-87620000D03*
X133210000Y-82020000D03*
X142470000Y-83880000D03*
X186050000Y-58550000D03*
X136070000Y-77050000D03*
X119950000Y-52650000D03*
X122600000Y-84660000D03*
X121410000Y-63710000D03*
X109150000Y-73650000D03*
X124950000Y-52650000D03*
X185400000Y-96500000D03*
X109150000Y-78650000D03*
X159600000Y-99650000D03*
X111200000Y-71190000D03*
X162000000Y-76570000D03*
X186050000Y-83550000D03*
X159950000Y-52650000D03*
X166870000Y-93580000D03*
X183000000Y-53100000D03*
X109150000Y-68650000D03*
X156430000Y-65460000D03*
X178320000Y-58560000D03*
X183100000Y-98900000D03*
X139600000Y-99650000D03*
X130520000Y-87790000D03*
X178170000Y-88420000D03*
X141450000Y-71480000D03*
X169950000Y-52650000D03*
X147250000Y-52750000D03*
X118170000Y-77080000D03*
X163310000Y-78380000D03*
X140290000Y-77080000D03*
X136430000Y-97530000D03*
X109150000Y-93650000D03*
X112100000Y-99400000D03*
X114400000Y-97000000D03*
X137240000Y-69180000D03*
X181800000Y-69210000D03*
X144600000Y-99650000D03*
X114560000Y-59270000D03*
X154600000Y-99650000D03*
X134950000Y-52650000D03*
X114400000Y-55500000D03*
X140210000Y-88160000D03*
X109150000Y-63650000D03*
X114600000Y-99650000D03*
X183420000Y-77910000D03*
X186050000Y-73550000D03*
X179950000Y-52650000D03*
X136160000Y-64360000D03*
D38*
X179860000Y-77640000D03*
D37*
X164950000Y-52650000D03*
X174950000Y-52650000D03*
X109150000Y-58650000D03*
X133850000Y-83480000D03*
%TO.N,+3.3V*%
X150330000Y-76960000D03*
X151450000Y-76990000D03*
X123660000Y-57550000D03*
X127560000Y-87880000D03*
X135950000Y-82000000D03*
X114181508Y-91686825D03*
X137390000Y-87820000D03*
X146520000Y-66590000D03*
X143740000Y-80910000D03*
X147360000Y-87890000D03*
X128800000Y-69170000D03*
X132570000Y-63480000D03*
X152530000Y-76990000D03*
X156570000Y-87700000D03*
X132070000Y-83920000D03*
%TO.N,/USART1_RX*%
X139930000Y-70110000D03*
%TO.N,/USART1_TX*%
X143500000Y-78900000D03*
%TO.N,POT1*%
X135200000Y-72800000D03*
%TO.N,POT3*%
X134870000Y-75000000D03*
%TO.N,POT2*%
X135200000Y-74000000D03*
%TO.N,POT4*%
X134650000Y-75950000D03*
%TO.N,POT5*%
X135070000Y-68650000D03*
%TO.N,PC7*%
X173800000Y-73400000D03*
X171100000Y-73400000D03*
%TO.N,PB12*%
X145600000Y-79500000D03*
%TO.N,PB14*%
X146200000Y-76900000D03*
%TO.N,PB13*%
X145900000Y-78200000D03*
D38*
%TO.N,SW3*%
X138550000Y-84300000D03*
X142780000Y-87900000D03*
%TO.N,SW4*%
X151870000Y-87710000D03*
X139580000Y-84050000D03*
D37*
%TO.N,LED_1*%
X173500000Y-56300000D03*
X139830000Y-68830000D03*
%TO.N,LED_2*%
X176610000Y-56500000D03*
X138800000Y-65200000D03*
%TO.N,LED_3*%
X173500000Y-60800000D03*
X139800000Y-65200000D03*
%TD*%
D39*
%TO.N,GND*%
X143825000Y-69625000D02*
X145775000Y-69625000D01*
X134900000Y-78550000D02*
X134900000Y-79429534D01*
X140900000Y-80900000D02*
X140900000Y-80300000D01*
X141400000Y-79800000D02*
X141400000Y-78550000D01*
X134900000Y-67200000D02*
X134900000Y-65750000D01*
X130900000Y-74000000D02*
X130250000Y-74000000D01*
X145775000Y-69625000D02*
X145900000Y-69500000D01*
X134900000Y-65750000D02*
X135450000Y-65200000D01*
X134900000Y-79429534D02*
X134400000Y-79929534D01*
X140900000Y-80300000D02*
X141400000Y-79800000D01*
X132475000Y-74625000D02*
X131525000Y-74625000D01*
X115981508Y-91686825D02*
X117481508Y-91686825D01*
X134400000Y-79929534D02*
X134400000Y-80850000D01*
X140900000Y-81095000D02*
X142455000Y-82650000D01*
X131525000Y-74625000D02*
X130900000Y-74000000D01*
X140900000Y-80900000D02*
X140900000Y-81095000D01*
%TO.N,+3.3V*%
X145900000Y-67950000D02*
X145900000Y-67210000D01*
X133900000Y-65200000D02*
X133900000Y-63475000D01*
X135950000Y-80200000D02*
X135950000Y-80850000D01*
X134400000Y-65700000D02*
X133900000Y-65200000D01*
X128820000Y-69150000D02*
X128800000Y-69170000D01*
D40*
X130750000Y-83925000D02*
X132065000Y-83925000D01*
X146050000Y-87875000D02*
X147345000Y-87875000D01*
D39*
X134400000Y-67200000D02*
X134400000Y-65700000D01*
X142450000Y-80900000D02*
X142450000Y-80350000D01*
X135400000Y-79650000D02*
X135950000Y-80200000D01*
X142450000Y-80350000D02*
X141900000Y-79800000D01*
X141900000Y-79800000D02*
X141900000Y-78550000D01*
X133875000Y-63450000D02*
X132600000Y-63450000D01*
X123630000Y-57520000D02*
X123660000Y-57550000D01*
X135950000Y-80850000D02*
X135950000Y-82000000D01*
X130225000Y-69125000D02*
X130200000Y-69150000D01*
X143730000Y-80900000D02*
X143740000Y-80910000D01*
X144725000Y-69125000D02*
X145900000Y-67950000D01*
X122510000Y-57520000D02*
X123630000Y-57520000D01*
X143825000Y-69125000D02*
X144725000Y-69125000D01*
D40*
X155225000Y-87700000D02*
X156570000Y-87700000D01*
X137385000Y-87825000D02*
X137390000Y-87820000D01*
X127555000Y-87875000D02*
X127560000Y-87880000D01*
D39*
X145900000Y-67210000D02*
X146520000Y-66590000D01*
X135400000Y-78550000D02*
X135400000Y-79650000D01*
X142450000Y-80900000D02*
X143730000Y-80900000D01*
D40*
X130750000Y-83925000D02*
X128900000Y-83925000D01*
D39*
X132600000Y-63450000D02*
X132570000Y-63480000D01*
D40*
X132065000Y-83925000D02*
X132070000Y-83920000D01*
X147345000Y-87875000D02*
X147360000Y-87890000D01*
D39*
X130200000Y-69150000D02*
X128820000Y-69150000D01*
X132475000Y-69125000D02*
X130225000Y-69125000D01*
D40*
X126225000Y-87875000D02*
X127555000Y-87875000D01*
D39*
X112581508Y-91686825D02*
X114181508Y-91686825D01*
X133900000Y-63475000D02*
X133875000Y-63450000D01*
D40*
X136050000Y-87825000D02*
X137385000Y-87825000D01*
D39*
%TO.N,+3.3VA*%
X132475000Y-75125000D02*
X131575000Y-75125000D01*
D40*
X128900000Y-82350000D02*
X128900000Y-80550000D01*
X130250000Y-79940000D02*
X130250000Y-75550000D01*
D39*
X131150000Y-75550000D02*
X130250000Y-75550000D01*
D40*
X128900000Y-80550000D02*
X129640000Y-80550000D01*
X129640000Y-80550000D02*
X130250000Y-79940000D01*
D39*
X131575000Y-75125000D02*
X131150000Y-75550000D01*
%TO.N,Net-(U1-NRST)*%
X125390000Y-63080000D02*
X127520000Y-63080000D01*
X130000000Y-65000000D02*
X128200000Y-65000000D01*
X134100000Y-69100000D02*
X130000000Y-65000000D01*
X128200000Y-63760000D02*
X128200000Y-65000000D01*
X127520000Y-63080000D02*
X128200000Y-63760000D01*
X134100000Y-71400000D02*
X134100000Y-69100000D01*
X132475000Y-72125000D02*
X133375000Y-72125000D01*
X133375000Y-72125000D02*
X134100000Y-71400000D01*
%TO.N,/HSE_IN*%
X123800000Y-72200000D02*
X124900000Y-73300000D01*
X127850000Y-72325000D02*
X128675000Y-72325000D01*
X129875000Y-71125000D02*
X132475000Y-71125000D01*
X126200000Y-73300000D02*
X127175000Y-72325000D01*
X124900000Y-73300000D02*
X126200000Y-73300000D01*
X128675000Y-72325000D02*
X129875000Y-71125000D01*
X127175000Y-72325000D02*
X127850000Y-72325000D01*
%TO.N,/HSE_OUT*%
X125500000Y-74400000D02*
X127475000Y-74400000D01*
X130250000Y-71625000D02*
X127850000Y-74025000D01*
X127475000Y-74400000D02*
X127850000Y-74025000D01*
X132475000Y-71625000D02*
X130250000Y-71625000D01*
D40*
%TO.N,/PWR_LED_K*%
X119260000Y-57510000D02*
X120925000Y-57510000D01*
X120925000Y-57510000D02*
X120935000Y-57520000D01*
D39*
%TO.N,/USART1_RX*%
X140900000Y-67200000D02*
X140900000Y-69140000D01*
X140900000Y-69140000D02*
X139930000Y-70110000D01*
%TO.N,/USART1_TX*%
X143500000Y-78100000D02*
X143500000Y-78900000D01*
X142375000Y-73125000D02*
X142000000Y-73500000D01*
X142000000Y-73500000D02*
X142000000Y-76600000D01*
X142000000Y-76600000D02*
X143500000Y-78100000D01*
X143825000Y-73125000D02*
X142375000Y-73125000D01*
%TO.N,/SWCLK*%
X114200000Y-64600000D02*
X114200000Y-80500000D01*
X141900000Y-62600000D02*
X140400000Y-61100000D01*
X114200000Y-80500000D02*
X114860000Y-81160000D01*
X114860000Y-81160000D02*
X116775000Y-81160000D01*
X141900000Y-67200000D02*
X141900000Y-62600000D01*
X117700000Y-61100000D02*
X114200000Y-64600000D01*
X140400000Y-61100000D02*
X117700000Y-61100000D01*
%TO.N,/SWDIO*%
X114600000Y-83700000D02*
X116775000Y-83700000D01*
X143100000Y-67900000D02*
X143100000Y-62200000D01*
X113100000Y-64100000D02*
X113100000Y-82200000D01*
X142300000Y-68700000D02*
X143100000Y-67900000D01*
X143825000Y-70125000D02*
X142825000Y-70125000D01*
X141000000Y-60100000D02*
X117100000Y-60100000D01*
X113100000Y-82200000D02*
X114600000Y-83700000D01*
X117100000Y-60100000D02*
X113100000Y-64100000D01*
X143100000Y-62200000D02*
X141000000Y-60100000D01*
X142825000Y-70125000D02*
X142300000Y-69600000D01*
X142300000Y-69600000D02*
X142300000Y-68700000D01*
D41*
%TO.N,/USB_D-*%
X148125000Y-56900000D02*
X148125000Y-57875001D01*
X148125000Y-57875001D02*
X148025000Y-57975001D01*
X148025000Y-60856802D02*
X149225000Y-62056802D01*
X143825000Y-71125000D02*
X144987501Y-71125000D01*
X147668198Y-71100000D02*
X149225000Y-69543198D01*
X145012501Y-71100000D02*
X147668198Y-71100000D01*
X144987501Y-71125000D02*
X145012501Y-71100000D01*
X149225000Y-69543198D02*
X149225000Y-62056802D01*
X148025000Y-57975001D02*
X148025000Y-60856802D01*
%TO.N,/USB_D+*%
X144987501Y-70625000D02*
X145012501Y-70650000D01*
X143825000Y-70625000D02*
X144987501Y-70625000D01*
X147481802Y-70650000D02*
X148775000Y-69356802D01*
X147475000Y-57875001D02*
X147575000Y-57975001D01*
X147575000Y-61043198D02*
X148775000Y-62243198D01*
X147575000Y-57975001D02*
X147575000Y-61043198D01*
X147475000Y-56900000D02*
X147475000Y-57875001D01*
X148775000Y-69356802D02*
X148775000Y-62243198D01*
X145012501Y-70650000D02*
X147481802Y-70650000D01*
D39*
%TO.N,Net-(U1-BOOT0)*%
X136400000Y-66200000D02*
X137300000Y-65300000D01*
X136400000Y-67200000D02*
X136400000Y-66200000D01*
X137300000Y-65300000D02*
X137300000Y-63450000D01*
%TO.N,POT1*%
X134375000Y-73125000D02*
X132475000Y-73125000D01*
X168970000Y-63050000D02*
X169400000Y-63480000D01*
X160480000Y-63050000D02*
X168970000Y-63050000D01*
X134700000Y-72800000D02*
X134375000Y-73125000D01*
X169400000Y-63480000D02*
X169400000Y-65200000D01*
X135200000Y-72800000D02*
X134700000Y-72800000D01*
%TO.N,POT3*%
X181540000Y-75850000D02*
X181540000Y-87890000D01*
X169840000Y-75460000D02*
X174870000Y-75460000D01*
X175660000Y-74670000D02*
X180360000Y-74670000D01*
X180360000Y-74670000D02*
X181540000Y-75850000D01*
X134704987Y-74834987D02*
X134704987Y-74804987D01*
X134870000Y-75000000D02*
X134704987Y-74834987D01*
X174870000Y-75460000D02*
X175660000Y-74670000D01*
X134025000Y-74125000D02*
X132475000Y-74125000D01*
X169400000Y-75900000D02*
X169840000Y-75460000D01*
X134704987Y-74804987D02*
X134025000Y-74125000D01*
X169400000Y-77200000D02*
X169400000Y-75900000D01*
%TO.N,POT2*%
X160520000Y-69220000D02*
X168930000Y-69220000D01*
X134325000Y-73625000D02*
X134700000Y-74000000D01*
X169400000Y-69690000D02*
X169400000Y-71300000D01*
X132475000Y-73625000D02*
X134325000Y-73625000D01*
X134700000Y-74000000D02*
X135200000Y-74000000D01*
X168930000Y-69220000D02*
X169400000Y-69690000D01*
%TO.N,POT4*%
X176160000Y-91580000D02*
X176230000Y-91510000D01*
X134650000Y-75950000D02*
X134325000Y-75625000D01*
X134325000Y-75625000D02*
X132475000Y-75625000D01*
X169400000Y-82925000D02*
X169400000Y-84820000D01*
X176230000Y-91510000D02*
X181540000Y-91510000D01*
X169400000Y-84820000D02*
X176160000Y-91580000D01*
%TO.N,POT5*%
X131350000Y-58500000D02*
X132870000Y-56980000D01*
X135070000Y-68760000D02*
X135070000Y-68650000D01*
X135060000Y-71400000D02*
X133835000Y-72625000D01*
X135070000Y-68650000D02*
X135060000Y-68660000D01*
X139340000Y-56980000D02*
X139630000Y-57270000D01*
X133835000Y-72625000D02*
X132475000Y-72625000D01*
X132870000Y-56980000D02*
X139340000Y-56980000D01*
X135060000Y-68660000D02*
X135060000Y-71400000D01*
%TO.N,PC7*%
X177680000Y-72700000D02*
X177800000Y-72820000D01*
X154300000Y-81300000D02*
X156100000Y-79500000D01*
X143825000Y-74125000D02*
X147225000Y-74125000D01*
X173800000Y-73400000D02*
X174500000Y-72700000D01*
X174500000Y-72700000D02*
X177680000Y-72700000D01*
X148600000Y-80500000D02*
X149400000Y-81300000D01*
X158700000Y-73400000D02*
X171100000Y-73400000D01*
X149400000Y-81300000D02*
X154300000Y-81300000D01*
X156100000Y-76000000D02*
X158700000Y-73400000D01*
X148600000Y-75500000D02*
X148600000Y-80500000D01*
X156100000Y-79500000D02*
X156100000Y-76000000D01*
X147225000Y-74125000D02*
X148600000Y-75500000D01*
%TO.N,PC6*%
X171300000Y-74500000D02*
X175520000Y-70280000D01*
X146725000Y-74625000D02*
X147800000Y-75700000D01*
X157200000Y-76300000D02*
X159000000Y-74500000D01*
X159000000Y-74500000D02*
X171300000Y-74500000D01*
X147800000Y-80800000D02*
X149000000Y-82000000D01*
X175520000Y-70280000D02*
X177800000Y-70280000D01*
X157200000Y-79800000D02*
X157200000Y-76300000D01*
X147800000Y-75700000D02*
X147800000Y-80800000D01*
X143825000Y-74625000D02*
X146725000Y-74625000D01*
X149000000Y-82000000D02*
X155000000Y-82000000D01*
X155000000Y-82000000D02*
X157200000Y-79800000D01*
%TO.N,PB15*%
X146900000Y-81200000D02*
X148900000Y-83200000D01*
X158600000Y-80100000D02*
X174000000Y-80100000D01*
X146225000Y-75125000D02*
X146900000Y-75800000D01*
X146900000Y-75800000D02*
X146900000Y-81200000D01*
X143825000Y-75125000D02*
X146225000Y-75125000D01*
X155500000Y-83200000D02*
X158600000Y-80100000D01*
X175910000Y-76390000D02*
X177800000Y-76390000D01*
X148900000Y-83200000D02*
X155500000Y-83200000D01*
X175000000Y-77300000D02*
X175910000Y-76390000D01*
X174000000Y-80100000D02*
X175000000Y-79100000D01*
X175000000Y-79100000D02*
X175000000Y-77300000D01*
%TO.N,PB12*%
X143825000Y-77425000D02*
X143825000Y-76625000D01*
X144800000Y-78400000D02*
X143825000Y-77425000D01*
X144800000Y-78700000D02*
X144800000Y-78400000D01*
X145600000Y-79500000D02*
X144800000Y-78700000D01*
%TO.N,PB14*%
X146155025Y-76055025D02*
X145725000Y-75625000D01*
X145725000Y-75625000D02*
X143825000Y-75625000D01*
X146155025Y-76855025D02*
X146155025Y-76055025D01*
X146200000Y-76900000D02*
X146155025Y-76855025D01*
%TO.N,/VCAP*%
X139750000Y-82240000D02*
X140160000Y-82650000D01*
X140900000Y-79450000D02*
X139750000Y-80600000D01*
X139750000Y-80600000D02*
X139750000Y-82240000D01*
X140900000Y-78550000D02*
X140900000Y-79450000D01*
X140160000Y-82650000D02*
X140905000Y-82650000D01*
%TO.N,PB13*%
X143825000Y-76125000D02*
X145025000Y-76125000D01*
X145500000Y-76600000D02*
X145500000Y-77400000D01*
X145500000Y-77800000D02*
X145900000Y-78200000D01*
X145025000Y-76125000D02*
X145500000Y-76600000D01*
X145500000Y-77400000D02*
X145500000Y-77800000D01*
%TO.N,SW1*%
X133970000Y-85620000D02*
X125260000Y-85620000D01*
X137400000Y-78550000D02*
X137400000Y-82190000D01*
X124125000Y-91500000D02*
X124125000Y-89775000D01*
X124400000Y-86480000D02*
X124400000Y-87875000D01*
X137400000Y-82190000D02*
X133970000Y-85620000D01*
X120600000Y-97100000D02*
X120600000Y-92900000D01*
X124125000Y-89775000D02*
X124400000Y-89500000D01*
X120600000Y-92900000D02*
X122000000Y-91500000D01*
X124400000Y-89500000D02*
X124400000Y-87875000D01*
X124125000Y-88150000D02*
X124400000Y-87875000D01*
X125260000Y-85620000D02*
X124400000Y-86480000D01*
X122000000Y-91500000D02*
X124125000Y-91500000D01*
%TO.N,SW2*%
X137900000Y-82860000D02*
X134225000Y-86535000D01*
X137900000Y-78550000D02*
X137900000Y-82860000D01*
X134225000Y-86535000D02*
X134225000Y-87825000D01*
X130300000Y-92800000D02*
X131625000Y-91475000D01*
X134025000Y-88025000D02*
X134225000Y-87825000D01*
X130300000Y-97200000D02*
X130300000Y-92800000D01*
X131625000Y-91475000D02*
X134025000Y-91475000D01*
X134025000Y-91475000D02*
X134025000Y-88025000D01*
%TO.N,SW3*%
X142780000Y-87900000D02*
X144200000Y-87900000D01*
X138550000Y-84300000D02*
X138400000Y-84150000D01*
X140200000Y-97100000D02*
X140200000Y-92800000D01*
X143825000Y-91475000D02*
X143825000Y-89775000D01*
X141400000Y-91600000D02*
X143700000Y-91600000D01*
X143700000Y-91600000D02*
X143825000Y-91475000D01*
X144200000Y-87900000D02*
X144225000Y-87875000D01*
X144225000Y-89375000D02*
X144225000Y-87875000D01*
X140200000Y-92800000D02*
X141400000Y-91600000D01*
X138400000Y-84150000D02*
X138400000Y-78550000D01*
X143825000Y-89775000D02*
X144225000Y-89375000D01*
%TO.N,SW4*%
X151870000Y-87710000D02*
X153390000Y-87710000D01*
X149700000Y-93000000D02*
X151200000Y-91500000D01*
X138900000Y-83370000D02*
X139580000Y-84050000D01*
X153500000Y-91500000D02*
X153500000Y-87800000D01*
X138900000Y-78550000D02*
X138900000Y-83370000D01*
X151200000Y-91500000D02*
X153500000Y-91500000D01*
X153500000Y-87800000D02*
X153400000Y-87700000D01*
X153390000Y-87710000D02*
X153400000Y-87700000D01*
X149700000Y-97100000D02*
X149700000Y-93000000D01*
%TO.N,Net-(D2-K)*%
X168732500Y-56182500D02*
X170557500Y-56182500D01*
X170557500Y-56182500D02*
X170632500Y-56257500D01*
%TO.N,LED_1*%
X139400000Y-68400000D02*
X139400000Y-67200000D01*
X173500000Y-56300000D02*
X172250000Y-56300000D01*
X139830000Y-68830000D02*
X139400000Y-68400000D01*
X172250000Y-56300000D02*
X172207500Y-56257500D01*
%TO.N,LED_2*%
X174860000Y-58500000D02*
X172225000Y-58500000D01*
X172225000Y-58500000D02*
X172182500Y-58457500D01*
X139900000Y-66300000D02*
X138800000Y-65200000D01*
X176610000Y-56500000D02*
X176610000Y-56750000D01*
X139900000Y-67200000D02*
X139900000Y-66300000D01*
X176610000Y-56750000D02*
X174860000Y-58500000D01*
%TO.N,Net-(D3-K)*%
X168732500Y-58407500D02*
X170557500Y-58407500D01*
X170557500Y-58407500D02*
X170607500Y-58457500D01*
%TO.N,LED_3*%
X140400000Y-65800000D02*
X139800000Y-65200000D01*
X172400000Y-60800000D02*
X172257500Y-60657500D01*
X173500000Y-60800000D02*
X172400000Y-60800000D01*
X140400000Y-67200000D02*
X140400000Y-65800000D01*
%TO.N,Net-(D4-K)*%
X168682500Y-60707500D02*
X170632500Y-60707500D01*
X170632500Y-60707500D02*
X170682500Y-60657500D01*
%TD*%
%TA.AperFunction,Conductor*%
%TO.N,VBUS*%
G36*
X149055702Y-56337298D02*
G01*
X149076450Y-56360428D01*
X149450000Y-56900000D01*
X149915525Y-57342393D01*
X149963971Y-57388432D01*
X149999007Y-57448882D01*
X150001024Y-57458917D01*
X150004675Y-57481970D01*
X150004676Y-57481972D01*
X150064285Y-57665429D01*
X150151859Y-57837302D01*
X150265241Y-57993359D01*
X150401641Y-58129759D01*
X150557698Y-58243141D01*
X150638326Y-58284223D01*
X150729566Y-58330713D01*
X150729568Y-58330713D01*
X150729571Y-58330715D01*
X150835542Y-58365147D01*
X150913021Y-58390322D01*
X150913022Y-58390322D01*
X150913028Y-58390324D01*
X151039293Y-58410322D01*
X151060000Y-58430000D01*
X151106363Y-58420500D01*
X151126927Y-58420500D01*
X151296448Y-58420500D01*
X151296449Y-58420500D01*
X151486972Y-58390324D01*
X151670429Y-58330715D01*
X151740118Y-58295206D01*
X151771494Y-58284223D01*
X156368326Y-57342391D01*
X156391925Y-57339877D01*
X158196543Y-57321272D01*
X158263779Y-57340264D01*
X158310076Y-57392593D01*
X158321806Y-57443451D01*
X158349302Y-59322339D01*
X158330600Y-59389659D01*
X158318592Y-59405856D01*
X152419999Y-66139999D01*
X152400425Y-68009388D01*
X152380040Y-68076218D01*
X152375632Y-68082490D01*
X152137200Y-68400400D01*
X152081229Y-68442221D01*
X152038000Y-68450000D01*
X151200000Y-68450000D01*
X151011722Y-68936922D01*
X150983749Y-68979883D01*
X150857287Y-69106345D01*
X150765187Y-69255663D01*
X150765185Y-69255668D01*
X150750000Y-69301494D01*
X150710001Y-69422203D01*
X150710001Y-69422204D01*
X150710000Y-69422204D01*
X150699500Y-69524983D01*
X150699500Y-70575001D01*
X150699501Y-70575019D01*
X150710000Y-70677796D01*
X150710001Y-70677799D01*
X150765185Y-70844331D01*
X150765192Y-70844345D01*
X150786510Y-70878908D01*
X150804950Y-70946300D01*
X150784027Y-71012963D01*
X150752480Y-71045307D01*
X150250000Y-71399999D01*
X150200879Y-73217464D01*
X150183253Y-73277911D01*
X149936122Y-73689797D01*
X149884751Y-73737156D01*
X149829793Y-73750000D01*
X148707032Y-73750000D01*
X148639993Y-73730315D01*
X148612884Y-73706698D01*
X148379852Y-73434827D01*
X148351169Y-73371116D01*
X148350000Y-73354129D01*
X148350000Y-71648693D01*
X148369685Y-71581654D01*
X148383134Y-71564317D01*
X148981429Y-70920000D01*
X149648440Y-70201680D01*
X149651625Y-70198375D01*
X149750000Y-70100000D01*
X149752854Y-69861680D01*
X149769457Y-69801170D01*
X149784577Y-69774982D01*
X149825501Y-69622255D01*
X149825501Y-69464140D01*
X149825501Y-69456545D01*
X149825500Y-69456527D01*
X149825500Y-63796483D01*
X149825509Y-63794998D01*
X149850000Y-61750000D01*
X149849999Y-61749999D01*
X148663626Y-60611080D01*
X148628897Y-60550453D01*
X148625500Y-60521628D01*
X148625500Y-58242335D01*
X148634094Y-58196976D01*
X148637481Y-58188357D01*
X148684577Y-58106785D01*
X148714969Y-57993359D01*
X148719523Y-57976363D01*
X148740027Y-57934155D01*
X148793796Y-57862331D01*
X148844091Y-57727483D01*
X148850500Y-57667873D01*
X148850499Y-56431010D01*
X148870184Y-56363972D01*
X148922987Y-56318217D01*
X148992146Y-56308273D01*
X149055702Y-56337298D01*
G37*
%TD.AperFunction*%
%TD*%
%TA.AperFunction,Conductor*%
%TO.N,+3.3V*%
G36*
X152115677Y-69219685D02*
G01*
X152136319Y-69236319D01*
X152264097Y-69364097D01*
X152297582Y-69425420D01*
X152300412Y-69450770D01*
X152331147Y-73231118D01*
X152350000Y-75550000D01*
X152500000Y-75750000D01*
X154169468Y-77664979D01*
X154198684Y-77728445D01*
X154200000Y-77746462D01*
X154200000Y-79903744D01*
X154180315Y-79970783D01*
X154169708Y-79984952D01*
X153630848Y-80606713D01*
X153572070Y-80644480D01*
X153537146Y-80649500D01*
X149720808Y-80649500D01*
X149653769Y-80629815D01*
X149633127Y-80613181D01*
X149286819Y-80266873D01*
X149253334Y-80205550D01*
X149250500Y-80179192D01*
X149250500Y-77055640D01*
X149270185Y-76988601D01*
X149282083Y-76972965D01*
X150600000Y-75500000D01*
X150600000Y-73600194D01*
X150616082Y-73542149D01*
X150614887Y-73541533D01*
X150616707Y-73538001D01*
X150616716Y-73537988D01*
X150668542Y-73419419D01*
X150686168Y-73358972D01*
X150706194Y-73231121D01*
X150746791Y-71729005D01*
X150768280Y-71662523D01*
X150799235Y-71631053D01*
X151043993Y-71458284D01*
X151114353Y-71398263D01*
X151145900Y-71365919D01*
X151204145Y-71294088D01*
X151266329Y-71164339D01*
X151285842Y-71102167D01*
X151286580Y-71100097D01*
X151287254Y-71097671D01*
X151310362Y-70955662D01*
X151310363Y-70955660D01*
X151292527Y-70812891D01*
X151292527Y-70812890D01*
X151292527Y-70812888D01*
X151274087Y-70745496D01*
X151237871Y-70662141D01*
X151233898Y-70651741D01*
X151211529Y-70584239D01*
X151205874Y-70557810D01*
X151205637Y-70555491D01*
X151205000Y-70542936D01*
X151205000Y-69557058D01*
X151205637Y-69544501D01*
X151205872Y-69542200D01*
X151211525Y-69515773D01*
X151221888Y-69484498D01*
X151234050Y-69458417D01*
X151248902Y-69434338D01*
X151266751Y-69411763D01*
X151341191Y-69337325D01*
X151407364Y-69255710D01*
X151407376Y-69255691D01*
X151409259Y-69253106D01*
X151409395Y-69253205D01*
X151409398Y-69253202D01*
X151409460Y-69253252D01*
X151410052Y-69253683D01*
X151460041Y-69210896D01*
X151510868Y-69200000D01*
X152048638Y-69200000D01*
X152115677Y-69219685D01*
G37*
%TD.AperFunction*%
%TD*%
%TA.AperFunction,Conductor*%
%TO.N,GND*%
G36*
X136154293Y-68462689D02*
G01*
X136166302Y-68462689D01*
X136166705Y-68459626D01*
X136174763Y-68460686D01*
X136174764Y-68460687D01*
X136287280Y-68475500D01*
X136287287Y-68475500D01*
X136512713Y-68475500D01*
X136512720Y-68475500D01*
X136625236Y-68460687D01*
X136625236Y-68460686D01*
X136633295Y-68459626D01*
X136633698Y-68462689D01*
X136666302Y-68462689D01*
X136666705Y-68459626D01*
X136674763Y-68460686D01*
X136674764Y-68460687D01*
X136787280Y-68475500D01*
X136787287Y-68475500D01*
X137012713Y-68475500D01*
X137012720Y-68475500D01*
X137125236Y-68460687D01*
X137125236Y-68460686D01*
X137133295Y-68459626D01*
X137133698Y-68462689D01*
X137166302Y-68462689D01*
X137166705Y-68459626D01*
X137174763Y-68460686D01*
X137174764Y-68460687D01*
X137287280Y-68475500D01*
X137287287Y-68475500D01*
X137512713Y-68475500D01*
X137512720Y-68475500D01*
X137625236Y-68460687D01*
X137625236Y-68460686D01*
X137633295Y-68459626D01*
X137633698Y-68462689D01*
X137666302Y-68462689D01*
X137666705Y-68459626D01*
X137674763Y-68460686D01*
X137674764Y-68460687D01*
X137787280Y-68475500D01*
X137787287Y-68475500D01*
X138012713Y-68475500D01*
X138012720Y-68475500D01*
X138125236Y-68460687D01*
X138125236Y-68460686D01*
X138133295Y-68459626D01*
X138133698Y-68462689D01*
X138166302Y-68462689D01*
X138166705Y-68459626D01*
X138174763Y-68460686D01*
X138174764Y-68460687D01*
X138287280Y-68475500D01*
X138287287Y-68475500D01*
X138512713Y-68475500D01*
X138512720Y-68475500D01*
X138625236Y-68460687D01*
X138625237Y-68460686D01*
X138630528Y-68459990D01*
X138699564Y-68470755D01*
X138751820Y-68517135D01*
X138768331Y-68558738D01*
X138774497Y-68589736D01*
X138774499Y-68589744D01*
X138808882Y-68672753D01*
X138823535Y-68708127D01*
X138866115Y-68771853D01*
X138894726Y-68814673D01*
X138949345Y-68869292D01*
X138982830Y-68930615D01*
X138983281Y-68932781D01*
X139012182Y-69078076D01*
X139012184Y-69078082D01*
X139076295Y-69232860D01*
X139169373Y-69372162D01*
X139235737Y-69438526D01*
X139269222Y-69499849D01*
X139264238Y-69569541D01*
X139251159Y-69595097D01*
X139176295Y-69707140D01*
X139112184Y-69861917D01*
X139112182Y-69861925D01*
X139079500Y-70026228D01*
X139079500Y-70193771D01*
X139112182Y-70358074D01*
X139112184Y-70358082D01*
X139176295Y-70512860D01*
X139269373Y-70652162D01*
X139387837Y-70770626D01*
X139480494Y-70832537D01*
X139527137Y-70863703D01*
X139527138Y-70863703D01*
X139527139Y-70863704D01*
X139541837Y-70869792D01*
X139681918Y-70927816D01*
X139846228Y-70960499D01*
X139846232Y-70960500D01*
X139846233Y-70960500D01*
X140013768Y-70960500D01*
X140013769Y-70960499D01*
X140178082Y-70927816D01*
X140332863Y-70863703D01*
X140472162Y-70770626D01*
X140590626Y-70652162D01*
X140683703Y-70512863D01*
X140747816Y-70358082D01*
X140776718Y-70212776D01*
X140809102Y-70150869D01*
X140810596Y-70149348D01*
X141405276Y-69554669D01*
X141422397Y-69529044D01*
X141442851Y-69511950D01*
X141460742Y-69492188D01*
X141469248Y-69489889D01*
X141476009Y-69484240D01*
X141502456Y-69480917D01*
X141528193Y-69473964D01*
X141536591Y-69476629D01*
X141545334Y-69475531D01*
X141569381Y-69487036D01*
X141594789Y-69495100D01*
X141600413Y-69501883D01*
X141608362Y-69505686D01*
X141622371Y-69528364D01*
X141639387Y-69548886D01*
X141641560Y-69559429D01*
X141645081Y-69565128D01*
X141648592Y-69582958D01*
X141649500Y-69590420D01*
X141649500Y-69664069D01*
X141671666Y-69775500D01*
X141672575Y-69780071D01*
X141672576Y-69780078D01*
X141674497Y-69789736D01*
X141674501Y-69789749D01*
X141723532Y-69908123D01*
X141752292Y-69951166D01*
X141776781Y-69987817D01*
X141794726Y-70014673D01*
X142410328Y-70630275D01*
X142500698Y-70690658D01*
X142522863Y-70717180D01*
X142545163Y-70743496D01*
X142545318Y-70744049D01*
X142545503Y-70744270D01*
X142554732Y-70777468D01*
X142554870Y-70778511D01*
X142564313Y-70850236D01*
X142564405Y-70850460D01*
X142565499Y-70858708D01*
X142562399Y-70878700D01*
X142562399Y-70891316D01*
X142565374Y-70891708D01*
X142549500Y-71012272D01*
X142549500Y-71237727D01*
X142565374Y-71358292D01*
X142562399Y-71358683D01*
X142562399Y-71391316D01*
X142565374Y-71391708D01*
X142564313Y-71399762D01*
X142564313Y-71399764D01*
X142560938Y-71425393D01*
X142549500Y-71512272D01*
X142549500Y-71737727D01*
X142560296Y-71819723D01*
X142562467Y-71836217D01*
X142565374Y-71858292D01*
X142562399Y-71858683D01*
X142562399Y-71891316D01*
X142565374Y-71891708D01*
X142549500Y-72012272D01*
X142549500Y-72237727D01*
X142562217Y-72334314D01*
X142551452Y-72403350D01*
X142505072Y-72455606D01*
X142439278Y-72474500D01*
X142310929Y-72474500D01*
X142185261Y-72499497D01*
X142185255Y-72499499D01*
X142066874Y-72548534D01*
X141960326Y-72619726D01*
X141494726Y-73085326D01*
X141494723Y-73085331D01*
X141450232Y-73151918D01*
X141436883Y-73171895D01*
X141423535Y-73191872D01*
X141423533Y-73191875D01*
X141374499Y-73310255D01*
X141374497Y-73310261D01*
X141349500Y-73435928D01*
X141349500Y-76664071D01*
X141371467Y-76774501D01*
X141371468Y-76774504D01*
X141374499Y-76789743D01*
X141374499Y-76789744D01*
X141416190Y-76890396D01*
X141423535Y-76908127D01*
X141479492Y-76991874D01*
X141494726Y-77014673D01*
X141610433Y-77130380D01*
X141643918Y-77191703D01*
X141638934Y-77261395D01*
X141597062Y-77317328D01*
X141588245Y-77323354D01*
X141579599Y-77328731D01*
X141534767Y-77347302D01*
X141470661Y-77396492D01*
X141465493Y-77399707D01*
X141437456Y-77407492D01*
X141410317Y-77417984D01*
X141404194Y-77416728D01*
X141398171Y-77418401D01*
X141370375Y-77409791D01*
X141341873Y-77403946D01*
X141332914Y-77398189D01*
X141331429Y-77397729D01*
X141330523Y-77396652D01*
X141324517Y-77392793D01*
X141265233Y-77347302D01*
X141265232Y-77347301D01*
X141265230Y-77347300D01*
X141127797Y-77290374D01*
X141125236Y-77289313D01*
X141110698Y-77287399D01*
X141012727Y-77274500D01*
X141012720Y-77274500D01*
X140787280Y-77274500D01*
X140787272Y-77274500D01*
X140700393Y-77285938D01*
X140674764Y-77289313D01*
X140674762Y-77289313D01*
X140666708Y-77290374D01*
X140666316Y-77287399D01*
X140633684Y-77287399D01*
X140633292Y-77290374D01*
X140625237Y-77289313D01*
X140625236Y-77289313D01*
X140596271Y-77285499D01*
X140512727Y-77274500D01*
X140512720Y-77274500D01*
X140287280Y-77274500D01*
X140287272Y-77274500D01*
X140200393Y-77285938D01*
X140174764Y-77289313D01*
X140174762Y-77289313D01*
X140166708Y-77290374D01*
X140166316Y-77287399D01*
X140133684Y-77287399D01*
X140133292Y-77290374D01*
X140125237Y-77289313D01*
X140125236Y-77289313D01*
X140096271Y-77285499D01*
X140012727Y-77274500D01*
X140012720Y-77274500D01*
X139787280Y-77274500D01*
X139787272Y-77274500D01*
X139700393Y-77285938D01*
X139674764Y-77289313D01*
X139674762Y-77289313D01*
X139666708Y-77290374D01*
X139666316Y-77287399D01*
X139633684Y-77287399D01*
X139633292Y-77290374D01*
X139625237Y-77289313D01*
X139625236Y-77289313D01*
X139596271Y-77285499D01*
X139512727Y-77274500D01*
X139512720Y-77274500D01*
X139287280Y-77274500D01*
X139287272Y-77274500D01*
X139200393Y-77285938D01*
X139174764Y-77289313D01*
X139174762Y-77289313D01*
X139166708Y-77290374D01*
X139166316Y-77287399D01*
X139133684Y-77287399D01*
X139133292Y-77290374D01*
X139125237Y-77289313D01*
X139125236Y-77289313D01*
X139096271Y-77285499D01*
X139012727Y-77274500D01*
X139012720Y-77274500D01*
X138787280Y-77274500D01*
X138787272Y-77274500D01*
X138700393Y-77285938D01*
X138674764Y-77289313D01*
X138674762Y-77289313D01*
X138666708Y-77290374D01*
X138666316Y-77287399D01*
X138633684Y-77287399D01*
X138633292Y-77290374D01*
X138625237Y-77289313D01*
X138625236Y-77289313D01*
X138596271Y-77285499D01*
X138512727Y-77274500D01*
X138512720Y-77274500D01*
X138287280Y-77274500D01*
X138287272Y-77274500D01*
X138200393Y-77285938D01*
X138174764Y-77289313D01*
X138174762Y-77289313D01*
X138166708Y-77290374D01*
X138166316Y-77287399D01*
X138133684Y-77287399D01*
X138133292Y-77290374D01*
X138125237Y-77289313D01*
X138125236Y-77289313D01*
X138096271Y-77285499D01*
X138012727Y-77274500D01*
X138012720Y-77274500D01*
X137787280Y-77274500D01*
X137787272Y-77274500D01*
X137700393Y-77285938D01*
X137674764Y-77289313D01*
X137674762Y-77289313D01*
X137666708Y-77290374D01*
X137666316Y-77287399D01*
X137633684Y-77287399D01*
X137633292Y-77290374D01*
X137625237Y-77289313D01*
X137625236Y-77289313D01*
X137596271Y-77285499D01*
X137512727Y-77274500D01*
X137512720Y-77274500D01*
X137287280Y-77274500D01*
X137287272Y-77274500D01*
X137200393Y-77285938D01*
X137174764Y-77289313D01*
X137174762Y-77289313D01*
X137166708Y-77290374D01*
X137166316Y-77287399D01*
X137133684Y-77287399D01*
X137133292Y-77290374D01*
X137125237Y-77289313D01*
X137125236Y-77289313D01*
X137096271Y-77285499D01*
X137012727Y-77274500D01*
X137012720Y-77274500D01*
X136787280Y-77274500D01*
X136787272Y-77274500D01*
X136700393Y-77285938D01*
X136674764Y-77289313D01*
X136674762Y-77289313D01*
X136666708Y-77290374D01*
X136666316Y-77287399D01*
X136633684Y-77287399D01*
X136633292Y-77290374D01*
X136625237Y-77289313D01*
X136625236Y-77289313D01*
X136596271Y-77285499D01*
X136512727Y-77274500D01*
X136512720Y-77274500D01*
X136287280Y-77274500D01*
X136287272Y-77274500D01*
X136200393Y-77285938D01*
X136174764Y-77289313D01*
X136174762Y-77289313D01*
X136166708Y-77290374D01*
X136166316Y-77287399D01*
X136133684Y-77287399D01*
X136133292Y-77290374D01*
X136125237Y-77289313D01*
X136125236Y-77289313D01*
X136096271Y-77285499D01*
X136012727Y-77274500D01*
X136012720Y-77274500D01*
X135787280Y-77274500D01*
X135787272Y-77274500D01*
X135700393Y-77285938D01*
X135674764Y-77289313D01*
X135674762Y-77289313D01*
X135666708Y-77290374D01*
X135666316Y-77287399D01*
X135633684Y-77287399D01*
X135633292Y-77290374D01*
X135625237Y-77289313D01*
X135625236Y-77289313D01*
X135596271Y-77285499D01*
X135512727Y-77274500D01*
X135512720Y-77274500D01*
X135287280Y-77274500D01*
X135287272Y-77274500D01*
X135174764Y-77289313D01*
X135174763Y-77289313D01*
X135034769Y-77347300D01*
X135009291Y-77366850D01*
X134975485Y-77392790D01*
X134910317Y-77417984D01*
X134841873Y-77403946D01*
X134824517Y-77392793D01*
X134765233Y-77347302D01*
X134765232Y-77347301D01*
X134765230Y-77347300D01*
X134627797Y-77290374D01*
X134625236Y-77289313D01*
X134610698Y-77287399D01*
X134512727Y-77274500D01*
X134512720Y-77274500D01*
X134287280Y-77274500D01*
X134287272Y-77274500D01*
X134174764Y-77289313D01*
X134174763Y-77289313D01*
X134034770Y-77347300D01*
X134034767Y-77347301D01*
X134034767Y-77347302D01*
X133914549Y-77439549D01*
X133826905Y-77553769D01*
X133822300Y-77559770D01*
X133764313Y-77699763D01*
X133764313Y-77699764D01*
X133749500Y-77812272D01*
X133749500Y-79287727D01*
X133764313Y-79400235D01*
X133764313Y-79400236D01*
X133821911Y-79539291D01*
X133822302Y-79540233D01*
X133914549Y-79660451D01*
X134034767Y-79752698D01*
X134174764Y-79810687D01*
X134287280Y-79825500D01*
X134287287Y-79825500D01*
X134512713Y-79825500D01*
X134512720Y-79825500D01*
X134625236Y-79810687D01*
X134627797Y-79809625D01*
X134630137Y-79809374D01*
X134633090Y-79808583D01*
X134633213Y-79809043D01*
X134697265Y-79802151D01*
X134759746Y-79833421D01*
X134789819Y-79876730D01*
X134802955Y-79908444D01*
X134823535Y-79958127D01*
X134894723Y-80064669D01*
X135023440Y-80193386D01*
X135056924Y-80254707D01*
X135053464Y-80320069D01*
X135009651Y-80452288D01*
X134999500Y-80551647D01*
X134999500Y-81148337D01*
X134999501Y-81148355D01*
X135009650Y-81247707D01*
X135009651Y-81247710D01*
X135062996Y-81408694D01*
X135063001Y-81408705D01*
X135155823Y-81559191D01*
X135153175Y-81560824D01*
X135174063Y-81612758D01*
X135165206Y-81672194D01*
X135132184Y-81751918D01*
X135132182Y-81751925D01*
X135099500Y-81916228D01*
X135099500Y-82083771D01*
X135132182Y-82248074D01*
X135132184Y-82248082D01*
X135196295Y-82402860D01*
X135289373Y-82542162D01*
X135407837Y-82660626D01*
X135491016Y-82716204D01*
X135547137Y-82753703D01*
X135547138Y-82753703D01*
X135547139Y-82753704D01*
X135636757Y-82790825D01*
X135691160Y-82834666D01*
X135713225Y-82900960D01*
X135695946Y-82968659D01*
X135676985Y-82993067D01*
X133736873Y-84933181D01*
X133675550Y-84966666D01*
X133649192Y-84969500D01*
X132382137Y-84969500D01*
X132315098Y-84949815D01*
X132269343Y-84897011D01*
X132259399Y-84827853D01*
X132288424Y-84764297D01*
X132334684Y-84730939D01*
X132336700Y-84730104D01*
X132472863Y-84673703D01*
X132612162Y-84580626D01*
X132730626Y-84462162D01*
X132823703Y-84322863D01*
X132887816Y-84168082D01*
X132920500Y-84003767D01*
X132920500Y-83836233D01*
X132887816Y-83671918D01*
X132823703Y-83517137D01*
X132792537Y-83470494D01*
X132730626Y-83377837D01*
X132612162Y-83259373D01*
X132472860Y-83166295D01*
X132318082Y-83102184D01*
X132318074Y-83102182D01*
X132153771Y-83069500D01*
X132153767Y-83069500D01*
X131986233Y-83069500D01*
X131986228Y-83069500D01*
X131821925Y-83102182D01*
X131821917Y-83102184D01*
X131670120Y-83165061D01*
X131661942Y-83166687D01*
X131657602Y-83169477D01*
X131622667Y-83174500D01*
X131551874Y-83174500D01*
X131484835Y-83154815D01*
X131464193Y-83138181D01*
X131453044Y-83127032D01*
X131453040Y-83127029D01*
X131308705Y-83038001D01*
X131308699Y-83037998D01*
X131308697Y-83037997D01*
X131248021Y-83017891D01*
X131147709Y-82984651D01*
X131048346Y-82974500D01*
X130451662Y-82974500D01*
X130451644Y-82974501D01*
X130352292Y-82984650D01*
X130352289Y-82984651D01*
X130191305Y-83037996D01*
X130191294Y-83038001D01*
X130046959Y-83127029D01*
X130046955Y-83127032D01*
X130035807Y-83138181D01*
X130008879Y-83152884D01*
X129983061Y-83169477D01*
X129976860Y-83170368D01*
X129974484Y-83171666D01*
X129948126Y-83174500D01*
X129849858Y-83174500D01*
X129782819Y-83154815D01*
X129737064Y-83102011D01*
X129727120Y-83032853D01*
X129744320Y-82985403D01*
X129812544Y-82874795D01*
X129812543Y-82874795D01*
X129812549Y-82874787D01*
X129865436Y-82715185D01*
X129875500Y-82616674D01*
X129875500Y-82083326D01*
X129865436Y-81984815D01*
X129812549Y-81825213D01*
X129812545Y-81825207D01*
X129812544Y-81825204D01*
X129724283Y-81682112D01*
X129724280Y-81682108D01*
X129686819Y-81644647D01*
X129672115Y-81617719D01*
X129655523Y-81591901D01*
X129654631Y-81585700D01*
X129653334Y-81583324D01*
X129650500Y-81556966D01*
X129650500Y-81414878D01*
X129670185Y-81347839D01*
X129722989Y-81302084D01*
X129750307Y-81293261D01*
X129858913Y-81271658D01*
X129995495Y-81215084D01*
X130053293Y-81176465D01*
X130118416Y-81132952D01*
X130832951Y-80418416D01*
X130915084Y-80295495D01*
X130971658Y-80158913D01*
X130985668Y-80088484D01*
X131000500Y-80013920D01*
X131000500Y-76957435D01*
X131020185Y-76890396D01*
X131072989Y-76844641D01*
X131142147Y-76834697D01*
X131205703Y-76863722D01*
X131239061Y-76909983D01*
X131272299Y-76990228D01*
X131272299Y-76990229D01*
X131272301Y-76990232D01*
X131272302Y-76990233D01*
X131364549Y-77110451D01*
X131484767Y-77202698D01*
X131624764Y-77260687D01*
X131737280Y-77275500D01*
X131737287Y-77275500D01*
X133212713Y-77275500D01*
X133212720Y-77275500D01*
X133325236Y-77260687D01*
X133465233Y-77202698D01*
X133585451Y-77110451D01*
X133677698Y-76990233D01*
X133735687Y-76850236D01*
X133750500Y-76737720D01*
X133750500Y-76543435D01*
X133770185Y-76476396D01*
X133822989Y-76430641D01*
X133892147Y-76420697D01*
X133955703Y-76449722D01*
X133977601Y-76474543D01*
X133983619Y-76483549D01*
X133989375Y-76492164D01*
X134107837Y-76610626D01*
X134123076Y-76620808D01*
X134247137Y-76703703D01*
X134401918Y-76767816D01*
X134566228Y-76800499D01*
X134566232Y-76800500D01*
X134566233Y-76800500D01*
X134733768Y-76800500D01*
X134733769Y-76800499D01*
X134898082Y-76767816D01*
X135052863Y-76703703D01*
X135192162Y-76610626D01*
X135310626Y-76492162D01*
X135403703Y-76352863D01*
X135467816Y-76198082D01*
X135500500Y-76033767D01*
X135500500Y-75866233D01*
X135467816Y-75701918D01*
X135467811Y-75701905D01*
X135466828Y-75698664D01*
X135466811Y-75696867D01*
X135466628Y-75695943D01*
X135466803Y-75695908D01*
X135466201Y-75628797D01*
X135497806Y-75574981D01*
X135530626Y-75542162D01*
X135623703Y-75402863D01*
X135687816Y-75248082D01*
X135720500Y-75083767D01*
X135720500Y-74916233D01*
X135701949Y-74822968D01*
X135694327Y-74784650D01*
X135700554Y-74715059D01*
X135738678Y-74665981D01*
X135737454Y-74664490D01*
X135742158Y-74660628D01*
X135742162Y-74660626D01*
X135860626Y-74542162D01*
X135953703Y-74402863D01*
X136017816Y-74248082D01*
X136050500Y-74083767D01*
X136050500Y-73916233D01*
X136017816Y-73751918D01*
X135953703Y-73597137D01*
X135868010Y-73468889D01*
X135847133Y-73402214D01*
X135865617Y-73334833D01*
X135868011Y-73331109D01*
X135953703Y-73202863D01*
X136017816Y-73048082D01*
X136050500Y-72883767D01*
X136050500Y-72716233D01*
X136017816Y-72551918D01*
X135953703Y-72397137D01*
X135896695Y-72311819D01*
X135860626Y-72257837D01*
X135742162Y-72139373D01*
X135602860Y-72046295D01*
X135602859Y-72046294D01*
X135583950Y-72038462D01*
X135529547Y-71994620D01*
X135507484Y-71928325D01*
X135524765Y-71860626D01*
X135543720Y-71836225D01*
X135565277Y-71814669D01*
X135636466Y-71708126D01*
X135661803Y-71646955D01*
X135678965Y-71605523D01*
X135678967Y-71605517D01*
X135685501Y-71589744D01*
X135697129Y-71531287D01*
X135710500Y-71464071D01*
X135710500Y-69259898D01*
X135730185Y-69192859D01*
X135731398Y-69191007D01*
X135775536Y-69124949D01*
X135823703Y-69052863D01*
X135887816Y-68898082D01*
X135920500Y-68733767D01*
X135920500Y-68596386D01*
X135920704Y-68595690D01*
X135920508Y-68594993D01*
X135930538Y-68562199D01*
X135940185Y-68529347D01*
X135940731Y-68528873D01*
X135940944Y-68528179D01*
X135967135Y-68505993D01*
X135992989Y-68483592D01*
X135993889Y-68483333D01*
X135994259Y-68483020D01*
X136026362Y-68473995D01*
X136028233Y-68473458D01*
X136028288Y-68473450D01*
X136028314Y-68473447D01*
X136028315Y-68473447D01*
X136028534Y-68473418D01*
X136125236Y-68460687D01*
X136125468Y-68460590D01*
X136133733Y-68459497D01*
X136154293Y-68462689D01*
G37*
%TD.AperFunction*%
%TA.AperFunction,Conductor*%
G36*
X141268407Y-80088484D02*
G01*
X141282934Y-80089523D01*
X141299800Y-80102149D01*
X141319119Y-80110558D01*
X141335713Y-80129032D01*
X141338868Y-80131394D01*
X141342693Y-80136800D01*
X141394723Y-80214669D01*
X141498551Y-80318497D01*
X141532035Y-80379818D01*
X141528575Y-80445180D01*
X141509651Y-80502288D01*
X141499500Y-80601647D01*
X141499500Y-81198337D01*
X141499501Y-81198355D01*
X141509650Y-81297707D01*
X141509651Y-81297710D01*
X141562996Y-81458694D01*
X141562998Y-81458699D01*
X141642728Y-81587960D01*
X141661168Y-81655352D01*
X141640246Y-81722016D01*
X141586604Y-81766786D01*
X141517273Y-81775447D01*
X141472092Y-81758595D01*
X141438705Y-81738001D01*
X141438699Y-81737998D01*
X141438697Y-81737997D01*
X141434071Y-81736464D01*
X141277709Y-81684651D01*
X141178346Y-81674500D01*
X140631662Y-81674500D01*
X140631642Y-81674502D01*
X140537100Y-81684159D01*
X140468408Y-81671389D01*
X140417524Y-81623508D01*
X140400500Y-81560801D01*
X140400500Y-80920807D01*
X140420185Y-80853768D01*
X140436815Y-80833130D01*
X141151922Y-80118022D01*
X141170411Y-80107927D01*
X141186085Y-80093848D01*
X141200461Y-80091518D01*
X141213243Y-80084539D01*
X141234258Y-80086041D01*
X141255055Y-80082672D01*
X141268407Y-80088484D01*
G37*
%TD.AperFunction*%
%TA.AperFunction,Conductor*%
G36*
X168997230Y-75170185D02*
G01*
X169042985Y-75222989D01*
X169052929Y-75292147D01*
X169023904Y-75355703D01*
X169017872Y-75362181D01*
X168894727Y-75485325D01*
X168894726Y-75485326D01*
X168878068Y-75510257D01*
X168827906Y-75585331D01*
X168827903Y-75585334D01*
X168827903Y-75585335D01*
X168823539Y-75591864D01*
X168823534Y-75591873D01*
X168774499Y-75710255D01*
X168774497Y-75710260D01*
X168749004Y-75838418D01*
X168716618Y-75900328D01*
X168695986Y-75916894D01*
X168696125Y-75917085D01*
X168520215Y-76044889D01*
X168381398Y-76183706D01*
X168320075Y-76217190D01*
X168250383Y-76212206D01*
X168194450Y-76170334D01*
X168188178Y-76161120D01*
X168092712Y-76006344D01*
X167968657Y-75882289D01*
X167968656Y-75882288D01*
X167819334Y-75790186D01*
X167652797Y-75735001D01*
X167652795Y-75735000D01*
X167550010Y-75724500D01*
X166249998Y-75724500D01*
X166249981Y-75724501D01*
X166147203Y-75735000D01*
X166147200Y-75735001D01*
X165980668Y-75790185D01*
X165980663Y-75790187D01*
X165831342Y-75882289D01*
X165707289Y-76006342D01*
X165615187Y-76155663D01*
X165615185Y-76155668D01*
X165612978Y-76162328D01*
X165560001Y-76322203D01*
X165560001Y-76322204D01*
X165560000Y-76322204D01*
X165549500Y-76424983D01*
X165549500Y-77975001D01*
X165549501Y-77975018D01*
X165560000Y-78077796D01*
X165560001Y-78077799D01*
X165607846Y-78222184D01*
X165615186Y-78244334D01*
X165707288Y-78393656D01*
X165831344Y-78517712D01*
X165980666Y-78609814D01*
X166147203Y-78664999D01*
X166249991Y-78675500D01*
X167550008Y-78675499D01*
X167652797Y-78664999D01*
X167819334Y-78609814D01*
X167968656Y-78517712D01*
X168092712Y-78393656D01*
X168184814Y-78244334D01*
X168184814Y-78244331D01*
X168188178Y-78238879D01*
X168240126Y-78192154D01*
X168309088Y-78180931D01*
X168373170Y-78208774D01*
X168381398Y-78216294D01*
X168520213Y-78355109D01*
X168692179Y-78480048D01*
X168692181Y-78480049D01*
X168692184Y-78480051D01*
X168881588Y-78576557D01*
X169083757Y-78642246D01*
X169293713Y-78675500D01*
X169293714Y-78675500D01*
X169506286Y-78675500D01*
X169506287Y-78675500D01*
X169716243Y-78642246D01*
X169918412Y-78576557D01*
X170107816Y-78480051D01*
X170202052Y-78411585D01*
X170279786Y-78355109D01*
X170279788Y-78355106D01*
X170279792Y-78355104D01*
X170430104Y-78204792D01*
X170430106Y-78204788D01*
X170430109Y-78204786D01*
X170555048Y-78032820D01*
X170555047Y-78032820D01*
X170555051Y-78032816D01*
X170651557Y-77843412D01*
X170717246Y-77641243D01*
X170750500Y-77431287D01*
X170750500Y-76968713D01*
X170717246Y-76758757D01*
X170651557Y-76556588D01*
X170555051Y-76367184D01*
X170552590Y-76363797D01*
X170511605Y-76307385D01*
X170488126Y-76241578D01*
X170503952Y-76173524D01*
X170554058Y-76124830D01*
X170611924Y-76110500D01*
X174934068Y-76110500D01*
X174934069Y-76110500D01*
X174951934Y-76106946D01*
X175021524Y-76113172D01*
X175076703Y-76156033D01*
X175099949Y-76221922D01*
X175083883Y-76289920D01*
X175063808Y-76316244D01*
X174494724Y-76885328D01*
X174451179Y-76950498D01*
X174451180Y-76950499D01*
X174423534Y-76991874D01*
X174374499Y-77110255D01*
X174374497Y-77110261D01*
X174349500Y-77235928D01*
X174349500Y-78779192D01*
X174329815Y-78846231D01*
X174313181Y-78866873D01*
X173766873Y-79413181D01*
X173705550Y-79446666D01*
X173679192Y-79449500D01*
X158535929Y-79449500D01*
X158410261Y-79474497D01*
X158410255Y-79474499D01*
X158291874Y-79523534D01*
X158185331Y-79594723D01*
X158062181Y-79717873D01*
X158000858Y-79751357D01*
X157931166Y-79746373D01*
X157875233Y-79704501D01*
X157850816Y-79639037D01*
X157850500Y-79630191D01*
X157850500Y-76620808D01*
X157870185Y-76553769D01*
X157886819Y-76533127D01*
X159233127Y-75186819D01*
X159294450Y-75153334D01*
X159320808Y-75150500D01*
X168930191Y-75150500D01*
X168997230Y-75170185D01*
G37*
%TD.AperFunction*%
%TA.AperFunction,Conductor*%
G36*
X142962105Y-51720185D02*
G01*
X143007860Y-51772989D01*
X143017804Y-51842147D01*
X142988779Y-51905703D01*
X142967951Y-51924818D01*
X142899365Y-51974648D01*
X142899360Y-51974652D01*
X142779652Y-52094360D01*
X142779648Y-52094365D01*
X142680152Y-52231311D01*
X142603296Y-52382146D01*
X142550981Y-52543152D01*
X142524500Y-52710350D01*
X142524500Y-53529649D01*
X142550981Y-53696847D01*
X142603296Y-53857853D01*
X142680152Y-54008688D01*
X142779648Y-54145634D01*
X142779652Y-54145639D01*
X142899360Y-54265347D01*
X142899365Y-54265351D01*
X143018817Y-54352137D01*
X143036315Y-54364850D01*
X143132425Y-54413820D01*
X143187146Y-54441703D01*
X143187148Y-54441703D01*
X143187151Y-54441705D01*
X143273450Y-54469745D01*
X143348152Y-54494018D01*
X143515351Y-54520500D01*
X143515356Y-54520500D01*
X143684649Y-54520500D01*
X143851847Y-54494018D01*
X144012849Y-54441705D01*
X144163685Y-54364850D01*
X144300641Y-54265346D01*
X144420346Y-54145641D01*
X144519850Y-54008685D01*
X144596705Y-53857849D01*
X144649018Y-53696847D01*
X144664067Y-53601830D01*
X144675500Y-53529649D01*
X144675500Y-52710350D01*
X144649018Y-52543152D01*
X144596703Y-52382146D01*
X144568820Y-52327425D01*
X144519850Y-52231315D01*
X144452831Y-52139071D01*
X144420351Y-52094365D01*
X144420347Y-52094360D01*
X144300639Y-51974652D01*
X144300634Y-51974648D01*
X144232049Y-51924818D01*
X144189383Y-51869488D01*
X144183404Y-51799875D01*
X144216010Y-51738080D01*
X144276848Y-51703723D01*
X144304934Y-51700500D01*
X150645066Y-51700500D01*
X150712105Y-51720185D01*
X150757860Y-51772989D01*
X150767804Y-51842147D01*
X150738779Y-51905703D01*
X150717951Y-51924818D01*
X150649365Y-51974648D01*
X150649360Y-51974652D01*
X150529652Y-52094360D01*
X150529648Y-52094365D01*
X150430152Y-52231311D01*
X150353296Y-52382146D01*
X150300981Y-52543152D01*
X150274500Y-52710350D01*
X150274500Y-53529649D01*
X150300981Y-53696847D01*
X150353296Y-53857853D01*
X150430152Y-54008688D01*
X150529648Y-54145634D01*
X150529652Y-54145639D01*
X150649360Y-54265347D01*
X150649365Y-54265351D01*
X150768817Y-54352137D01*
X150786315Y-54364850D01*
X150882425Y-54413820D01*
X150937146Y-54441703D01*
X150937148Y-54441703D01*
X150937151Y-54441705D01*
X151023450Y-54469745D01*
X151098152Y-54494018D01*
X151265351Y-54520500D01*
X151265356Y-54520500D01*
X151434649Y-54520500D01*
X151601847Y-54494018D01*
X151762849Y-54441705D01*
X151913685Y-54364850D01*
X152050641Y-54265346D01*
X152170346Y-54145641D01*
X152269850Y-54008685D01*
X152346705Y-53857849D01*
X152399018Y-53696847D01*
X152414067Y-53601830D01*
X152425500Y-53529649D01*
X152425500Y-52710350D01*
X152399018Y-52543152D01*
X152346703Y-52382146D01*
X152318820Y-52327425D01*
X152269850Y-52231315D01*
X152202831Y-52139071D01*
X152170351Y-52094365D01*
X152170347Y-52094360D01*
X152050639Y-51974652D01*
X152050634Y-51974648D01*
X151982049Y-51924818D01*
X151939383Y-51869488D01*
X151933404Y-51799875D01*
X151966010Y-51738080D01*
X152026848Y-51703723D01*
X152054934Y-51700500D01*
X184534108Y-51700500D01*
X184596249Y-51700500D01*
X184603736Y-51700726D01*
X184893796Y-51718271D01*
X184908657Y-51720075D01*
X185006903Y-51738080D01*
X185190798Y-51771780D01*
X185205335Y-51775363D01*
X185479172Y-51860695D01*
X185493163Y-51866000D01*
X185754743Y-51983727D01*
X185767989Y-51990680D01*
X186013465Y-52139075D01*
X186025776Y-52147573D01*
X186251573Y-52324473D01*
X186262781Y-52334403D01*
X186465596Y-52537218D01*
X186475526Y-52548426D01*
X186595481Y-52701538D01*
X186652422Y-52774217D01*
X186660928Y-52786540D01*
X186809316Y-53032004D01*
X186816275Y-53045263D01*
X186933997Y-53306831D01*
X186939306Y-53320832D01*
X187024635Y-53594663D01*
X187028219Y-53609201D01*
X187079923Y-53891340D01*
X187081728Y-53906205D01*
X187099274Y-54196263D01*
X187099500Y-54203750D01*
X187099500Y-98196249D01*
X187099274Y-98203736D01*
X187081728Y-98493794D01*
X187079923Y-98508659D01*
X187028219Y-98790798D01*
X187024635Y-98805336D01*
X186939306Y-99079167D01*
X186933997Y-99093168D01*
X186816275Y-99354736D01*
X186809316Y-99367995D01*
X186660928Y-99613459D01*
X186652422Y-99625782D01*
X186475526Y-99851573D01*
X186465596Y-99862781D01*
X186262781Y-100065596D01*
X186251573Y-100075526D01*
X186025782Y-100252422D01*
X186013459Y-100260928D01*
X185767995Y-100409316D01*
X185754736Y-100416275D01*
X185493168Y-100533997D01*
X185479167Y-100539306D01*
X185205336Y-100624635D01*
X185190798Y-100628219D01*
X184908659Y-100679923D01*
X184893794Y-100681728D01*
X184603736Y-100699274D01*
X184596249Y-100699500D01*
X110603751Y-100699500D01*
X110596264Y-100699274D01*
X110306205Y-100681728D01*
X110291340Y-100679923D01*
X110009201Y-100628219D01*
X109994663Y-100624635D01*
X109720832Y-100539306D01*
X109706831Y-100533997D01*
X109445263Y-100416275D01*
X109432004Y-100409316D01*
X109186540Y-100260928D01*
X109174217Y-100252422D01*
X108948426Y-100075526D01*
X108937218Y-100065596D01*
X108734403Y-99862781D01*
X108724473Y-99851573D01*
X108547573Y-99625776D01*
X108539075Y-99613465D01*
X108390680Y-99367989D01*
X108383727Y-99354743D01*
X108266000Y-99093163D01*
X108260693Y-99079167D01*
X108175364Y-98805336D01*
X108171780Y-98790798D01*
X108120076Y-98508659D01*
X108118271Y-98493794D01*
X108100726Y-98203736D01*
X108100500Y-98196249D01*
X108100500Y-91785368D01*
X111581007Y-91785368D01*
X111619455Y-91978654D01*
X111619458Y-91978664D01*
X111694872Y-92160732D01*
X111694879Y-92160745D01*
X111804368Y-92324606D01*
X111804371Y-92324610D01*
X111943722Y-92463961D01*
X111943726Y-92463964D01*
X112107587Y-92573453D01*
X112107600Y-92573460D01*
X112289668Y-92648874D01*
X112289673Y-92648876D01*
X112289677Y-92648876D01*
X112289678Y-92648877D01*
X112482964Y-92687325D01*
X112482967Y-92687325D01*
X112680051Y-92687325D01*
X112813548Y-92660770D01*
X112873343Y-92648876D01*
X113055422Y-92573457D01*
X113219290Y-92463964D01*
X113309611Y-92373642D01*
X113336542Y-92358936D01*
X113362356Y-92342348D01*
X113368555Y-92341456D01*
X113370932Y-92340159D01*
X113397291Y-92337325D01*
X113586576Y-92337325D01*
X113653615Y-92357010D01*
X113655467Y-92358223D01*
X113778645Y-92440528D01*
X113933426Y-92504641D01*
X114097736Y-92537324D01*
X114097740Y-92537325D01*
X114097741Y-92537325D01*
X114265276Y-92537325D01*
X114265277Y-92537324D01*
X114429590Y-92504641D01*
X114584371Y-92440528D01*
X114723670Y-92347451D01*
X114842134Y-92228987D01*
X114935211Y-92089688D01*
X114942947Y-92071012D01*
X114986788Y-92016609D01*
X115053082Y-91994544D01*
X115120781Y-92011823D01*
X115168392Y-92062960D01*
X115181508Y-92118465D01*
X115181508Y-92186819D01*
X115182044Y-92219553D01*
X115190591Y-92284463D01*
X115190593Y-92284471D01*
X115207541Y-92347710D01*
X115232599Y-92408196D01*
X115265336Y-92464894D01*
X115265340Y-92464899D01*
X115295836Y-92504640D01*
X115305194Y-92516834D01*
X115351491Y-92563128D01*
X115403433Y-92602982D01*
X115460134Y-92635716D01*
X115520621Y-92660769D01*
X115539401Y-92665800D01*
X115583857Y-92677712D01*
X115583859Y-92677712D01*
X115583862Y-92677713D01*
X115648773Y-92686257D01*
X115653236Y-92686334D01*
X115681489Y-92686825D01*
X115681508Y-92686825D01*
X117581530Y-92686825D01*
X117604014Y-92686456D01*
X117614245Y-92686289D01*
X117679159Y-92677743D01*
X117742401Y-92660796D01*
X117802891Y-92635741D01*
X117859593Y-92603004D01*
X117911538Y-92563147D01*
X117957836Y-92516851D01*
X117997695Y-92464908D01*
X118030433Y-92408206D01*
X118049616Y-92361899D01*
X118055490Y-92347720D01*
X118061684Y-92324606D01*
X118072439Y-92284475D01*
X118080988Y-92219562D01*
X118081508Y-92186825D01*
X118081508Y-91286825D01*
X118080997Y-91254086D01*
X118072454Y-91189167D01*
X118055509Y-91125918D01*
X118030454Y-91065423D01*
X117997717Y-91008715D01*
X117997716Y-91008714D01*
X117997714Y-91008710D01*
X117957862Y-90956771D01*
X117957861Y-90956770D01*
X117957858Y-90956766D01*
X117911559Y-90910464D01*
X117896013Y-90898534D01*
X117859621Y-90870607D01*
X117859616Y-90870604D01*
X117859612Y-90870601D01*
X117802954Y-90837887D01*
X117802911Y-90837862D01*
X117802907Y-90837860D01*
X117742412Y-90812800D01*
X117679166Y-90795853D01*
X117679160Y-90795852D01*
X117653997Y-90792539D01*
X117614247Y-90787305D01*
X117581508Y-90786825D01*
X115681508Y-90786825D01*
X115648770Y-90787337D01*
X115648767Y-90787337D01*
X115583852Y-90795882D01*
X115520609Y-90812828D01*
X115460118Y-90837885D01*
X115460114Y-90837887D01*
X115403409Y-90870626D01*
X115351469Y-90910482D01*
X115351468Y-90910483D01*
X115305169Y-90956785D01*
X115305165Y-90956789D01*
X115265315Y-91008725D01*
X115232576Y-91065433D01*
X115232570Y-91065446D01*
X115207522Y-91125925D01*
X115207521Y-91125928D01*
X115190580Y-91189161D01*
X115190579Y-91189168D01*
X115182035Y-91254091D01*
X115181967Y-91258334D01*
X115161202Y-91325047D01*
X115107666Y-91369943D01*
X115038356Y-91378769D01*
X114975278Y-91348721D01*
X114943422Y-91303784D01*
X114935213Y-91283966D01*
X114935212Y-91283964D01*
X114842134Y-91144662D01*
X114723670Y-91026198D01*
X114584368Y-90933120D01*
X114429590Y-90869009D01*
X114429582Y-90869007D01*
X114265279Y-90836325D01*
X114265275Y-90836325D01*
X114097741Y-90836325D01*
X114097736Y-90836325D01*
X113933433Y-90869007D01*
X113933425Y-90869009D01*
X113778647Y-90933120D01*
X113655467Y-91015427D01*
X113637420Y-91021077D01*
X113621511Y-91031302D01*
X113590549Y-91035753D01*
X113588789Y-91036305D01*
X113586576Y-91036325D01*
X113397291Y-91036325D01*
X113330252Y-91016640D01*
X113309614Y-91000010D01*
X113219290Y-90909686D01*
X113219289Y-90909685D01*
X113219288Y-90909684D01*
X113055428Y-90800196D01*
X113055415Y-90800189D01*
X112873347Y-90724775D01*
X112873337Y-90724772D01*
X112680051Y-90686325D01*
X112680049Y-90686325D01*
X112482967Y-90686325D01*
X112482965Y-90686325D01*
X112289678Y-90724772D01*
X112289668Y-90724775D01*
X112107600Y-90800189D01*
X112107587Y-90800196D01*
X111943726Y-90909685D01*
X111943722Y-90909688D01*
X111804371Y-91049039D01*
X111804368Y-91049043D01*
X111694879Y-91212904D01*
X111694872Y-91212917D01*
X111619458Y-91394985D01*
X111619455Y-91394995D01*
X111581008Y-91588281D01*
X111581008Y-91588284D01*
X111581008Y-91785366D01*
X111581008Y-91785368D01*
X111581007Y-91785368D01*
X108100500Y-91785368D01*
X108100500Y-64035928D01*
X112449500Y-64035928D01*
X112449500Y-64035931D01*
X112449500Y-82264069D01*
X112468295Y-82358556D01*
X112472509Y-82379736D01*
X112472510Y-82379746D01*
X112472511Y-82379746D01*
X112474499Y-82389744D01*
X112474500Y-82389747D01*
X112523533Y-82508125D01*
X112571210Y-82579479D01*
X112581140Y-82594341D01*
X112594726Y-82614673D01*
X114185327Y-84205274D01*
X114290421Y-84275495D01*
X114290430Y-84275501D01*
X114291871Y-84276464D01*
X114291872Y-84276464D01*
X114291873Y-84276465D01*
X114410256Y-84325501D01*
X114410260Y-84325501D01*
X114410261Y-84325502D01*
X114535928Y-84350500D01*
X114535931Y-84350500D01*
X115515382Y-84350500D01*
X115582421Y-84370185D01*
X115616099Y-84404591D01*
X115617085Y-84403875D01*
X115744890Y-84579786D01*
X115858430Y-84693326D01*
X115891915Y-84754649D01*
X115886931Y-84824341D01*
X115845059Y-84880274D01*
X115814083Y-84897189D01*
X115682669Y-84946203D01*
X115682664Y-84946206D01*
X115567455Y-85032452D01*
X115567452Y-85032455D01*
X115481206Y-85147664D01*
X115481202Y-85147671D01*
X115430908Y-85282517D01*
X115424501Y-85342116D01*
X115424501Y-85342123D01*
X115424500Y-85342135D01*
X115424500Y-87137870D01*
X115424501Y-87137876D01*
X115430908Y-87197483D01*
X115481202Y-87332328D01*
X115481206Y-87332335D01*
X115567452Y-87447544D01*
X115567455Y-87447547D01*
X115682664Y-87533793D01*
X115682671Y-87533797D01*
X115817517Y-87584091D01*
X115817516Y-87584091D01*
X115824444Y-87584835D01*
X115877127Y-87590500D01*
X117672872Y-87590499D01*
X117732483Y-87584091D01*
X117867331Y-87533796D01*
X117982546Y-87447546D01*
X118068796Y-87332331D01*
X118119091Y-87197483D01*
X118125500Y-87137873D01*
X118125499Y-85342128D01*
X118119091Y-85282517D01*
X118101246Y-85234673D01*
X118068797Y-85147671D01*
X118068793Y-85147664D01*
X117982547Y-85032455D01*
X117982544Y-85032452D01*
X117867335Y-84946206D01*
X117867328Y-84946202D01*
X117735917Y-84897189D01*
X117679983Y-84855318D01*
X117655566Y-84789853D01*
X117670418Y-84721580D01*
X117691563Y-84693332D01*
X117805104Y-84579792D01*
X117819272Y-84560292D01*
X117930048Y-84407820D01*
X117930047Y-84407820D01*
X117930051Y-84407816D01*
X118026557Y-84218412D01*
X118092246Y-84016243D01*
X118125500Y-83806287D01*
X118125500Y-83593713D01*
X118092246Y-83383757D01*
X118026557Y-83181588D01*
X117930051Y-82992184D01*
X117930049Y-82992181D01*
X117930048Y-82992179D01*
X117805109Y-82820213D01*
X117654786Y-82669890D01*
X117482820Y-82544951D01*
X117477346Y-82542162D01*
X117474054Y-82540485D01*
X117423259Y-82492512D01*
X117406463Y-82424692D01*
X117428999Y-82358556D01*
X117474054Y-82319515D01*
X117482816Y-82315051D01*
X117575003Y-82248074D01*
X117654786Y-82190109D01*
X117654788Y-82190106D01*
X117654792Y-82190104D01*
X117805104Y-82039792D01*
X117805106Y-82039788D01*
X117805109Y-82039786D01*
X117930048Y-81867820D01*
X117930047Y-81867820D01*
X117930051Y-81867816D01*
X118026557Y-81678412D01*
X118092246Y-81476243D01*
X118125500Y-81266287D01*
X118125500Y-81053713D01*
X118092246Y-80843757D01*
X118026557Y-80641588D01*
X117930051Y-80452184D01*
X117930049Y-80452181D01*
X117930048Y-80452179D01*
X117805109Y-80280213D01*
X117654786Y-80129890D01*
X117482820Y-80004951D01*
X117293414Y-79908444D01*
X117293413Y-79908443D01*
X117293412Y-79908443D01*
X117091243Y-79842754D01*
X117091241Y-79842753D01*
X117091240Y-79842753D01*
X116888781Y-79810687D01*
X116881287Y-79809500D01*
X116668713Y-79809500D01*
X116661219Y-79810687D01*
X116458760Y-79842753D01*
X116256585Y-79908444D01*
X116067179Y-80004951D01*
X115895213Y-80129890D01*
X115744890Y-80280213D01*
X115617085Y-80456125D01*
X115615740Y-80455148D01*
X115569295Y-80497166D01*
X115515382Y-80509500D01*
X115180808Y-80509500D01*
X115113769Y-80489815D01*
X115093127Y-80473181D01*
X114886819Y-80266873D01*
X114853334Y-80205550D01*
X114850500Y-80179192D01*
X114850500Y-69883713D01*
X115399500Y-69883713D01*
X115399500Y-70096287D01*
X115407199Y-70144896D01*
X115430487Y-70291935D01*
X115432754Y-70306243D01*
X115495546Y-70499497D01*
X115498444Y-70508414D01*
X115594951Y-70697820D01*
X115719890Y-70869786D01*
X115870213Y-71020109D01*
X116042182Y-71145050D01*
X116050946Y-71149516D01*
X116101742Y-71197491D01*
X116118536Y-71265312D01*
X116095998Y-71331447D01*
X116050946Y-71370484D01*
X116042182Y-71374949D01*
X115870213Y-71499890D01*
X115719890Y-71650213D01*
X115594951Y-71822179D01*
X115498444Y-72011585D01*
X115498443Y-72011587D01*
X115498443Y-72011588D01*
X115477833Y-72075018D01*
X115432753Y-72213760D01*
X115399500Y-72423713D01*
X115399500Y-72636287D01*
X115401144Y-72646666D01*
X115425872Y-72802796D01*
X115432754Y-72846243D01*
X115498333Y-73048074D01*
X115498444Y-73048414D01*
X115594951Y-73237820D01*
X115719890Y-73409786D01*
X115833430Y-73523326D01*
X115866915Y-73584649D01*
X115861931Y-73654341D01*
X115820059Y-73710274D01*
X115789083Y-73727189D01*
X115657669Y-73776203D01*
X115657664Y-73776206D01*
X115542455Y-73862452D01*
X115542452Y-73862455D01*
X115456206Y-73977664D01*
X115456202Y-73977671D01*
X115405908Y-74112517D01*
X115399501Y-74172116D01*
X115399501Y-74172123D01*
X115399500Y-74172135D01*
X115399500Y-75967870D01*
X115399501Y-75967876D01*
X115405908Y-76027483D01*
X115456202Y-76162328D01*
X115456206Y-76162335D01*
X115542452Y-76277544D01*
X115542455Y-76277547D01*
X115657664Y-76363793D01*
X115657671Y-76363797D01*
X115792517Y-76414091D01*
X115792516Y-76414091D01*
X115799444Y-76414835D01*
X115852127Y-76420500D01*
X117647872Y-76420499D01*
X117707483Y-76414091D01*
X117842331Y-76363796D01*
X117957546Y-76277546D01*
X118043796Y-76162331D01*
X118094091Y-76027483D01*
X118100500Y-75967873D01*
X118100499Y-74172128D01*
X118094091Y-74112517D01*
X118087011Y-74093535D01*
X118043797Y-73977671D01*
X118043793Y-73977664D01*
X117957547Y-73862455D01*
X117957544Y-73862452D01*
X117842335Y-73776206D01*
X117842328Y-73776202D01*
X117710917Y-73727189D01*
X117654983Y-73685318D01*
X117630566Y-73619853D01*
X117645418Y-73551580D01*
X117666563Y-73523332D01*
X117780104Y-73409792D01*
X117782989Y-73405822D01*
X117905048Y-73237820D01*
X117905047Y-73237820D01*
X117905051Y-73237816D01*
X118001557Y-73048412D01*
X118067246Y-72846243D01*
X118100500Y-72636287D01*
X118100500Y-72423713D01*
X118067246Y-72213757D01*
X118001557Y-72011588D01*
X117905051Y-71822184D01*
X117905049Y-71822181D01*
X117905048Y-71822179D01*
X117780109Y-71650213D01*
X117629786Y-71499890D01*
X117457820Y-71374951D01*
X117456935Y-71374500D01*
X117449054Y-71370485D01*
X117398259Y-71322512D01*
X117381463Y-71254692D01*
X117403999Y-71188556D01*
X117449054Y-71149515D01*
X117457816Y-71145051D01*
X117562887Y-71068713D01*
X117629786Y-71020109D01*
X117629788Y-71020106D01*
X117629792Y-71020104D01*
X117780104Y-70869792D01*
X117780106Y-70869788D01*
X117780109Y-70869786D01*
X117905048Y-70697820D01*
X117905047Y-70697820D01*
X117905051Y-70697816D01*
X118001557Y-70508412D01*
X118067246Y-70306243D01*
X118100500Y-70096287D01*
X118100500Y-69883713D01*
X118067246Y-69673757D01*
X118001557Y-69471588D01*
X117905051Y-69282184D01*
X117905049Y-69282181D01*
X117905048Y-69282179D01*
X117780109Y-69110213D01*
X117629786Y-68959890D01*
X117457820Y-68834951D01*
X117268414Y-68738444D01*
X117268413Y-68738443D01*
X117268412Y-68738443D01*
X117066243Y-68672754D01*
X117066241Y-68672753D01*
X117066240Y-68672753D01*
X116904957Y-68647208D01*
X116856287Y-68639500D01*
X116643713Y-68639500D01*
X116595042Y-68647208D01*
X116433760Y-68672753D01*
X116231585Y-68738444D01*
X116042179Y-68834951D01*
X115870213Y-68959890D01*
X115719890Y-69110213D01*
X115594951Y-69282179D01*
X115498444Y-69471585D01*
X115498443Y-69471587D01*
X115498443Y-69471588D01*
X115489128Y-69500256D01*
X115432753Y-69673760D01*
X115401144Y-69873334D01*
X115399500Y-69883713D01*
X114850500Y-69883713D01*
X114850500Y-64920808D01*
X114870185Y-64853769D01*
X114886819Y-64833127D01*
X117933127Y-61786819D01*
X117994450Y-61753334D01*
X118020808Y-61750500D01*
X140079192Y-61750500D01*
X140146231Y-61770185D01*
X140166873Y-61786819D01*
X141213181Y-62833127D01*
X141246666Y-62894450D01*
X141249500Y-62920808D01*
X141249500Y-65527647D01*
X141229815Y-65594686D01*
X141177011Y-65640441D01*
X141107853Y-65650385D01*
X141044297Y-65621360D01*
X141010939Y-65575100D01*
X140991283Y-65527647D01*
X140976465Y-65491873D01*
X140976463Y-65491870D01*
X140976461Y-65491866D01*
X140905277Y-65385332D01*
X140884014Y-65364069D01*
X140814669Y-65294724D01*
X140680653Y-65160707D01*
X140650271Y-65105065D01*
X140647169Y-65099384D01*
X140646718Y-65097217D01*
X140623241Y-64979191D01*
X140617816Y-64951918D01*
X140555838Y-64802292D01*
X140553704Y-64797139D01*
X140460626Y-64657837D01*
X140342162Y-64539373D01*
X140202860Y-64446295D01*
X140048082Y-64382184D01*
X140048074Y-64382182D01*
X139883771Y-64349500D01*
X139883767Y-64349500D01*
X139716233Y-64349500D01*
X139716228Y-64349500D01*
X139551925Y-64382182D01*
X139551917Y-64382184D01*
X139397140Y-64446295D01*
X139397127Y-64446302D01*
X139368889Y-64465170D01*
X139302211Y-64486047D01*
X139234832Y-64467561D01*
X139231111Y-64465170D01*
X139202872Y-64446302D01*
X139202859Y-64446295D01*
X139048082Y-64382184D01*
X139048074Y-64382182D01*
X138883771Y-64349500D01*
X138883767Y-64349500D01*
X138716233Y-64349500D01*
X138716228Y-64349500D01*
X138551925Y-64382182D01*
X138551917Y-64382184D01*
X138397139Y-64446295D01*
X138257837Y-64539373D01*
X138257834Y-64539376D01*
X138162181Y-64635030D01*
X138142744Y-64645642D01*
X138126011Y-64660143D01*
X138112679Y-64662059D01*
X138100858Y-64668515D01*
X138078771Y-64666935D01*
X138056853Y-64670087D01*
X138044601Y-64664491D01*
X138031166Y-64663531D01*
X138013439Y-64650260D01*
X137993297Y-64641062D01*
X137986014Y-64629730D01*
X137975233Y-64621659D01*
X137967495Y-64600913D01*
X137955523Y-64582284D01*
X137952371Y-64560365D01*
X137950816Y-64556195D01*
X137950500Y-64547349D01*
X137950500Y-64316519D01*
X137970185Y-64249480D01*
X137986814Y-64228842D01*
X138055472Y-64160185D01*
X138143478Y-64014606D01*
X138194086Y-63852196D01*
X138200500Y-63781616D01*
X138200500Y-63118384D01*
X138194086Y-63047804D01*
X138143478Y-62885394D01*
X138055472Y-62739815D01*
X138055470Y-62739813D01*
X138055469Y-62739811D01*
X137935188Y-62619530D01*
X137912937Y-62606079D01*
X137789606Y-62531522D01*
X137627196Y-62480914D01*
X137627194Y-62480913D01*
X137627192Y-62480913D01*
X137577778Y-62476423D01*
X137556616Y-62474500D01*
X137043384Y-62474500D01*
X137024145Y-62476248D01*
X136972807Y-62480913D01*
X136810393Y-62531522D01*
X136664811Y-62619530D01*
X136544530Y-62739811D01*
X136456522Y-62885393D01*
X136405913Y-63047807D01*
X136399500Y-63118386D01*
X136399500Y-63781613D01*
X136405913Y-63852192D01*
X136405913Y-63852194D01*
X136405914Y-63852196D01*
X136456522Y-64014606D01*
X136544528Y-64160185D01*
X136613182Y-64228839D01*
X136646666Y-64290160D01*
X136649500Y-64316519D01*
X136649500Y-64979191D01*
X136629815Y-65046230D01*
X136613181Y-65066872D01*
X135894727Y-65785325D01*
X135894726Y-65785326D01*
X135894723Y-65785331D01*
X135844414Y-65860626D01*
X135842114Y-65864068D01*
X135842110Y-65864073D01*
X135834339Y-65875702D01*
X135780725Y-65920505D01*
X135747427Y-65929746D01*
X135700693Y-65935899D01*
X135674764Y-65939313D01*
X135674762Y-65939313D01*
X135666709Y-65940374D01*
X135666317Y-65937399D01*
X135633684Y-65937399D01*
X135633292Y-65940374D01*
X135625237Y-65939313D01*
X135625236Y-65939313D01*
X135596271Y-65935499D01*
X135512727Y-65924500D01*
X135512720Y-65924500D01*
X135287280Y-65924500D01*
X135287272Y-65924500D01*
X135204062Y-65935455D01*
X135190685Y-65937216D01*
X135121650Y-65926452D01*
X135069394Y-65880072D01*
X135050500Y-65814278D01*
X135050500Y-65635928D01*
X135025502Y-65510261D01*
X135025501Y-65510260D01*
X135025501Y-65510256D01*
X134976465Y-65391873D01*
X134976464Y-65391872D01*
X134976460Y-65391864D01*
X134959674Y-65366743D01*
X134959671Y-65366739D01*
X134957887Y-65364069D01*
X134905277Y-65285331D01*
X134880464Y-65260518D01*
X134875093Y-65253315D01*
X134865942Y-65228641D01*
X134853333Y-65205548D01*
X134851681Y-65190183D01*
X134850799Y-65187805D01*
X134851219Y-65185889D01*
X134850499Y-65179190D01*
X134850499Y-64901662D01*
X134850498Y-64901644D01*
X134840349Y-64802292D01*
X134840348Y-64802289D01*
X134807001Y-64701655D01*
X134787003Y-64641303D01*
X134786999Y-64641297D01*
X134786998Y-64641294D01*
X134697970Y-64496959D01*
X134697969Y-64496958D01*
X134697968Y-64496956D01*
X134601192Y-64400180D01*
X134567708Y-64338857D01*
X134572692Y-64269165D01*
X134601189Y-64224822D01*
X134672968Y-64153044D01*
X134762003Y-64008697D01*
X134815349Y-63847708D01*
X134825500Y-63748345D01*
X134825499Y-63151656D01*
X134822100Y-63118386D01*
X134815349Y-63052292D01*
X134815348Y-63052289D01*
X134791876Y-62981456D01*
X134762003Y-62891303D01*
X134761999Y-62891297D01*
X134761998Y-62891294D01*
X134672970Y-62746959D01*
X134672967Y-62746955D01*
X134553044Y-62627032D01*
X134553040Y-62627029D01*
X134408705Y-62538001D01*
X134408699Y-62537998D01*
X134408697Y-62537997D01*
X134304694Y-62503534D01*
X134247709Y-62484651D01*
X134148346Y-62474500D01*
X133601662Y-62474500D01*
X133601644Y-62474501D01*
X133502292Y-62484650D01*
X133502289Y-62484651D01*
X133341305Y-62537996D01*
X133341294Y-62538001D01*
X133196959Y-62627029D01*
X133196955Y-62627032D01*
X133119237Y-62704749D01*
X133057914Y-62738234D01*
X132988222Y-62733248D01*
X132973107Y-62726427D01*
X132972864Y-62726297D01*
X132818082Y-62662184D01*
X132818074Y-62662182D01*
X132653771Y-62629500D01*
X132653767Y-62629500D01*
X132486233Y-62629500D01*
X132486228Y-62629500D01*
X132321925Y-62662182D01*
X132321917Y-62662184D01*
X132167139Y-62726295D01*
X132027837Y-62819373D01*
X131909373Y-62937837D01*
X131816295Y-63077139D01*
X131752184Y-63231917D01*
X131752182Y-63231925D01*
X131719500Y-63396228D01*
X131719500Y-63563771D01*
X131752182Y-63728074D01*
X131752184Y-63728082D01*
X131816295Y-63882860D01*
X131909373Y-64022162D01*
X132027837Y-64140626D01*
X132094239Y-64184994D01*
X132167137Y-64233703D01*
X132167138Y-64233703D01*
X132167139Y-64233704D01*
X132202201Y-64248227D01*
X132321918Y-64297816D01*
X132444521Y-64322203D01*
X132486228Y-64330499D01*
X132486232Y-64330500D01*
X132486233Y-64330500D01*
X132653768Y-64330500D01*
X132653769Y-64330499D01*
X132818082Y-64297816D01*
X132972863Y-64233703D01*
X132999047Y-64216206D01*
X133029347Y-64206719D01*
X133059090Y-64195626D01*
X133062445Y-64196355D01*
X133065722Y-64195330D01*
X133096340Y-64203729D01*
X133127363Y-64210478D01*
X133131077Y-64213258D01*
X133133102Y-64213814D01*
X133155617Y-64231629D01*
X133173806Y-64249818D01*
X133207291Y-64311141D01*
X133202307Y-64380833D01*
X133173807Y-64425179D01*
X133102032Y-64496954D01*
X133102029Y-64496959D01*
X133013001Y-64641294D01*
X133012996Y-64641305D01*
X132959651Y-64802290D01*
X132949500Y-64901647D01*
X132949500Y-65498337D01*
X132949501Y-65498355D01*
X132959650Y-65597707D01*
X132959651Y-65597710D01*
X133012996Y-65758694D01*
X133013001Y-65758705D01*
X133102029Y-65903040D01*
X133102032Y-65903044D01*
X133221955Y-66022967D01*
X133221959Y-66022970D01*
X133366294Y-66111998D01*
X133366297Y-66111999D01*
X133366303Y-66112003D01*
X133527292Y-66165349D01*
X133626655Y-66175500D01*
X133626667Y-66175499D01*
X133629803Y-66175660D01*
X133629794Y-66175820D01*
X133629796Y-66175821D01*
X133629793Y-66175844D01*
X133629746Y-66176761D01*
X133692487Y-66195150D01*
X133738269Y-66247931D01*
X133749500Y-66299499D01*
X133749500Y-67530191D01*
X133729815Y-67597230D01*
X133677011Y-67642985D01*
X133607853Y-67652929D01*
X133544297Y-67623904D01*
X133537819Y-67617872D01*
X130414673Y-64494726D01*
X130401684Y-64486047D01*
X130308127Y-64423535D01*
X130189744Y-64374499D01*
X130189738Y-64374497D01*
X130064071Y-64349500D01*
X130064069Y-64349500D01*
X129099547Y-64349500D01*
X129069582Y-64340701D01*
X129039119Y-64333780D01*
X129035491Y-64330691D01*
X129032508Y-64329815D01*
X129011061Y-64312369D01*
X129001413Y-64302541D01*
X128997968Y-64296956D01*
X128886443Y-64185431D01*
X128886014Y-64184994D01*
X128869798Y-64154635D01*
X128853334Y-64124483D01*
X128853243Y-64123641D01*
X128853096Y-64123365D01*
X128853146Y-64122739D01*
X128850500Y-64098125D01*
X128850500Y-63695928D01*
X128825502Y-63570261D01*
X128825501Y-63570260D01*
X128825501Y-63570256D01*
X128776465Y-63451873D01*
X128776464Y-63451872D01*
X128776461Y-63451866D01*
X128705277Y-63345332D01*
X128701774Y-63341829D01*
X128614669Y-63254724D01*
X128478329Y-63118384D01*
X127934674Y-62574727D01*
X127934673Y-62574726D01*
X127934669Y-62574723D01*
X127828127Y-62503535D01*
X127800117Y-62491933D01*
X127709744Y-62454499D01*
X127709738Y-62454497D01*
X127584071Y-62429500D01*
X127584069Y-62429500D01*
X126205783Y-62429500D01*
X126138744Y-62409815D01*
X126118106Y-62393185D01*
X126027782Y-62302861D01*
X126027781Y-62302860D01*
X126027780Y-62302859D01*
X125863920Y-62193371D01*
X125863907Y-62193364D01*
X125681839Y-62117950D01*
X125681829Y-62117947D01*
X125488543Y-62079500D01*
X125488541Y-62079500D01*
X125291459Y-62079500D01*
X125291457Y-62079500D01*
X125098170Y-62117947D01*
X125098160Y-62117950D01*
X124916092Y-62193364D01*
X124916079Y-62193371D01*
X124752218Y-62302860D01*
X124752214Y-62302863D01*
X124612863Y-62442214D01*
X124612860Y-62442218D01*
X124503371Y-62606079D01*
X124503364Y-62606092D01*
X124427950Y-62788160D01*
X124427947Y-62788170D01*
X124389500Y-62981456D01*
X124389500Y-62981459D01*
X124389500Y-63178541D01*
X124389500Y-63178543D01*
X124389499Y-63178543D01*
X124427947Y-63371829D01*
X124427950Y-63371839D01*
X124503364Y-63553907D01*
X124503371Y-63553920D01*
X124612860Y-63717781D01*
X124612863Y-63717785D01*
X124752214Y-63857136D01*
X124752218Y-63857139D01*
X124916079Y-63966628D01*
X124916092Y-63966635D01*
X125083390Y-64035931D01*
X125098165Y-64042051D01*
X125098169Y-64042051D01*
X125098170Y-64042052D01*
X125291456Y-64080500D01*
X125291459Y-64080500D01*
X125488543Y-64080500D01*
X125619507Y-64054449D01*
X125681835Y-64042051D01*
X125863914Y-63966632D01*
X126027782Y-63857139D01*
X126118103Y-63766817D01*
X126179424Y-63733334D01*
X126205783Y-63730500D01*
X127199192Y-63730500D01*
X127266231Y-63750185D01*
X127286873Y-63766819D01*
X127513181Y-63993126D01*
X127527884Y-64020053D01*
X127544477Y-64045872D01*
X127545368Y-64052072D01*
X127546666Y-64054449D01*
X127549500Y-64080807D01*
X127549500Y-64098125D01*
X127529815Y-64165164D01*
X127513182Y-64185806D01*
X127402029Y-64296959D01*
X127313001Y-64441294D01*
X127312996Y-64441305D01*
X127259651Y-64602290D01*
X127249500Y-64701647D01*
X127249500Y-65298337D01*
X127249501Y-65298355D01*
X127259650Y-65397707D01*
X127259651Y-65397710D01*
X127312996Y-65558694D01*
X127313001Y-65558705D01*
X127402029Y-65703040D01*
X127402032Y-65703044D01*
X127521955Y-65822967D01*
X127521959Y-65822970D01*
X127666294Y-65911998D01*
X127666297Y-65911999D01*
X127666303Y-65912003D01*
X127827292Y-65965349D01*
X127926655Y-65975500D01*
X128473344Y-65975499D01*
X128473352Y-65975498D01*
X128473355Y-65975498D01*
X128527760Y-65969940D01*
X128572708Y-65965349D01*
X128733697Y-65912003D01*
X128878044Y-65822968D01*
X128997968Y-65703044D01*
X128997971Y-65703038D01*
X129002276Y-65697595D01*
X129059296Y-65657215D01*
X129099547Y-65650500D01*
X129679192Y-65650500D01*
X129746231Y-65670185D01*
X129766873Y-65686819D01*
X132342873Y-68262819D01*
X132376358Y-68324142D01*
X132371374Y-68393834D01*
X132329502Y-68449767D01*
X132264038Y-68474184D01*
X132255192Y-68474500D01*
X131076874Y-68474500D01*
X131009835Y-68454815D01*
X130989193Y-68438181D01*
X130903044Y-68352032D01*
X130903040Y-68352029D01*
X130758705Y-68263001D01*
X130758699Y-68262998D01*
X130758697Y-68262997D01*
X130640115Y-68223703D01*
X130597709Y-68209651D01*
X130498346Y-68199500D01*
X129901662Y-68199500D01*
X129901644Y-68199501D01*
X129802292Y-68209650D01*
X129802289Y-68209651D01*
X129641305Y-68262996D01*
X129641294Y-68263001D01*
X129496959Y-68352029D01*
X129412593Y-68436395D01*
X129351269Y-68469879D01*
X129281578Y-68464895D01*
X129256022Y-68451816D01*
X129202867Y-68416299D01*
X129202859Y-68416295D01*
X129048082Y-68352184D01*
X129048074Y-68352182D01*
X128883771Y-68319500D01*
X128883767Y-68319500D01*
X128716233Y-68319500D01*
X128716228Y-68319500D01*
X128551925Y-68352182D01*
X128551917Y-68352184D01*
X128397139Y-68416295D01*
X128257837Y-68509373D01*
X128139373Y-68627837D01*
X128046295Y-68767139D01*
X127982184Y-68921917D01*
X127982182Y-68921925D01*
X127949500Y-69086228D01*
X127949500Y-69253771D01*
X127982182Y-69418074D01*
X127982184Y-69418082D01*
X128046295Y-69572860D01*
X128139373Y-69712162D01*
X128257837Y-69830626D01*
X128336468Y-69883165D01*
X128397137Y-69923703D01*
X128551918Y-69987816D01*
X128713463Y-70019949D01*
X128716228Y-70020499D01*
X128716232Y-70020500D01*
X128716233Y-70020500D01*
X128883768Y-70020500D01*
X128883769Y-70020499D01*
X129048082Y-69987816D01*
X129202863Y-69923703D01*
X129279999Y-69872161D01*
X129346677Y-69851284D01*
X129414057Y-69869769D01*
X129436571Y-69887583D01*
X129496955Y-69947967D01*
X129496959Y-69947970D01*
X129641294Y-70036998D01*
X129641297Y-70036999D01*
X129641303Y-70037003D01*
X129802292Y-70090349D01*
X129901655Y-70100500D01*
X130498344Y-70100499D01*
X130498352Y-70100498D01*
X130498355Y-70100498D01*
X130553949Y-70094819D01*
X130597708Y-70090349D01*
X130758697Y-70037003D01*
X130903044Y-69947968D01*
X130995899Y-69855112D01*
X131057218Y-69821630D01*
X131126910Y-69826614D01*
X131182844Y-69868485D01*
X131207261Y-69933949D01*
X131206516Y-69958980D01*
X131199501Y-70012267D01*
X131199500Y-70012286D01*
X131199500Y-70237727D01*
X131212217Y-70334314D01*
X131201452Y-70403350D01*
X131155072Y-70455606D01*
X131089278Y-70474500D01*
X129810929Y-70474500D01*
X129685261Y-70499497D01*
X129685255Y-70499499D01*
X129566870Y-70548535D01*
X129460331Y-70619722D01*
X129460324Y-70619728D01*
X128622359Y-71457693D01*
X128561036Y-71491178D01*
X128491344Y-71486194D01*
X128469581Y-71475551D01*
X128408699Y-71437998D01*
X128408694Y-71437996D01*
X128247709Y-71384651D01*
X128148346Y-71374500D01*
X127551662Y-71374500D01*
X127551644Y-71374501D01*
X127452292Y-71384650D01*
X127452289Y-71384651D01*
X127291305Y-71437996D01*
X127291294Y-71438001D01*
X127146959Y-71527029D01*
X127027032Y-71646955D01*
X127018880Y-71660171D01*
X126966929Y-71706892D01*
X126960799Y-71709629D01*
X126866872Y-71748535D01*
X126866866Y-71748538D01*
X126760331Y-71819723D01*
X126760327Y-71819726D01*
X125966873Y-72613181D01*
X125905550Y-72646666D01*
X125879192Y-72649500D01*
X125220808Y-72649500D01*
X125153769Y-72629815D01*
X125133127Y-72613181D01*
X124936818Y-72416872D01*
X124903333Y-72355549D01*
X124900499Y-72329191D01*
X124900499Y-71699998D01*
X124900498Y-71699981D01*
X124889999Y-71597203D01*
X124889998Y-71597200D01*
X124887526Y-71589739D01*
X124834814Y-71430666D01*
X124742712Y-71281344D01*
X124618656Y-71157288D01*
X124525888Y-71100069D01*
X124469336Y-71065187D01*
X124469331Y-71065185D01*
X124467862Y-71064698D01*
X124302797Y-71010001D01*
X124302795Y-71010000D01*
X124200010Y-70999500D01*
X123399998Y-70999500D01*
X123399980Y-70999501D01*
X123297203Y-71010000D01*
X123297200Y-71010001D01*
X123130668Y-71065185D01*
X123130663Y-71065187D01*
X122981342Y-71157289D01*
X122857289Y-71281342D01*
X122765187Y-71430663D01*
X122765185Y-71430668D01*
X122750194Y-71475909D01*
X122710001Y-71597203D01*
X122710001Y-71597204D01*
X122710000Y-71597204D01*
X122699500Y-71699983D01*
X122699500Y-72700001D01*
X122699501Y-72700019D01*
X122710000Y-72802796D01*
X122710001Y-72802799D01*
X122754243Y-72936310D01*
X122765186Y-72969334D01*
X122857288Y-73118656D01*
X122981344Y-73242712D01*
X123130666Y-73334814D01*
X123297203Y-73389999D01*
X123399991Y-73400500D01*
X124029191Y-73400499D01*
X124096230Y-73420183D01*
X124116872Y-73436818D01*
X124374569Y-73694515D01*
X124408054Y-73755838D01*
X124410246Y-73794798D01*
X124399500Y-73899981D01*
X124399500Y-74900001D01*
X124399501Y-74900019D01*
X124410000Y-75002796D01*
X124410001Y-75002799D01*
X124465185Y-75169331D01*
X124465187Y-75169336D01*
X124475971Y-75186819D01*
X124557288Y-75318656D01*
X124681344Y-75442712D01*
X124830666Y-75534814D01*
X124997203Y-75589999D01*
X125099991Y-75600500D01*
X125900008Y-75600499D01*
X125900016Y-75600498D01*
X125900019Y-75600498D01*
X125956302Y-75594748D01*
X126002797Y-75589999D01*
X126169334Y-75534814D01*
X126318656Y-75442712D01*
X126442712Y-75318656D01*
X126534814Y-75169334D01*
X126546028Y-75135494D01*
X126585801Y-75078050D01*
X126650317Y-75051228D01*
X126663733Y-75050500D01*
X127539071Y-75050500D01*
X127623615Y-75033682D01*
X127664744Y-75025501D01*
X127762671Y-74984937D01*
X127810124Y-74975499D01*
X128148338Y-74975499D01*
X128148344Y-74975499D01*
X128148352Y-74975498D01*
X128148355Y-74975498D01*
X128202760Y-74969940D01*
X128247708Y-74965349D01*
X128408697Y-74912003D01*
X128553044Y-74822968D01*
X128672968Y-74703044D01*
X128762003Y-74558697D01*
X128815349Y-74397708D01*
X128825500Y-74298345D01*
X128825499Y-74020806D01*
X128845183Y-73953768D01*
X128861813Y-73933131D01*
X130483127Y-72311819D01*
X130544450Y-72278334D01*
X130570808Y-72275500D01*
X131089278Y-72275500D01*
X131156317Y-72295185D01*
X131202072Y-72347989D01*
X131212217Y-72415686D01*
X131199500Y-72512272D01*
X131199500Y-72737727D01*
X131208068Y-72802799D01*
X131213787Y-72846243D01*
X131215374Y-72858292D01*
X131212399Y-72858683D01*
X131212399Y-72891316D01*
X131215374Y-72891708D01*
X131199500Y-73012272D01*
X131199500Y-73237727D01*
X131209050Y-73310261D01*
X131212282Y-73334812D01*
X131215374Y-73358292D01*
X131212399Y-73358683D01*
X131212399Y-73391316D01*
X131215374Y-73391708D01*
X131214313Y-73399762D01*
X131214313Y-73399764D01*
X131212994Y-73409784D01*
X131199500Y-73512272D01*
X131199500Y-73737727D01*
X131215374Y-73858292D01*
X131212399Y-73858683D01*
X131212399Y-73891316D01*
X131215374Y-73891708D01*
X131214313Y-73899762D01*
X131214313Y-73899764D01*
X131212145Y-73916232D01*
X131199500Y-74012272D01*
X131199500Y-74237727D01*
X131212461Y-74336171D01*
X131214313Y-74350236D01*
X131228772Y-74385144D01*
X131251096Y-74439037D01*
X131253635Y-74462660D01*
X131260530Y-74485396D01*
X131257302Y-74496759D01*
X131258565Y-74508506D01*
X131247929Y-74529752D01*
X131241438Y-74552606D01*
X131231255Y-74563063D01*
X131227290Y-74570986D01*
X131218561Y-74579483D01*
X131212331Y-74584978D01*
X131160331Y-74619723D01*
X131066009Y-74714044D01*
X131063092Y-74716618D01*
X131034816Y-74729833D01*
X131007424Y-74744791D01*
X131003425Y-74744505D01*
X130999795Y-74746202D01*
X130968871Y-74742033D01*
X130937732Y-74739807D01*
X130932171Y-74737087D01*
X130930552Y-74736869D01*
X130928967Y-74735520D01*
X130915969Y-74729163D01*
X130808705Y-74663001D01*
X130808699Y-74662998D01*
X130808697Y-74662997D01*
X130678104Y-74619723D01*
X130647709Y-74609651D01*
X130548346Y-74599500D01*
X129951662Y-74599500D01*
X129951644Y-74599501D01*
X129852292Y-74609650D01*
X129852289Y-74609651D01*
X129691305Y-74662996D01*
X129691294Y-74663001D01*
X129546959Y-74752029D01*
X129546955Y-74752032D01*
X129427032Y-74871955D01*
X129427029Y-74871959D01*
X129338001Y-75016294D01*
X129337996Y-75016305D01*
X129284651Y-75177290D01*
X129274500Y-75276647D01*
X129274500Y-75823337D01*
X129274501Y-75823355D01*
X129284650Y-75922707D01*
X129284651Y-75922710D01*
X129337996Y-76083694D01*
X129338001Y-76083705D01*
X129427029Y-76228040D01*
X129427032Y-76228044D01*
X129463181Y-76264193D01*
X129496666Y-76325516D01*
X129499500Y-76351874D01*
X129499500Y-79504797D01*
X129479815Y-79571836D01*
X129427011Y-79617591D01*
X129357853Y-79627535D01*
X129336498Y-79622504D01*
X129297708Y-79609651D01*
X129198346Y-79599500D01*
X128601662Y-79599500D01*
X128601644Y-79599501D01*
X128502292Y-79609650D01*
X128502289Y-79609651D01*
X128341305Y-79662996D01*
X128341294Y-79663001D01*
X128196959Y-79752029D01*
X128196955Y-79752032D01*
X128077032Y-79871955D01*
X128077029Y-79871959D01*
X127988001Y-80016294D01*
X127987996Y-80016305D01*
X127934651Y-80177290D01*
X127924500Y-80276647D01*
X127924500Y-80823337D01*
X127924501Y-80823355D01*
X127934650Y-80922707D01*
X127934651Y-80922710D01*
X127987996Y-81083694D01*
X127988001Y-81083705D01*
X128077029Y-81228040D01*
X128077032Y-81228044D01*
X128113181Y-81264193D01*
X128127884Y-81291120D01*
X128144477Y-81316939D01*
X128145368Y-81323139D01*
X128146666Y-81325516D01*
X128149500Y-81351874D01*
X128149500Y-81556966D01*
X128129815Y-81624005D01*
X128113181Y-81644647D01*
X128075719Y-81682108D01*
X128075716Y-81682112D01*
X127987455Y-81825204D01*
X127987450Y-81825215D01*
X127974151Y-81865349D01*
X127934564Y-81984815D01*
X127934564Y-81984816D01*
X127934563Y-81984816D01*
X127924500Y-82083318D01*
X127924500Y-82616681D01*
X127934563Y-82715183D01*
X127987450Y-82874784D01*
X127987455Y-82874795D01*
X128075716Y-83017887D01*
X128075719Y-83017891D01*
X128107647Y-83049819D01*
X128141132Y-83111142D01*
X128136148Y-83180834D01*
X128107647Y-83225181D01*
X128075719Y-83257108D01*
X128075716Y-83257112D01*
X127987455Y-83400204D01*
X127987451Y-83400213D01*
X127934564Y-83559815D01*
X127934564Y-83559816D01*
X127934563Y-83559816D01*
X127924500Y-83658318D01*
X127924500Y-84191681D01*
X127934563Y-84290183D01*
X127987450Y-84449784D01*
X127987455Y-84449795D01*
X128075716Y-84592887D01*
X128075719Y-84592891D01*
X128194609Y-84711781D01*
X128240297Y-84739962D01*
X128287021Y-84791910D01*
X128298242Y-84860873D01*
X128270399Y-84924955D01*
X128212330Y-84963810D01*
X128175199Y-84969500D01*
X125195929Y-84969500D01*
X125070261Y-84994497D01*
X125070251Y-84994500D01*
X125021220Y-85014810D01*
X124951881Y-85043530D01*
X124951863Y-85043540D01*
X124845332Y-85114721D01*
X124845325Y-85114727D01*
X123894724Y-86065328D01*
X123857973Y-86120330D01*
X123857974Y-86120331D01*
X123823534Y-86171874D01*
X123774499Y-86290255D01*
X123774497Y-86290261D01*
X123749500Y-86415928D01*
X123749500Y-86713331D01*
X123729815Y-86780370D01*
X123690600Y-86818868D01*
X123668843Y-86832288D01*
X123544789Y-86956342D01*
X123452687Y-87105663D01*
X123452685Y-87105668D01*
X123442010Y-87137883D01*
X123397501Y-87272203D01*
X123397501Y-87272204D01*
X123397500Y-87272204D01*
X123387000Y-87374983D01*
X123387000Y-88375001D01*
X123387001Y-88375019D01*
X123397500Y-88477796D01*
X123397501Y-88477799D01*
X123452685Y-88644331D01*
X123452687Y-88644336D01*
X123468825Y-88670500D01*
X123544788Y-88793656D01*
X123668844Y-88917712D01*
X123690594Y-88931127D01*
X123697418Y-88938713D01*
X123706703Y-88942954D01*
X123720390Y-88964252D01*
X123737320Y-88983073D01*
X123739964Y-88994710D01*
X123744477Y-89001732D01*
X123749500Y-89036667D01*
X123749500Y-89179191D01*
X123729815Y-89246230D01*
X123713181Y-89266872D01*
X123619727Y-89360325D01*
X123619726Y-89360326D01*
X123567114Y-89439068D01*
X123567112Y-89439070D01*
X123548539Y-89466864D01*
X123548533Y-89466875D01*
X123499499Y-89585255D01*
X123499499Y-89585256D01*
X123474500Y-89710928D01*
X123474500Y-89887837D01*
X123454815Y-89954876D01*
X123402011Y-90000631D01*
X123376459Y-90009089D01*
X123372207Y-90009999D01*
X123205668Y-90065185D01*
X123205663Y-90065187D01*
X123056342Y-90157289D01*
X122932289Y-90281342D01*
X122840187Y-90430663D01*
X122840186Y-90430666D01*
X122785001Y-90597203D01*
X122785001Y-90597204D01*
X122785000Y-90597204D01*
X122774500Y-90699983D01*
X122774500Y-90725500D01*
X122754815Y-90792539D01*
X122702011Y-90838294D01*
X122650500Y-90849500D01*
X121935929Y-90849500D01*
X121810261Y-90874497D01*
X121810255Y-90874499D01*
X121691874Y-90923534D01*
X121585326Y-90994726D01*
X121585325Y-90994727D01*
X120094722Y-92485331D01*
X120094718Y-92485336D01*
X120042743Y-92563126D01*
X120042742Y-92563127D01*
X120023536Y-92591870D01*
X120023534Y-92591874D01*
X119974499Y-92710255D01*
X119974497Y-92710261D01*
X119949500Y-92835928D01*
X119949500Y-96284216D01*
X119929815Y-96351255D01*
X119913181Y-96371897D01*
X119822863Y-96462214D01*
X119822860Y-96462218D01*
X119713371Y-96626079D01*
X119713364Y-96626092D01*
X119637950Y-96808160D01*
X119637947Y-96808170D01*
X119599500Y-97001456D01*
X119599500Y-97001459D01*
X119599500Y-97198541D01*
X119599500Y-97198543D01*
X119599499Y-97198543D01*
X119637947Y-97391829D01*
X119637950Y-97391839D01*
X119713364Y-97573907D01*
X119713371Y-97573920D01*
X119822860Y-97737781D01*
X119822863Y-97737785D01*
X119962214Y-97877136D01*
X119962218Y-97877139D01*
X120126079Y-97986628D01*
X120126092Y-97986635D01*
X120308160Y-98062049D01*
X120308165Y-98062051D01*
X120308169Y-98062051D01*
X120308170Y-98062052D01*
X120501456Y-98100500D01*
X120501459Y-98100500D01*
X120698543Y-98100500D01*
X120828582Y-98074632D01*
X120891835Y-98062051D01*
X121073914Y-97986632D01*
X121237782Y-97877139D01*
X121377139Y-97737782D01*
X121486632Y-97573914D01*
X121562051Y-97391835D01*
X121600500Y-97198541D01*
X121600500Y-97001459D01*
X121600500Y-97001456D01*
X121562052Y-96808170D01*
X121562051Y-96808169D01*
X121562051Y-96808165D01*
X121528050Y-96726079D01*
X121486635Y-96626092D01*
X121486628Y-96626079D01*
X121377139Y-96462218D01*
X121377136Y-96462214D01*
X121286819Y-96371897D01*
X121253334Y-96310574D01*
X121250500Y-96284216D01*
X121250500Y-93220808D01*
X121270185Y-93153769D01*
X121286819Y-93133127D01*
X122233127Y-92186819D01*
X122294450Y-92153334D01*
X122320808Y-92150500D01*
X122650501Y-92150500D01*
X122717540Y-92170185D01*
X122763295Y-92222989D01*
X122774501Y-92274500D01*
X122774501Y-92300018D01*
X122785000Y-92402796D01*
X122785001Y-92402799D01*
X122840185Y-92569331D01*
X122840187Y-92569336D01*
X122842729Y-92573457D01*
X122932288Y-92718656D01*
X123056344Y-92842712D01*
X123205666Y-92934814D01*
X123372203Y-92989999D01*
X123474991Y-93000500D01*
X124775008Y-93000499D01*
X124877797Y-92989999D01*
X125044334Y-92934814D01*
X125193656Y-92842712D01*
X125317712Y-92718656D01*
X125409814Y-92569334D01*
X125464999Y-92402797D01*
X125475500Y-92300009D01*
X125475499Y-90699992D01*
X125464999Y-90597203D01*
X125409814Y-90430666D01*
X125317712Y-90281344D01*
X125193656Y-90157288D01*
X125044334Y-90065186D01*
X125002697Y-90051389D01*
X124945255Y-90011617D01*
X124918432Y-89947101D01*
X124930747Y-89878325D01*
X124938598Y-89864799D01*
X124976465Y-89808127D01*
X125025501Y-89689743D01*
X125046286Y-89585256D01*
X125050500Y-89564069D01*
X125050500Y-89036667D01*
X125070185Y-88969628D01*
X125091278Y-88944743D01*
X125099715Y-88937104D01*
X125131156Y-88917712D01*
X125226996Y-88821871D01*
X125229278Y-88819806D01*
X125258075Y-88805889D01*
X125286142Y-88790564D01*
X125289318Y-88790791D01*
X125292187Y-88789405D01*
X125323930Y-88793266D01*
X125355834Y-88795548D01*
X125358903Y-88797520D01*
X125361545Y-88797842D01*
X125368928Y-88803963D01*
X125400181Y-88824049D01*
X125493844Y-88917712D01*
X125643166Y-89009814D01*
X125809703Y-89064999D01*
X125912491Y-89075500D01*
X126537508Y-89075499D01*
X126537516Y-89075498D01*
X126537519Y-89075498D01*
X126593802Y-89069748D01*
X126640297Y-89064999D01*
X126806834Y-89009814D01*
X126956156Y-88917712D01*
X127080212Y-88793656D01*
X127119014Y-88730746D01*
X127170960Y-88684023D01*
X127239922Y-88672800D01*
X127272003Y-88681282D01*
X127311918Y-88697816D01*
X127430303Y-88721364D01*
X127476228Y-88730499D01*
X127476232Y-88730500D01*
X127476233Y-88730500D01*
X127643768Y-88730500D01*
X127643769Y-88730499D01*
X127808082Y-88697816D01*
X127962863Y-88633703D01*
X128102162Y-88540626D01*
X128220626Y-88422162D01*
X128313703Y-88282863D01*
X128377816Y-88128082D01*
X128410500Y-87963767D01*
X128410500Y-87796233D01*
X128377816Y-87631918D01*
X128313703Y-87477137D01*
X128282537Y-87430494D01*
X128220626Y-87337837D01*
X128102162Y-87219373D01*
X127962860Y-87126295D01*
X127808082Y-87062184D01*
X127808074Y-87062182D01*
X127643771Y-87029500D01*
X127643767Y-87029500D01*
X127476233Y-87029500D01*
X127476228Y-87029500D01*
X127311925Y-87062182D01*
X127311918Y-87062184D01*
X127276916Y-87076682D01*
X127207447Y-87084149D01*
X127144968Y-87052874D01*
X127123926Y-87027216D01*
X127080212Y-86956344D01*
X126956157Y-86832289D01*
X126956156Y-86832288D01*
X126806834Y-86740186D01*
X126640297Y-86685001D01*
X126640295Y-86685000D01*
X126537510Y-86674500D01*
X125912498Y-86674500D01*
X125912480Y-86674501D01*
X125809703Y-86685000D01*
X125809700Y-86685001D01*
X125643168Y-86740185D01*
X125643163Y-86740187D01*
X125493842Y-86832289D01*
X125400181Y-86925951D01*
X125392235Y-86930289D01*
X125386810Y-86937537D01*
X125362050Y-86946771D01*
X125338858Y-86959436D01*
X125329828Y-86958790D01*
X125321346Y-86961954D01*
X125295525Y-86956337D01*
X125269166Y-86954452D01*
X125260112Y-86948633D01*
X125253073Y-86947102D01*
X125224819Y-86925951D01*
X125137088Y-86838220D01*
X125103603Y-86776897D01*
X125108587Y-86707205D01*
X125137088Y-86662858D01*
X125493127Y-86306819D01*
X125554450Y-86273334D01*
X125580808Y-86270500D01*
X133463274Y-86270500D01*
X133530313Y-86290185D01*
X133576068Y-86342989D01*
X133586012Y-86412147D01*
X133584891Y-86418692D01*
X133574500Y-86470928D01*
X133574500Y-86663331D01*
X133554815Y-86730370D01*
X133515600Y-86768868D01*
X133493843Y-86782288D01*
X133369789Y-86906342D01*
X133277687Y-87055663D01*
X133277685Y-87055668D01*
X133261117Y-87105668D01*
X133222501Y-87222203D01*
X133222501Y-87222204D01*
X133222500Y-87222204D01*
X133212000Y-87324983D01*
X133212000Y-88325001D01*
X133212001Y-88325019D01*
X133222500Y-88427796D01*
X133222501Y-88427799D01*
X133277685Y-88594331D01*
X133277687Y-88594336D01*
X133286975Y-88609394D01*
X133356039Y-88721366D01*
X133374500Y-88786461D01*
X133374500Y-89862837D01*
X133354815Y-89929876D01*
X133302011Y-89975631D01*
X133276459Y-89984089D01*
X133272207Y-89984999D01*
X133105668Y-90040185D01*
X133105663Y-90040187D01*
X132956342Y-90132289D01*
X132832289Y-90256342D01*
X132740187Y-90405663D01*
X132740186Y-90405666D01*
X132685001Y-90572203D01*
X132685001Y-90572204D01*
X132685000Y-90572204D01*
X132674500Y-90674983D01*
X132674500Y-90700500D01*
X132654815Y-90767539D01*
X132602011Y-90813294D01*
X132550500Y-90824500D01*
X131560929Y-90824500D01*
X131435261Y-90849497D01*
X131435255Y-90849499D01*
X131316874Y-90898534D01*
X131210326Y-90969726D01*
X129794727Y-92385325D01*
X129794721Y-92385332D01*
X129734474Y-92475498D01*
X129734475Y-92475499D01*
X129723535Y-92491871D01*
X129674499Y-92610255D01*
X129674497Y-92610261D01*
X129649500Y-92735928D01*
X129649500Y-96384216D01*
X129629815Y-96451255D01*
X129613181Y-96471897D01*
X129522863Y-96562214D01*
X129522860Y-96562218D01*
X129413371Y-96726079D01*
X129413364Y-96726092D01*
X129337950Y-96908160D01*
X129337947Y-96908170D01*
X129299500Y-97101456D01*
X129299500Y-97101459D01*
X129299500Y-97298541D01*
X129299500Y-97298543D01*
X129299499Y-97298543D01*
X129337947Y-97491829D01*
X129337950Y-97491839D01*
X129413364Y-97673907D01*
X129413371Y-97673920D01*
X129522860Y-97837781D01*
X129522863Y-97837785D01*
X129662214Y-97977136D01*
X129662218Y-97977139D01*
X129826079Y-98086628D01*
X129826092Y-98086635D01*
X129940704Y-98134108D01*
X130008165Y-98162051D01*
X130008169Y-98162051D01*
X130008170Y-98162052D01*
X130201456Y-98200500D01*
X130201459Y-98200500D01*
X130398543Y-98200500D01*
X130528582Y-98174632D01*
X130591835Y-98162051D01*
X130773914Y-98086632D01*
X130937782Y-97977139D01*
X131077139Y-97837782D01*
X131186632Y-97673914D01*
X131262051Y-97491835D01*
X131281942Y-97391839D01*
X131300500Y-97298543D01*
X131300500Y-97198543D01*
X139199499Y-97198543D01*
X139237947Y-97391829D01*
X139237950Y-97391839D01*
X139313364Y-97573907D01*
X139313371Y-97573920D01*
X139422860Y-97737781D01*
X139422863Y-97737785D01*
X139562214Y-97877136D01*
X139562218Y-97877139D01*
X139726079Y-97986628D01*
X139726092Y-97986635D01*
X139908160Y-98062049D01*
X139908165Y-98062051D01*
X139908169Y-98062051D01*
X139908170Y-98062052D01*
X140101456Y-98100500D01*
X140101459Y-98100500D01*
X140298543Y-98100500D01*
X140428582Y-98074632D01*
X140491835Y-98062051D01*
X140673914Y-97986632D01*
X140837782Y-97877139D01*
X140977139Y-97737782D01*
X141086632Y-97573914D01*
X141162051Y-97391835D01*
X141200500Y-97198543D01*
X148699499Y-97198543D01*
X148737947Y-97391829D01*
X148737950Y-97391839D01*
X148813364Y-97573907D01*
X148813371Y-97573920D01*
X148922860Y-97737781D01*
X148922863Y-97737785D01*
X149062214Y-97877136D01*
X149062218Y-97877139D01*
X149226079Y-97986628D01*
X149226092Y-97986635D01*
X149408160Y-98062049D01*
X149408165Y-98062051D01*
X149408169Y-98062051D01*
X149408170Y-98062052D01*
X149601456Y-98100500D01*
X149601459Y-98100500D01*
X149798543Y-98100500D01*
X149928582Y-98074632D01*
X149991835Y-98062051D01*
X150173914Y-97986632D01*
X150337782Y-97877139D01*
X150477139Y-97737782D01*
X150586632Y-97573914D01*
X150662051Y-97391835D01*
X150700500Y-97198541D01*
X150700500Y-97001459D01*
X150700500Y-97001456D01*
X150662052Y-96808170D01*
X150662051Y-96808169D01*
X150662051Y-96808165D01*
X150628050Y-96726079D01*
X150586635Y-96626092D01*
X150586628Y-96626079D01*
X150477139Y-96462218D01*
X150477136Y-96462214D01*
X150386819Y-96371897D01*
X150353334Y-96310574D01*
X150350500Y-96284216D01*
X150350500Y-93320808D01*
X150370185Y-93253769D01*
X150386819Y-93233127D01*
X151433127Y-92186819D01*
X151494450Y-92153334D01*
X151520808Y-92150500D01*
X152025501Y-92150500D01*
X152092540Y-92170185D01*
X152138295Y-92222989D01*
X152149501Y-92274500D01*
X152149501Y-92300018D01*
X152160000Y-92402796D01*
X152160001Y-92402799D01*
X152215185Y-92569331D01*
X152215187Y-92569336D01*
X152217729Y-92573457D01*
X152307288Y-92718656D01*
X152431344Y-92842712D01*
X152580666Y-92934814D01*
X152747203Y-92989999D01*
X152849991Y-93000500D01*
X154150008Y-93000499D01*
X154252797Y-92989999D01*
X154419334Y-92934814D01*
X154568656Y-92842712D01*
X154692712Y-92718656D01*
X154784814Y-92569334D01*
X154839999Y-92402797D01*
X154850500Y-92300009D01*
X154850499Y-90699992D01*
X154839999Y-90597203D01*
X154784814Y-90430666D01*
X154692712Y-90281344D01*
X154568656Y-90157288D01*
X154419334Y-90065186D01*
X154377701Y-90051390D01*
X154252795Y-90010000D01*
X154248533Y-90009088D01*
X154187102Y-89975801D01*
X154153419Y-89914586D01*
X154150500Y-89887837D01*
X154150500Y-88774730D01*
X154159144Y-88745289D01*
X154165668Y-88715303D01*
X154169422Y-88710287D01*
X154170185Y-88707691D01*
X154186819Y-88687049D01*
X154224819Y-88649049D01*
X154286142Y-88615564D01*
X154355834Y-88620548D01*
X154400181Y-88649049D01*
X154493844Y-88742712D01*
X154643166Y-88834814D01*
X154809703Y-88889999D01*
X154912491Y-88900500D01*
X155537508Y-88900499D01*
X155537516Y-88900498D01*
X155537519Y-88900498D01*
X155635392Y-88890500D01*
X155640297Y-88889999D01*
X155806834Y-88834814D01*
X155956156Y-88742712D01*
X156080212Y-88618656D01*
X156123506Y-88548463D01*
X156175450Y-88501741D01*
X156244413Y-88490518D01*
X156276491Y-88498999D01*
X156321918Y-88517816D01*
X156436593Y-88540626D01*
X156486228Y-88550499D01*
X156486232Y-88550500D01*
X156486233Y-88550500D01*
X156653768Y-88550500D01*
X156653769Y-88550499D01*
X156818082Y-88517816D01*
X156972863Y-88453703D01*
X157112162Y-88360626D01*
X157230626Y-88242162D01*
X157323703Y-88102863D01*
X157387816Y-87948082D01*
X157420500Y-87783767D01*
X157420500Y-87616233D01*
X157387816Y-87451918D01*
X157323703Y-87297137D01*
X157278425Y-87229374D01*
X157230626Y-87157837D01*
X157112162Y-87039373D01*
X156972860Y-86946295D01*
X156818082Y-86882184D01*
X156818074Y-86882182D01*
X156653771Y-86849500D01*
X156653767Y-86849500D01*
X156486233Y-86849500D01*
X156486228Y-86849500D01*
X156321925Y-86882181D01*
X156321925Y-86882182D01*
X156321922Y-86882183D01*
X156321918Y-86882184D01*
X156276493Y-86900999D01*
X156207026Y-86908467D01*
X156144547Y-86877191D01*
X156123505Y-86851534D01*
X156080212Y-86781344D01*
X155956156Y-86657288D01*
X155806834Y-86565186D01*
X155640297Y-86510001D01*
X155640295Y-86510000D01*
X155537510Y-86499500D01*
X154912498Y-86499500D01*
X154912480Y-86499501D01*
X154809703Y-86510000D01*
X154809700Y-86510001D01*
X154643168Y-86565185D01*
X154643163Y-86565187D01*
X154493842Y-86657289D01*
X154400181Y-86750951D01*
X154338858Y-86784436D01*
X154269166Y-86779452D01*
X154224819Y-86750951D01*
X154131157Y-86657289D01*
X154131156Y-86657288D01*
X153981834Y-86565186D01*
X153815297Y-86510001D01*
X153815295Y-86510000D01*
X153712510Y-86499500D01*
X153087498Y-86499500D01*
X153087480Y-86499501D01*
X152984703Y-86510000D01*
X152984700Y-86510001D01*
X152818168Y-86565185D01*
X152818163Y-86565187D01*
X152668842Y-86657289D01*
X152544789Y-86781342D01*
X152452687Y-86930663D01*
X152452683Y-86930672D01*
X152448035Y-86944701D01*
X152408262Y-87002145D01*
X152343745Y-87028967D01*
X152274970Y-87016651D01*
X152261440Y-87008798D01*
X152249183Y-87000608D01*
X152249172Y-87000602D01*
X152103501Y-86940264D01*
X152103489Y-86940261D01*
X151948845Y-86909500D01*
X151948842Y-86909500D01*
X151791158Y-86909500D01*
X151791155Y-86909500D01*
X151636510Y-86940261D01*
X151636498Y-86940264D01*
X151490827Y-87000602D01*
X151490814Y-87000609D01*
X151359711Y-87088210D01*
X151359707Y-87088213D01*
X151248213Y-87199707D01*
X151248210Y-87199711D01*
X151160609Y-87330814D01*
X151160602Y-87330827D01*
X151100264Y-87476498D01*
X151100261Y-87476510D01*
X151069500Y-87631153D01*
X151069500Y-87788846D01*
X151100261Y-87943489D01*
X151100264Y-87943501D01*
X151160602Y-88089172D01*
X151160609Y-88089185D01*
X151248210Y-88220288D01*
X151248213Y-88220292D01*
X151359707Y-88331786D01*
X151359711Y-88331789D01*
X151490814Y-88419390D01*
X151490827Y-88419397D01*
X151631817Y-88477796D01*
X151636503Y-88479737D01*
X151747124Y-88501741D01*
X151791153Y-88510499D01*
X151791156Y-88510500D01*
X151791158Y-88510500D01*
X151948844Y-88510500D01*
X151948845Y-88510499D01*
X152103497Y-88479737D01*
X152228895Y-88427796D01*
X152249172Y-88419397D01*
X152249173Y-88419396D01*
X152249179Y-88419394D01*
X152266864Y-88407576D01*
X152333538Y-88386698D01*
X152400919Y-88405180D01*
X152447611Y-88457157D01*
X152451447Y-88466675D01*
X152452687Y-88469336D01*
X152459103Y-88479738D01*
X152544788Y-88618656D01*
X152668844Y-88742712D01*
X152790597Y-88817809D01*
X152837321Y-88869755D01*
X152849500Y-88923347D01*
X152849500Y-89887837D01*
X152829815Y-89954876D01*
X152777011Y-90000631D01*
X152751459Y-90009089D01*
X152747207Y-90009999D01*
X152580668Y-90065185D01*
X152580663Y-90065187D01*
X152431342Y-90157289D01*
X152307289Y-90281342D01*
X152215187Y-90430663D01*
X152215186Y-90430666D01*
X152160001Y-90597203D01*
X152160001Y-90597204D01*
X152160000Y-90597204D01*
X152149500Y-90699983D01*
X152149500Y-90725500D01*
X152129815Y-90792539D01*
X152077011Y-90838294D01*
X152025500Y-90849500D01*
X151135929Y-90849500D01*
X151010261Y-90874497D01*
X151010255Y-90874499D01*
X150891870Y-90923535D01*
X150785331Y-90994722D01*
X150785324Y-90994728D01*
X149194727Y-92585325D01*
X149194723Y-92585331D01*
X149152265Y-92648876D01*
X149144319Y-92660768D01*
X149144317Y-92660770D01*
X149123539Y-92691864D01*
X149123533Y-92691875D01*
X149074499Y-92810255D01*
X149074497Y-92810261D01*
X149049500Y-92935928D01*
X149049500Y-96284216D01*
X149029815Y-96351255D01*
X149013181Y-96371897D01*
X148922863Y-96462214D01*
X148922860Y-96462218D01*
X148813371Y-96626079D01*
X148813364Y-96626092D01*
X148737950Y-96808160D01*
X148737947Y-96808170D01*
X148699500Y-97001456D01*
X148699500Y-97001459D01*
X148699500Y-97198541D01*
X148699500Y-97198543D01*
X148699499Y-97198543D01*
X141200500Y-97198543D01*
X141200500Y-97198541D01*
X141200500Y-97001459D01*
X141200500Y-97001456D01*
X141162052Y-96808170D01*
X141162051Y-96808169D01*
X141162051Y-96808165D01*
X141128050Y-96726079D01*
X141086635Y-96626092D01*
X141086628Y-96626079D01*
X140977139Y-96462218D01*
X140977136Y-96462214D01*
X140886819Y-96371897D01*
X140853334Y-96310574D01*
X140850500Y-96284216D01*
X140850500Y-93120808D01*
X140870185Y-93053769D01*
X140886819Y-93033127D01*
X141633127Y-92286819D01*
X141694450Y-92253334D01*
X141720808Y-92250500D01*
X142360019Y-92250500D01*
X142427058Y-92270185D01*
X142472813Y-92322989D01*
X142483377Y-92361899D01*
X142485000Y-92377796D01*
X142485001Y-92377799D01*
X142540185Y-92544331D01*
X142540187Y-92544336D01*
X142551790Y-92563147D01*
X142632288Y-92693656D01*
X142756344Y-92817712D01*
X142905666Y-92909814D01*
X143072203Y-92964999D01*
X143174991Y-92975500D01*
X144475008Y-92975499D01*
X144577797Y-92964999D01*
X144744334Y-92909814D01*
X144893656Y-92817712D01*
X145017712Y-92693656D01*
X145109814Y-92544334D01*
X145164999Y-92377797D01*
X145175500Y-92275009D01*
X145175499Y-90674992D01*
X145164999Y-90572203D01*
X145109814Y-90405666D01*
X145017712Y-90256344D01*
X144893656Y-90132288D01*
X144744334Y-90040186D01*
X144744333Y-90040185D01*
X144744327Y-90040183D01*
X144736437Y-90037569D01*
X144678993Y-89997795D01*
X144652171Y-89933279D01*
X144664487Y-89864504D01*
X144687761Y-89832183D01*
X144730276Y-89789670D01*
X144801465Y-89683127D01*
X144850501Y-89564744D01*
X144869969Y-89466873D01*
X144875500Y-89439069D01*
X144875500Y-89036667D01*
X144895185Y-88969628D01*
X144916278Y-88944743D01*
X144924715Y-88937104D01*
X144956156Y-88917712D01*
X145051996Y-88821871D01*
X145054278Y-88819806D01*
X145083075Y-88805889D01*
X145111142Y-88790564D01*
X145114318Y-88790791D01*
X145117187Y-88789405D01*
X145148930Y-88793266D01*
X145180834Y-88795548D01*
X145183903Y-88797520D01*
X145186545Y-88797842D01*
X145193928Y-88803963D01*
X145225181Y-88824049D01*
X145318844Y-88917712D01*
X145468166Y-89009814D01*
X145634703Y-89064999D01*
X145737491Y-89075500D01*
X146362508Y-89075499D01*
X146362516Y-89075498D01*
X146362519Y-89075498D01*
X146418802Y-89069748D01*
X146465297Y-89064999D01*
X146631834Y-89009814D01*
X146781156Y-88917712D01*
X146905212Y-88793656D01*
X146934014Y-88746958D01*
X146985958Y-88700236D01*
X147054921Y-88689013D01*
X147087003Y-88697495D01*
X147111918Y-88707816D01*
X147276228Y-88740499D01*
X147276232Y-88740500D01*
X147276233Y-88740500D01*
X147443768Y-88740500D01*
X147443769Y-88740499D01*
X147608082Y-88707816D01*
X147762863Y-88643703D01*
X147902162Y-88550626D01*
X148020626Y-88432162D01*
X148113703Y-88292863D01*
X148177816Y-88138082D01*
X148210500Y-87973767D01*
X148210500Y-87806233D01*
X148177816Y-87641918D01*
X148113703Y-87487137D01*
X148066228Y-87416086D01*
X148020626Y-87347837D01*
X147902162Y-87229373D01*
X147762860Y-87136295D01*
X147608082Y-87072184D01*
X147608074Y-87072182D01*
X147443771Y-87039500D01*
X147443767Y-87039500D01*
X147276233Y-87039500D01*
X147276228Y-87039500D01*
X147111925Y-87072182D01*
X147111914Y-87072185D01*
X147101738Y-87076400D01*
X147032268Y-87083866D01*
X146969790Y-87052588D01*
X146948751Y-87026933D01*
X146937565Y-87008798D01*
X146905212Y-86956344D01*
X146781156Y-86832288D01*
X146631834Y-86740186D01*
X146465297Y-86685001D01*
X146465295Y-86685000D01*
X146362510Y-86674500D01*
X145737498Y-86674500D01*
X145737480Y-86674501D01*
X145634703Y-86685000D01*
X145634700Y-86685001D01*
X145468168Y-86740185D01*
X145468163Y-86740187D01*
X145318842Y-86832289D01*
X145225181Y-86925951D01*
X145163858Y-86959436D01*
X145094166Y-86954452D01*
X145049819Y-86925951D01*
X144956157Y-86832289D01*
X144956156Y-86832288D01*
X144806834Y-86740186D01*
X144640297Y-86685001D01*
X144640295Y-86685000D01*
X144537510Y-86674500D01*
X143912498Y-86674500D01*
X143912480Y-86674501D01*
X143809703Y-86685000D01*
X143809700Y-86685001D01*
X143643168Y-86740185D01*
X143643163Y-86740187D01*
X143493842Y-86832289D01*
X143369789Y-86956342D01*
X143277681Y-87105674D01*
X143275467Y-87110422D01*
X143229291Y-87162858D01*
X143162096Y-87182005D01*
X143115637Y-87172570D01*
X143013501Y-87130264D01*
X143013489Y-87130261D01*
X142858845Y-87099500D01*
X142858842Y-87099500D01*
X142701158Y-87099500D01*
X142701155Y-87099500D01*
X142546510Y-87130261D01*
X142546498Y-87130264D01*
X142400827Y-87190602D01*
X142400814Y-87190609D01*
X142269711Y-87278210D01*
X142269707Y-87278213D01*
X142158213Y-87389707D01*
X142158210Y-87389711D01*
X142070609Y-87520814D01*
X142070602Y-87520827D01*
X142010264Y-87666498D01*
X142010261Y-87666510D01*
X141979500Y-87821153D01*
X141979500Y-87978846D01*
X142010261Y-88133489D01*
X142010264Y-88133501D01*
X142070602Y-88279172D01*
X142070609Y-88279185D01*
X142158210Y-88410288D01*
X142158213Y-88410292D01*
X142269707Y-88521786D01*
X142269711Y-88521789D01*
X142400814Y-88609390D01*
X142400827Y-88609397D01*
X142540231Y-88667139D01*
X142546503Y-88669737D01*
X142686056Y-88697496D01*
X142701153Y-88700499D01*
X142701156Y-88700500D01*
X142701158Y-88700500D01*
X142858844Y-88700500D01*
X142858845Y-88700499D01*
X143013497Y-88669737D01*
X143138849Y-88617814D01*
X143208316Y-88610346D01*
X143270796Y-88641621D01*
X143291837Y-88667276D01*
X143369788Y-88793656D01*
X143493844Y-88917712D01*
X143515594Y-88931127D01*
X143522418Y-88938713D01*
X143531703Y-88942954D01*
X143545390Y-88964252D01*
X143562320Y-88983073D01*
X143564964Y-88994710D01*
X143569477Y-89001732D01*
X143574500Y-89036667D01*
X143574500Y-89054191D01*
X143554815Y-89121230D01*
X143538181Y-89141872D01*
X143319727Y-89360325D01*
X143319726Y-89360326D01*
X143267114Y-89439068D01*
X143267112Y-89439070D01*
X143248539Y-89466864D01*
X143248533Y-89466875D01*
X143199499Y-89585255D01*
X143199499Y-89585256D01*
X143174500Y-89710928D01*
X143174500Y-89862837D01*
X143154815Y-89929876D01*
X143102011Y-89975631D01*
X143076459Y-89984089D01*
X143072207Y-89984999D01*
X142905668Y-90040185D01*
X142905663Y-90040187D01*
X142756342Y-90132289D01*
X142632289Y-90256342D01*
X142540187Y-90405663D01*
X142540186Y-90405666D01*
X142485001Y-90572203D01*
X142485001Y-90572204D01*
X142485000Y-90572204D01*
X142474500Y-90674983D01*
X142474500Y-90825500D01*
X142454815Y-90892539D01*
X142402011Y-90938294D01*
X142350500Y-90949500D01*
X141335929Y-90949500D01*
X141210261Y-90974497D01*
X141210255Y-90974499D01*
X141091870Y-91023535D01*
X140985331Y-91094722D01*
X140985324Y-91094728D01*
X139694727Y-92385325D01*
X139694721Y-92385332D01*
X139634474Y-92475498D01*
X139634475Y-92475499D01*
X139623535Y-92491871D01*
X139574499Y-92610255D01*
X139574497Y-92610261D01*
X139549500Y-92735928D01*
X139549500Y-96284216D01*
X139529815Y-96351255D01*
X139513181Y-96371897D01*
X139422863Y-96462214D01*
X139422860Y-96462218D01*
X139313371Y-96626079D01*
X139313364Y-96626092D01*
X139237950Y-96808160D01*
X139237947Y-96808170D01*
X139199500Y-97001456D01*
X139199500Y-97001459D01*
X139199500Y-97198541D01*
X139199500Y-97198543D01*
X139199499Y-97198543D01*
X131300500Y-97198543D01*
X131300500Y-97101456D01*
X131284209Y-97019559D01*
X131284209Y-97019558D01*
X131262052Y-96908172D01*
X131262052Y-96908170D01*
X131262051Y-96908165D01*
X131220628Y-96808160D01*
X131186635Y-96726092D01*
X131186628Y-96726079D01*
X131077139Y-96562218D01*
X131077136Y-96562214D01*
X130986819Y-96471897D01*
X130953334Y-96410574D01*
X130950500Y-96384216D01*
X130950500Y-93120808D01*
X130970185Y-93053769D01*
X130986819Y-93033127D01*
X131858127Y-92161819D01*
X131919450Y-92128334D01*
X131945808Y-92125500D01*
X132550501Y-92125500D01*
X132617540Y-92145185D01*
X132663295Y-92197989D01*
X132674501Y-92249500D01*
X132674501Y-92275018D01*
X132685000Y-92377796D01*
X132685001Y-92377799D01*
X132740185Y-92544331D01*
X132740187Y-92544336D01*
X132751790Y-92563147D01*
X132832288Y-92693656D01*
X132956344Y-92817712D01*
X133105666Y-92909814D01*
X133272203Y-92964999D01*
X133374991Y-92975500D01*
X134675008Y-92975499D01*
X134777797Y-92964999D01*
X134944334Y-92909814D01*
X135093656Y-92817712D01*
X135217712Y-92693656D01*
X135309814Y-92544334D01*
X135364999Y-92377797D01*
X135375500Y-92275009D01*
X135375499Y-90674992D01*
X135364999Y-90572203D01*
X135309814Y-90405666D01*
X135217712Y-90256344D01*
X135093656Y-90132288D01*
X134944334Y-90040186D01*
X134850487Y-90009088D01*
X134777795Y-89985000D01*
X134773533Y-89984088D01*
X134712102Y-89950801D01*
X134678419Y-89889586D01*
X134675500Y-89862837D01*
X134675500Y-89092874D01*
X134695185Y-89025835D01*
X134747989Y-88980080D01*
X134760488Y-88975170D01*
X134806834Y-88959814D01*
X134956156Y-88867712D01*
X135049819Y-88774049D01*
X135111142Y-88740564D01*
X135180834Y-88745548D01*
X135225181Y-88774049D01*
X135318844Y-88867712D01*
X135468166Y-88959814D01*
X135634703Y-89014999D01*
X135737491Y-89025500D01*
X136362508Y-89025499D01*
X136362516Y-89025498D01*
X136362519Y-89025498D01*
X136418802Y-89019748D01*
X136465297Y-89014999D01*
X136631834Y-88959814D01*
X136781156Y-88867712D01*
X136905212Y-88743656D01*
X136949945Y-88671130D01*
X137001889Y-88624408D01*
X137070852Y-88613185D01*
X137102930Y-88621666D01*
X137141918Y-88637816D01*
X137289321Y-88667136D01*
X137306228Y-88670499D01*
X137306232Y-88670500D01*
X137306233Y-88670500D01*
X137473768Y-88670500D01*
X137473769Y-88670499D01*
X137638082Y-88637816D01*
X137792863Y-88573703D01*
X137932162Y-88480626D01*
X138050626Y-88362162D01*
X138143703Y-88222863D01*
X138207816Y-88068082D01*
X138240500Y-87903767D01*
X138240500Y-87736233D01*
X138207816Y-87571918D01*
X138143703Y-87417137D01*
X138087035Y-87332328D01*
X138050626Y-87277837D01*
X137932162Y-87159373D01*
X137792860Y-87066295D01*
X137638082Y-87002184D01*
X137638074Y-87002182D01*
X137473771Y-86969500D01*
X137473767Y-86969500D01*
X137306233Y-86969500D01*
X137306228Y-86969500D01*
X137141925Y-87002182D01*
X137141917Y-87002184D01*
X137098023Y-87020366D01*
X137028553Y-87027835D01*
X136966074Y-86996560D01*
X136945031Y-86970902D01*
X136905212Y-86906344D01*
X136781156Y-86782288D01*
X136663478Y-86709704D01*
X136631836Y-86690187D01*
X136631831Y-86690185D01*
X136616184Y-86685000D01*
X136465297Y-86635001D01*
X136465295Y-86635000D01*
X136362510Y-86624500D01*
X135737498Y-86624500D01*
X135737480Y-86624501D01*
X135634703Y-86635000D01*
X135634700Y-86635001D01*
X135468168Y-86690185D01*
X135468163Y-86690187D01*
X135318842Y-86782289D01*
X135225181Y-86875951D01*
X135217235Y-86880289D01*
X135211810Y-86887537D01*
X135187050Y-86896771D01*
X135163858Y-86909436D01*
X135154828Y-86908790D01*
X135146346Y-86911954D01*
X135120525Y-86906337D01*
X135094166Y-86904452D01*
X135085112Y-86898633D01*
X135078073Y-86897102D01*
X135049819Y-86875951D01*
X135014587Y-86840719D01*
X134981102Y-86779396D01*
X134986086Y-86709704D01*
X135014585Y-86665359D01*
X137537821Y-84142124D01*
X137599142Y-84108641D01*
X137668834Y-84113625D01*
X137724767Y-84155497D01*
X137749184Y-84220961D01*
X137749500Y-84229807D01*
X137749500Y-84378846D01*
X137780261Y-84533489D01*
X137780264Y-84533501D01*
X137840602Y-84679172D01*
X137840609Y-84679185D01*
X137928210Y-84810288D01*
X137928213Y-84810292D01*
X138039707Y-84921786D01*
X138039711Y-84921789D01*
X138170814Y-85009390D01*
X138170827Y-85009397D01*
X138253257Y-85043540D01*
X138316503Y-85069737D01*
X138471153Y-85100499D01*
X138471156Y-85100500D01*
X138471158Y-85100500D01*
X138628844Y-85100500D01*
X138628845Y-85100499D01*
X138783497Y-85069737D01*
X138929179Y-85009394D01*
X139060289Y-84921789D01*
X139157695Y-84824382D01*
X139219016Y-84790898D01*
X139288707Y-84795882D01*
X139292810Y-84797496D01*
X139304448Y-84802317D01*
X139346497Y-84819735D01*
X139346499Y-84819735D01*
X139346503Y-84819737D01*
X139453771Y-84841074D01*
X139501153Y-84850499D01*
X139501156Y-84850500D01*
X139501158Y-84850500D01*
X139658844Y-84850500D01*
X139658845Y-84850499D01*
X139813497Y-84819737D01*
X139959179Y-84759394D01*
X140090289Y-84671789D01*
X140201789Y-84560289D01*
X140289394Y-84429179D01*
X140349737Y-84283497D01*
X140380500Y-84128842D01*
X140380500Y-83971158D01*
X140380500Y-83971155D01*
X140380499Y-83971153D01*
X140372272Y-83929792D01*
X140349737Y-83816503D01*
X140327842Y-83763645D01*
X140320374Y-83694178D01*
X140351649Y-83631698D01*
X140411738Y-83596046D01*
X140481408Y-83598488D01*
X140532292Y-83615349D01*
X140631655Y-83625500D01*
X141178344Y-83625499D01*
X141178352Y-83625498D01*
X141178355Y-83625498D01*
X141232760Y-83619940D01*
X141277708Y-83615349D01*
X141438697Y-83562003D01*
X141583044Y-83472968D01*
X141702968Y-83353044D01*
X141792003Y-83208697D01*
X141845349Y-83047708D01*
X141855500Y-82948345D01*
X141855499Y-82351656D01*
X141845349Y-82252292D01*
X141792003Y-82091303D01*
X141791999Y-82091297D01*
X141791998Y-82091294D01*
X141712272Y-81962039D01*
X141693831Y-81894647D01*
X141714753Y-81827983D01*
X141768395Y-81783214D01*
X141837726Y-81774552D01*
X141882905Y-81791403D01*
X141916303Y-81812003D01*
X142077292Y-81865349D01*
X142176655Y-81875500D01*
X142723344Y-81875499D01*
X142723352Y-81875498D01*
X142723355Y-81875498D01*
X142798557Y-81867816D01*
X142822708Y-81865349D01*
X142983697Y-81812003D01*
X143128044Y-81722968D01*
X143175362Y-81675650D01*
X143236685Y-81642164D01*
X143306376Y-81647148D01*
X143331933Y-81660227D01*
X143337127Y-81663697D01*
X143337132Y-81663699D01*
X143337137Y-81663703D01*
X143491918Y-81727816D01*
X143646656Y-81758595D01*
X143656228Y-81760499D01*
X143656232Y-81760500D01*
X143656233Y-81760500D01*
X143823768Y-81760500D01*
X143823769Y-81760499D01*
X143988082Y-81727816D01*
X144142863Y-81663703D01*
X144282162Y-81570626D01*
X144400626Y-81452162D01*
X144493703Y-81312863D01*
X144557816Y-81158082D01*
X144590500Y-80993767D01*
X144590500Y-80826233D01*
X144557816Y-80661918D01*
X144493703Y-80507137D01*
X144456981Y-80452179D01*
X144400626Y-80367837D01*
X144282162Y-80249373D01*
X144142860Y-80156295D01*
X143988082Y-80092184D01*
X143988074Y-80092182D01*
X143823771Y-80059500D01*
X143823767Y-80059500D01*
X143656233Y-80059500D01*
X143656228Y-80059500D01*
X143491925Y-80092182D01*
X143491917Y-80092184D01*
X143337132Y-80156298D01*
X143333635Y-80158168D01*
X143331593Y-80158593D01*
X143331509Y-80158628D01*
X143331502Y-80158611D01*
X143316431Y-80161749D01*
X143300967Y-80170099D01*
X143282935Y-80168723D01*
X143265232Y-80172409D01*
X143248693Y-80166110D01*
X143231300Y-80164784D01*
X143211330Y-80151883D01*
X143200403Y-80147722D01*
X143193562Y-80142550D01*
X143128044Y-80077032D01*
X143013210Y-80006200D01*
X143008523Y-80002657D01*
X143001475Y-79993148D01*
X142980202Y-79972635D01*
X142955274Y-79935327D01*
X142586819Y-79566872D01*
X142553334Y-79505549D01*
X142550500Y-79479191D01*
X142550500Y-79418604D01*
X142570185Y-79351565D01*
X142622989Y-79305810D01*
X142692147Y-79295866D01*
X142755703Y-79324891D01*
X142777598Y-79349709D01*
X142823633Y-79418604D01*
X142839375Y-79442164D01*
X142957837Y-79560626D01*
X143016018Y-79599501D01*
X143097137Y-79653703D01*
X143097138Y-79653703D01*
X143097139Y-79653704D01*
X143113428Y-79660451D01*
X143251918Y-79717816D01*
X143395485Y-79746373D01*
X143416228Y-79750499D01*
X143416232Y-79750500D01*
X143416233Y-79750500D01*
X143583768Y-79750500D01*
X143583769Y-79750499D01*
X143748082Y-79717816D01*
X143902863Y-79653703D01*
X144042162Y-79560626D01*
X144160626Y-79442162D01*
X144253703Y-79302863D01*
X144253710Y-79302844D01*
X144254724Y-79300950D01*
X144255527Y-79300131D01*
X144257087Y-79297798D01*
X144257529Y-79298093D01*
X144303683Y-79251102D01*
X144371819Y-79235636D01*
X144437501Y-79259463D01*
X144451768Y-79271714D01*
X144719345Y-79539291D01*
X144752830Y-79600614D01*
X144753281Y-79602781D01*
X144782182Y-79748074D01*
X144782184Y-79748082D01*
X144846295Y-79902860D01*
X144939373Y-80042162D01*
X145057837Y-80160626D01*
X145112209Y-80196956D01*
X145197137Y-80253703D01*
X145197138Y-80253703D01*
X145197139Y-80253704D01*
X145228932Y-80266873D01*
X145351918Y-80317816D01*
X145516228Y-80350499D01*
X145516232Y-80350500D01*
X145516233Y-80350500D01*
X145683768Y-80350500D01*
X145683769Y-80350499D01*
X145848082Y-80317816D01*
X146002863Y-80253703D01*
X146056612Y-80217788D01*
X146123286Y-80196912D01*
X146190666Y-80215396D01*
X146237357Y-80267374D01*
X146249500Y-80320892D01*
X146249500Y-81264070D01*
X146271857Y-81376459D01*
X146271857Y-81376468D01*
X146271859Y-81376468D01*
X146274499Y-81389745D01*
X146323533Y-81508125D01*
X146357654Y-81559191D01*
X146389791Y-81607288D01*
X146394726Y-81614673D01*
X146394727Y-81614674D01*
X148394724Y-83614669D01*
X148450876Y-83670821D01*
X148485332Y-83705277D01*
X148591866Y-83776461D01*
X148591872Y-83776464D01*
X148591873Y-83776465D01*
X148710256Y-83825501D01*
X148710260Y-83825501D01*
X148710261Y-83825502D01*
X148835928Y-83850500D01*
X148835931Y-83850500D01*
X155564071Y-83850500D01*
X155648615Y-83833682D01*
X155689744Y-83825501D01*
X155808127Y-83776465D01*
X155826679Y-83764069D01*
X155914669Y-83705277D01*
X157469963Y-82149983D01*
X165549500Y-82149983D01*
X165549500Y-83700001D01*
X165549501Y-83700018D01*
X165560000Y-83802796D01*
X165560001Y-83802799D01*
X165615185Y-83969331D01*
X165615187Y-83969336D01*
X165650069Y-84025888D01*
X165707288Y-84118656D01*
X165831344Y-84242712D01*
X165980666Y-84334814D01*
X166147203Y-84389999D01*
X166249991Y-84400500D01*
X167550008Y-84400499D01*
X167652797Y-84389999D01*
X167819334Y-84334814D01*
X167968656Y-84242712D01*
X168092712Y-84118656D01*
X168184814Y-83969334D01*
X168184814Y-83969331D01*
X168188178Y-83963879D01*
X168240126Y-83917154D01*
X168309088Y-83905931D01*
X168373170Y-83933774D01*
X168381398Y-83941294D01*
X168520208Y-84080104D01*
X168692184Y-84205051D01*
X168692188Y-84205053D01*
X168696126Y-84207914D01*
X168695146Y-84209262D01*
X168737160Y-84255690D01*
X168749500Y-84309617D01*
X168749500Y-84884073D01*
X168774416Y-85009331D01*
X168774497Y-85009738D01*
X168774500Y-85009747D01*
X168823533Y-85128125D01*
X168894726Y-85234673D01*
X168894727Y-85234674D01*
X175654723Y-91994669D01*
X175745331Y-92085277D01*
X175834156Y-92144627D01*
X175851874Y-92156466D01*
X175925154Y-92186819D01*
X175970256Y-92205501D01*
X175970257Y-92205501D01*
X175970262Y-92205503D01*
X175991105Y-92209648D01*
X175991112Y-92209649D01*
X176095929Y-92230500D01*
X176095931Y-92230500D01*
X176224071Y-92230500D01*
X176328896Y-92209648D01*
X176349744Y-92205501D01*
X176435598Y-92169938D01*
X176483051Y-92160500D01*
X180724217Y-92160500D01*
X180791256Y-92180185D01*
X180811893Y-92196814D01*
X180864579Y-92249500D01*
X180902219Y-92287140D01*
X181066079Y-92396628D01*
X181066092Y-92396635D01*
X181248160Y-92472049D01*
X181248165Y-92472051D01*
X181248169Y-92472051D01*
X181248170Y-92472052D01*
X181441456Y-92510500D01*
X181441459Y-92510500D01*
X181638543Y-92510500D01*
X181768582Y-92484632D01*
X181831835Y-92472051D01*
X181985996Y-92408196D01*
X182013907Y-92396635D01*
X182013907Y-92396634D01*
X182013914Y-92396632D01*
X182177782Y-92287139D01*
X182317139Y-92147782D01*
X182426632Y-91983914D01*
X182502051Y-91801835D01*
X182540500Y-91608541D01*
X182540500Y-91411459D01*
X182540500Y-91411456D01*
X182502052Y-91218170D01*
X182502051Y-91218169D01*
X182502051Y-91218165D01*
X182499872Y-91212904D01*
X182426635Y-91036092D01*
X182426628Y-91036079D01*
X182317139Y-90872218D01*
X182317136Y-90872214D01*
X182177785Y-90732863D01*
X182177781Y-90732860D01*
X182013920Y-90623371D01*
X182013907Y-90623364D01*
X181831839Y-90547950D01*
X181831829Y-90547947D01*
X181638543Y-90509500D01*
X181638541Y-90509500D01*
X181441459Y-90509500D01*
X181441457Y-90509500D01*
X181248170Y-90547947D01*
X181248160Y-90547950D01*
X181066092Y-90623364D01*
X181066079Y-90623371D01*
X180902219Y-90732859D01*
X180867540Y-90767539D01*
X180811896Y-90823182D01*
X180750576Y-90856666D01*
X180724217Y-90859500D01*
X176410808Y-90859500D01*
X176343769Y-90839815D01*
X176323127Y-90823181D01*
X170086819Y-84586873D01*
X170072115Y-84559945D01*
X170055523Y-84534127D01*
X170054631Y-84527926D01*
X170053334Y-84525550D01*
X170050500Y-84499192D01*
X170050500Y-84309617D01*
X170070185Y-84242578D01*
X170104592Y-84208902D01*
X170103874Y-84207914D01*
X170107811Y-84205053D01*
X170107816Y-84205051D01*
X170279792Y-84080104D01*
X170430104Y-83929792D01*
X170430106Y-83929788D01*
X170430109Y-83929786D01*
X170550508Y-83764069D01*
X170555051Y-83757816D01*
X170651557Y-83568412D01*
X170717246Y-83366243D01*
X170750500Y-83156287D01*
X170750500Y-82693713D01*
X170717246Y-82483757D01*
X170651557Y-82281588D01*
X170555051Y-82092184D01*
X170555049Y-82092181D01*
X170555048Y-82092179D01*
X170430109Y-81920213D01*
X170279786Y-81769890D01*
X170107820Y-81644951D01*
X169918414Y-81548444D01*
X169918413Y-81548443D01*
X169918412Y-81548443D01*
X169716243Y-81482754D01*
X169716241Y-81482753D01*
X169716240Y-81482753D01*
X169554957Y-81457208D01*
X169506287Y-81449500D01*
X169293713Y-81449500D01*
X169245042Y-81457208D01*
X169083760Y-81482753D01*
X168881585Y-81548444D01*
X168692179Y-81644951D01*
X168520215Y-81769889D01*
X168381398Y-81908706D01*
X168320075Y-81942190D01*
X168250383Y-81937206D01*
X168194450Y-81895334D01*
X168188178Y-81886120D01*
X168150610Y-81825213D01*
X168092712Y-81731344D01*
X167968656Y-81607288D01*
X167819334Y-81515186D01*
X167652797Y-81460001D01*
X167652795Y-81460000D01*
X167550010Y-81449500D01*
X166249998Y-81449500D01*
X166249981Y-81449501D01*
X166147203Y-81460000D01*
X166147200Y-81460001D01*
X165980668Y-81515185D01*
X165980663Y-81515187D01*
X165831342Y-81607289D01*
X165707289Y-81731342D01*
X165615187Y-81880663D01*
X165615185Y-81880668D01*
X165610553Y-81894647D01*
X165560001Y-82047203D01*
X165560001Y-82047204D01*
X165560000Y-82047204D01*
X165549500Y-82149983D01*
X157469963Y-82149983D01*
X158833127Y-80786819D01*
X158894450Y-80753334D01*
X158920808Y-80750500D01*
X174064071Y-80750500D01*
X174148615Y-80733682D01*
X174189744Y-80725501D01*
X174308127Y-80676465D01*
X174321178Y-80667744D01*
X174329899Y-80661918D01*
X174386284Y-80624242D01*
X174414669Y-80605277D01*
X175505277Y-79514669D01*
X175576466Y-79408126D01*
X175610690Y-79325501D01*
X175625501Y-79289744D01*
X175650500Y-79164069D01*
X175650500Y-77620808D01*
X175670185Y-77553769D01*
X175686819Y-77533127D01*
X176143127Y-77076819D01*
X176204450Y-77043334D01*
X176230808Y-77040500D01*
X176540382Y-77040500D01*
X176607421Y-77060185D01*
X176641099Y-77094591D01*
X176642085Y-77093875D01*
X176769890Y-77269786D01*
X176920213Y-77420109D01*
X177092182Y-77545050D01*
X177100946Y-77549516D01*
X177151742Y-77597491D01*
X177168536Y-77665312D01*
X177145998Y-77731447D01*
X177100946Y-77770484D01*
X177092182Y-77774949D01*
X176920213Y-77899890D01*
X176769890Y-78050213D01*
X176644951Y-78222179D01*
X176548444Y-78411585D01*
X176482753Y-78613760D01*
X176456551Y-78779192D01*
X176449500Y-78823713D01*
X176449500Y-79036287D01*
X176482754Y-79246243D01*
X176546412Y-79442162D01*
X176548444Y-79448414D01*
X176644951Y-79637820D01*
X176769890Y-79809786D01*
X176920213Y-79960109D01*
X177092182Y-80085050D01*
X177100946Y-80089516D01*
X177151742Y-80137491D01*
X177168536Y-80205312D01*
X177145998Y-80271447D01*
X177100946Y-80310484D01*
X177092182Y-80314949D01*
X176920213Y-80439890D01*
X176769890Y-80590213D01*
X176644951Y-80762179D01*
X176548444Y-80951585D01*
X176482753Y-81153760D01*
X176459954Y-81297707D01*
X176449500Y-81363713D01*
X176449500Y-81576287D01*
X176455579Y-81614669D01*
X176482636Y-81785502D01*
X176482754Y-81786243D01*
X176547274Y-81984815D01*
X176548444Y-81988414D01*
X176644951Y-82177820D01*
X176769890Y-82349786D01*
X176883430Y-82463326D01*
X176916915Y-82524649D01*
X176911931Y-82594341D01*
X176870059Y-82650274D01*
X176839083Y-82667189D01*
X176707669Y-82716203D01*
X176707664Y-82716206D01*
X176592455Y-82802452D01*
X176592452Y-82802455D01*
X176506206Y-82917664D01*
X176506202Y-82917671D01*
X176455908Y-83052517D01*
X176450569Y-83102182D01*
X176449501Y-83112123D01*
X176449500Y-83112135D01*
X176449500Y-84907870D01*
X176449501Y-84907876D01*
X176455908Y-84967483D01*
X176506202Y-85102328D01*
X176506206Y-85102335D01*
X176592452Y-85217544D01*
X176592455Y-85217547D01*
X176707664Y-85303793D01*
X176707671Y-85303797D01*
X176842517Y-85354091D01*
X176842516Y-85354091D01*
X176849444Y-85354835D01*
X176902127Y-85360500D01*
X178697872Y-85360499D01*
X178757483Y-85354091D01*
X178892331Y-85303796D01*
X179007546Y-85217546D01*
X179093796Y-85102331D01*
X179144091Y-84967483D01*
X179150500Y-84907873D01*
X179150499Y-83112128D01*
X179144091Y-83052517D01*
X179142297Y-83047708D01*
X179093797Y-82917671D01*
X179093793Y-82917664D01*
X179007547Y-82802455D01*
X179007544Y-82802452D01*
X178892335Y-82716206D01*
X178892328Y-82716202D01*
X178760917Y-82667189D01*
X178704983Y-82625318D01*
X178680566Y-82559853D01*
X178695418Y-82491580D01*
X178716563Y-82463332D01*
X178830104Y-82349792D01*
X178955051Y-82177816D01*
X179051557Y-81988412D01*
X179117246Y-81786243D01*
X179150500Y-81576287D01*
X179150500Y-81363713D01*
X179117246Y-81153757D01*
X179051557Y-80951588D01*
X178955051Y-80762184D01*
X178955049Y-80762181D01*
X178955048Y-80762179D01*
X178830109Y-80590213D01*
X178679786Y-80439890D01*
X178507820Y-80314951D01*
X178507115Y-80314591D01*
X178499054Y-80310485D01*
X178448259Y-80262512D01*
X178431463Y-80194692D01*
X178453999Y-80128556D01*
X178499054Y-80089515D01*
X178507816Y-80085051D01*
X178587673Y-80027032D01*
X178679786Y-79960109D01*
X178679788Y-79960106D01*
X178679792Y-79960104D01*
X178830104Y-79809792D01*
X178830106Y-79809788D01*
X178830109Y-79809786D01*
X178955048Y-79637820D01*
X178955047Y-79637820D01*
X178955051Y-79637816D01*
X179051557Y-79448412D01*
X179117246Y-79246243D01*
X179150500Y-79036287D01*
X179150500Y-78823713D01*
X179117246Y-78613757D01*
X179051557Y-78411588D01*
X178955051Y-78222184D01*
X178955049Y-78222181D01*
X178955048Y-78222179D01*
X178830109Y-78050213D01*
X178679786Y-77899890D01*
X178507820Y-77774951D01*
X178507115Y-77774591D01*
X178499054Y-77770485D01*
X178448259Y-77722512D01*
X178431463Y-77654692D01*
X178453999Y-77588556D01*
X178499054Y-77549515D01*
X178507816Y-77545051D01*
X178633690Y-77453599D01*
X178679786Y-77420109D01*
X178679788Y-77420106D01*
X178679792Y-77420104D01*
X178830104Y-77269792D01*
X178830106Y-77269788D01*
X178830109Y-77269786D01*
X178955048Y-77097820D01*
X178955047Y-77097820D01*
X178955051Y-77097816D01*
X179051557Y-76908412D01*
X179117246Y-76706243D01*
X179150500Y-76496287D01*
X179150500Y-76283713D01*
X179117246Y-76073757D01*
X179051557Y-75871588D01*
X178955051Y-75682184D01*
X178888075Y-75589999D01*
X178835319Y-75517385D01*
X178811839Y-75451579D01*
X178827665Y-75383525D01*
X178877771Y-75334830D01*
X178935637Y-75320500D01*
X180039192Y-75320500D01*
X180106231Y-75340185D01*
X180126873Y-75356819D01*
X180853181Y-76083127D01*
X180886666Y-76144450D01*
X180889500Y-76170808D01*
X180889500Y-87074216D01*
X180869815Y-87141255D01*
X180853181Y-87161897D01*
X180762863Y-87252214D01*
X180762860Y-87252218D01*
X180653371Y-87416079D01*
X180653364Y-87416092D01*
X180577950Y-87598160D01*
X180577947Y-87598170D01*
X180539500Y-87791456D01*
X180539500Y-87791459D01*
X180539500Y-87988541D01*
X180539500Y-87988543D01*
X180539499Y-87988543D01*
X180577947Y-88181829D01*
X180577950Y-88181839D01*
X180653364Y-88363907D01*
X180653371Y-88363920D01*
X180762860Y-88527781D01*
X180762863Y-88527785D01*
X180902214Y-88667136D01*
X180902218Y-88667139D01*
X181066079Y-88776628D01*
X181066092Y-88776635D01*
X181231618Y-88845197D01*
X181248165Y-88852051D01*
X181248169Y-88852051D01*
X181248170Y-88852052D01*
X181441456Y-88890500D01*
X181441459Y-88890500D01*
X181638543Y-88890500D01*
X181768582Y-88864632D01*
X181831835Y-88852051D01*
X182013914Y-88776632D01*
X182177782Y-88667139D01*
X182317139Y-88527782D01*
X182426632Y-88363914D01*
X182502051Y-88181835D01*
X182517760Y-88102860D01*
X182540500Y-87988543D01*
X182540500Y-87791456D01*
X182502052Y-87598170D01*
X182502051Y-87598169D01*
X182502051Y-87598165D01*
X182498875Y-87590498D01*
X182426635Y-87416092D01*
X182426628Y-87416079D01*
X182317139Y-87252218D01*
X182317136Y-87252214D01*
X182226819Y-87161897D01*
X182193334Y-87100574D01*
X182190500Y-87074216D01*
X182190500Y-75785928D01*
X182165502Y-75660261D01*
X182165501Y-75660260D01*
X182165501Y-75660256D01*
X182116465Y-75541873D01*
X182095340Y-75510257D01*
X182095307Y-75510208D01*
X182045278Y-75435332D01*
X182045272Y-75435325D01*
X180774673Y-74164726D01*
X180774669Y-74164723D01*
X180668127Y-74093535D01*
X180668122Y-74093533D01*
X180549744Y-74044499D01*
X180549738Y-74044497D01*
X180424071Y-74019500D01*
X180424069Y-74019500D01*
X179232418Y-74019500D01*
X179165379Y-73999815D01*
X179119624Y-73947011D01*
X179109680Y-73877853D01*
X179116236Y-73852167D01*
X179134626Y-73802860D01*
X179144091Y-73777483D01*
X179150500Y-73717873D01*
X179150499Y-71922128D01*
X179144091Y-71862517D01*
X179142516Y-71858295D01*
X179093797Y-71727671D01*
X179093793Y-71727664D01*
X179007547Y-71612455D01*
X179007544Y-71612452D01*
X178892335Y-71526206D01*
X178892328Y-71526202D01*
X178760917Y-71477189D01*
X178704983Y-71435318D01*
X178680566Y-71369853D01*
X178695418Y-71301580D01*
X178716563Y-71273332D01*
X178830104Y-71159792D01*
X178837572Y-71149514D01*
X178955048Y-70987820D01*
X178955047Y-70987820D01*
X178955051Y-70987816D01*
X179051557Y-70798412D01*
X179117246Y-70596243D01*
X179150500Y-70386287D01*
X179150500Y-70173713D01*
X179117246Y-69963757D01*
X179051557Y-69761588D01*
X178955051Y-69572184D01*
X178955049Y-69572181D01*
X178955048Y-69572179D01*
X178830109Y-69400213D01*
X178679786Y-69249890D01*
X178507820Y-69124951D01*
X178500966Y-69121459D01*
X178499054Y-69120485D01*
X178448259Y-69072512D01*
X178431463Y-69004692D01*
X178453999Y-68938556D01*
X178499054Y-68899515D01*
X178507816Y-68895051D01*
X178530078Y-68878877D01*
X178679786Y-68770109D01*
X178679788Y-68770106D01*
X178679792Y-68770104D01*
X178830104Y-68619792D01*
X178830106Y-68619788D01*
X178830109Y-68619786D01*
X178952145Y-68451816D01*
X178955051Y-68447816D01*
X179051557Y-68258412D01*
X179117246Y-68056243D01*
X179150500Y-67846287D01*
X179150500Y-67633713D01*
X179117246Y-67423757D01*
X179051557Y-67221588D01*
X178955051Y-67032184D01*
X178955049Y-67032181D01*
X178955048Y-67032179D01*
X178830109Y-66860213D01*
X178679786Y-66709890D01*
X178507820Y-66584951D01*
X178318414Y-66488444D01*
X178318413Y-66488443D01*
X178318412Y-66488443D01*
X178116243Y-66422754D01*
X178116241Y-66422753D01*
X178116240Y-66422753D01*
X177932533Y-66393657D01*
X177906287Y-66389500D01*
X177693713Y-66389500D01*
X177667467Y-66393657D01*
X177483760Y-66422753D01*
X177281585Y-66488444D01*
X177092179Y-66584951D01*
X176920213Y-66709890D01*
X176769890Y-66860213D01*
X176644951Y-67032179D01*
X176548444Y-67221585D01*
X176482753Y-67423760D01*
X176458436Y-67577292D01*
X176449500Y-67633713D01*
X176449500Y-67846287D01*
X176482754Y-68056243D01*
X176537165Y-68223703D01*
X176548444Y-68258414D01*
X176644951Y-68447820D01*
X176769890Y-68619786D01*
X176920213Y-68770109D01*
X177092182Y-68895050D01*
X177100946Y-68899516D01*
X177151742Y-68947491D01*
X177168536Y-69015312D01*
X177145998Y-69081447D01*
X177100946Y-69120484D01*
X177092182Y-69124949D01*
X176920213Y-69249890D01*
X176769890Y-69400213D01*
X176642085Y-69576125D01*
X176640740Y-69575148D01*
X176594295Y-69617166D01*
X176540382Y-69629500D01*
X175455929Y-69629500D01*
X175330261Y-69654497D01*
X175330255Y-69654499D01*
X175211870Y-69703535D01*
X175105331Y-69774722D01*
X175105324Y-69774728D01*
X171972243Y-72907809D01*
X171910920Y-72941294D01*
X171841228Y-72936310D01*
X171785295Y-72894438D01*
X171781459Y-72889017D01*
X171760627Y-72857839D01*
X171760623Y-72857834D01*
X171642162Y-72739373D01*
X171502860Y-72646295D01*
X171348082Y-72582184D01*
X171348074Y-72582182D01*
X171183771Y-72549500D01*
X171183767Y-72549500D01*
X171016233Y-72549500D01*
X171016228Y-72549500D01*
X170851925Y-72582182D01*
X170851917Y-72582184D01*
X170697139Y-72646295D01*
X170573959Y-72728602D01*
X170555912Y-72734252D01*
X170540003Y-72744477D01*
X170509041Y-72748928D01*
X170507281Y-72749480D01*
X170505068Y-72749500D01*
X170256223Y-72749500D01*
X170189184Y-72729815D01*
X170143429Y-72677011D01*
X170133485Y-72607853D01*
X170162510Y-72544297D01*
X170183335Y-72525183D01*
X170279792Y-72455104D01*
X170430104Y-72304792D01*
X170430106Y-72304788D01*
X170430109Y-72304786D01*
X170555048Y-72132820D01*
X170555047Y-72132820D01*
X170555051Y-72132816D01*
X170651557Y-71943412D01*
X170717246Y-71741243D01*
X170750500Y-71531287D01*
X170750500Y-71068713D01*
X170717246Y-70858757D01*
X170651557Y-70656588D01*
X170555051Y-70467184D01*
X170555049Y-70467181D01*
X170555048Y-70467179D01*
X170430109Y-70295213D01*
X170279786Y-70144890D01*
X170103875Y-70017085D01*
X170104851Y-70015740D01*
X170062834Y-69969295D01*
X170050500Y-69915382D01*
X170050500Y-69625928D01*
X170025502Y-69500261D01*
X170025501Y-69500260D01*
X170025501Y-69500256D01*
X169976465Y-69381873D01*
X169955326Y-69350236D01*
X169905276Y-69275330D01*
X169905274Y-69275327D01*
X169344673Y-68714726D01*
X169334794Y-68708125D01*
X169238127Y-68643535D01*
X169219769Y-68635931D01*
X169189089Y-68623223D01*
X169119744Y-68594499D01*
X169119742Y-68594498D01*
X169119741Y-68594498D01*
X169114903Y-68593536D01*
X169114898Y-68593535D01*
X168994071Y-68569500D01*
X168994069Y-68569500D01*
X161335783Y-68569500D01*
X161268744Y-68549815D01*
X161248106Y-68533185D01*
X161157782Y-68442861D01*
X161157781Y-68442860D01*
X161157780Y-68442859D01*
X160993920Y-68333371D01*
X160993907Y-68333364D01*
X160811839Y-68257950D01*
X160811829Y-68257947D01*
X160618543Y-68219500D01*
X160618541Y-68219500D01*
X160421459Y-68219500D01*
X160421457Y-68219500D01*
X160228170Y-68257947D01*
X160228160Y-68257950D01*
X160046092Y-68333364D01*
X160046079Y-68333371D01*
X159882218Y-68442860D01*
X159882214Y-68442863D01*
X159742863Y-68582214D01*
X159742860Y-68582218D01*
X159633371Y-68746079D01*
X159633364Y-68746092D01*
X159557950Y-68928160D01*
X159557947Y-68928170D01*
X159519500Y-69121456D01*
X159519500Y-69121459D01*
X159519500Y-69318541D01*
X159519500Y-69318543D01*
X159519499Y-69318543D01*
X159557947Y-69511829D01*
X159557950Y-69511839D01*
X159633364Y-69693907D01*
X159633371Y-69693920D01*
X159742860Y-69857781D01*
X159742863Y-69857785D01*
X159882214Y-69997136D01*
X159882218Y-69997139D01*
X160046079Y-70106628D01*
X160046092Y-70106635D01*
X160228160Y-70182049D01*
X160228165Y-70182051D01*
X160228169Y-70182051D01*
X160228170Y-70182052D01*
X160421456Y-70220500D01*
X160421459Y-70220500D01*
X160618543Y-70220500D01*
X160752935Y-70193767D01*
X160811835Y-70182051D01*
X160993914Y-70106632D01*
X161157782Y-69997139D01*
X161248103Y-69906817D01*
X161309424Y-69873334D01*
X161335783Y-69870500D01*
X165643770Y-69870500D01*
X165710809Y-69890185D01*
X165756564Y-69942989D01*
X165766508Y-70012147D01*
X165737483Y-70075703D01*
X165731451Y-70082181D01*
X165707289Y-70106342D01*
X165615187Y-70255663D01*
X165615185Y-70255668D01*
X165589125Y-70334314D01*
X165560001Y-70422203D01*
X165560001Y-70422204D01*
X165560000Y-70422204D01*
X165549500Y-70524983D01*
X165549500Y-72075001D01*
X165549501Y-72075018D01*
X165560000Y-72177796D01*
X165560001Y-72177799D01*
X165605894Y-72316294D01*
X165615186Y-72344334D01*
X165707287Y-72493655D01*
X165707289Y-72493657D01*
X165751451Y-72537819D01*
X165784936Y-72599142D01*
X165779952Y-72668834D01*
X165738080Y-72724767D01*
X165672616Y-72749184D01*
X165663770Y-72749500D01*
X158635929Y-72749500D01*
X158510261Y-72774497D01*
X158510255Y-72774499D01*
X158391870Y-72823535D01*
X158285331Y-72894722D01*
X158285324Y-72894728D01*
X155594726Y-75585326D01*
X155564537Y-75630508D01*
X155544658Y-75660261D01*
X155535145Y-75674498D01*
X155523533Y-75691876D01*
X155474499Y-75810255D01*
X155474497Y-75810261D01*
X155449500Y-75935928D01*
X155449500Y-79179191D01*
X155429815Y-79246230D01*
X155413181Y-79266872D01*
X154917181Y-79762872D01*
X154855858Y-79796357D01*
X154786166Y-79791373D01*
X154730233Y-79749501D01*
X154705816Y-79684037D01*
X154705500Y-79675191D01*
X154705500Y-77746473D01*
X154704952Y-77731447D01*
X154704157Y-77709637D01*
X154702841Y-77691620D01*
X154698819Y-77654994D01*
X154657866Y-77517064D01*
X154628650Y-77453598D01*
X154550500Y-77332797D01*
X152896227Y-75435248D01*
X152890514Y-75428186D01*
X152878592Y-75412290D01*
X152854119Y-75346849D01*
X152853799Y-75338919D01*
X152805895Y-69446660D01*
X152802791Y-69394686D01*
X152799961Y-69369336D01*
X152791530Y-69317968D01*
X152741248Y-69183159D01*
X152707763Y-69121836D01*
X152621539Y-69006655D01*
X152517749Y-68902865D01*
X152484266Y-68841545D01*
X152489250Y-68771853D01*
X152517828Y-68727428D01*
X152541600Y-68703700D01*
X152780032Y-68385790D01*
X152789208Y-68373154D01*
X152793616Y-68366882D01*
X152802411Y-68353947D01*
X152863547Y-68223701D01*
X152883932Y-68156871D01*
X152905897Y-68014681D01*
X152923031Y-66378235D01*
X152943416Y-66311407D01*
X152953740Y-66297840D01*
X155712284Y-63148543D01*
X159479499Y-63148543D01*
X159517947Y-63341829D01*
X159517950Y-63341839D01*
X159593364Y-63523907D01*
X159593371Y-63523920D01*
X159702860Y-63687781D01*
X159702863Y-63687785D01*
X159842214Y-63827136D01*
X159842218Y-63827139D01*
X160006079Y-63936628D01*
X160006092Y-63936635D01*
X160180087Y-64008705D01*
X160188165Y-64012051D01*
X160188169Y-64012051D01*
X160188170Y-64012052D01*
X160381456Y-64050500D01*
X160381459Y-64050500D01*
X160578543Y-64050500D01*
X160721004Y-64022162D01*
X160771835Y-64012051D01*
X160953914Y-63936632D01*
X161117782Y-63827139D01*
X161208103Y-63736817D01*
X161269424Y-63703334D01*
X161295783Y-63700500D01*
X165713770Y-63700500D01*
X165780809Y-63720185D01*
X165826564Y-63772989D01*
X165836508Y-63842147D01*
X165807483Y-63905703D01*
X165801451Y-63912181D01*
X165707289Y-64006342D01*
X165615187Y-64155663D01*
X165615185Y-64155668D01*
X165601703Y-64196355D01*
X165560001Y-64322203D01*
X165560001Y-64322204D01*
X165560000Y-64322204D01*
X165549500Y-64424983D01*
X165549500Y-65975001D01*
X165549501Y-65975018D01*
X165560000Y-66077796D01*
X165560001Y-66077799D01*
X165615185Y-66244331D01*
X165615187Y-66244336D01*
X165648184Y-66297832D01*
X165707288Y-66393656D01*
X165831344Y-66517712D01*
X165980666Y-66609814D01*
X166147203Y-66664999D01*
X166249991Y-66675500D01*
X167550008Y-66675499D01*
X167652797Y-66664999D01*
X167819334Y-66609814D01*
X167968656Y-66517712D01*
X168092712Y-66393656D01*
X168184814Y-66244334D01*
X168184814Y-66244331D01*
X168188178Y-66238879D01*
X168240126Y-66192154D01*
X168309088Y-66180931D01*
X168373170Y-66208774D01*
X168381398Y-66216294D01*
X168520213Y-66355109D01*
X168692179Y-66480048D01*
X168692181Y-66480049D01*
X168692184Y-66480051D01*
X168881588Y-66576557D01*
X169083757Y-66642246D01*
X169293713Y-66675500D01*
X169293714Y-66675500D01*
X169506286Y-66675500D01*
X169506287Y-66675500D01*
X169716243Y-66642246D01*
X169918412Y-66576557D01*
X170107816Y-66480051D01*
X170186679Y-66422754D01*
X170279786Y-66355109D01*
X170279788Y-66355106D01*
X170279792Y-66355104D01*
X170430104Y-66204792D01*
X170430106Y-66204788D01*
X170430109Y-66204786D01*
X170555048Y-66032820D01*
X170555047Y-66032820D01*
X170555051Y-66032816D01*
X170651557Y-65843412D01*
X170717246Y-65641243D01*
X170750500Y-65431287D01*
X170750500Y-64968713D01*
X170717246Y-64758757D01*
X170651557Y-64556588D01*
X170555051Y-64367184D01*
X170555049Y-64367181D01*
X170555048Y-64367179D01*
X170430109Y-64195213D01*
X170279786Y-64044890D01*
X170103875Y-63917085D01*
X170104851Y-63915740D01*
X170062834Y-63869295D01*
X170050500Y-63815382D01*
X170050500Y-63415928D01*
X170025502Y-63290261D01*
X170025501Y-63290260D01*
X170025501Y-63290256D01*
X169976465Y-63171873D01*
X169973127Y-63166878D01*
X169973125Y-63166872D01*
X169973125Y-63166873D01*
X169905278Y-63065332D01*
X169905272Y-63065325D01*
X169384673Y-62544726D01*
X169384669Y-62544723D01*
X169278127Y-62473535D01*
X169232165Y-62454497D01*
X169159744Y-62424499D01*
X169159738Y-62424497D01*
X169034071Y-62399500D01*
X169034069Y-62399500D01*
X161295783Y-62399500D01*
X161228744Y-62379815D01*
X161208106Y-62363185D01*
X161117782Y-62272861D01*
X161117781Y-62272860D01*
X161117780Y-62272859D01*
X160953920Y-62163371D01*
X160953907Y-62163364D01*
X160771839Y-62087950D01*
X160771829Y-62087947D01*
X160578543Y-62049500D01*
X160578541Y-62049500D01*
X160381459Y-62049500D01*
X160381457Y-62049500D01*
X160188170Y-62087947D01*
X160188160Y-62087950D01*
X160006092Y-62163364D01*
X160006079Y-62163371D01*
X159842218Y-62272860D01*
X159842214Y-62272863D01*
X159702863Y-62412214D01*
X159702860Y-62412218D01*
X159593371Y-62576079D01*
X159593364Y-62576092D01*
X159517950Y-62758160D01*
X159517947Y-62758170D01*
X159479500Y-62951456D01*
X159479500Y-62951459D01*
X159479500Y-63148541D01*
X159479500Y-63148543D01*
X159479499Y-63148543D01*
X155712284Y-63148543D01*
X156856441Y-61842314D01*
X158288428Y-60207483D01*
X167669500Y-60207483D01*
X167669500Y-61207501D01*
X167669501Y-61207519D01*
X167680000Y-61310296D01*
X167680001Y-61310299D01*
X167735185Y-61476831D01*
X167735187Y-61476836D01*
X167739966Y-61484584D01*
X167827288Y-61626156D01*
X167951344Y-61750212D01*
X168100666Y-61842314D01*
X168267203Y-61897499D01*
X168369991Y-61908000D01*
X168995008Y-61907999D01*
X168995016Y-61907998D01*
X168995019Y-61907998D01*
X169051302Y-61902248D01*
X169097797Y-61897499D01*
X169264334Y-61842314D01*
X169413656Y-61750212D01*
X169537712Y-61626156D01*
X169629814Y-61476834D01*
X169641028Y-61442994D01*
X169654897Y-61422962D01*
X169665020Y-61400797D01*
X169674432Y-61394748D01*
X169680801Y-61385550D01*
X169703299Y-61376196D01*
X169723798Y-61363023D01*
X169740901Y-61360563D01*
X169745317Y-61358728D01*
X169758733Y-61358000D01*
X169839466Y-61358000D01*
X169906505Y-61377685D01*
X169927147Y-61394319D01*
X170014608Y-61481780D01*
X170014612Y-61481783D01*
X170157704Y-61570044D01*
X170157707Y-61570045D01*
X170157713Y-61570049D01*
X170317315Y-61622936D01*
X170415826Y-61633000D01*
X170415831Y-61633000D01*
X170949169Y-61633000D01*
X170949174Y-61633000D01*
X171047685Y-61622936D01*
X171207287Y-61570049D01*
X171350391Y-61481781D01*
X171382319Y-61449853D01*
X171443642Y-61416368D01*
X171513334Y-61421352D01*
X171557681Y-61449853D01*
X171589608Y-61481780D01*
X171589612Y-61481783D01*
X171732704Y-61570044D01*
X171732707Y-61570045D01*
X171732713Y-61570049D01*
X171892315Y-61622936D01*
X171990826Y-61633000D01*
X171990831Y-61633000D01*
X172524169Y-61633000D01*
X172524174Y-61633000D01*
X172622685Y-61622936D01*
X172782287Y-61570049D01*
X172845947Y-61530783D01*
X172890950Y-61503025D01*
X172958342Y-61484584D01*
X173024938Y-61505461D01*
X173097137Y-61553703D01*
X173251918Y-61617816D01*
X173416228Y-61650499D01*
X173416232Y-61650500D01*
X173416233Y-61650500D01*
X173583768Y-61650500D01*
X173583769Y-61650499D01*
X173748082Y-61617816D01*
X173902863Y-61553703D01*
X174042162Y-61460626D01*
X174160626Y-61342162D01*
X174253703Y-61202863D01*
X174317816Y-61048082D01*
X174350500Y-60883767D01*
X174350500Y-60716233D01*
X174317816Y-60551918D01*
X174253703Y-60397137D01*
X174222537Y-60350494D01*
X174160626Y-60257837D01*
X174042162Y-60139373D01*
X173902860Y-60046295D01*
X173748082Y-59982184D01*
X173748074Y-59982182D01*
X173583771Y-59949500D01*
X173583767Y-59949500D01*
X173416233Y-59949500D01*
X173416228Y-59949500D01*
X173251925Y-59982182D01*
X173251922Y-59982182D01*
X173198866Y-60004159D01*
X173129396Y-60011627D01*
X173066917Y-59980351D01*
X173045876Y-59954694D01*
X173044283Y-59952112D01*
X173044280Y-59952108D01*
X172925391Y-59833219D01*
X172925387Y-59833216D01*
X172782295Y-59744955D01*
X172782289Y-59744952D01*
X172782287Y-59744951D01*
X172622685Y-59692064D01*
X172622683Y-59692063D01*
X172524181Y-59682000D01*
X172524174Y-59682000D01*
X171990826Y-59682000D01*
X171990818Y-59682000D01*
X171892316Y-59692063D01*
X171892315Y-59692064D01*
X171847516Y-59706909D01*
X171732715Y-59744950D01*
X171732704Y-59744955D01*
X171589612Y-59833216D01*
X171589608Y-59833219D01*
X171557681Y-59865147D01*
X171496358Y-59898632D01*
X171426666Y-59893648D01*
X171382319Y-59865147D01*
X171350391Y-59833219D01*
X171350387Y-59833216D01*
X171207295Y-59744955D01*
X171207289Y-59744952D01*
X171207287Y-59744951D01*
X171047685Y-59692064D01*
X171047683Y-59692063D01*
X170949181Y-59682000D01*
X170949174Y-59682000D01*
X170415826Y-59682000D01*
X170415818Y-59682000D01*
X170317316Y-59692063D01*
X170317315Y-59692064D01*
X170272516Y-59706909D01*
X170157715Y-59744950D01*
X170157704Y-59744955D01*
X170014612Y-59833216D01*
X170014608Y-59833219D01*
X169895720Y-59952107D01*
X169890064Y-59961275D01*
X169867351Y-59998098D01*
X169859766Y-60004921D01*
X169855528Y-60014203D01*
X169834228Y-60027891D01*
X169815406Y-60044821D01*
X169803770Y-60047465D01*
X169796750Y-60051977D01*
X169761815Y-60057000D01*
X169758733Y-60057000D01*
X169691694Y-60037315D01*
X169645939Y-59984511D01*
X169641028Y-59972006D01*
X169634434Y-59952108D01*
X169629814Y-59938166D01*
X169537712Y-59788844D01*
X169413656Y-59664788D01*
X169410905Y-59662037D01*
X169377420Y-59600714D01*
X169382404Y-59531022D01*
X169424276Y-59475089D01*
X169433468Y-59468831D01*
X169463656Y-59450212D01*
X169587712Y-59326156D01*
X169656559Y-59214535D01*
X169708507Y-59167811D01*
X169777469Y-59156588D01*
X169841551Y-59184431D01*
X169849779Y-59191951D01*
X169939608Y-59281780D01*
X169939612Y-59281783D01*
X170082704Y-59370044D01*
X170082707Y-59370045D01*
X170082713Y-59370049D01*
X170242315Y-59422936D01*
X170340826Y-59433000D01*
X170340831Y-59433000D01*
X170874169Y-59433000D01*
X170874174Y-59433000D01*
X170972685Y-59422936D01*
X171132287Y-59370049D01*
X171275391Y-59281781D01*
X171307319Y-59249853D01*
X171368642Y-59216368D01*
X171438334Y-59221352D01*
X171482681Y-59249853D01*
X171514608Y-59281780D01*
X171514612Y-59281783D01*
X171657704Y-59370044D01*
X171657707Y-59370045D01*
X171657713Y-59370049D01*
X171817315Y-59422936D01*
X171915826Y-59433000D01*
X171915831Y-59433000D01*
X172449169Y-59433000D01*
X172449174Y-59433000D01*
X172547685Y-59422936D01*
X172707287Y-59370049D01*
X172850391Y-59281781D01*
X172945354Y-59186818D01*
X173006678Y-59153334D01*
X173033035Y-59150500D01*
X174924071Y-59150500D01*
X175008615Y-59133682D01*
X175049744Y-59125501D01*
X175168127Y-59076465D01*
X175195762Y-59058000D01*
X175274669Y-59005277D01*
X177044553Y-57235391D01*
X177063332Y-57219979D01*
X177152162Y-57160626D01*
X177270626Y-57042162D01*
X177363703Y-56902863D01*
X177427816Y-56748082D01*
X177460500Y-56583767D01*
X177460500Y-56416233D01*
X177427816Y-56251918D01*
X177363703Y-56097137D01*
X177300600Y-56002697D01*
X177270626Y-55957837D01*
X177152162Y-55839373D01*
X177012860Y-55746295D01*
X176858082Y-55682184D01*
X176858074Y-55682182D01*
X176693771Y-55649500D01*
X176693767Y-55649500D01*
X176526233Y-55649500D01*
X176526228Y-55649500D01*
X176361925Y-55682182D01*
X176361917Y-55682184D01*
X176207139Y-55746295D01*
X176067837Y-55839373D01*
X175949373Y-55957837D01*
X175856295Y-56097139D01*
X175792184Y-56251917D01*
X175792182Y-56251925D01*
X175759500Y-56416228D01*
X175759500Y-56583766D01*
X175762628Y-56599496D01*
X175756396Y-56669088D01*
X175728690Y-56711362D01*
X174626873Y-57813181D01*
X174565550Y-57846666D01*
X174539192Y-57849500D01*
X173098559Y-57849500D01*
X173031520Y-57829815D01*
X172993022Y-57790599D01*
X172969281Y-57752109D01*
X172850391Y-57633219D01*
X172850387Y-57633216D01*
X172707295Y-57544955D01*
X172707289Y-57544952D01*
X172707287Y-57544951D01*
X172547685Y-57492064D01*
X172547683Y-57492063D01*
X172449181Y-57482000D01*
X172449174Y-57482000D01*
X171915826Y-57482000D01*
X171915818Y-57482000D01*
X171817316Y-57492063D01*
X171817315Y-57492064D01*
X171756531Y-57512206D01*
X171657715Y-57544950D01*
X171657704Y-57544955D01*
X171514612Y-57633216D01*
X171514608Y-57633219D01*
X171482681Y-57665147D01*
X171421358Y-57698632D01*
X171351666Y-57693648D01*
X171307319Y-57665147D01*
X171275391Y-57633219D01*
X171275387Y-57633216D01*
X171132295Y-57544955D01*
X171132289Y-57544952D01*
X171132287Y-57544951D01*
X170972685Y-57492064D01*
X170972683Y-57492063D01*
X170874181Y-57482000D01*
X170874174Y-57482000D01*
X170340826Y-57482000D01*
X170340818Y-57482000D01*
X170242316Y-57492063D01*
X170242315Y-57492064D01*
X170181531Y-57512206D01*
X170082715Y-57544950D01*
X170082704Y-57544955D01*
X169939612Y-57633216D01*
X169885395Y-57687433D01*
X169824071Y-57720917D01*
X169754379Y-57715932D01*
X169698446Y-57674061D01*
X169683069Y-57644613D01*
X169682864Y-57644709D01*
X169680734Y-57640142D01*
X169680007Y-57638749D01*
X169679814Y-57638166D01*
X169587712Y-57488844D01*
X169481549Y-57382681D01*
X169448064Y-57321358D01*
X169453048Y-57251666D01*
X169481549Y-57207319D01*
X169528246Y-57160622D01*
X169587712Y-57101156D01*
X169656559Y-56989535D01*
X169708507Y-56942811D01*
X169777469Y-56931588D01*
X169841551Y-56959431D01*
X169849779Y-56966951D01*
X169964608Y-57081780D01*
X169964612Y-57081783D01*
X170107704Y-57170044D01*
X170107707Y-57170045D01*
X170107713Y-57170049D01*
X170267315Y-57222936D01*
X170365826Y-57233000D01*
X170365831Y-57233000D01*
X170899169Y-57233000D01*
X170899174Y-57233000D01*
X170997685Y-57222936D01*
X171157287Y-57170049D01*
X171300391Y-57081781D01*
X171332319Y-57049853D01*
X171393642Y-57016368D01*
X171463334Y-57021352D01*
X171507681Y-57049853D01*
X171539608Y-57081780D01*
X171539612Y-57081783D01*
X171682704Y-57170044D01*
X171682707Y-57170045D01*
X171682713Y-57170049D01*
X171842315Y-57222936D01*
X171940826Y-57233000D01*
X171940831Y-57233000D01*
X172474169Y-57233000D01*
X172474174Y-57233000D01*
X172572685Y-57222936D01*
X172732287Y-57170049D01*
X172875391Y-57081781D01*
X172909082Y-57048090D01*
X172970404Y-57014604D01*
X173040096Y-57019588D01*
X173065655Y-57032668D01*
X173097130Y-57053699D01*
X173097134Y-57053701D01*
X173097137Y-57053703D01*
X173251918Y-57117816D01*
X173399326Y-57147137D01*
X173416228Y-57150499D01*
X173416232Y-57150500D01*
X173416233Y-57150500D01*
X173583768Y-57150500D01*
X173583769Y-57150499D01*
X173748082Y-57117816D01*
X173902863Y-57053703D01*
X174042162Y-56960626D01*
X174160626Y-56842162D01*
X174253703Y-56702863D01*
X174317816Y-56548082D01*
X174350500Y-56383767D01*
X174350500Y-56216233D01*
X174317816Y-56051918D01*
X174253703Y-55897137D01*
X174201828Y-55819501D01*
X174160626Y-55757837D01*
X174042162Y-55639373D01*
X173902860Y-55546295D01*
X173748082Y-55482184D01*
X173748074Y-55482182D01*
X173583771Y-55449500D01*
X173583767Y-55449500D01*
X173416233Y-55449500D01*
X173416228Y-55449500D01*
X173251925Y-55482182D01*
X173251917Y-55482184D01*
X173096844Y-55546418D01*
X173027374Y-55553887D01*
X172964895Y-55522612D01*
X172961710Y-55519538D01*
X172875391Y-55433219D01*
X172875387Y-55433216D01*
X172732295Y-55344955D01*
X172732289Y-55344952D01*
X172732287Y-55344951D01*
X172572685Y-55292064D01*
X172572683Y-55292063D01*
X172474181Y-55282000D01*
X172474174Y-55282000D01*
X171940826Y-55282000D01*
X171940818Y-55282000D01*
X171842316Y-55292063D01*
X171842315Y-55292064D01*
X171830543Y-55295965D01*
X171682715Y-55344950D01*
X171682704Y-55344955D01*
X171539612Y-55433216D01*
X171539608Y-55433219D01*
X171507681Y-55465147D01*
X171446358Y-55498632D01*
X171376666Y-55493648D01*
X171332319Y-55465147D01*
X171300391Y-55433219D01*
X171300387Y-55433216D01*
X171157295Y-55344955D01*
X171157289Y-55344952D01*
X171157287Y-55344951D01*
X170997685Y-55292064D01*
X170997683Y-55292063D01*
X170899181Y-55282000D01*
X170899174Y-55282000D01*
X170365826Y-55282000D01*
X170365818Y-55282000D01*
X170267316Y-55292063D01*
X170267315Y-55292064D01*
X170255543Y-55295965D01*
X170107715Y-55344950D01*
X170107704Y-55344955D01*
X169964612Y-55433216D01*
X169964608Y-55433219D01*
X169902147Y-55495681D01*
X169875219Y-55510384D01*
X169849401Y-55526977D01*
X169843200Y-55527868D01*
X169840824Y-55529166D01*
X169814466Y-55532000D01*
X169808733Y-55532000D01*
X169741694Y-55512315D01*
X169695939Y-55459511D01*
X169691028Y-55447006D01*
X169686458Y-55433216D01*
X169679814Y-55413166D01*
X169587712Y-55263844D01*
X169463656Y-55139788D01*
X169353737Y-55071990D01*
X169314336Y-55047687D01*
X169314331Y-55047685D01*
X169312862Y-55047198D01*
X169147797Y-54992501D01*
X169147795Y-54992500D01*
X169045010Y-54982000D01*
X168419998Y-54982000D01*
X168419980Y-54982001D01*
X168317203Y-54992500D01*
X168317200Y-54992501D01*
X168150668Y-55047685D01*
X168150663Y-55047687D01*
X168001342Y-55139789D01*
X167877289Y-55263842D01*
X167785187Y-55413163D01*
X167785185Y-55413168D01*
X167773146Y-55449500D01*
X167730001Y-55579703D01*
X167730001Y-55579704D01*
X167730000Y-55579704D01*
X167719500Y-55682483D01*
X167719500Y-56682501D01*
X167719501Y-56682519D01*
X167730000Y-56785296D01*
X167730001Y-56785299D01*
X167772058Y-56912216D01*
X167785186Y-56951834D01*
X167877287Y-57101155D01*
X167877289Y-57101157D01*
X167983451Y-57207319D01*
X168016936Y-57268642D01*
X168011952Y-57338334D01*
X167983451Y-57382681D01*
X167877289Y-57488842D01*
X167785187Y-57638163D01*
X167785185Y-57638168D01*
X167763706Y-57702989D01*
X167730001Y-57804703D01*
X167730001Y-57804704D01*
X167730000Y-57804704D01*
X167719500Y-57907483D01*
X167719500Y-58907501D01*
X167719501Y-58907519D01*
X167730000Y-59010296D01*
X167730001Y-59010299D01*
X167768176Y-59125501D01*
X167785186Y-59176834D01*
X167877287Y-59326155D01*
X167877289Y-59326157D01*
X168004094Y-59452962D01*
X168037579Y-59514285D01*
X168032595Y-59583977D01*
X167990723Y-59639910D01*
X167981516Y-59646177D01*
X167964449Y-59656705D01*
X167951342Y-59664789D01*
X167827289Y-59788842D01*
X167735187Y-59938163D01*
X167735185Y-59938168D01*
X167710843Y-60011627D01*
X167680001Y-60104703D01*
X167680001Y-60104704D01*
X167680000Y-60104704D01*
X167669500Y-60207483D01*
X158288428Y-60207483D01*
X158362752Y-60122631D01*
X158655125Y-59788842D01*
X158698845Y-59738929D01*
X158724668Y-59706909D01*
X158736676Y-59690712D01*
X158759805Y-59656705D01*
X158817655Y-59524966D01*
X158836357Y-59457646D01*
X158836358Y-59457642D01*
X158854748Y-59314942D01*
X158854163Y-59275001D01*
X158837268Y-58120499D01*
X158827252Y-57436054D01*
X158815403Y-57338334D01*
X158814375Y-57329851D01*
X158814375Y-57329850D01*
X158814374Y-57329844D01*
X158802644Y-57278986D01*
X158767704Y-57177869D01*
X158767703Y-57177868D01*
X158767703Y-57177866D01*
X158688677Y-57057644D01*
X158688676Y-57057643D01*
X158685190Y-57053703D01*
X158650599Y-57014604D01*
X158642377Y-57005311D01*
X158597174Y-56966951D01*
X158568728Y-56942811D01*
X158532676Y-56912216D01*
X158401191Y-56853799D01*
X158401189Y-56853798D01*
X158336719Y-56835588D01*
X158334854Y-56835014D01*
X158333948Y-56834804D01*
X158191329Y-56815798D01*
X156386741Y-56834403D01*
X156386708Y-56834404D01*
X156338379Y-56837220D01*
X156338373Y-56837220D01*
X156314791Y-56839733D01*
X156314757Y-56839737D01*
X156266880Y-56847174D01*
X152544754Y-57609790D01*
X152475128Y-57603962D01*
X152419705Y-57561416D01*
X152396083Y-57495661D01*
X152397392Y-57468915D01*
X152423842Y-57301917D01*
X152425500Y-57291449D01*
X152425500Y-56548551D01*
X152395324Y-56358028D01*
X152335715Y-56174571D01*
X152248141Y-56002698D01*
X152134759Y-55846641D01*
X151998359Y-55710241D01*
X151842302Y-55596859D01*
X151670429Y-55509285D01*
X151486972Y-55449676D01*
X151486970Y-55449675D01*
X151486969Y-55449675D01*
X151340614Y-55426495D01*
X151296449Y-55419500D01*
X151103551Y-55419500D01*
X151040043Y-55429558D01*
X150913026Y-55449676D01*
X150913018Y-55449678D01*
X150890672Y-55456938D01*
X150820831Y-55458931D01*
X150760999Y-55422849D01*
X150749256Y-55407897D01*
X150674464Y-55295965D01*
X150674461Y-55295961D01*
X150549038Y-55170538D01*
X150549034Y-55170535D01*
X150401553Y-55071990D01*
X150401540Y-55071983D01*
X150237667Y-55004106D01*
X150237658Y-55004103D01*
X150063694Y-54969500D01*
X150063691Y-54969500D01*
X149886309Y-54969500D01*
X149886306Y-54969500D01*
X149712341Y-55004103D01*
X149712332Y-55004106D01*
X149548459Y-55071983D01*
X149548446Y-55071990D01*
X149400965Y-55170535D01*
X149400961Y-55170538D01*
X149275538Y-55295961D01*
X149275535Y-55295965D01*
X149176990Y-55443446D01*
X149176983Y-55443459D01*
X149109106Y-55607332D01*
X149109104Y-55607340D01*
X149089059Y-55708110D01*
X149076682Y-55731770D01*
X149067678Y-55756916D01*
X149060733Y-55762258D01*
X149056673Y-55770021D01*
X149033467Y-55783234D01*
X149012300Y-55799520D01*
X149001229Y-55801592D01*
X148995957Y-55804595D01*
X148977914Y-55807475D01*
X148972679Y-55807918D01*
X148920203Y-55807919D01*
X148851044Y-55817863D01*
X148851042Y-55817863D01*
X148849294Y-55818376D01*
X148841260Y-55819057D01*
X148840149Y-55818830D01*
X148830788Y-55819500D01*
X148502131Y-55819500D01*
X148502119Y-55819501D01*
X148463253Y-55823679D01*
X148436748Y-55823679D01*
X148397874Y-55819500D01*
X147852130Y-55819500D01*
X147852119Y-55819501D01*
X147813253Y-55823679D01*
X147786748Y-55823679D01*
X147747874Y-55819500D01*
X147202130Y-55819500D01*
X147202119Y-55819501D01*
X147163253Y-55823679D01*
X147136748Y-55823679D01*
X147097874Y-55819500D01*
X146552129Y-55819500D01*
X146552123Y-55819501D01*
X146492516Y-55825908D01*
X146357671Y-55876202D01*
X146357664Y-55876206D01*
X146242455Y-55962452D01*
X146242452Y-55962455D01*
X146156206Y-56077664D01*
X146156202Y-56077671D01*
X146105908Y-56212517D01*
X146099501Y-56272116D01*
X146099500Y-56272135D01*
X146099500Y-57667870D01*
X146099501Y-57667876D01*
X146105908Y-57727483D01*
X146156202Y-57862328D01*
X146156206Y-57862335D01*
X146242452Y-57977544D01*
X146242455Y-57977547D01*
X146357664Y-58063793D01*
X146357671Y-58063797D01*
X146386652Y-58074606D01*
X146492517Y-58114091D01*
X146552127Y-58120500D01*
X146850500Y-58120499D01*
X146917539Y-58140183D01*
X146963294Y-58192987D01*
X146974500Y-58244499D01*
X146974500Y-60956528D01*
X146974499Y-60956546D01*
X146974499Y-61122252D01*
X146974498Y-61122252D01*
X146997345Y-61207519D01*
X147015423Y-61274983D01*
X147032913Y-61305276D01*
X147074718Y-61377685D01*
X147094479Y-61411912D01*
X147094481Y-61411915D01*
X147213349Y-61530783D01*
X147213355Y-61530788D01*
X148138181Y-62455614D01*
X148171666Y-62516937D01*
X148174500Y-62543295D01*
X148174500Y-69056705D01*
X148154815Y-69123744D01*
X148138181Y-69144386D01*
X147269386Y-70013181D01*
X147208063Y-70046666D01*
X147181705Y-70049500D01*
X145214145Y-70049500D01*
X145147106Y-70029815D01*
X145101351Y-69977011D01*
X145095802Y-69962525D01*
X145092603Y-69952302D01*
X145085687Y-69899764D01*
X145046781Y-69805838D01*
X145045122Y-69800534D01*
X145044600Y-69770933D01*
X145041435Y-69741492D01*
X145043991Y-69736384D01*
X145043891Y-69730675D01*
X145059454Y-69705494D01*
X145072710Y-69679013D01*
X145079273Y-69673427D01*
X145080625Y-69671241D01*
X145083405Y-69669911D01*
X145094572Y-69660409D01*
X145139669Y-69630277D01*
X145833127Y-68936817D01*
X145894450Y-68903333D01*
X145920808Y-68900499D01*
X146198338Y-68900499D01*
X146198344Y-68900499D01*
X146198352Y-68900498D01*
X146198355Y-68900498D01*
X146252760Y-68894940D01*
X146297708Y-68890349D01*
X146458697Y-68837003D01*
X146603044Y-68747968D01*
X146722968Y-68628044D01*
X146812003Y-68483697D01*
X146865349Y-68322708D01*
X146875500Y-68223345D01*
X146875499Y-67676656D01*
X146871112Y-67633713D01*
X146865349Y-67577292D01*
X146849741Y-67530191D01*
X146840493Y-67502283D01*
X146838092Y-67432459D01*
X146873823Y-67372416D01*
X146910749Y-67348720D01*
X146922863Y-67343703D01*
X147062162Y-67250626D01*
X147180626Y-67132162D01*
X147273703Y-66992863D01*
X147337816Y-66838082D01*
X147370500Y-66673767D01*
X147370500Y-66506233D01*
X147337816Y-66341918D01*
X147273703Y-66187137D01*
X147223497Y-66111998D01*
X147180626Y-66047837D01*
X147062162Y-65929373D01*
X146922860Y-65836295D01*
X146768082Y-65772184D01*
X146768074Y-65772182D01*
X146603771Y-65739500D01*
X146603767Y-65739500D01*
X146436233Y-65739500D01*
X146436228Y-65739500D01*
X146271925Y-65772182D01*
X146271917Y-65772184D01*
X146117139Y-65836295D01*
X145977837Y-65929373D01*
X145859373Y-66047837D01*
X145766295Y-66187139D01*
X145702184Y-66341917D01*
X145702182Y-66341923D01*
X145673281Y-66487219D01*
X145640896Y-66549130D01*
X145639345Y-66550708D01*
X145394727Y-66795325D01*
X145394721Y-66795332D01*
X145340511Y-66876464D01*
X145340512Y-66876465D01*
X145323534Y-66901874D01*
X145274498Y-67020257D01*
X145274497Y-67020259D01*
X145266004Y-67062958D01*
X145233618Y-67124869D01*
X145209490Y-67144300D01*
X145196955Y-67152032D01*
X145077029Y-67271959D01*
X144988001Y-67416294D01*
X144987996Y-67416305D01*
X144934651Y-67577290D01*
X144924500Y-67676647D01*
X144924500Y-67954191D01*
X144904815Y-68021230D01*
X144888181Y-68041872D01*
X144491873Y-68438181D01*
X144430550Y-68471666D01*
X144404192Y-68474500D01*
X143730468Y-68474500D01*
X143663429Y-68454815D01*
X143617674Y-68402011D01*
X143607730Y-68332853D01*
X143627365Y-68281611D01*
X143676465Y-68208127D01*
X143725501Y-68089744D01*
X143728432Y-68075008D01*
X143750500Y-67964069D01*
X143750500Y-62135931D01*
X143750500Y-62135928D01*
X143725502Y-62010261D01*
X143725501Y-62010260D01*
X143725501Y-62010256D01*
X143683144Y-61907998D01*
X143676466Y-61891875D01*
X143676461Y-61891867D01*
X143631794Y-61825018D01*
X143605276Y-61785330D01*
X142536174Y-60716228D01*
X141414674Y-59594727D01*
X141414673Y-59594726D01*
X141414669Y-59594723D01*
X141308127Y-59523535D01*
X141189744Y-59474499D01*
X141189738Y-59474497D01*
X141064071Y-59449500D01*
X141064069Y-59449500D01*
X132647947Y-59449500D01*
X132580908Y-59429815D01*
X132535153Y-59377011D01*
X132525209Y-59307853D01*
X132537462Y-59269205D01*
X132601557Y-59143412D01*
X132667246Y-58941243D01*
X132700500Y-58731287D01*
X132700500Y-58268713D01*
X132683137Y-58159091D01*
X132692091Y-58089801D01*
X132717926Y-58052018D01*
X133103127Y-57666819D01*
X133164450Y-57633334D01*
X133190808Y-57630500D01*
X138613537Y-57630500D01*
X138680576Y-57650185D01*
X138726331Y-57702989D01*
X138728082Y-57707012D01*
X138735527Y-57724983D01*
X138743367Y-57743912D01*
X138743371Y-57743919D01*
X138852860Y-57907782D01*
X138992214Y-58047136D01*
X138992218Y-58047139D01*
X139156079Y-58156628D01*
X139156092Y-58156635D01*
X139309525Y-58220188D01*
X139338165Y-58232051D01*
X139338169Y-58232051D01*
X139338170Y-58232052D01*
X139531456Y-58270500D01*
X139531459Y-58270500D01*
X139728543Y-58270500D01*
X139866087Y-58243140D01*
X139921835Y-58232051D01*
X140103914Y-58156632D01*
X140267782Y-58047139D01*
X140407139Y-57907782D01*
X140516632Y-57743914D01*
X140592051Y-57561835D01*
X140617073Y-57436043D01*
X140630500Y-57368543D01*
X140630500Y-57171456D01*
X140592052Y-56978170D01*
X140592051Y-56978169D01*
X140592051Y-56978165D01*
X140581145Y-56951836D01*
X140516635Y-56796092D01*
X140516628Y-56796079D01*
X140407139Y-56632218D01*
X140407136Y-56632214D01*
X140323473Y-56548551D01*
X142524500Y-56548551D01*
X142524500Y-57291449D01*
X142526158Y-57301917D01*
X142554675Y-57481969D01*
X142554676Y-57481972D01*
X142614285Y-57665429D01*
X142701859Y-57837302D01*
X142815241Y-57993359D01*
X142951641Y-58129759D01*
X143107698Y-58243141D01*
X143279571Y-58330715D01*
X143463028Y-58390324D01*
X143653551Y-58420500D01*
X143653552Y-58420500D01*
X143846448Y-58420500D01*
X143846449Y-58420500D01*
X144036972Y-58390324D01*
X144220429Y-58330715D01*
X144392302Y-58243141D01*
X144548359Y-58129759D01*
X144684759Y-57993359D01*
X144798141Y-57837302D01*
X144885715Y-57665429D01*
X144945324Y-57481972D01*
X144975500Y-57291449D01*
X144975500Y-56889806D01*
X144995185Y-56822767D01*
X145047989Y-56777012D01*
X145075309Y-56768189D01*
X145237658Y-56735896D01*
X145237661Y-56735894D01*
X145237666Y-56735894D01*
X145401547Y-56668013D01*
X145549035Y-56569464D01*
X145674464Y-56444035D01*
X145773013Y-56296547D01*
X145840894Y-56132666D01*
X145856955Y-56051925D01*
X145875499Y-55958695D01*
X145875500Y-55958693D01*
X145875500Y-55781306D01*
X145875499Y-55781304D01*
X145840896Y-55607341D01*
X145840893Y-55607332D01*
X145773016Y-55443459D01*
X145773009Y-55443446D01*
X145674464Y-55295965D01*
X145674461Y-55295961D01*
X145549038Y-55170538D01*
X145549034Y-55170535D01*
X145401553Y-55071990D01*
X145401540Y-55071983D01*
X145237667Y-55004106D01*
X145237658Y-55004103D01*
X145063694Y-54969500D01*
X145063691Y-54969500D01*
X144886309Y-54969500D01*
X144886306Y-54969500D01*
X144712341Y-55004103D01*
X144712332Y-55004106D01*
X144548459Y-55071983D01*
X144548446Y-55071990D01*
X144400965Y-55170535D01*
X144400961Y-55170538D01*
X144275538Y-55295961D01*
X144200743Y-55407899D01*
X144147130Y-55452703D01*
X144077805Y-55461410D01*
X144059325Y-55456939D01*
X144059322Y-55456938D01*
X144036972Y-55449676D01*
X144036968Y-55449675D01*
X144036967Y-55449675D01*
X143928790Y-55432541D01*
X143846449Y-55419500D01*
X143653551Y-55419500D01*
X143617697Y-55425178D01*
X143463030Y-55449675D01*
X143279568Y-55509286D01*
X143107697Y-55596859D01*
X143049182Y-55639373D01*
X142951641Y-55710241D01*
X142951639Y-55710243D01*
X142951638Y-55710243D01*
X142815243Y-55846638D01*
X142815243Y-55846639D01*
X142815241Y-55846641D01*
X142793761Y-55876206D01*
X142701859Y-56002697D01*
X142614286Y-56174568D01*
X142554675Y-56358030D01*
X142533320Y-56492861D01*
X142524500Y-56548551D01*
X140323473Y-56548551D01*
X140267785Y-56492863D01*
X140267781Y-56492860D01*
X140103920Y-56383371D01*
X140103907Y-56383364D01*
X139921839Y-56307950D01*
X139921829Y-56307947D01*
X139728543Y-56269500D01*
X139728541Y-56269500D01*
X139531459Y-56269500D01*
X139531457Y-56269500D01*
X139338170Y-56307947D01*
X139338160Y-56307950D01*
X139308923Y-56320061D01*
X139261471Y-56329500D01*
X132805929Y-56329500D01*
X132680261Y-56354497D01*
X132680255Y-56354499D01*
X132637416Y-56372244D01*
X132637415Y-56372244D01*
X132561881Y-56403530D01*
X132561863Y-56403540D01*
X132455332Y-56474721D01*
X132455325Y-56474727D01*
X131875497Y-57054555D01*
X131814174Y-57088040D01*
X131749499Y-57084805D01*
X131666244Y-57057754D01*
X131666240Y-57057753D01*
X131504957Y-57032208D01*
X131456287Y-57024500D01*
X131243713Y-57024500D01*
X131195042Y-57032208D01*
X131033760Y-57057753D01*
X130831585Y-57123444D01*
X130642179Y-57219951D01*
X130470215Y-57344889D01*
X130331398Y-57483706D01*
X130270075Y-57517190D01*
X130200383Y-57512206D01*
X130144450Y-57470334D01*
X130138178Y-57461120D01*
X130122710Y-57436043D01*
X130042712Y-57306344D01*
X129918656Y-57182288D01*
X129798681Y-57108287D01*
X129769336Y-57090187D01*
X129769331Y-57090185D01*
X129743963Y-57081779D01*
X129602797Y-57035001D01*
X129602795Y-57035000D01*
X129500010Y-57024500D01*
X128199998Y-57024500D01*
X128199981Y-57024501D01*
X128097203Y-57035000D01*
X128097200Y-57035001D01*
X127930668Y-57090185D01*
X127930663Y-57090187D01*
X127781342Y-57182289D01*
X127657289Y-57306342D01*
X127565187Y-57455663D01*
X127565185Y-57455668D01*
X127554192Y-57488844D01*
X127510001Y-57622203D01*
X127510001Y-57622204D01*
X127510000Y-57622204D01*
X127499500Y-57724983D01*
X127499500Y-59275001D01*
X127499502Y-59275021D01*
X127503371Y-59312900D01*
X127490601Y-59381593D01*
X127442719Y-59432476D01*
X127380013Y-59449500D01*
X117035929Y-59449500D01*
X116910261Y-59474497D01*
X116910255Y-59474499D01*
X116791870Y-59523535D01*
X116685331Y-59594722D01*
X116685324Y-59594728D01*
X112594726Y-63685326D01*
X112562649Y-63733334D01*
X112530389Y-63781616D01*
X112526039Y-63788126D01*
X112526035Y-63788132D01*
X112523535Y-63791872D01*
X112523533Y-63791875D01*
X112474499Y-63910255D01*
X112474497Y-63910261D01*
X112449500Y-64035928D01*
X108100500Y-64035928D01*
X108100500Y-57178384D01*
X118359500Y-57178384D01*
X118359500Y-57841616D01*
X118361382Y-57862328D01*
X118365913Y-57912192D01*
X118365913Y-57912194D01*
X118365914Y-57912196D01*
X118416522Y-58074606D01*
X118498749Y-58210626D01*
X118504530Y-58220188D01*
X118624811Y-58340469D01*
X118624813Y-58340470D01*
X118624815Y-58340472D01*
X118770394Y-58428478D01*
X118932804Y-58479086D01*
X119003384Y-58485500D01*
X119003387Y-58485500D01*
X119516613Y-58485500D01*
X119516616Y-58485500D01*
X119587196Y-58479086D01*
X119749606Y-58428478D01*
X119895185Y-58340472D01*
X119938837Y-58296820D01*
X119965765Y-58282115D01*
X119991584Y-58265523D01*
X119997783Y-58264631D01*
X120000160Y-58263334D01*
X120026519Y-58260500D01*
X120131966Y-58260500D01*
X120199005Y-58280185D01*
X120219647Y-58296819D01*
X120267108Y-58344280D01*
X120267112Y-58344283D01*
X120410204Y-58432544D01*
X120410207Y-58432545D01*
X120410213Y-58432549D01*
X120569815Y-58485436D01*
X120668326Y-58495500D01*
X120668331Y-58495500D01*
X121201669Y-58495500D01*
X121201674Y-58495500D01*
X121300185Y-58485436D01*
X121459787Y-58432549D01*
X121602891Y-58344281D01*
X121634819Y-58312353D01*
X121696142Y-58278868D01*
X121765834Y-58283852D01*
X121810181Y-58312353D01*
X121842108Y-58344280D01*
X121842112Y-58344283D01*
X121985204Y-58432544D01*
X121985207Y-58432545D01*
X121985213Y-58432549D01*
X122144815Y-58485436D01*
X122243326Y-58495500D01*
X122243331Y-58495500D01*
X122776669Y-58495500D01*
X122776674Y-58495500D01*
X122875185Y-58485436D01*
X123034787Y-58432549D01*
X123177891Y-58344281D01*
X123177895Y-58344276D01*
X123181705Y-58341265D01*
X123246500Y-58315125D01*
X123306067Y-58323970D01*
X123411918Y-58367816D01*
X123576228Y-58400499D01*
X123576232Y-58400500D01*
X123576233Y-58400500D01*
X123743768Y-58400500D01*
X123743769Y-58400499D01*
X123908082Y-58367816D01*
X124062863Y-58303703D01*
X124202162Y-58210626D01*
X124320626Y-58092162D01*
X124413703Y-57952863D01*
X124477816Y-57798082D01*
X124510500Y-57633767D01*
X124510500Y-57466233D01*
X124477816Y-57301918D01*
X124426433Y-57177869D01*
X124413704Y-57147139D01*
X124394110Y-57117815D01*
X124375649Y-57090185D01*
X124320626Y-57007837D01*
X124202162Y-56889373D01*
X124062860Y-56796295D01*
X123908082Y-56732184D01*
X123908074Y-56732182D01*
X123743771Y-56699500D01*
X123743767Y-56699500D01*
X123576233Y-56699500D01*
X123576228Y-56699500D01*
X123411925Y-56732181D01*
X123411917Y-56732184D01*
X123348764Y-56758342D01*
X123279295Y-56765809D01*
X123216816Y-56734533D01*
X123213633Y-56731461D01*
X123177891Y-56695719D01*
X123177887Y-56695716D01*
X123034795Y-56607455D01*
X123034789Y-56607452D01*
X123034787Y-56607451D01*
X122875185Y-56554564D01*
X122875183Y-56554563D01*
X122776681Y-56544500D01*
X122776674Y-56544500D01*
X122243326Y-56544500D01*
X122243318Y-56544500D01*
X122144816Y-56554563D01*
X122144815Y-56554564D01*
X122099859Y-56569461D01*
X121985215Y-56607450D01*
X121985204Y-56607455D01*
X121842112Y-56695716D01*
X121842108Y-56695719D01*
X121810181Y-56727647D01*
X121748858Y-56761132D01*
X121679166Y-56756148D01*
X121634819Y-56727647D01*
X121602891Y-56695719D01*
X121602887Y-56695716D01*
X121459795Y-56607455D01*
X121459789Y-56607452D01*
X121459787Y-56607451D01*
X121300185Y-56554564D01*
X121300183Y-56554563D01*
X121201681Y-56544500D01*
X121201674Y-56544500D01*
X120668326Y-56544500D01*
X120668318Y-56544500D01*
X120569816Y-56554563D01*
X120569815Y-56554564D01*
X120524859Y-56569461D01*
X120410215Y-56607450D01*
X120410204Y-56607455D01*
X120267112Y-56695716D01*
X120267108Y-56695719D01*
X120239647Y-56723181D01*
X120212719Y-56737884D01*
X120186901Y-56754477D01*
X120180700Y-56755368D01*
X120178324Y-56756666D01*
X120151966Y-56759500D01*
X120026519Y-56759500D01*
X119959480Y-56739815D01*
X119938837Y-56723180D01*
X119895188Y-56679531D01*
X119895188Y-56679530D01*
X119749606Y-56591522D01*
X119631001Y-56554564D01*
X119587196Y-56540914D01*
X119587194Y-56540913D01*
X119587192Y-56540913D01*
X119537778Y-56536423D01*
X119516616Y-56534500D01*
X119003384Y-56534500D01*
X118984145Y-56536248D01*
X118932807Y-56540913D01*
X118770393Y-56591522D01*
X118624811Y-56679530D01*
X118504530Y-56799811D01*
X118416522Y-56945393D01*
X118365913Y-57107807D01*
X118362339Y-57147139D01*
X118359500Y-57178384D01*
X108100500Y-57178384D01*
X108100500Y-54203750D01*
X108100726Y-54196263D01*
X108103788Y-54145639D01*
X108118271Y-53906201D01*
X108120076Y-53891340D01*
X108126214Y-53857849D01*
X108171780Y-53609197D01*
X108175364Y-53594663D01*
X108260696Y-53320822D01*
X108265998Y-53306841D01*
X108383731Y-53045249D01*
X108390676Y-53032016D01*
X108539080Y-52786526D01*
X108547567Y-52774230D01*
X108724480Y-52548417D01*
X108734395Y-52537226D01*
X108937226Y-52334395D01*
X108948417Y-52324480D01*
X109174230Y-52147567D01*
X109186526Y-52139080D01*
X109432016Y-51990676D01*
X109445249Y-51983731D01*
X109706841Y-51865998D01*
X109720822Y-51860696D01*
X109994668Y-51775362D01*
X110009197Y-51771780D01*
X110291344Y-51720075D01*
X110306201Y-51718271D01*
X110596264Y-51700726D01*
X110603751Y-51700500D01*
X110665892Y-51700500D01*
X142895066Y-51700500D01*
X142962105Y-51720185D01*
G37*
%TD.AperFunction*%
%TD*%
M02*
