%TF.GenerationSoftware,KiCad,Pcbnew,9.0.6*%
%TF.CreationDate,2026-04-08T11:52:09-04:00*%
%TF.ProjectId,f411_shimmer,66343131-5f73-4686-996d-6d65722e6b69,rev?*%
%TF.SameCoordinates,Original*%
%TF.FileFunction,Copper,L4,Bot*%
%TF.FilePolarity,Positive*%
%FSLAX46Y46*%
G04 Gerber Fmt 4.6, Leading zero omitted, Abs format (unit mm)*
G04 Created by KiCad (PCBNEW 9.0.6) date 2026-04-08 11:52:09*
%MOMM*%
%LPD*%
G01*
G04 APERTURE LIST*
G04 Aperture macros list*
%AMRoundRect*
0 Rectangle with rounded corners*
0 $1 Rounding radius*
0 $2 $3 $4 $5 $6 $7 $8 $9 X,Y pos of 4 corners*
0 Add a 4 corners polygon primitive as box body*
4,1,4,$2,$3,$4,$5,$6,$7,$8,$9,$2,$3,0*
0 Add four circle primitives for the rounded corners*
1,1,$1+$1,$2,$3*
1,1,$1+$1,$4,$5*
1,1,$1+$1,$6,$7*
1,1,$1+$1,$8,$9*
0 Add four rect primitives between the rounded corners*
20,1,$1+$1,$2,$3,$4,$5,0*
20,1,$1+$1,$4,$5,$6,$7,0*
20,1,$1+$1,$6,$7,$8,$9,0*
20,1,$1+$1,$8,$9,$2,$3,0*%
G04 Aperture macros list end*
%TA.AperFunction,ComponentPad*%
%ADD10C,3.600000*%
%TD*%
%TA.AperFunction,ConnectorPad*%
%ADD11C,6.400000*%
%TD*%
%TA.AperFunction,ComponentPad*%
%ADD12RoundRect,0.250000X-0.600000X-0.750000X0.600000X-0.750000X0.600000X0.750000X-0.600000X0.750000X0*%
%TD*%
%TA.AperFunction,ComponentPad*%
%ADD13O,1.700000X2.000000*%
%TD*%
%TA.AperFunction,ComponentPad*%
%ADD14R,1.700000X1.700000*%
%TD*%
%TA.AperFunction,ComponentPad*%
%ADD15C,1.700000*%
%TD*%
%TA.AperFunction,ComponentPad*%
%ADD16RoundRect,0.250000X-0.600000X-0.725000X0.600000X-0.725000X0.600000X0.725000X-0.600000X0.725000X0*%
%TD*%
%TA.AperFunction,ComponentPad*%
%ADD17O,1.700000X1.950000*%
%TD*%
%TA.AperFunction,HeatsinkPad*%
%ADD18O,1.150000X1.800000*%
%TD*%
%TA.AperFunction,HeatsinkPad*%
%ADD19O,1.450000X2.000000*%
%TD*%
%TA.AperFunction,SMDPad,CuDef*%
%ADD20RoundRect,0.225000X0.225000X0.250000X-0.225000X0.250000X-0.225000X-0.250000X0.225000X-0.250000X0*%
%TD*%
%TA.AperFunction,ViaPad*%
%ADD21C,0.700000*%
%TD*%
%TA.AperFunction,ViaPad*%
%ADD22C,0.600000*%
%TD*%
%TA.AperFunction,Conductor*%
%ADD23C,0.300000*%
%TD*%
G04 APERTURE END LIST*
D10*
%TO.P,H3,1,1*%
%TO.N,GND*%
X183000000Y-55500000D03*
D11*
X183000000Y-55500000D03*
%TD*%
D12*
%TO.P,J12,1,Pin_1*%
%TO.N,SW4*%
X153500000Y-91500000D03*
D13*
%TO.P,J12,2,Pin_2*%
%TO.N,GND*%
X156000000Y-91500000D03*
%TD*%
D12*
%TO.P,J11,1,Pin_1*%
%TO.N,SW3*%
X143825000Y-91475000D03*
D13*
%TO.P,J11,2,Pin_2*%
%TO.N,GND*%
X146325000Y-91475000D03*
%TD*%
D14*
%TO.P,J5,1,Pin_1*%
%TO.N,+3.3V*%
X116750000Y-75070000D03*
D15*
%TO.P,J5,2,Pin_2*%
%TO.N,/USART1_TX*%
X116750000Y-72530000D03*
%TO.P,J5,3,Pin_3*%
%TO.N,/USART1_RX*%
X116750000Y-69990000D03*
%TO.P,J5,4,Pin_4*%
%TO.N,GND*%
X116750000Y-67450000D03*
%TD*%
D16*
%TO.P,J1,1,Pin_1*%
%TO.N,+3.3V*%
X166900000Y-65200000D03*
D17*
%TO.P,J1,2,Pin_2*%
%TO.N,POT1*%
X169400000Y-65200000D03*
%TO.P,J1,3,Pin_3*%
%TO.N,GND*%
X171900000Y-65200000D03*
%TD*%
D12*
%TO.P,J15,1,Pin_1*%
%TO.N,VBUS*%
X157380000Y-58410000D03*
D13*
%TO.P,J15,2,Pin_2*%
%TO.N,GND*%
X159880000Y-58410000D03*
%TD*%
D16*
%TO.P,J8,1,Pin_1*%
%TO.N,+3.3V*%
X128850000Y-58500000D03*
D17*
%TO.P,J8,2,Pin_2*%
%TO.N,POT5*%
X131350000Y-58500000D03*
%TO.P,J8,3,Pin_3*%
%TO.N,GND*%
X133850000Y-58500000D03*
%TD*%
D14*
%TO.P,J13,1,Pin_1*%
%TO.N,PC7*%
X177800000Y-72820000D03*
D15*
%TO.P,J13,2,Pin_2*%
%TO.N,PC6*%
X177800000Y-70280000D03*
%TO.P,J13,3,Pin_3*%
%TO.N,+3.3V*%
X177800000Y-67740000D03*
%TO.P,J13,4,Pin_4*%
%TO.N,GND*%
X177800000Y-65200000D03*
%TD*%
D14*
%TO.P,J6,1,Pin_1*%
%TO.N,+3.3V*%
X116775000Y-86240000D03*
D15*
%TO.P,J6,2,Pin_2*%
%TO.N,/SWDIO*%
X116775000Y-83700000D03*
%TO.P,J6,3,Pin_3*%
%TO.N,/SWCLK*%
X116775000Y-81160000D03*
%TO.P,J6,4,Pin_4*%
%TO.N,GND*%
X116775000Y-78620000D03*
%TD*%
D12*
%TO.P,J10,1,Pin_1*%
%TO.N,SW2*%
X134025000Y-91475000D03*
D13*
%TO.P,J10,2,Pin_2*%
%TO.N,GND*%
X136525000Y-91475000D03*
%TD*%
D12*
%TO.P,J9,1,Pin_1*%
%TO.N,SW1*%
X124125000Y-91500000D03*
D13*
%TO.P,J9,2,Pin_2*%
%TO.N,GND*%
X126625000Y-91500000D03*
%TD*%
D16*
%TO.P,J3,1,Pin_1*%
%TO.N,+3.3V*%
X166900000Y-71300000D03*
D17*
%TO.P,J3,2,Pin_2*%
%TO.N,POT2*%
X169400000Y-71300000D03*
%TO.P,J3,3,Pin_3*%
%TO.N,GND*%
X171900000Y-71300000D03*
%TD*%
D10*
%TO.P,H1,1,1*%
%TO.N,GND*%
X112000000Y-55500000D03*
D11*
X112000000Y-55500000D03*
%TD*%
D10*
%TO.P,H4,1,1*%
%TO.N,GND*%
X183000000Y-96500000D03*
D11*
X183000000Y-96500000D03*
%TD*%
D18*
%TO.P,J7,6,Shield*%
%TO.N,unconnected-(J7-Shield-Pad6)*%
X151350000Y-53120000D03*
D19*
%TO.N,unconnected-(J7-Shield-Pad6)_1*%
X151200000Y-56920000D03*
%TO.N,unconnected-(J7-Shield-Pad6)_2*%
X143750000Y-56920000D03*
D18*
%TO.N,unconnected-(J7-Shield-Pad6)_3*%
X143600000Y-53120000D03*
%TD*%
D10*
%TO.P,H2,1,1*%
%TO.N,GND*%
X112000000Y-97000000D03*
D11*
X112000000Y-97000000D03*
%TD*%
D16*
%TO.P,J4,1,Pin_1*%
%TO.N,+3.3V*%
X166900000Y-82925000D03*
D17*
%TO.P,J4,2,Pin_2*%
%TO.N,POT4*%
X169400000Y-82925000D03*
%TO.P,J4,3,Pin_3*%
%TO.N,GND*%
X171900000Y-82925000D03*
%TD*%
D16*
%TO.P,J2,1,Pin_1*%
%TO.N,+3.3V*%
X166900000Y-77200000D03*
D17*
%TO.P,J2,2,Pin_2*%
%TO.N,POT3*%
X169400000Y-77200000D03*
%TO.P,J2,3,Pin_3*%
%TO.N,GND*%
X171900000Y-77200000D03*
%TD*%
D14*
%TO.P,J14,1,Pin_1*%
%TO.N,PB12*%
X177800000Y-84010000D03*
D15*
%TO.P,J14,2,Pin_2*%
%TO.N,PB13*%
X177800000Y-81470000D03*
%TO.P,J14,3,Pin_3*%
%TO.N,PB14*%
X177800000Y-78930000D03*
%TO.P,J14,4,Pin_4*%
%TO.N,PB15*%
X177800000Y-76390000D03*
%TD*%
D20*
%TO.P,C4,1*%
%TO.N,POT5*%
X135000000Y-67170000D03*
%TO.P,C4,2*%
%TO.N,GND*%
X133450000Y-67170000D03*
%TD*%
%TO.P,C3,1*%
%TO.N,POT3*%
X133225000Y-75410000D03*
%TO.P,C3,2*%
%TO.N,GND*%
X131675000Y-75410000D03*
%TD*%
%TO.P,C2,1*%
%TO.N,POT1*%
X133220000Y-71990000D03*
%TO.P,C2,2*%
%TO.N,GND*%
X131670000Y-71990000D03*
%TD*%
%TO.P,C6,1*%
%TO.N,POT4*%
X133225000Y-77070000D03*
%TO.P,C6,2*%
%TO.N,GND*%
X131675000Y-77070000D03*
%TD*%
%TO.P,C5,1*%
%TO.N,POT2*%
X133225000Y-73710000D03*
%TO.P,C5,2*%
%TO.N,GND*%
X131675000Y-73710000D03*
%TD*%
D21*
%TO.N,GND*%
X164600000Y-99650000D03*
X182860000Y-63710000D03*
X109600000Y-96900000D03*
X186050000Y-68550000D03*
D22*
X147300000Y-69300000D03*
D21*
X131080000Y-81160000D03*
X186050000Y-93550000D03*
X185400000Y-55400000D03*
X179600000Y-99650000D03*
X180600000Y-96400000D03*
X163460000Y-59450000D03*
X163420000Y-57410000D03*
X186050000Y-78550000D03*
X170210000Y-68590000D03*
X141200000Y-58330000D03*
D22*
X164260000Y-82710000D03*
D21*
X114950000Y-52650000D03*
X111090000Y-81300000D03*
X146060000Y-97700000D03*
X117481508Y-91686825D03*
X109600000Y-55400000D03*
X176670000Y-94940000D03*
X137470000Y-71380000D03*
X183100000Y-57800000D03*
X112000000Y-94700000D03*
X124550000Y-67160000D03*
X180600000Y-55300000D03*
X124600000Y-99650000D03*
X112100000Y-57900000D03*
X109150000Y-88650000D03*
X124380000Y-79970000D03*
X170730000Y-78920000D03*
X145640000Y-82550000D03*
X126470000Y-97620000D03*
X186050000Y-88550000D03*
X109150000Y-83650000D03*
X117070000Y-65980000D03*
X183840000Y-91410000D03*
X119600000Y-99650000D03*
X134600000Y-99650000D03*
X173980000Y-59570000D03*
X146570000Y-62830000D03*
X149600000Y-99650000D03*
X183000000Y-94200000D03*
X117110000Y-95840000D03*
X139950000Y-52650000D03*
X112000000Y-53200000D03*
X161150000Y-93450000D03*
X129600000Y-99650000D03*
X140240000Y-63720000D03*
X129950000Y-52650000D03*
X159190000Y-87600000D03*
X112900000Y-88700000D03*
X174600000Y-99650000D03*
X154950000Y-52650000D03*
X186050000Y-63550000D03*
X169600000Y-99650000D03*
X156780000Y-97860000D03*
X158340000Y-69180000D03*
X132260000Y-80650000D03*
X149870000Y-87620000D03*
X133210000Y-82020000D03*
X142470000Y-83880000D03*
X186050000Y-58550000D03*
X136070000Y-77050000D03*
X119950000Y-52650000D03*
X122600000Y-84660000D03*
X121410000Y-63710000D03*
X109150000Y-73650000D03*
X124950000Y-52650000D03*
X185400000Y-96500000D03*
X109150000Y-78650000D03*
X159600000Y-99650000D03*
X111200000Y-71190000D03*
X162000000Y-76570000D03*
X186050000Y-83550000D03*
X159950000Y-52650000D03*
X166870000Y-93580000D03*
X183000000Y-53100000D03*
X109150000Y-68650000D03*
X156430000Y-65460000D03*
X178320000Y-58560000D03*
X183100000Y-98900000D03*
X139600000Y-99650000D03*
X130520000Y-87790000D03*
X178170000Y-88420000D03*
X141450000Y-71480000D03*
X169950000Y-52650000D03*
X147250000Y-52750000D03*
X118170000Y-77080000D03*
X163310000Y-78380000D03*
X140290000Y-77080000D03*
X136430000Y-97530000D03*
X109150000Y-93650000D03*
X112100000Y-99400000D03*
X114400000Y-97000000D03*
X137240000Y-69180000D03*
X181800000Y-69210000D03*
X144600000Y-99650000D03*
X114560000Y-59270000D03*
X154600000Y-99650000D03*
X134950000Y-52650000D03*
X114400000Y-55500000D03*
X140210000Y-88160000D03*
X109150000Y-63650000D03*
X114600000Y-99650000D03*
X183420000Y-77910000D03*
X186050000Y-73550000D03*
X179950000Y-52650000D03*
X136160000Y-64360000D03*
D22*
X179860000Y-77640000D03*
D21*
X164950000Y-52650000D03*
X174950000Y-52650000D03*
X109150000Y-58650000D03*
X133850000Y-83480000D03*
%TO.N,+3.3V*%
X150330000Y-76960000D03*
X151450000Y-76990000D03*
X123660000Y-57550000D03*
X127560000Y-87880000D03*
X135950000Y-82000000D03*
X114181508Y-91686825D03*
X137390000Y-87820000D03*
X146520000Y-66590000D03*
X143740000Y-80910000D03*
X147360000Y-87890000D03*
X128800000Y-69170000D03*
X132570000Y-63480000D03*
X152530000Y-76990000D03*
X156570000Y-87700000D03*
X132070000Y-83920000D03*
%TO.N,/USART1_RX*%
X139930000Y-70110000D03*
%TO.N,/USART1_TX*%
X143500000Y-78900000D03*
%TO.N,POT1*%
X135200000Y-72800000D03*
%TO.N,POT3*%
X134870000Y-75000000D03*
%TO.N,POT2*%
X135200000Y-74000000D03*
%TO.N,POT4*%
X134650000Y-75950000D03*
%TO.N,POT5*%
X135070000Y-68650000D03*
%TO.N,PC7*%
X173800000Y-73400000D03*
X171100000Y-73400000D03*
%TO.N,PB12*%
X145600000Y-79500000D03*
%TO.N,PB14*%
X146200000Y-76900000D03*
%TO.N,PB13*%
X145900000Y-78200000D03*
D22*
%TO.N,SW3*%
X138550000Y-84300000D03*
X142780000Y-87900000D03*
%TO.N,SW4*%
X151870000Y-87710000D03*
X139580000Y-84050000D03*
D21*
%TO.N,LED_1*%
X173500000Y-56300000D03*
X139830000Y-68830000D03*
%TO.N,LED_2*%
X176610000Y-56500000D03*
X138800000Y-65200000D03*
%TO.N,LED_3*%
X173500000Y-60800000D03*
X139800000Y-65200000D03*
%TD*%
D23*
%TO.N,/USART1_RX*%
X139930000Y-70110000D02*
X139810000Y-69990000D01*
X139810000Y-69990000D02*
X116750000Y-69990000D01*
%TO.N,/USART1_TX*%
X143500000Y-78900000D02*
X127100000Y-78900000D01*
X127100000Y-78900000D02*
X120730000Y-72530000D01*
X120730000Y-72530000D02*
X116750000Y-72530000D01*
%TO.N,POT1*%
X157300000Y-72800000D02*
X161500000Y-68600000D01*
X166000000Y-68600000D02*
X169400000Y-65200000D01*
X135200000Y-72800000D02*
X157300000Y-72800000D01*
X161500000Y-68600000D02*
X166000000Y-68600000D01*
X134390000Y-71990000D02*
X135200000Y-72800000D01*
X133220000Y-71990000D02*
X134390000Y-71990000D01*
%TO.N,POT3*%
X134870000Y-75000000D02*
X134992520Y-75000000D01*
X168800000Y-75100000D02*
X169400000Y-75700000D01*
X134992520Y-75000000D02*
X135092520Y-75100000D01*
X135092520Y-75100000D02*
X168800000Y-75100000D01*
X133635000Y-75000000D02*
X134870000Y-75000000D01*
X133225000Y-75410000D02*
X133635000Y-75000000D01*
X169400000Y-75700000D02*
X169400000Y-77200000D01*
%TO.N,POT2*%
X133225000Y-73710000D02*
X134080000Y-73710000D01*
X135200000Y-74000000D02*
X168700000Y-74000000D01*
X134080000Y-73710000D02*
X134360000Y-73990000D01*
X169400000Y-73300000D02*
X169400000Y-71300000D01*
X135190000Y-73990000D02*
X135200000Y-74000000D01*
X168700000Y-74000000D02*
X169400000Y-73300000D01*
X134360000Y-73990000D02*
X135190000Y-73990000D01*
%TO.N,POT4*%
X161400000Y-80600000D02*
X168400000Y-80600000D01*
X168400000Y-80600000D02*
X169400000Y-81600000D01*
X133225000Y-77070000D02*
X133530000Y-77070000D01*
X133530000Y-77070000D02*
X134650000Y-75950000D01*
X169400000Y-81600000D02*
X169400000Y-82925000D01*
X134900000Y-76200000D02*
X157000000Y-76200000D01*
X157000000Y-76200000D02*
X161400000Y-80600000D01*
X134650000Y-75950000D02*
X134900000Y-76200000D01*
%TO.N,POT5*%
X131350000Y-60000000D02*
X135000000Y-63650000D01*
X135000000Y-67170000D02*
X135000000Y-68580000D01*
X131350000Y-58500000D02*
X131350000Y-60000000D01*
X135000000Y-68580000D02*
X135070000Y-68650000D01*
X135000000Y-63650000D02*
X135000000Y-67170000D01*
%TO.N,PC7*%
X171100000Y-73400000D02*
X173800000Y-73400000D01*
%TO.N,PB12*%
X145600000Y-79500000D02*
X154700000Y-79500000D01*
X175000000Y-88900000D02*
X177800000Y-86100000D01*
X164100000Y-88900000D02*
X175000000Y-88900000D01*
X177800000Y-86100000D02*
X177800000Y-84010000D01*
X154700000Y-79500000D02*
X164100000Y-88900000D01*
%TO.N,PB14*%
X146955025Y-77700000D02*
X156400000Y-77700000D01*
X146200000Y-76900000D02*
X146200000Y-76944975D01*
X156400000Y-77700000D02*
X164700000Y-86000000D01*
X174500000Y-83700000D02*
X174500000Y-81000000D01*
X172200000Y-86000000D02*
X174500000Y-83700000D01*
X176500000Y-79000000D02*
X177730000Y-79000000D01*
X174500000Y-81000000D02*
X176500000Y-79000000D01*
X146200000Y-76944975D02*
X146955025Y-77700000D01*
X164700000Y-86000000D02*
X172200000Y-86000000D01*
X177730000Y-79000000D02*
X177800000Y-78930000D01*
%TO.N,PB13*%
X164600000Y-87500000D02*
X172600000Y-87500000D01*
X175500000Y-82100000D02*
X176130000Y-81470000D01*
X145900000Y-78200000D02*
X146400000Y-78700000D01*
X172600000Y-87500000D02*
X175500000Y-84600000D01*
X155800000Y-78700000D02*
X164600000Y-87500000D01*
X176130000Y-81470000D02*
X177800000Y-81470000D01*
X146400000Y-78700000D02*
X155800000Y-78700000D01*
X175500000Y-84600000D02*
X175500000Y-82100000D01*
%TO.N,SW3*%
X138550000Y-84300000D02*
X142150000Y-87900000D01*
X142150000Y-87900000D02*
X142780000Y-87900000D01*
%TO.N,SW4*%
X146310000Y-85870000D02*
X150030000Y-85870000D01*
X150030000Y-85870000D02*
X151870000Y-87710000D01*
X139580000Y-84050000D02*
X141400000Y-85870000D01*
X141400000Y-85870000D02*
X146310000Y-85870000D01*
%TO.N,LED_1*%
X148100000Y-62600000D02*
X174300000Y-62600000D01*
X174400000Y-56300000D02*
X173500000Y-56300000D01*
X140000000Y-69000000D02*
X141700000Y-69000000D01*
X174300000Y-62600000D02*
X175400000Y-61500000D01*
X141700000Y-69000000D02*
X148100000Y-62600000D01*
X175400000Y-61500000D02*
X175400000Y-57300000D01*
X175400000Y-57300000D02*
X174400000Y-56300000D01*
X139830000Y-68830000D02*
X140000000Y-69000000D01*
%TO.N,LED_2*%
X176560000Y-56060000D02*
X176610000Y-56110000D01*
X152380000Y-59690000D02*
X157300000Y-54770000D01*
X138800000Y-65200000D02*
X138800000Y-64168636D01*
X138800000Y-64168636D02*
X143278636Y-59690000D01*
X175290000Y-54770000D02*
X176560000Y-56040000D01*
X157300000Y-54770000D02*
X175290000Y-54770000D01*
X176560000Y-56040000D02*
X176560000Y-56060000D01*
X176610000Y-56110000D02*
X176610000Y-56500000D01*
X143278636Y-59690000D02*
X152380000Y-59690000D01*
%TO.N,LED_3*%
X173500000Y-60800000D02*
X144200000Y-60800000D01*
X144200000Y-60800000D02*
X139800000Y-65200000D01*
%TD*%
%TA.AperFunction,Conductor*%
%TO.N,GND*%
G36*
X142962105Y-51720185D02*
G01*
X143007860Y-51772989D01*
X143017804Y-51842147D01*
X142988779Y-51905703D01*
X142967951Y-51924818D01*
X142899365Y-51974648D01*
X142899360Y-51974652D01*
X142779652Y-52094360D01*
X142779648Y-52094365D01*
X142680152Y-52231311D01*
X142603296Y-52382146D01*
X142550981Y-52543152D01*
X142524500Y-52710350D01*
X142524500Y-53529649D01*
X142550981Y-53696847D01*
X142603296Y-53857853D01*
X142680152Y-54008688D01*
X142779648Y-54145634D01*
X142779652Y-54145639D01*
X142899360Y-54265347D01*
X142899365Y-54265351D01*
X143018817Y-54352137D01*
X143036315Y-54364850D01*
X143132425Y-54413820D01*
X143187146Y-54441703D01*
X143187148Y-54441703D01*
X143187151Y-54441705D01*
X143273450Y-54469745D01*
X143348152Y-54494018D01*
X143515351Y-54520500D01*
X143515356Y-54520500D01*
X143684649Y-54520500D01*
X143851847Y-54494018D01*
X144012849Y-54441705D01*
X144163685Y-54364850D01*
X144300641Y-54265346D01*
X144420346Y-54145641D01*
X144519850Y-54008685D01*
X144596705Y-53857849D01*
X144649018Y-53696847D01*
X144664067Y-53601830D01*
X144675500Y-53529649D01*
X144675500Y-52710350D01*
X144649018Y-52543152D01*
X144596703Y-52382146D01*
X144568820Y-52327425D01*
X144519850Y-52231315D01*
X144452831Y-52139071D01*
X144420351Y-52094365D01*
X144420347Y-52094360D01*
X144300639Y-51974652D01*
X144300634Y-51974648D01*
X144232049Y-51924818D01*
X144189383Y-51869488D01*
X144183404Y-51799875D01*
X144216010Y-51738080D01*
X144276848Y-51703723D01*
X144304934Y-51700500D01*
X150645066Y-51700500D01*
X150712105Y-51720185D01*
X150757860Y-51772989D01*
X150767804Y-51842147D01*
X150738779Y-51905703D01*
X150717951Y-51924818D01*
X150649365Y-51974648D01*
X150649360Y-51974652D01*
X150529652Y-52094360D01*
X150529648Y-52094365D01*
X150430152Y-52231311D01*
X150353296Y-52382146D01*
X150300981Y-52543152D01*
X150274500Y-52710350D01*
X150274500Y-53529649D01*
X150300981Y-53696847D01*
X150353296Y-53857853D01*
X150430152Y-54008688D01*
X150529648Y-54145634D01*
X150529652Y-54145639D01*
X150649360Y-54265347D01*
X150649365Y-54265351D01*
X150768817Y-54352137D01*
X150786315Y-54364850D01*
X150882425Y-54413820D01*
X150937146Y-54441703D01*
X150937148Y-54441703D01*
X150937151Y-54441705D01*
X151023450Y-54469745D01*
X151098152Y-54494018D01*
X151265351Y-54520500D01*
X151265356Y-54520500D01*
X151434649Y-54520500D01*
X151601847Y-54494018D01*
X151762849Y-54441705D01*
X151913685Y-54364850D01*
X152050641Y-54265346D01*
X152170346Y-54145641D01*
X152269850Y-54008685D01*
X152346705Y-53857849D01*
X152399018Y-53696847D01*
X152414067Y-53601830D01*
X152425500Y-53529649D01*
X152425500Y-52710350D01*
X152399018Y-52543152D01*
X152346703Y-52382146D01*
X152318820Y-52327425D01*
X152269850Y-52231315D01*
X152202831Y-52139071D01*
X152170351Y-52094365D01*
X152170347Y-52094360D01*
X152050639Y-51974652D01*
X152050634Y-51974648D01*
X151982049Y-51924818D01*
X151939383Y-51869488D01*
X151933404Y-51799875D01*
X151966010Y-51738080D01*
X152026848Y-51703723D01*
X152054934Y-51700500D01*
X184534108Y-51700500D01*
X184596249Y-51700500D01*
X184603736Y-51700726D01*
X184893796Y-51718271D01*
X184908657Y-51720075D01*
X185006903Y-51738080D01*
X185190798Y-51771780D01*
X185205335Y-51775363D01*
X185479172Y-51860695D01*
X185493163Y-51866000D01*
X185754743Y-51983727D01*
X185767989Y-51990680D01*
X186013465Y-52139075D01*
X186025776Y-52147573D01*
X186251573Y-52324473D01*
X186262781Y-52334403D01*
X186465596Y-52537218D01*
X186475526Y-52548426D01*
X186595481Y-52701538D01*
X186652422Y-52774217D01*
X186660928Y-52786540D01*
X186809316Y-53032004D01*
X186816275Y-53045263D01*
X186933997Y-53306831D01*
X186939306Y-53320832D01*
X187024635Y-53594663D01*
X187028219Y-53609201D01*
X187079923Y-53891340D01*
X187081728Y-53906205D01*
X187099274Y-54196263D01*
X187099500Y-54203750D01*
X187099500Y-98196249D01*
X187099274Y-98203736D01*
X187081728Y-98493794D01*
X187079923Y-98508659D01*
X187028219Y-98790798D01*
X187024635Y-98805336D01*
X186939306Y-99079167D01*
X186933997Y-99093168D01*
X186816275Y-99354736D01*
X186809316Y-99367995D01*
X186660928Y-99613459D01*
X186652422Y-99625782D01*
X186475526Y-99851573D01*
X186465596Y-99862781D01*
X186262781Y-100065596D01*
X186251573Y-100075526D01*
X186025782Y-100252422D01*
X186013459Y-100260928D01*
X185767995Y-100409316D01*
X185754736Y-100416275D01*
X185493168Y-100533997D01*
X185479167Y-100539306D01*
X185205336Y-100624635D01*
X185190798Y-100628219D01*
X184908659Y-100679923D01*
X184893794Y-100681728D01*
X184603736Y-100699274D01*
X184596249Y-100699500D01*
X110603751Y-100699500D01*
X110596264Y-100699274D01*
X110306205Y-100681728D01*
X110291340Y-100679923D01*
X110009201Y-100628219D01*
X109994663Y-100624635D01*
X109720832Y-100539306D01*
X109706831Y-100533997D01*
X109445263Y-100416275D01*
X109432004Y-100409316D01*
X109186540Y-100260928D01*
X109174217Y-100252422D01*
X108948426Y-100075526D01*
X108937218Y-100065596D01*
X108734403Y-99862781D01*
X108724473Y-99851573D01*
X108547573Y-99625776D01*
X108539075Y-99613465D01*
X108390680Y-99367989D01*
X108383727Y-99354743D01*
X108266000Y-99093163D01*
X108260693Y-99079167D01*
X108175364Y-98805336D01*
X108171780Y-98790798D01*
X108120076Y-98508659D01*
X108118271Y-98493794D01*
X108100726Y-98203736D01*
X108100500Y-98196249D01*
X108100500Y-91603053D01*
X113331008Y-91603053D01*
X113331008Y-91770596D01*
X113363690Y-91934899D01*
X113363692Y-91934907D01*
X113427803Y-92089685D01*
X113520881Y-92228987D01*
X113639345Y-92347451D01*
X113722174Y-92402795D01*
X113778645Y-92440528D01*
X113933426Y-92504641D01*
X114097736Y-92537324D01*
X114097740Y-92537325D01*
X114097741Y-92537325D01*
X114265276Y-92537325D01*
X114265277Y-92537324D01*
X114429590Y-92504641D01*
X114584371Y-92440528D01*
X114723670Y-92347451D01*
X114842134Y-92228987D01*
X114935211Y-92089688D01*
X114942947Y-92071012D01*
X114986788Y-92016609D01*
X115053082Y-91994544D01*
X115120781Y-92011823D01*
X115168392Y-92062960D01*
X115181508Y-92118465D01*
X115181508Y-92186844D01*
X115182044Y-92219553D01*
X115190591Y-92284463D01*
X115190593Y-92284471D01*
X115207541Y-92347710D01*
X115232599Y-92408196D01*
X115265336Y-92464894D01*
X115265340Y-92464899D01*
X115295836Y-92504640D01*
X115305194Y-92516834D01*
X115351491Y-92563128D01*
X115403433Y-92602982D01*
X115460134Y-92635716D01*
X115520621Y-92660769D01*
X115539401Y-92665800D01*
X115583857Y-92677712D01*
X115583859Y-92677712D01*
X115583862Y-92677713D01*
X115648773Y-92686257D01*
X115653236Y-92686334D01*
X115681489Y-92686825D01*
X115681508Y-92686825D01*
X117581530Y-92686825D01*
X117604014Y-92686456D01*
X117614245Y-92686289D01*
X117679159Y-92677743D01*
X117742401Y-92660796D01*
X117802891Y-92635741D01*
X117859593Y-92603004D01*
X117911538Y-92563147D01*
X117957836Y-92516851D01*
X117997695Y-92464908D01*
X118030433Y-92408206D01*
X118055491Y-92347717D01*
X118072439Y-92284475D01*
X118080988Y-92219562D01*
X118081508Y-92186825D01*
X118081508Y-91286825D01*
X118080997Y-91254086D01*
X118072454Y-91189167D01*
X118055509Y-91125918D01*
X118030454Y-91065423D01*
X117997717Y-91008715D01*
X117997716Y-91008714D01*
X117997714Y-91008710D01*
X117957862Y-90956771D01*
X117957861Y-90956770D01*
X117957858Y-90956766D01*
X117911559Y-90910464D01*
X117911558Y-90910463D01*
X117859621Y-90870607D01*
X117859616Y-90870604D01*
X117859612Y-90870601D01*
X117802954Y-90837887D01*
X117802911Y-90837862D01*
X117802907Y-90837860D01*
X117742413Y-90812800D01*
X117679166Y-90795853D01*
X117679160Y-90795852D01*
X117660656Y-90793415D01*
X117614247Y-90787305D01*
X117581508Y-90786825D01*
X115681508Y-90786825D01*
X115648770Y-90787337D01*
X115648767Y-90787337D01*
X115583852Y-90795882D01*
X115520609Y-90812828D01*
X115460118Y-90837885D01*
X115460114Y-90837887D01*
X115403409Y-90870626D01*
X115351469Y-90910482D01*
X115351468Y-90910483D01*
X115305169Y-90956785D01*
X115305165Y-90956789D01*
X115265315Y-91008725D01*
X115232576Y-91065433D01*
X115232570Y-91065446D01*
X115207522Y-91125925D01*
X115207521Y-91125928D01*
X115190580Y-91189161D01*
X115190579Y-91189168D01*
X115182035Y-91254091D01*
X115181967Y-91258334D01*
X115161202Y-91325047D01*
X115107666Y-91369943D01*
X115038356Y-91378769D01*
X114975278Y-91348721D01*
X114943422Y-91303784D01*
X114935213Y-91283966D01*
X114935212Y-91283964D01*
X114842134Y-91144662D01*
X114723670Y-91026198D01*
X114584368Y-90933120D01*
X114429590Y-90869009D01*
X114429582Y-90869007D01*
X114265279Y-90836325D01*
X114265275Y-90836325D01*
X114097741Y-90836325D01*
X114097736Y-90836325D01*
X113933433Y-90869007D01*
X113933425Y-90869009D01*
X113778647Y-90933120D01*
X113639345Y-91026198D01*
X113520881Y-91144662D01*
X113427803Y-91283964D01*
X113363692Y-91438742D01*
X113363690Y-91438750D01*
X113331008Y-91603053D01*
X108100500Y-91603053D01*
X108100500Y-90699983D01*
X122774500Y-90699983D01*
X122774500Y-92300001D01*
X122774501Y-92300018D01*
X122785000Y-92402796D01*
X122785001Y-92402799D01*
X122838131Y-92563132D01*
X122840186Y-92569334D01*
X122932288Y-92718656D01*
X123056344Y-92842712D01*
X123205666Y-92934814D01*
X123372203Y-92989999D01*
X123474991Y-93000500D01*
X124775008Y-93000499D01*
X124877797Y-92989999D01*
X125044334Y-92934814D01*
X125193656Y-92842712D01*
X125317712Y-92718656D01*
X125409814Y-92569334D01*
X125464999Y-92402797D01*
X125475500Y-92300009D01*
X125475499Y-90699992D01*
X125472944Y-90674983D01*
X132674500Y-90674983D01*
X132674500Y-92275001D01*
X132674501Y-92275018D01*
X132685000Y-92377796D01*
X132685001Y-92377799D01*
X132740185Y-92544331D01*
X132740187Y-92544336D01*
X132751790Y-92563147D01*
X132832288Y-92693656D01*
X132956344Y-92817712D01*
X133105666Y-92909814D01*
X133272203Y-92964999D01*
X133374991Y-92975500D01*
X134675008Y-92975499D01*
X134777797Y-92964999D01*
X134944334Y-92909814D01*
X135093656Y-92817712D01*
X135217712Y-92693656D01*
X135309814Y-92544334D01*
X135364999Y-92377797D01*
X135375500Y-92275009D01*
X135375499Y-90674992D01*
X135375498Y-90674983D01*
X142474500Y-90674983D01*
X142474500Y-92275001D01*
X142474501Y-92275018D01*
X142485000Y-92377796D01*
X142485001Y-92377799D01*
X142540185Y-92544331D01*
X142540187Y-92544336D01*
X142551790Y-92563147D01*
X142632288Y-92693656D01*
X142756344Y-92817712D01*
X142905666Y-92909814D01*
X143072203Y-92964999D01*
X143174991Y-92975500D01*
X144475008Y-92975499D01*
X144577797Y-92964999D01*
X144744334Y-92909814D01*
X144893656Y-92817712D01*
X145017712Y-92693656D01*
X145109814Y-92544334D01*
X145164999Y-92377797D01*
X145175500Y-92275009D01*
X145175499Y-90699983D01*
X152149500Y-90699983D01*
X152149500Y-92300001D01*
X152149501Y-92300018D01*
X152160000Y-92402796D01*
X152160001Y-92402799D01*
X152213131Y-92563132D01*
X152215186Y-92569334D01*
X152307288Y-92718656D01*
X152431344Y-92842712D01*
X152580666Y-92934814D01*
X152747203Y-92989999D01*
X152849991Y-93000500D01*
X154150008Y-93000499D01*
X154252797Y-92989999D01*
X154419334Y-92934814D01*
X154568656Y-92842712D01*
X154692712Y-92718656D01*
X154784814Y-92569334D01*
X154839999Y-92402797D01*
X154850500Y-92300009D01*
X154850499Y-90699992D01*
X154839999Y-90597203D01*
X154784814Y-90430666D01*
X154692712Y-90281344D01*
X154568656Y-90157288D01*
X154419334Y-90065186D01*
X154252797Y-90010001D01*
X154252795Y-90010000D01*
X154150010Y-89999500D01*
X152849998Y-89999500D01*
X152849981Y-89999501D01*
X152747203Y-90010000D01*
X152747200Y-90010001D01*
X152580668Y-90065185D01*
X152580663Y-90065187D01*
X152431342Y-90157289D01*
X152307289Y-90281342D01*
X152215187Y-90430663D01*
X152215186Y-90430666D01*
X152160001Y-90597203D01*
X152160001Y-90597204D01*
X152160000Y-90597204D01*
X152149500Y-90699983D01*
X145175499Y-90699983D01*
X145175499Y-90674992D01*
X145164999Y-90572203D01*
X145109814Y-90405666D01*
X145017712Y-90256344D01*
X144893656Y-90132288D01*
X144744334Y-90040186D01*
X144577797Y-89985001D01*
X144577795Y-89985000D01*
X144475010Y-89974500D01*
X143174998Y-89974500D01*
X143174981Y-89974501D01*
X143072203Y-89985000D01*
X143072200Y-89985001D01*
X142905668Y-90040185D01*
X142905663Y-90040187D01*
X142756342Y-90132289D01*
X142632289Y-90256342D01*
X142540187Y-90405663D01*
X142540186Y-90405666D01*
X142485001Y-90572203D01*
X142485001Y-90572204D01*
X142485000Y-90572204D01*
X142474500Y-90674983D01*
X135375498Y-90674983D01*
X135367552Y-90597200D01*
X135364999Y-90572203D01*
X135364998Y-90572200D01*
X135309814Y-90405666D01*
X135217712Y-90256344D01*
X135093656Y-90132288D01*
X134944334Y-90040186D01*
X134777797Y-89985001D01*
X134777795Y-89985000D01*
X134675010Y-89974500D01*
X133374998Y-89974500D01*
X133374981Y-89974501D01*
X133272203Y-89985000D01*
X133272200Y-89985001D01*
X133105668Y-90040185D01*
X133105663Y-90040187D01*
X132956342Y-90132289D01*
X132832289Y-90256342D01*
X132740187Y-90405663D01*
X132740186Y-90405666D01*
X132685001Y-90572203D01*
X132685001Y-90572204D01*
X132685000Y-90572204D01*
X132674500Y-90674983D01*
X125472944Y-90674983D01*
X125464999Y-90597203D01*
X125409814Y-90430666D01*
X125317712Y-90281344D01*
X125193656Y-90157288D01*
X125044334Y-90065186D01*
X124877797Y-90010001D01*
X124877795Y-90010000D01*
X124775010Y-89999500D01*
X123474998Y-89999500D01*
X123474981Y-89999501D01*
X123372203Y-90010000D01*
X123372200Y-90010001D01*
X123205668Y-90065185D01*
X123205663Y-90065187D01*
X123056342Y-90157289D01*
X122932289Y-90281342D01*
X122840187Y-90430663D01*
X122840186Y-90430666D01*
X122785001Y-90597203D01*
X122785001Y-90597204D01*
X122785000Y-90597204D01*
X122774500Y-90699983D01*
X108100500Y-90699983D01*
X108100500Y-87796228D01*
X126709500Y-87796228D01*
X126709500Y-87963771D01*
X126742182Y-88128074D01*
X126742184Y-88128082D01*
X126806295Y-88282860D01*
X126899373Y-88422162D01*
X127017837Y-88540626D01*
X127110494Y-88602537D01*
X127157137Y-88633703D01*
X127157138Y-88633703D01*
X127157139Y-88633704D01*
X127167069Y-88637817D01*
X127311918Y-88697816D01*
X127476228Y-88730499D01*
X127476232Y-88730500D01*
X127476233Y-88730500D01*
X127643768Y-88730500D01*
X127643769Y-88730499D01*
X127808082Y-88697816D01*
X127962863Y-88633703D01*
X128102162Y-88540626D01*
X128220626Y-88422162D01*
X128313703Y-88282863D01*
X128377816Y-88128082D01*
X128410500Y-87963767D01*
X128410500Y-87796233D01*
X128408021Y-87783768D01*
X128402166Y-87754332D01*
X128398565Y-87736228D01*
X136539500Y-87736228D01*
X136539500Y-87903771D01*
X136572182Y-88068074D01*
X136572184Y-88068082D01*
X136636295Y-88222860D01*
X136729373Y-88362162D01*
X136847837Y-88480626D01*
X136914996Y-88525500D01*
X136987137Y-88573703D01*
X137141918Y-88637816D01*
X137302387Y-88669735D01*
X137306228Y-88670499D01*
X137306232Y-88670500D01*
X137306233Y-88670500D01*
X137473768Y-88670500D01*
X137473769Y-88670499D01*
X137638082Y-88637816D01*
X137792863Y-88573703D01*
X137932162Y-88480626D01*
X138050626Y-88362162D01*
X138143703Y-88222863D01*
X138207816Y-88068082D01*
X138240500Y-87903767D01*
X138240500Y-87736233D01*
X138207816Y-87571918D01*
X138143703Y-87417137D01*
X138087035Y-87332328D01*
X138050626Y-87277837D01*
X137932162Y-87159373D01*
X137792860Y-87066295D01*
X137638082Y-87002184D01*
X137638074Y-87002182D01*
X137473771Y-86969500D01*
X137473767Y-86969500D01*
X137306233Y-86969500D01*
X137306228Y-86969500D01*
X137141925Y-87002182D01*
X137141917Y-87002184D01*
X136987139Y-87066295D01*
X136847837Y-87159373D01*
X136729373Y-87277837D01*
X136636295Y-87417139D01*
X136572184Y-87571917D01*
X136572182Y-87571925D01*
X136539500Y-87736228D01*
X128398565Y-87736228D01*
X128377817Y-87631925D01*
X128377816Y-87631918D01*
X128313703Y-87477137D01*
X128282537Y-87430494D01*
X128220626Y-87337837D01*
X128102162Y-87219373D01*
X127962860Y-87126295D01*
X127808082Y-87062184D01*
X127808074Y-87062182D01*
X127643771Y-87029500D01*
X127643767Y-87029500D01*
X127476233Y-87029500D01*
X127476228Y-87029500D01*
X127311925Y-87062182D01*
X127311917Y-87062184D01*
X127157139Y-87126295D01*
X127017837Y-87219373D01*
X126899373Y-87337837D01*
X126806295Y-87477139D01*
X126742184Y-87631917D01*
X126742182Y-87631925D01*
X126709500Y-87796228D01*
X108100500Y-87796228D01*
X108100500Y-81053713D01*
X115424500Y-81053713D01*
X115424500Y-81266287D01*
X115431877Y-81312863D01*
X115455181Y-81460001D01*
X115457754Y-81476243D01*
X115512570Y-81644949D01*
X115523444Y-81678414D01*
X115619951Y-81867820D01*
X115744890Y-82039786D01*
X115895213Y-82190109D01*
X116067182Y-82315050D01*
X116075946Y-82319516D01*
X116126742Y-82367491D01*
X116143536Y-82435312D01*
X116120998Y-82501447D01*
X116075946Y-82540484D01*
X116067182Y-82544949D01*
X115895213Y-82669890D01*
X115744890Y-82820213D01*
X115619951Y-82992179D01*
X115523444Y-83181585D01*
X115457753Y-83383760D01*
X115429982Y-83559100D01*
X115424500Y-83593713D01*
X115424500Y-83806287D01*
X115426118Y-83816503D01*
X115455778Y-84003771D01*
X115457754Y-84016243D01*
X115507089Y-84168081D01*
X115523444Y-84218414D01*
X115619951Y-84407820D01*
X115744890Y-84579786D01*
X115858430Y-84693326D01*
X115891915Y-84754649D01*
X115886931Y-84824341D01*
X115845059Y-84880274D01*
X115814083Y-84897189D01*
X115682669Y-84946203D01*
X115682664Y-84946206D01*
X115567455Y-85032452D01*
X115567452Y-85032455D01*
X115481206Y-85147664D01*
X115481202Y-85147671D01*
X115430908Y-85282517D01*
X115424501Y-85342116D01*
X115424501Y-85342123D01*
X115424500Y-85342135D01*
X115424500Y-87137870D01*
X115424501Y-87137876D01*
X115430908Y-87197483D01*
X115481202Y-87332328D01*
X115481206Y-87332335D01*
X115567452Y-87447544D01*
X115567455Y-87447547D01*
X115682664Y-87533793D01*
X115682671Y-87533797D01*
X115817517Y-87584091D01*
X115817516Y-87584091D01*
X115824444Y-87584835D01*
X115877127Y-87590500D01*
X117672872Y-87590499D01*
X117732483Y-87584091D01*
X117867331Y-87533796D01*
X117982546Y-87447546D01*
X118068796Y-87332331D01*
X118119091Y-87197483D01*
X118125500Y-87137873D01*
X118125499Y-85342128D01*
X118119091Y-85282517D01*
X118104911Y-85244499D01*
X118068797Y-85147671D01*
X118068793Y-85147664D01*
X117982547Y-85032455D01*
X117982544Y-85032452D01*
X117867335Y-84946206D01*
X117867328Y-84946202D01*
X117735917Y-84897189D01*
X117679983Y-84855318D01*
X117655566Y-84789853D01*
X117670418Y-84721580D01*
X117691563Y-84693332D01*
X117805104Y-84579792D01*
X117930051Y-84407816D01*
X118026557Y-84218412D01*
X118092246Y-84016243D01*
X118120758Y-83836228D01*
X131219500Y-83836228D01*
X131219500Y-84003771D01*
X131252182Y-84168074D01*
X131252184Y-84168082D01*
X131316295Y-84322860D01*
X131409373Y-84462162D01*
X131527837Y-84580626D01*
X131620494Y-84642537D01*
X131667137Y-84673703D01*
X131667138Y-84673703D01*
X131667139Y-84673704D01*
X131702201Y-84688227D01*
X131821918Y-84737816D01*
X131986228Y-84770499D01*
X131986232Y-84770500D01*
X131986233Y-84770500D01*
X132153768Y-84770500D01*
X132153769Y-84770499D01*
X132318082Y-84737816D01*
X132472863Y-84673703D01*
X132612162Y-84580626D01*
X132730626Y-84462162D01*
X132823703Y-84322863D01*
X132865833Y-84221153D01*
X137749500Y-84221153D01*
X137749500Y-84378846D01*
X137780261Y-84533489D01*
X137780264Y-84533501D01*
X137840602Y-84679172D01*
X137840609Y-84679185D01*
X137928210Y-84810288D01*
X137928213Y-84810292D01*
X138039707Y-84921786D01*
X138039711Y-84921789D01*
X138170814Y-85009390D01*
X138170827Y-85009397D01*
X138258230Y-85045599D01*
X138316503Y-85069737D01*
X138383580Y-85083079D01*
X138445488Y-85115461D01*
X138447068Y-85117014D01*
X141735325Y-88405272D01*
X141735332Y-88405278D01*
X141826907Y-88466466D01*
X141826909Y-88466467D01*
X141841864Y-88476460D01*
X141841875Y-88476466D01*
X141868692Y-88487574D01*
X141960256Y-88525501D01*
X141960260Y-88525501D01*
X141960261Y-88525502D01*
X142085928Y-88550500D01*
X142085931Y-88550500D01*
X142275065Y-88550500D01*
X142342104Y-88570185D01*
X142343909Y-88571366D01*
X142400821Y-88609394D01*
X142400823Y-88609395D01*
X142400827Y-88609397D01*
X142483653Y-88643704D01*
X142546503Y-88669737D01*
X142687660Y-88697815D01*
X142701153Y-88700499D01*
X142701156Y-88700500D01*
X142701158Y-88700500D01*
X142858844Y-88700500D01*
X142858845Y-88700499D01*
X143013497Y-88669737D01*
X143159179Y-88609394D01*
X143290289Y-88521789D01*
X143401789Y-88410289D01*
X143489394Y-88279179D01*
X143549737Y-88133497D01*
X143580500Y-87978842D01*
X143580500Y-87821158D01*
X143580500Y-87821155D01*
X143580499Y-87821154D01*
X143577530Y-87806228D01*
X146509500Y-87806228D01*
X146509500Y-87973771D01*
X146542182Y-88138074D01*
X146542184Y-88138082D01*
X146606295Y-88292860D01*
X146699373Y-88432162D01*
X146817837Y-88550626D01*
X146905784Y-88609390D01*
X146957137Y-88643703D01*
X147111918Y-88707816D01*
X147276228Y-88740499D01*
X147276232Y-88740500D01*
X147276233Y-88740500D01*
X147443768Y-88740500D01*
X147443769Y-88740499D01*
X147608082Y-88707816D01*
X147762863Y-88643703D01*
X147902162Y-88550626D01*
X148020626Y-88432162D01*
X148113703Y-88292863D01*
X148177816Y-88138082D01*
X148210500Y-87973767D01*
X148210500Y-87806233D01*
X148177816Y-87641918D01*
X148113703Y-87487137D01*
X148048602Y-87389707D01*
X148020626Y-87347837D01*
X147902162Y-87229373D01*
X147762860Y-87136295D01*
X147608082Y-87072184D01*
X147608074Y-87072182D01*
X147443771Y-87039500D01*
X147443767Y-87039500D01*
X147276233Y-87039500D01*
X147276228Y-87039500D01*
X147111925Y-87072182D01*
X147111917Y-87072184D01*
X146957139Y-87136295D01*
X146817837Y-87229373D01*
X146699373Y-87347837D01*
X146606295Y-87487139D01*
X146542184Y-87641917D01*
X146542182Y-87641925D01*
X146509500Y-87806228D01*
X143577530Y-87806228D01*
X143575541Y-87796228D01*
X143549737Y-87666503D01*
X143539553Y-87641917D01*
X143489397Y-87520827D01*
X143489390Y-87520814D01*
X143401789Y-87389711D01*
X143401786Y-87389707D01*
X143290292Y-87278213D01*
X143290288Y-87278210D01*
X143159185Y-87190609D01*
X143159172Y-87190602D01*
X143013501Y-87130264D01*
X143013489Y-87130261D01*
X142858845Y-87099500D01*
X142858842Y-87099500D01*
X142701158Y-87099500D01*
X142701155Y-87099500D01*
X142546510Y-87130261D01*
X142546503Y-87130263D01*
X142448891Y-87170694D01*
X142379422Y-87178162D01*
X142316943Y-87146886D01*
X142313759Y-87143813D01*
X141902127Y-86732181D01*
X141868642Y-86670858D01*
X141873626Y-86601166D01*
X141915498Y-86545233D01*
X141980962Y-86520816D01*
X141989808Y-86520500D01*
X146245931Y-86520500D01*
X149709192Y-86520500D01*
X149776231Y-86540185D01*
X149796873Y-86556819D01*
X151052984Y-87812930D01*
X151086469Y-87874253D01*
X151086920Y-87876420D01*
X151100261Y-87943489D01*
X151100264Y-87943501D01*
X151160602Y-88089172D01*
X151160609Y-88089185D01*
X151248210Y-88220288D01*
X151248213Y-88220292D01*
X151359707Y-88331786D01*
X151359711Y-88331789D01*
X151490814Y-88419390D01*
X151490827Y-88419397D01*
X151628606Y-88476466D01*
X151636503Y-88479737D01*
X151791153Y-88510499D01*
X151791156Y-88510500D01*
X151791158Y-88510500D01*
X151948844Y-88510500D01*
X151948845Y-88510499D01*
X152103497Y-88479737D01*
X152218354Y-88432162D01*
X152249172Y-88419397D01*
X152249172Y-88419396D01*
X152249179Y-88419394D01*
X152380289Y-88331789D01*
X152491789Y-88220289D01*
X152579394Y-88089179D01*
X152639737Y-87943497D01*
X152670500Y-87788842D01*
X152670500Y-87631158D01*
X152670500Y-87631155D01*
X152670499Y-87631154D01*
X152667530Y-87616228D01*
X155719500Y-87616228D01*
X155719500Y-87783771D01*
X155752182Y-87948074D01*
X155752184Y-87948082D01*
X155816295Y-88102860D01*
X155909373Y-88242162D01*
X156027837Y-88360626D01*
X156102168Y-88410292D01*
X156167137Y-88453703D01*
X156321918Y-88517816D01*
X156436593Y-88540626D01*
X156486228Y-88550499D01*
X156486232Y-88550500D01*
X156486233Y-88550500D01*
X156653768Y-88550500D01*
X156653769Y-88550499D01*
X156818082Y-88517816D01*
X156972863Y-88453703D01*
X157112162Y-88360626D01*
X157230626Y-88242162D01*
X157323703Y-88102863D01*
X157387816Y-87948082D01*
X157420500Y-87783767D01*
X157420500Y-87616233D01*
X157387816Y-87451918D01*
X157323703Y-87297137D01*
X157278425Y-87229374D01*
X157230626Y-87157837D01*
X157112162Y-87039373D01*
X156972860Y-86946295D01*
X156818082Y-86882184D01*
X156818074Y-86882182D01*
X156653771Y-86849500D01*
X156653767Y-86849500D01*
X156486233Y-86849500D01*
X156486228Y-86849500D01*
X156321925Y-86882182D01*
X156321917Y-86882184D01*
X156167139Y-86946295D01*
X156027837Y-87039373D01*
X155909373Y-87157837D01*
X155816295Y-87297139D01*
X155752184Y-87451917D01*
X155752182Y-87451925D01*
X155719500Y-87616228D01*
X152667530Y-87616228D01*
X152639737Y-87476503D01*
X152603787Y-87389711D01*
X152579397Y-87330827D01*
X152579390Y-87330814D01*
X152491789Y-87199711D01*
X152491786Y-87199707D01*
X152380292Y-87088213D01*
X152380288Y-87088210D01*
X152249185Y-87000609D01*
X152249172Y-87000602D01*
X152103501Y-86940264D01*
X152103489Y-86940261D01*
X152036420Y-86926920D01*
X151974509Y-86894535D01*
X151972930Y-86892984D01*
X150444674Y-85364727D01*
X150444673Y-85364726D01*
X150444669Y-85364723D01*
X150338127Y-85293535D01*
X150311527Y-85282517D01*
X150219744Y-85244499D01*
X150219738Y-85244497D01*
X150094071Y-85219500D01*
X150094069Y-85219500D01*
X146374069Y-85219500D01*
X141720808Y-85219500D01*
X141653769Y-85199815D01*
X141633127Y-85183181D01*
X140397015Y-83947069D01*
X140363530Y-83885746D01*
X140363093Y-83883652D01*
X140349737Y-83816503D01*
X140292455Y-83678210D01*
X140289397Y-83670827D01*
X140289390Y-83670814D01*
X140201789Y-83539711D01*
X140201786Y-83539707D01*
X140090292Y-83428213D01*
X140090288Y-83428210D01*
X139959185Y-83340609D01*
X139959172Y-83340602D01*
X139813501Y-83280264D01*
X139813489Y-83280261D01*
X139658845Y-83249500D01*
X139658842Y-83249500D01*
X139501158Y-83249500D01*
X139501155Y-83249500D01*
X139346510Y-83280261D01*
X139346498Y-83280264D01*
X139200827Y-83340602D01*
X139200814Y-83340609D01*
X139069711Y-83428210D01*
X138972305Y-83525616D01*
X138910982Y-83559100D01*
X138841290Y-83554116D01*
X138837172Y-83552496D01*
X138783497Y-83530263D01*
X138783492Y-83530262D01*
X138783489Y-83530261D01*
X138628845Y-83499500D01*
X138628842Y-83499500D01*
X138471158Y-83499500D01*
X138471155Y-83499500D01*
X138316510Y-83530261D01*
X138316498Y-83530264D01*
X138170827Y-83590602D01*
X138170814Y-83590609D01*
X138039711Y-83678210D01*
X138039707Y-83678213D01*
X137928213Y-83789707D01*
X137928210Y-83789711D01*
X137840609Y-83920814D01*
X137840602Y-83920827D01*
X137780264Y-84066498D01*
X137780261Y-84066510D01*
X137749500Y-84221153D01*
X132865833Y-84221153D01*
X132887816Y-84168082D01*
X132920500Y-84003767D01*
X132920500Y-83836233D01*
X132887816Y-83671918D01*
X132833052Y-83539707D01*
X132823704Y-83517139D01*
X132730626Y-83377837D01*
X132612162Y-83259373D01*
X132472860Y-83166295D01*
X132318082Y-83102184D01*
X132318074Y-83102182D01*
X132153771Y-83069500D01*
X132153767Y-83069500D01*
X131986233Y-83069500D01*
X131986228Y-83069500D01*
X131821925Y-83102182D01*
X131821917Y-83102184D01*
X131667139Y-83166295D01*
X131527837Y-83259373D01*
X131409373Y-83377837D01*
X131316295Y-83517139D01*
X131252184Y-83671917D01*
X131252182Y-83671925D01*
X131219500Y-83836228D01*
X118120758Y-83836228D01*
X118125500Y-83806287D01*
X118125500Y-83593713D01*
X118092246Y-83383757D01*
X118026557Y-83181588D01*
X117930051Y-82992184D01*
X117930049Y-82992181D01*
X117930048Y-82992179D01*
X117805109Y-82820213D01*
X117654786Y-82669890D01*
X117482820Y-82544951D01*
X117477346Y-82542162D01*
X117474054Y-82540485D01*
X117423259Y-82492512D01*
X117406463Y-82424692D01*
X117428999Y-82358556D01*
X117474054Y-82319515D01*
X117482816Y-82315051D01*
X117575003Y-82248074D01*
X117654786Y-82190109D01*
X117654788Y-82190106D01*
X117654792Y-82190104D01*
X117805104Y-82039792D01*
X117805106Y-82039788D01*
X117805109Y-82039786D01*
X117859899Y-81964371D01*
X117894877Y-81916228D01*
X135099500Y-81916228D01*
X135099500Y-82083771D01*
X135132182Y-82248074D01*
X135132184Y-82248082D01*
X135196295Y-82402860D01*
X135289373Y-82542162D01*
X135407837Y-82660626D01*
X135491016Y-82716204D01*
X135547137Y-82753703D01*
X135701918Y-82817816D01*
X135866228Y-82850499D01*
X135866232Y-82850500D01*
X135866233Y-82850500D01*
X136033768Y-82850500D01*
X136033769Y-82850499D01*
X136198082Y-82817816D01*
X136352863Y-82753703D01*
X136492162Y-82660626D01*
X136610626Y-82542162D01*
X136703703Y-82402863D01*
X136767816Y-82248082D01*
X136800500Y-82083767D01*
X136800500Y-81916233D01*
X136767816Y-81751918D01*
X136703703Y-81597137D01*
X136622924Y-81476243D01*
X136610626Y-81457837D01*
X136492162Y-81339373D01*
X136352860Y-81246295D01*
X136198082Y-81182184D01*
X136198074Y-81182182D01*
X136033771Y-81149500D01*
X136033767Y-81149500D01*
X135866233Y-81149500D01*
X135866228Y-81149500D01*
X135701925Y-81182182D01*
X135701917Y-81182184D01*
X135547139Y-81246295D01*
X135407837Y-81339373D01*
X135289373Y-81457837D01*
X135196295Y-81597139D01*
X135132184Y-81751917D01*
X135132182Y-81751925D01*
X135099500Y-81916228D01*
X117894877Y-81916228D01*
X117930051Y-81867816D01*
X118026557Y-81678412D01*
X118092246Y-81476243D01*
X118125500Y-81266287D01*
X118125500Y-81053713D01*
X118092246Y-80843757D01*
X118086550Y-80826228D01*
X142889500Y-80826228D01*
X142889500Y-80993771D01*
X142922182Y-81158074D01*
X142922184Y-81158082D01*
X142986295Y-81312860D01*
X143079373Y-81452162D01*
X143197837Y-81570626D01*
X143265363Y-81615745D01*
X143337137Y-81663703D01*
X143491918Y-81727816D01*
X143656228Y-81760499D01*
X143656232Y-81760500D01*
X143656233Y-81760500D01*
X143823768Y-81760500D01*
X143823769Y-81760499D01*
X143988082Y-81727816D01*
X144142863Y-81663703D01*
X144282162Y-81570626D01*
X144400626Y-81452162D01*
X144493703Y-81312863D01*
X144557816Y-81158082D01*
X144590500Y-80993767D01*
X144590500Y-80826233D01*
X144557816Y-80661918D01*
X144493703Y-80507137D01*
X144448770Y-80439890D01*
X144400626Y-80367837D01*
X144282162Y-80249373D01*
X144142860Y-80156295D01*
X143988082Y-80092184D01*
X143988074Y-80092182D01*
X143823771Y-80059500D01*
X143823767Y-80059500D01*
X143656233Y-80059500D01*
X143656228Y-80059500D01*
X143491925Y-80092182D01*
X143491917Y-80092184D01*
X143337139Y-80156295D01*
X143197837Y-80249373D01*
X143079373Y-80367837D01*
X142986295Y-80507139D01*
X142922184Y-80661917D01*
X142922182Y-80661925D01*
X142889500Y-80826228D01*
X118086550Y-80826228D01*
X118026557Y-80641588D01*
X117930051Y-80452184D01*
X117930049Y-80452181D01*
X117930048Y-80452179D01*
X117805109Y-80280213D01*
X117654786Y-80129890D01*
X117482820Y-80004951D01*
X117293414Y-79908444D01*
X117293413Y-79908443D01*
X117293412Y-79908443D01*
X117091243Y-79842754D01*
X117091241Y-79842753D01*
X117091240Y-79842753D01*
X116905039Y-79813262D01*
X116881287Y-79809500D01*
X116668713Y-79809500D01*
X116644961Y-79813262D01*
X116458760Y-79842753D01*
X116256585Y-79908444D01*
X116067179Y-80004951D01*
X115895213Y-80129890D01*
X115744890Y-80280213D01*
X115619951Y-80452179D01*
X115523444Y-80641585D01*
X115523443Y-80641587D01*
X115523443Y-80641588D01*
X115516838Y-80661917D01*
X115457753Y-80843760D01*
X115433994Y-80993768D01*
X115424500Y-81053713D01*
X108100500Y-81053713D01*
X108100500Y-69883713D01*
X115399500Y-69883713D01*
X115399500Y-70096286D01*
X115427066Y-70270334D01*
X115432754Y-70306243D01*
X115470432Y-70422204D01*
X115498444Y-70508414D01*
X115594951Y-70697820D01*
X115719890Y-70869786D01*
X115870213Y-71020109D01*
X116042182Y-71145050D01*
X116050946Y-71149516D01*
X116101742Y-71197491D01*
X116118536Y-71265312D01*
X116095998Y-71331447D01*
X116050946Y-71370484D01*
X116042182Y-71374949D01*
X115870213Y-71499890D01*
X115719890Y-71650213D01*
X115594951Y-71822179D01*
X115498444Y-72011585D01*
X115498443Y-72011587D01*
X115498443Y-72011588D01*
X115477833Y-72075018D01*
X115432753Y-72213760D01*
X115412936Y-72338879D01*
X115399500Y-72423713D01*
X115399500Y-72636287D01*
X115409534Y-72699644D01*
X115427483Y-72812968D01*
X115432754Y-72846243D01*
X115497734Y-73046231D01*
X115498444Y-73048414D01*
X115594951Y-73237820D01*
X115719890Y-73409786D01*
X115833430Y-73523326D01*
X115866915Y-73584649D01*
X115861931Y-73654341D01*
X115820059Y-73710274D01*
X115789083Y-73727189D01*
X115657669Y-73776203D01*
X115657664Y-73776206D01*
X115542455Y-73862452D01*
X115542452Y-73862455D01*
X115456206Y-73977664D01*
X115456202Y-73977671D01*
X115405908Y-74112517D01*
X115400364Y-74164091D01*
X115399501Y-74172123D01*
X115399500Y-74172135D01*
X115399500Y-75967870D01*
X115399501Y-75967876D01*
X115405908Y-76027483D01*
X115456202Y-76162328D01*
X115456206Y-76162335D01*
X115542452Y-76277544D01*
X115542455Y-76277547D01*
X115657664Y-76363793D01*
X115657671Y-76363797D01*
X115792517Y-76414091D01*
X115792516Y-76414091D01*
X115799444Y-76414835D01*
X115852127Y-76420500D01*
X117647872Y-76420499D01*
X117707483Y-76414091D01*
X117842331Y-76363796D01*
X117957546Y-76277546D01*
X118043796Y-76162331D01*
X118094091Y-76027483D01*
X118100500Y-75967873D01*
X118100499Y-74172128D01*
X118094229Y-74113797D01*
X118094091Y-74112516D01*
X118043797Y-73977671D01*
X118043793Y-73977664D01*
X117957547Y-73862455D01*
X117957544Y-73862452D01*
X117842335Y-73776206D01*
X117842328Y-73776202D01*
X117710917Y-73727189D01*
X117654983Y-73685318D01*
X117630566Y-73619853D01*
X117645418Y-73551580D01*
X117666563Y-73523332D01*
X117780104Y-73409792D01*
X117780110Y-73409784D01*
X117907915Y-73233875D01*
X117909259Y-73234851D01*
X117955705Y-73192834D01*
X118009618Y-73180500D01*
X120409192Y-73180500D01*
X120476231Y-73200185D01*
X120496873Y-73216819D01*
X126685324Y-79405271D01*
X126685331Y-79405277D01*
X126791871Y-79476464D01*
X126791870Y-79476464D01*
X126826544Y-79490826D01*
X126910256Y-79525501D01*
X126910260Y-79525501D01*
X126910261Y-79525502D01*
X127035928Y-79550500D01*
X127035931Y-79550500D01*
X142905068Y-79550500D01*
X142972107Y-79570185D01*
X142973959Y-79571398D01*
X143097137Y-79653703D01*
X143251918Y-79717816D01*
X143404037Y-79748074D01*
X143416228Y-79750499D01*
X143416232Y-79750500D01*
X143416233Y-79750500D01*
X143583768Y-79750500D01*
X143583769Y-79750499D01*
X143748082Y-79717816D01*
X143902863Y-79653703D01*
X144042162Y-79560626D01*
X144160626Y-79442162D01*
X144253703Y-79302863D01*
X144317816Y-79148082D01*
X144350500Y-78983767D01*
X144350500Y-78816233D01*
X144317816Y-78651918D01*
X144253703Y-78497137D01*
X144184559Y-78393656D01*
X144160626Y-78357837D01*
X144042162Y-78239373D01*
X143902860Y-78146295D01*
X143748082Y-78082184D01*
X143748074Y-78082182D01*
X143583771Y-78049500D01*
X143583767Y-78049500D01*
X143416233Y-78049500D01*
X143416228Y-78049500D01*
X143251925Y-78082182D01*
X143251917Y-78082184D01*
X143097139Y-78146295D01*
X142973959Y-78228602D01*
X142907281Y-78249480D01*
X142905068Y-78249500D01*
X133719868Y-78249500D01*
X133652829Y-78229815D01*
X133607074Y-78177011D01*
X133597130Y-78107853D01*
X133626155Y-78044297D01*
X133680864Y-78007794D01*
X133758697Y-77982003D01*
X133903044Y-77892968D01*
X134022968Y-77773044D01*
X134112003Y-77628697D01*
X134165349Y-77467708D01*
X134173736Y-77385608D01*
X134200132Y-77320917D01*
X134209404Y-77310539D01*
X134650201Y-76869742D01*
X134711522Y-76836259D01*
X134762071Y-76835808D01*
X134807936Y-76844931D01*
X134835930Y-76850500D01*
X134835931Y-76850500D01*
X145225500Y-76850500D01*
X145292539Y-76870185D01*
X145338294Y-76922989D01*
X145349500Y-76974500D01*
X145349500Y-76983771D01*
X145382182Y-77148074D01*
X145382184Y-77148082D01*
X145401503Y-77194723D01*
X145446297Y-77302863D01*
X145459357Y-77322408D01*
X145480234Y-77389085D01*
X145461749Y-77456465D01*
X145425145Y-77494400D01*
X145357838Y-77539373D01*
X145357834Y-77539376D01*
X145239373Y-77657837D01*
X145146295Y-77797139D01*
X145082184Y-77951917D01*
X145082182Y-77951925D01*
X145049500Y-78116228D01*
X145049500Y-78283771D01*
X145082182Y-78448074D01*
X145082184Y-78448082D01*
X145135400Y-78576557D01*
X145146297Y-78602863D01*
X145159357Y-78622408D01*
X145180234Y-78689085D01*
X145161749Y-78756465D01*
X145125145Y-78794400D01*
X145057838Y-78839373D01*
X145057834Y-78839376D01*
X144939373Y-78957837D01*
X144846295Y-79097139D01*
X144782184Y-79251917D01*
X144782182Y-79251925D01*
X144749500Y-79416228D01*
X144749500Y-79583771D01*
X144782182Y-79748074D01*
X144782184Y-79748082D01*
X144846295Y-79902860D01*
X144939373Y-80042162D01*
X145057837Y-80160626D01*
X145073959Y-80171398D01*
X145197137Y-80253703D01*
X145197138Y-80253703D01*
X145197139Y-80253704D01*
X145232201Y-80268227D01*
X145351918Y-80317816D01*
X145516228Y-80350499D01*
X145516232Y-80350500D01*
X145516233Y-80350500D01*
X145683768Y-80350500D01*
X145683769Y-80350499D01*
X145848082Y-80317816D01*
X146002863Y-80253703D01*
X146126041Y-80171398D01*
X146192719Y-80150520D01*
X146194932Y-80150500D01*
X154379192Y-80150500D01*
X154446231Y-80170185D01*
X154466873Y-80186819D01*
X163685324Y-89405271D01*
X163685331Y-89405277D01*
X163791871Y-89476464D01*
X163791870Y-89476464D01*
X163826544Y-89490826D01*
X163910256Y-89525501D01*
X163910260Y-89525501D01*
X163910261Y-89525502D01*
X164035928Y-89550500D01*
X164035931Y-89550500D01*
X175064071Y-89550500D01*
X175148615Y-89533682D01*
X175189744Y-89525501D01*
X175308127Y-89476465D01*
X175414669Y-89405277D01*
X178305277Y-86514669D01*
X178376465Y-86408127D01*
X178425501Y-86289744D01*
X178425502Y-86289741D01*
X178426511Y-86284668D01*
X178426511Y-86284664D01*
X178450500Y-86164069D01*
X178450500Y-85484499D01*
X178470185Y-85417460D01*
X178522989Y-85371705D01*
X178574500Y-85360499D01*
X178697871Y-85360499D01*
X178697872Y-85360499D01*
X178757483Y-85354091D01*
X178892331Y-85303796D01*
X179007546Y-85217546D01*
X179093796Y-85102331D01*
X179144091Y-84967483D01*
X179150500Y-84907873D01*
X179150499Y-83112128D01*
X179144091Y-83052517D01*
X179121588Y-82992184D01*
X179093797Y-82917671D01*
X179093793Y-82917664D01*
X179007547Y-82802455D01*
X179007544Y-82802452D01*
X178892335Y-82716206D01*
X178892328Y-82716202D01*
X178760917Y-82667189D01*
X178704983Y-82625318D01*
X178680566Y-82559853D01*
X178695418Y-82491580D01*
X178716563Y-82463332D01*
X178830104Y-82349792D01*
X178955051Y-82177816D01*
X179051557Y-81988412D01*
X179117246Y-81786243D01*
X179150500Y-81576287D01*
X179150500Y-81363713D01*
X179117246Y-81153757D01*
X179051557Y-80951588D01*
X178955051Y-80762184D01*
X178955049Y-80762181D01*
X178955048Y-80762179D01*
X178830109Y-80590213D01*
X178679786Y-80439890D01*
X178507820Y-80314951D01*
X178507115Y-80314591D01*
X178499054Y-80310485D01*
X178448259Y-80262512D01*
X178431463Y-80194692D01*
X178453999Y-80128556D01*
X178499054Y-80089515D01*
X178507816Y-80085051D01*
X178592486Y-80023535D01*
X178679786Y-79960109D01*
X178679788Y-79960106D01*
X178679792Y-79960104D01*
X178830104Y-79809792D01*
X178830106Y-79809788D01*
X178830109Y-79809786D01*
X178955048Y-79637820D01*
X178955047Y-79637820D01*
X178955051Y-79637816D01*
X179051557Y-79448412D01*
X179117246Y-79246243D01*
X179150500Y-79036287D01*
X179150500Y-78823713D01*
X179117246Y-78613757D01*
X179051557Y-78411588D01*
X178955051Y-78222184D01*
X178955049Y-78222181D01*
X178955048Y-78222179D01*
X178830109Y-78050213D01*
X178679786Y-77899890D01*
X178507820Y-77774951D01*
X178504069Y-77773040D01*
X178499054Y-77770485D01*
X178448259Y-77722512D01*
X178431463Y-77654692D01*
X178453999Y-77588556D01*
X178499054Y-77549515D01*
X178507816Y-77545051D01*
X178614269Y-77467709D01*
X178679786Y-77420109D01*
X178679788Y-77420106D01*
X178679792Y-77420104D01*
X178830104Y-77269792D01*
X178830106Y-77269788D01*
X178830109Y-77269786D01*
X178955048Y-77097820D01*
X178955047Y-77097820D01*
X178955051Y-77097816D01*
X179051557Y-76908412D01*
X179117246Y-76706243D01*
X179150500Y-76496287D01*
X179150500Y-76283713D01*
X179117246Y-76073757D01*
X179051557Y-75871588D01*
X178955051Y-75682184D01*
X178955049Y-75682181D01*
X178955048Y-75682179D01*
X178830109Y-75510213D01*
X178679786Y-75359890D01*
X178507820Y-75234951D01*
X178318414Y-75138444D01*
X178318413Y-75138443D01*
X178318412Y-75138443D01*
X178116243Y-75072754D01*
X178116241Y-75072753D01*
X178116240Y-75072753D01*
X177954957Y-75047208D01*
X177906287Y-75039500D01*
X177693713Y-75039500D01*
X177645042Y-75047208D01*
X177483760Y-75072753D01*
X177281585Y-75138444D01*
X177092179Y-75234951D01*
X176920213Y-75359890D01*
X176769890Y-75510213D01*
X176644951Y-75682179D01*
X176548444Y-75871585D01*
X176548443Y-75871587D01*
X176548443Y-75871588D01*
X176541763Y-75892147D01*
X176482753Y-76073760D01*
X176449500Y-76283713D01*
X176449500Y-76496286D01*
X176477376Y-76672292D01*
X176482754Y-76706243D01*
X176537987Y-76876233D01*
X176548444Y-76908414D01*
X176644951Y-77097820D01*
X176769890Y-77269786D01*
X176920213Y-77420109D01*
X177092182Y-77545050D01*
X177100946Y-77549516D01*
X177151742Y-77597491D01*
X177168536Y-77665312D01*
X177145998Y-77731447D01*
X177100946Y-77770484D01*
X177092182Y-77774949D01*
X176920213Y-77899890D01*
X176769890Y-78050213D01*
X176644951Y-78222179D01*
X176614576Y-78281795D01*
X176566602Y-78332591D01*
X176504091Y-78349500D01*
X176435929Y-78349500D01*
X176310261Y-78374497D01*
X176310255Y-78374499D01*
X176191875Y-78423533D01*
X176191866Y-78423538D01*
X176085331Y-78494723D01*
X176085327Y-78494726D01*
X173994727Y-80585325D01*
X173994724Y-80585328D01*
X173957133Y-80641587D01*
X173957134Y-80641588D01*
X173923534Y-80691874D01*
X173874499Y-80810255D01*
X173874497Y-80810261D01*
X173849500Y-80935928D01*
X173849500Y-83379192D01*
X173829815Y-83446231D01*
X173813181Y-83466873D01*
X171966873Y-85313181D01*
X171905550Y-85346666D01*
X171879192Y-85349500D01*
X165020808Y-85349500D01*
X164953769Y-85329815D01*
X164933127Y-85313181D01*
X161028291Y-81408345D01*
X160994806Y-81347022D01*
X160999790Y-81277330D01*
X161041662Y-81221397D01*
X161107126Y-81196980D01*
X161163424Y-81206103D01*
X161200348Y-81221397D01*
X161210256Y-81225501D01*
X161210260Y-81225501D01*
X161210261Y-81225502D01*
X161335928Y-81250500D01*
X161335931Y-81250500D01*
X161464069Y-81250500D01*
X166011011Y-81250500D01*
X166078050Y-81270185D01*
X166123805Y-81322989D01*
X166133749Y-81392147D01*
X166104724Y-81455703D01*
X166050017Y-81492205D01*
X165980669Y-81515185D01*
X165980666Y-81515186D01*
X165980663Y-81515187D01*
X165831342Y-81607289D01*
X165707289Y-81731342D01*
X165615187Y-81880663D01*
X165615185Y-81880668D01*
X165603400Y-81916233D01*
X165560001Y-82047203D01*
X165560001Y-82047204D01*
X165560000Y-82047204D01*
X165549500Y-82149983D01*
X165549500Y-83700001D01*
X165549501Y-83700018D01*
X165560000Y-83802796D01*
X165560001Y-83802799D01*
X165615185Y-83969331D01*
X165615187Y-83969336D01*
X165650069Y-84025888D01*
X165707288Y-84118656D01*
X165831344Y-84242712D01*
X165980666Y-84334814D01*
X166147203Y-84389999D01*
X166249991Y-84400500D01*
X167550008Y-84400499D01*
X167652797Y-84389999D01*
X167819334Y-84334814D01*
X167968656Y-84242712D01*
X168092712Y-84118656D01*
X168184814Y-83969334D01*
X168184814Y-83969331D01*
X168188178Y-83963879D01*
X168240126Y-83917154D01*
X168309088Y-83905931D01*
X168373170Y-83933774D01*
X168381398Y-83941294D01*
X168520213Y-84080109D01*
X168692179Y-84205048D01*
X168692181Y-84205049D01*
X168692184Y-84205051D01*
X168881588Y-84301557D01*
X169083757Y-84367246D01*
X169293713Y-84400500D01*
X169293714Y-84400500D01*
X169506286Y-84400500D01*
X169506287Y-84400500D01*
X169716243Y-84367246D01*
X169918412Y-84301557D01*
X170107816Y-84205051D01*
X170158711Y-84168074D01*
X170279786Y-84080109D01*
X170279788Y-84080106D01*
X170279792Y-84080104D01*
X170430104Y-83929792D01*
X170430106Y-83929788D01*
X170430109Y-83929786D01*
X170555048Y-83757820D01*
X170555047Y-83757820D01*
X170555051Y-83757816D01*
X170651557Y-83568412D01*
X170717246Y-83366243D01*
X170750500Y-83156287D01*
X170750500Y-82693713D01*
X170717246Y-82483757D01*
X170651557Y-82281588D01*
X170555051Y-82092184D01*
X170555049Y-82092181D01*
X170555048Y-82092179D01*
X170430109Y-81920213D01*
X170279786Y-81769890D01*
X170103875Y-81642085D01*
X170104851Y-81640740D01*
X170062834Y-81594295D01*
X170050500Y-81540382D01*
X170050500Y-81535928D01*
X170025502Y-81410261D01*
X170025501Y-81410260D01*
X170025501Y-81410256D01*
X169990050Y-81324669D01*
X169976466Y-81291874D01*
X169973088Y-81286819D01*
X169905278Y-81185332D01*
X169905272Y-81185325D01*
X168814673Y-80094726D01*
X168806873Y-80089514D01*
X168708127Y-80023535D01*
X168663261Y-80004951D01*
X168589744Y-79974499D01*
X168589738Y-79974497D01*
X168464071Y-79949500D01*
X168464069Y-79949500D01*
X161720808Y-79949500D01*
X161653769Y-79929815D01*
X161633127Y-79913181D01*
X157682127Y-75962181D01*
X157648642Y-75900858D01*
X157653626Y-75831166D01*
X157695498Y-75775233D01*
X157760962Y-75750816D01*
X157769808Y-75750500D01*
X165663770Y-75750500D01*
X165730809Y-75770185D01*
X165776564Y-75822989D01*
X165786508Y-75892147D01*
X165757483Y-75955703D01*
X165751451Y-75962181D01*
X165707289Y-76006342D01*
X165615187Y-76155663D01*
X165615185Y-76155668D01*
X165612978Y-76162328D01*
X165560001Y-76322203D01*
X165560001Y-76322204D01*
X165560000Y-76322204D01*
X165549500Y-76424983D01*
X165549500Y-77975001D01*
X165549501Y-77975018D01*
X165560000Y-78077796D01*
X165560001Y-78077799D01*
X165607846Y-78222184D01*
X165615186Y-78244334D01*
X165707288Y-78393656D01*
X165831344Y-78517712D01*
X165980666Y-78609814D01*
X166147203Y-78664999D01*
X166249991Y-78675500D01*
X167550008Y-78675499D01*
X167652797Y-78664999D01*
X167819334Y-78609814D01*
X167968656Y-78517712D01*
X168092712Y-78393656D01*
X168184814Y-78244334D01*
X168184814Y-78244331D01*
X168188178Y-78238879D01*
X168240126Y-78192154D01*
X168309088Y-78180931D01*
X168373170Y-78208774D01*
X168381398Y-78216294D01*
X168520213Y-78355109D01*
X168692179Y-78480048D01*
X168692181Y-78480049D01*
X168692184Y-78480051D01*
X168881588Y-78576557D01*
X169083757Y-78642246D01*
X169293713Y-78675500D01*
X169293714Y-78675500D01*
X169506286Y-78675500D01*
X169506287Y-78675500D01*
X169716243Y-78642246D01*
X169918412Y-78576557D01*
X170107816Y-78480051D01*
X170202052Y-78411585D01*
X170279786Y-78355109D01*
X170279788Y-78355106D01*
X170279792Y-78355104D01*
X170430104Y-78204792D01*
X170430106Y-78204788D01*
X170430109Y-78204786D01*
X170555048Y-78032820D01*
X170555047Y-78032820D01*
X170555051Y-78032816D01*
X170651557Y-77843412D01*
X170717246Y-77641243D01*
X170750500Y-77431287D01*
X170750500Y-76968713D01*
X170717246Y-76758757D01*
X170651557Y-76556588D01*
X170555051Y-76367184D01*
X170555049Y-76367181D01*
X170555048Y-76367179D01*
X170430109Y-76195213D01*
X170279786Y-76044890D01*
X170103875Y-75917085D01*
X170104851Y-75915740D01*
X170062834Y-75869295D01*
X170050500Y-75815382D01*
X170050500Y-75635928D01*
X170025502Y-75510261D01*
X170025501Y-75510260D01*
X170025501Y-75510256D01*
X169976465Y-75391873D01*
X169976464Y-75391872D01*
X169976461Y-75391866D01*
X169905277Y-75285332D01*
X169905276Y-75285331D01*
X169814669Y-75194724D01*
X169692698Y-75072753D01*
X169210362Y-74590415D01*
X169211626Y-74589150D01*
X169177042Y-74538384D01*
X169175167Y-74468540D01*
X169207358Y-74412588D01*
X169905271Y-73714675D01*
X169905276Y-73714670D01*
X169976465Y-73608127D01*
X170021203Y-73500118D01*
X170065041Y-73445720D01*
X170131335Y-73423654D01*
X170199034Y-73440933D01*
X170246645Y-73492069D01*
X170257379Y-73523383D01*
X170282182Y-73648076D01*
X170282184Y-73648082D01*
X170346295Y-73802860D01*
X170439373Y-73942162D01*
X170557837Y-74060626D01*
X170635498Y-74112517D01*
X170697137Y-74153703D01*
X170697138Y-74153703D01*
X170697139Y-74153704D01*
X170732201Y-74168227D01*
X170851918Y-74217816D01*
X171016228Y-74250499D01*
X171016232Y-74250500D01*
X171016233Y-74250500D01*
X171183768Y-74250500D01*
X171183769Y-74250499D01*
X171348082Y-74217816D01*
X171502863Y-74153703D01*
X171626041Y-74071398D01*
X171692719Y-74050520D01*
X171694932Y-74050500D01*
X173205068Y-74050500D01*
X173272107Y-74070185D01*
X173273959Y-74071398D01*
X173397137Y-74153703D01*
X173397138Y-74153703D01*
X173397139Y-74153704D01*
X173432201Y-74168227D01*
X173551918Y-74217816D01*
X173716228Y-74250499D01*
X173716232Y-74250500D01*
X173716233Y-74250500D01*
X173883768Y-74250500D01*
X173883769Y-74250499D01*
X174048082Y-74217816D01*
X174202863Y-74153703D01*
X174342162Y-74060626D01*
X174460626Y-73942162D01*
X174553703Y-73802863D01*
X174617816Y-73648082D01*
X174650500Y-73483767D01*
X174650500Y-73316233D01*
X174617816Y-73151918D01*
X174567545Y-73030554D01*
X174553704Y-72997139D01*
X174460626Y-72857837D01*
X174342162Y-72739373D01*
X174202860Y-72646295D01*
X174048082Y-72582184D01*
X174048074Y-72582182D01*
X173883771Y-72549500D01*
X173883767Y-72549500D01*
X173716233Y-72549500D01*
X173716228Y-72549500D01*
X173551925Y-72582182D01*
X173551917Y-72582184D01*
X173397139Y-72646295D01*
X173273959Y-72728602D01*
X173207281Y-72749480D01*
X173205068Y-72749500D01*
X171694932Y-72749500D01*
X171627893Y-72729815D01*
X171626041Y-72728602D01*
X171502860Y-72646295D01*
X171348082Y-72582184D01*
X171348074Y-72582182D01*
X171183771Y-72549500D01*
X171183767Y-72549500D01*
X171016233Y-72549500D01*
X171016228Y-72549500D01*
X170851925Y-72582182D01*
X170851917Y-72582184D01*
X170697139Y-72646295D01*
X170557837Y-72739373D01*
X170439373Y-72857837D01*
X170346295Y-72997139D01*
X170289061Y-73135315D01*
X170245220Y-73189718D01*
X170178925Y-73211783D01*
X170111226Y-73194504D01*
X170063616Y-73143366D01*
X170050500Y-73087862D01*
X170050500Y-72684617D01*
X170070185Y-72617578D01*
X170104592Y-72583902D01*
X170103874Y-72582914D01*
X170107811Y-72580053D01*
X170107816Y-72580051D01*
X170279792Y-72455104D01*
X170430104Y-72304792D01*
X170430106Y-72304788D01*
X170430109Y-72304786D01*
X170555048Y-72132820D01*
X170555047Y-72132820D01*
X170555051Y-72132816D01*
X170651557Y-71943412D01*
X170717246Y-71741243D01*
X170750500Y-71531287D01*
X170750500Y-71068713D01*
X170717246Y-70858757D01*
X170651557Y-70656588D01*
X170555051Y-70467184D01*
X170555049Y-70467181D01*
X170555048Y-70467179D01*
X170430109Y-70295213D01*
X170279786Y-70144890D01*
X170107820Y-70019951D01*
X169918414Y-69923444D01*
X169918413Y-69923443D01*
X169918412Y-69923443D01*
X169716243Y-69857754D01*
X169716241Y-69857753D01*
X169716240Y-69857753D01*
X169554957Y-69832208D01*
X169506287Y-69824500D01*
X169293713Y-69824500D01*
X169245042Y-69832208D01*
X169083760Y-69857753D01*
X168881585Y-69923444D01*
X168692179Y-70019951D01*
X168520215Y-70144889D01*
X168381398Y-70283706D01*
X168320075Y-70317190D01*
X168250383Y-70312206D01*
X168194450Y-70270334D01*
X168188178Y-70261120D01*
X168092712Y-70106344D01*
X167968657Y-69982289D01*
X167968656Y-69982288D01*
X167819334Y-69890186D01*
X167652797Y-69835001D01*
X167652795Y-69835000D01*
X167550010Y-69824500D01*
X166249998Y-69824500D01*
X166249981Y-69824501D01*
X166147203Y-69835000D01*
X166147200Y-69835001D01*
X165980668Y-69890185D01*
X165980663Y-69890187D01*
X165831342Y-69982289D01*
X165707289Y-70106342D01*
X165615187Y-70255663D01*
X165615185Y-70255668D01*
X165610325Y-70270334D01*
X165560001Y-70422203D01*
X165560001Y-70422204D01*
X165560000Y-70422204D01*
X165549500Y-70524983D01*
X165549500Y-72075001D01*
X165549501Y-72075018D01*
X165560000Y-72177796D01*
X165560001Y-72177799D01*
X165615185Y-72344331D01*
X165615187Y-72344336D01*
X165641939Y-72387708D01*
X165707288Y-72493656D01*
X165831344Y-72617712D01*
X165980666Y-72709814D01*
X166147203Y-72764999D01*
X166249991Y-72775500D01*
X167550008Y-72775499D01*
X167652797Y-72764999D01*
X167819334Y-72709814D01*
X167968656Y-72617712D01*
X168092712Y-72493656D01*
X168184814Y-72344334D01*
X168184814Y-72344331D01*
X168188178Y-72338879D01*
X168240126Y-72292154D01*
X168309088Y-72280931D01*
X168373170Y-72308774D01*
X168381398Y-72316294D01*
X168520208Y-72455104D01*
X168692184Y-72580051D01*
X168692188Y-72580053D01*
X168696126Y-72582914D01*
X168695146Y-72584262D01*
X168737160Y-72630690D01*
X168749500Y-72684617D01*
X168749500Y-72979192D01*
X168729815Y-73046231D01*
X168713181Y-73066873D01*
X168466873Y-73313181D01*
X168405550Y-73346666D01*
X168379192Y-73349500D01*
X157969809Y-73349500D01*
X157902770Y-73329815D01*
X157857015Y-73277011D01*
X157847071Y-73207853D01*
X157876096Y-73144297D01*
X157882128Y-73137819D01*
X161733127Y-69286819D01*
X161794450Y-69253334D01*
X161820808Y-69250500D01*
X166064071Y-69250500D01*
X166152734Y-69232863D01*
X166189744Y-69225501D01*
X166308127Y-69176465D01*
X166414669Y-69105277D01*
X167886232Y-67633713D01*
X176449500Y-67633713D01*
X176449500Y-67846286D01*
X176480678Y-68043139D01*
X176482754Y-68056243D01*
X176544780Y-68247140D01*
X176548444Y-68258414D01*
X176644951Y-68447820D01*
X176769890Y-68619786D01*
X176920213Y-68770109D01*
X177092182Y-68895050D01*
X177100946Y-68899516D01*
X177151742Y-68947491D01*
X177168536Y-69015312D01*
X177145998Y-69081447D01*
X177100946Y-69120484D01*
X177092182Y-69124949D01*
X176920213Y-69249890D01*
X176769890Y-69400213D01*
X176644951Y-69572179D01*
X176548444Y-69761585D01*
X176482753Y-69963760D01*
X176460170Y-70106344D01*
X176449500Y-70173713D01*
X176449500Y-70386287D01*
X176482754Y-70596243D01*
X176515757Y-70697816D01*
X176548444Y-70798414D01*
X176644951Y-70987820D01*
X176769890Y-71159786D01*
X176883430Y-71273326D01*
X176916915Y-71334649D01*
X176911931Y-71404341D01*
X176870059Y-71460274D01*
X176839083Y-71477189D01*
X176707669Y-71526203D01*
X176707664Y-71526206D01*
X176592455Y-71612452D01*
X176592452Y-71612455D01*
X176506206Y-71727664D01*
X176506202Y-71727671D01*
X176455908Y-71862517D01*
X176451395Y-71904497D01*
X176449501Y-71922123D01*
X176449500Y-71922135D01*
X176449500Y-73717870D01*
X176449501Y-73717876D01*
X176455908Y-73777483D01*
X176506202Y-73912328D01*
X176506206Y-73912335D01*
X176592452Y-74027544D01*
X176592455Y-74027547D01*
X176707664Y-74113793D01*
X176707671Y-74113797D01*
X176842517Y-74164091D01*
X176842516Y-74164091D01*
X176849444Y-74164835D01*
X176902127Y-74170500D01*
X178697872Y-74170499D01*
X178757483Y-74164091D01*
X178892331Y-74113796D01*
X179007546Y-74027546D01*
X179093796Y-73912331D01*
X179144091Y-73777483D01*
X179150500Y-73717873D01*
X179150499Y-71922128D01*
X179144091Y-71862517D01*
X179143083Y-71859815D01*
X179093797Y-71727671D01*
X179093793Y-71727664D01*
X179007547Y-71612455D01*
X179007544Y-71612452D01*
X178892335Y-71526206D01*
X178892328Y-71526202D01*
X178760917Y-71477189D01*
X178704983Y-71435318D01*
X178680566Y-71369853D01*
X178695418Y-71301580D01*
X178716563Y-71273332D01*
X178830104Y-71159792D01*
X178837572Y-71149514D01*
X178955048Y-70987820D01*
X178955047Y-70987820D01*
X178955051Y-70987816D01*
X179051557Y-70798412D01*
X179117246Y-70596243D01*
X179150500Y-70386287D01*
X179150500Y-70173713D01*
X179117246Y-69963757D01*
X179051557Y-69761588D01*
X178955051Y-69572184D01*
X178955049Y-69572181D01*
X178955048Y-69572179D01*
X178830109Y-69400213D01*
X178679786Y-69249890D01*
X178507820Y-69124951D01*
X178507115Y-69124591D01*
X178499054Y-69120485D01*
X178448259Y-69072512D01*
X178431463Y-69004692D01*
X178453999Y-68938556D01*
X178499054Y-68899515D01*
X178507816Y-68895051D01*
X178590540Y-68834949D01*
X178679786Y-68770109D01*
X178679788Y-68770106D01*
X178679792Y-68770104D01*
X178830104Y-68619792D01*
X178830106Y-68619788D01*
X178830109Y-68619786D01*
X178955048Y-68447820D01*
X178955047Y-68447820D01*
X178955051Y-68447816D01*
X179051557Y-68258412D01*
X179117246Y-68056243D01*
X179150500Y-67846287D01*
X179150500Y-67633713D01*
X179117246Y-67423757D01*
X179051557Y-67221588D01*
X178955051Y-67032184D01*
X178955049Y-67032181D01*
X178955048Y-67032179D01*
X178830109Y-66860213D01*
X178679786Y-66709890D01*
X178507820Y-66584951D01*
X178318414Y-66488444D01*
X178318413Y-66488443D01*
X178318412Y-66488443D01*
X178116243Y-66422754D01*
X178116241Y-66422753D01*
X178116240Y-66422753D01*
X177932533Y-66393657D01*
X177906287Y-66389500D01*
X177693713Y-66389500D01*
X177667467Y-66393657D01*
X177483760Y-66422753D01*
X177281585Y-66488444D01*
X177092179Y-66584951D01*
X176920213Y-66709890D01*
X176769890Y-66860213D01*
X176644951Y-67032179D01*
X176548444Y-67221585D01*
X176482753Y-67423760D01*
X176449500Y-67633713D01*
X167886232Y-67633713D01*
X168874503Y-66645441D01*
X168935824Y-66611958D01*
X169000497Y-66615192D01*
X169083757Y-66642246D01*
X169293713Y-66675500D01*
X169293714Y-66675500D01*
X169506286Y-66675500D01*
X169506287Y-66675500D01*
X169716243Y-66642246D01*
X169918412Y-66576557D01*
X170107816Y-66480051D01*
X170186679Y-66422754D01*
X170279786Y-66355109D01*
X170279788Y-66355106D01*
X170279792Y-66355104D01*
X170430104Y-66204792D01*
X170430106Y-66204788D01*
X170430109Y-66204786D01*
X170555048Y-66032820D01*
X170555047Y-66032820D01*
X170555051Y-66032816D01*
X170651557Y-65843412D01*
X170717246Y-65641243D01*
X170750500Y-65431287D01*
X170750500Y-64968713D01*
X170717246Y-64758757D01*
X170651557Y-64556588D01*
X170555051Y-64367184D01*
X170555049Y-64367181D01*
X170555048Y-64367179D01*
X170430109Y-64195213D01*
X170279786Y-64044890D01*
X170107820Y-63919951D01*
X169918414Y-63823444D01*
X169918413Y-63823443D01*
X169918412Y-63823443D01*
X169716243Y-63757754D01*
X169716241Y-63757753D01*
X169716240Y-63757753D01*
X169554957Y-63732208D01*
X169506287Y-63724500D01*
X169293713Y-63724500D01*
X169245042Y-63732208D01*
X169083760Y-63757753D01*
X168881585Y-63823444D01*
X168692179Y-63919951D01*
X168520215Y-64044889D01*
X168381398Y-64183706D01*
X168320075Y-64217190D01*
X168250383Y-64212206D01*
X168194450Y-64170334D01*
X168188178Y-64161120D01*
X168092712Y-64006344D01*
X167968657Y-63882289D01*
X167968656Y-63882288D01*
X167819334Y-63790186D01*
X167652797Y-63735001D01*
X167652795Y-63735000D01*
X167550010Y-63724500D01*
X166249998Y-63724500D01*
X166249981Y-63724501D01*
X166147203Y-63735000D01*
X166147200Y-63735001D01*
X165980668Y-63790185D01*
X165980663Y-63790187D01*
X165831342Y-63882289D01*
X165707289Y-64006342D01*
X165615187Y-64155663D01*
X165615185Y-64155668D01*
X165610325Y-64170334D01*
X165560001Y-64322203D01*
X165560001Y-64322204D01*
X165560000Y-64322204D01*
X165549500Y-64424983D01*
X165549500Y-65975001D01*
X165549501Y-65975018D01*
X165560000Y-66077796D01*
X165560001Y-66077799D01*
X165596233Y-66187137D01*
X165615186Y-66244334D01*
X165707288Y-66393656D01*
X165831344Y-66517712D01*
X165980666Y-66609814D01*
X166147203Y-66664999D01*
X166249991Y-66675500D01*
X166705192Y-66675499D01*
X166772230Y-66695183D01*
X166817985Y-66747987D01*
X166827929Y-66817146D01*
X166798904Y-66880702D01*
X166792872Y-66887180D01*
X165766873Y-67913181D01*
X165705550Y-67946666D01*
X165679192Y-67949500D01*
X161435929Y-67949500D01*
X161310261Y-67974497D01*
X161310255Y-67974499D01*
X161191874Y-68023534D01*
X161085326Y-68094726D01*
X161085325Y-68094727D01*
X157066873Y-72113181D01*
X157005550Y-72146666D01*
X156979192Y-72149500D01*
X135794932Y-72149500D01*
X135727893Y-72129815D01*
X135726041Y-72128602D01*
X135602860Y-72046295D01*
X135448082Y-71982184D01*
X135448074Y-71982182D01*
X135302781Y-71953281D01*
X135240870Y-71920896D01*
X135239291Y-71919345D01*
X134804674Y-71484727D01*
X134804673Y-71484726D01*
X134793393Y-71477189D01*
X134698127Y-71413535D01*
X134604972Y-71374949D01*
X134579744Y-71364499D01*
X134579738Y-71364497D01*
X134454071Y-71339500D01*
X134454069Y-71339500D01*
X134119547Y-71339500D01*
X134052508Y-71319815D01*
X134022276Y-71292405D01*
X134017967Y-71286955D01*
X133972569Y-71241557D01*
X133898044Y-71167032D01*
X133898041Y-71167030D01*
X133898040Y-71167029D01*
X133753705Y-71078001D01*
X133753699Y-71077998D01*
X133753697Y-71077997D01*
X133753694Y-71077996D01*
X133592709Y-71024651D01*
X133493346Y-71014500D01*
X132946662Y-71014500D01*
X132946644Y-71014501D01*
X132847292Y-71024650D01*
X132847289Y-71024651D01*
X132686305Y-71077996D01*
X132686294Y-71078001D01*
X132541959Y-71167029D01*
X132541955Y-71167032D01*
X132422032Y-71286955D01*
X132422029Y-71286959D01*
X132333001Y-71431294D01*
X132332996Y-71431305D01*
X132279651Y-71592290D01*
X132269500Y-71691647D01*
X132269500Y-72288337D01*
X132269501Y-72288355D01*
X132279650Y-72387707D01*
X132279651Y-72387710D01*
X132332996Y-72548694D01*
X132333001Y-72548705D01*
X132422029Y-72693040D01*
X132422030Y-72693041D01*
X132422032Y-72693044D01*
X132458803Y-72729815D01*
X132493807Y-72764819D01*
X132527291Y-72826143D01*
X132522306Y-72895834D01*
X132493807Y-72940181D01*
X132427029Y-73006959D01*
X132338001Y-73151294D01*
X132337996Y-73151305D01*
X132284651Y-73312290D01*
X132274500Y-73411647D01*
X132274500Y-74008337D01*
X132274501Y-74008355D01*
X132284650Y-74107707D01*
X132284651Y-74107710D01*
X132337996Y-74268694D01*
X132338001Y-74268705D01*
X132427029Y-74413040D01*
X132427030Y-74413041D01*
X132427032Y-74413044D01*
X132482528Y-74468540D01*
X132486307Y-74472319D01*
X132519791Y-74533643D01*
X132514806Y-74603334D01*
X132486307Y-74647681D01*
X132427029Y-74706959D01*
X132338001Y-74851294D01*
X132337996Y-74851305D01*
X132284651Y-75012290D01*
X132274500Y-75111647D01*
X132274500Y-75708337D01*
X132274501Y-75708355D01*
X132284650Y-75807707D01*
X132284651Y-75807710D01*
X132337996Y-75968694D01*
X132338001Y-75968705D01*
X132427029Y-76113040D01*
X132427032Y-76113044D01*
X132466307Y-76152320D01*
X132499792Y-76213643D01*
X132494806Y-76283335D01*
X132466307Y-76327680D01*
X132427032Y-76366955D01*
X132427029Y-76366959D01*
X132338001Y-76511294D01*
X132337996Y-76511305D01*
X132284651Y-76672290D01*
X132274500Y-76771647D01*
X132274500Y-77368337D01*
X132274501Y-77368355D01*
X132284650Y-77467707D01*
X132284651Y-77467710D01*
X132337996Y-77628694D01*
X132338001Y-77628705D01*
X132427029Y-77773040D01*
X132427032Y-77773044D01*
X132546955Y-77892967D01*
X132546959Y-77892970D01*
X132691294Y-77981998D01*
X132691297Y-77981999D01*
X132691303Y-77982003D01*
X132769136Y-78007794D01*
X132826581Y-78047567D01*
X132853404Y-78112083D01*
X132841089Y-78180858D01*
X132793546Y-78232058D01*
X132730132Y-78249500D01*
X127420808Y-78249500D01*
X127353769Y-78229815D01*
X127333127Y-78213181D01*
X121144674Y-72024727D01*
X121144673Y-72024726D01*
X121144669Y-72024723D01*
X121038127Y-71953535D01*
X120962306Y-71922129D01*
X120919744Y-71904499D01*
X120919738Y-71904497D01*
X120794071Y-71879500D01*
X120794069Y-71879500D01*
X118009618Y-71879500D01*
X117942579Y-71859815D01*
X117908900Y-71825408D01*
X117907915Y-71826125D01*
X117780109Y-71650213D01*
X117629786Y-71499890D01*
X117457820Y-71374951D01*
X117457115Y-71374591D01*
X117449054Y-71370485D01*
X117398259Y-71322512D01*
X117381463Y-71254692D01*
X117403999Y-71188556D01*
X117449054Y-71149515D01*
X117457816Y-71145051D01*
X117623534Y-71024651D01*
X117629786Y-71020109D01*
X117629788Y-71020106D01*
X117629792Y-71020104D01*
X117780104Y-70869792D01*
X117780106Y-70869788D01*
X117780109Y-70869786D01*
X117907915Y-70693875D01*
X117909259Y-70694851D01*
X117955705Y-70652834D01*
X118009618Y-70640500D01*
X139206350Y-70640500D01*
X139273389Y-70660185D01*
X139294026Y-70676814D01*
X139387838Y-70770626D01*
X139387839Y-70770627D01*
X139457015Y-70816849D01*
X139527137Y-70863703D01*
X139527138Y-70863703D01*
X139527139Y-70863704D01*
X139541837Y-70869792D01*
X139681918Y-70927816D01*
X139846228Y-70960499D01*
X139846232Y-70960500D01*
X139846233Y-70960500D01*
X140013768Y-70960500D01*
X140013769Y-70960499D01*
X140178082Y-70927816D01*
X140332863Y-70863703D01*
X140472162Y-70770626D01*
X140590626Y-70652162D01*
X140683703Y-70512863D01*
X140747816Y-70358082D01*
X140780500Y-70193767D01*
X140780500Y-70026233D01*
X140747816Y-69861918D01*
X140736667Y-69835001D01*
X140731262Y-69821952D01*
X140723793Y-69752483D01*
X140755068Y-69690004D01*
X140815158Y-69654352D01*
X140845823Y-69650500D01*
X141764071Y-69650500D01*
X141848615Y-69633682D01*
X141889744Y-69625501D01*
X142008127Y-69576465D01*
X142021038Y-69567838D01*
X142114669Y-69505277D01*
X145561305Y-66058641D01*
X145622628Y-66025156D01*
X145692320Y-66030140D01*
X145748253Y-66072012D01*
X145772670Y-66137476D01*
X145763547Y-66193775D01*
X145702184Y-66341917D01*
X145702182Y-66341925D01*
X145669500Y-66506228D01*
X145669500Y-66673771D01*
X145702182Y-66838074D01*
X145702184Y-66838082D01*
X145766295Y-66992860D01*
X145859373Y-67132162D01*
X145977837Y-67250626D01*
X146070494Y-67312537D01*
X146117137Y-67343703D01*
X146271918Y-67407816D01*
X146436228Y-67440499D01*
X146436232Y-67440500D01*
X146436233Y-67440500D01*
X146603768Y-67440500D01*
X146603769Y-67440499D01*
X146768082Y-67407816D01*
X146922863Y-67343703D01*
X147062162Y-67250626D01*
X147180626Y-67132162D01*
X147273703Y-66992863D01*
X147337816Y-66838082D01*
X147370500Y-66673767D01*
X147370500Y-66506233D01*
X147337816Y-66341918D01*
X147273703Y-66187137D01*
X147240520Y-66137476D01*
X147180626Y-66047837D01*
X147062162Y-65929373D01*
X146922860Y-65836295D01*
X146768082Y-65772184D01*
X146768074Y-65772182D01*
X146603771Y-65739500D01*
X146603767Y-65739500D01*
X146436233Y-65739500D01*
X146436228Y-65739500D01*
X146271925Y-65772182D01*
X146271917Y-65772184D01*
X146123775Y-65833547D01*
X146054305Y-65841016D01*
X145991826Y-65809741D01*
X145956174Y-65749652D01*
X145958668Y-65679827D01*
X145988641Y-65631305D01*
X148333127Y-63286819D01*
X148394450Y-63253334D01*
X148420808Y-63250500D01*
X174364071Y-63250500D01*
X174457489Y-63231917D01*
X174489744Y-63225501D01*
X174608127Y-63176465D01*
X174714669Y-63105277D01*
X175905277Y-61914669D01*
X175976465Y-61808127D01*
X176025501Y-61689744D01*
X176033307Y-61650500D01*
X176050500Y-61564069D01*
X176050500Y-57374401D01*
X176070185Y-57307362D01*
X176122989Y-57261607D01*
X176192147Y-57251663D01*
X176221952Y-57259839D01*
X176361918Y-57317816D01*
X176498060Y-57344896D01*
X176526228Y-57350499D01*
X176526232Y-57350500D01*
X176526233Y-57350500D01*
X176693768Y-57350500D01*
X176693769Y-57350499D01*
X176858082Y-57317816D01*
X177012863Y-57253703D01*
X177152162Y-57160626D01*
X177270626Y-57042162D01*
X177363703Y-56902863D01*
X177427816Y-56748082D01*
X177460500Y-56583767D01*
X177460500Y-56416233D01*
X177427816Y-56251918D01*
X177363703Y-56097137D01*
X177271199Y-55958695D01*
X177270626Y-55957837D01*
X177270624Y-55957835D01*
X177254680Y-55941892D01*
X177252851Y-55939349D01*
X177251396Y-55938481D01*
X177244598Y-55927874D01*
X177231339Y-55909440D01*
X177229438Y-55905619D01*
X177186465Y-55801873D01*
X177157042Y-55757838D01*
X177115277Y-55695331D01*
X177114190Y-55694244D01*
X177098760Y-55675444D01*
X177098127Y-55674497D01*
X177071781Y-55635066D01*
X177065277Y-55625332D01*
X177036804Y-55596859D01*
X176974669Y-55534724D01*
X176735906Y-55295961D01*
X175704674Y-54264727D01*
X175704673Y-54264726D01*
X175613415Y-54203750D01*
X175598127Y-54193535D01*
X175591280Y-54190699D01*
X175479744Y-54144499D01*
X175479738Y-54144497D01*
X175354071Y-54119500D01*
X175354069Y-54119500D01*
X157235931Y-54119500D01*
X157235929Y-54119500D01*
X157110261Y-54144497D01*
X157110255Y-54144499D01*
X156998722Y-54190698D01*
X156994709Y-54192360D01*
X156991872Y-54193535D01*
X156885326Y-54264726D01*
X156885325Y-54264727D01*
X152146873Y-59003181D01*
X152085550Y-59036666D01*
X152059192Y-59039500D01*
X143214565Y-59039500D01*
X143088897Y-59064497D01*
X143088891Y-59064499D01*
X142970510Y-59113534D01*
X142863962Y-59184726D01*
X142863961Y-59184727D01*
X138294725Y-63753964D01*
X138294719Y-63753972D01*
X138237411Y-63839740D01*
X138237412Y-63839741D01*
X138237410Y-63839744D01*
X138223535Y-63860509D01*
X138223533Y-63860511D01*
X138223533Y-63860513D01*
X138174499Y-63978891D01*
X138174497Y-63978897D01*
X138149500Y-64104564D01*
X138149500Y-64605068D01*
X138129815Y-64672107D01*
X138128602Y-64673959D01*
X138046295Y-64797139D01*
X137982184Y-64951917D01*
X137982182Y-64951925D01*
X137949500Y-65116228D01*
X137949500Y-65283771D01*
X137982182Y-65448074D01*
X137982184Y-65448082D01*
X138046295Y-65602860D01*
X138139373Y-65742162D01*
X138257837Y-65860626D01*
X138337644Y-65913951D01*
X138397137Y-65953703D01*
X138551918Y-66017816D01*
X138702845Y-66047837D01*
X138716228Y-66050499D01*
X138716232Y-66050500D01*
X138716233Y-66050500D01*
X138883768Y-66050500D01*
X138883769Y-66050499D01*
X139048082Y-66017816D01*
X139202863Y-65953703D01*
X139231109Y-65934828D01*
X139297786Y-65913951D01*
X139365166Y-65932435D01*
X139368879Y-65934821D01*
X139397137Y-65953703D01*
X139551918Y-66017816D01*
X139702845Y-66047837D01*
X139716228Y-66050499D01*
X139716232Y-66050500D01*
X139716233Y-66050500D01*
X139883768Y-66050500D01*
X139883769Y-66050499D01*
X140048082Y-66017816D01*
X140202863Y-65953703D01*
X140342162Y-65860626D01*
X140460626Y-65742162D01*
X140553703Y-65602863D01*
X140617816Y-65448082D01*
X140646718Y-65302781D01*
X140679102Y-65240870D01*
X140680596Y-65239349D01*
X144433127Y-61486819D01*
X144494450Y-61453334D01*
X144520808Y-61450500D01*
X172905068Y-61450500D01*
X172972107Y-61470185D01*
X172973959Y-61471398D01*
X173097137Y-61553703D01*
X173251918Y-61617816D01*
X173416228Y-61650499D01*
X173416232Y-61650500D01*
X173416233Y-61650500D01*
X173583768Y-61650500D01*
X173583769Y-61650499D01*
X173748082Y-61617816D01*
X173902863Y-61553703D01*
X174042162Y-61460626D01*
X174160626Y-61342162D01*
X174253703Y-61202863D01*
X174317816Y-61048082D01*
X174350500Y-60883767D01*
X174350500Y-60716233D01*
X174317816Y-60551918D01*
X174253703Y-60397137D01*
X174194227Y-60308125D01*
X174160626Y-60257837D01*
X174042162Y-60139373D01*
X173902860Y-60046295D01*
X173748082Y-59982184D01*
X173748074Y-59982182D01*
X173583771Y-59949500D01*
X173583767Y-59949500D01*
X173416233Y-59949500D01*
X173416228Y-59949500D01*
X173251925Y-59982182D01*
X173251917Y-59982184D01*
X173097139Y-60046295D01*
X172973959Y-60128602D01*
X172907281Y-60149480D01*
X172905068Y-60149500D01*
X158124420Y-60149500D01*
X158057381Y-60129815D01*
X158011626Y-60077011D01*
X158001682Y-60007853D01*
X158030707Y-59944297D01*
X158089485Y-59906523D01*
X158111818Y-59902142D01*
X158132797Y-59899999D01*
X158299334Y-59844814D01*
X158448656Y-59752712D01*
X158572712Y-59628656D01*
X158664814Y-59479334D01*
X158719999Y-59312797D01*
X158730500Y-59210009D01*
X158730499Y-57609992D01*
X158719999Y-57507203D01*
X158664814Y-57340666D01*
X158572712Y-57191344D01*
X158448656Y-57067288D01*
X158299334Y-56975186D01*
X158132797Y-56920001D01*
X158132795Y-56920000D01*
X158030010Y-56909500D01*
X156729998Y-56909500D01*
X156729981Y-56909501D01*
X156627203Y-56920000D01*
X156627200Y-56920001D01*
X156460668Y-56975185D01*
X156460663Y-56975187D01*
X156311342Y-57067289D01*
X156187289Y-57191342D01*
X156095187Y-57340663D01*
X156095185Y-57340668D01*
X156091927Y-57350500D01*
X156040001Y-57507203D01*
X156040001Y-57507204D01*
X156040000Y-57507204D01*
X156029500Y-57609983D01*
X156029500Y-59210001D01*
X156029501Y-59210018D01*
X156040000Y-59312796D01*
X156040001Y-59312799D01*
X156095185Y-59479331D01*
X156095187Y-59479336D01*
X156113345Y-59508774D01*
X156187288Y-59628656D01*
X156311344Y-59752712D01*
X156460666Y-59844814D01*
X156627203Y-59899999D01*
X156643696Y-59901684D01*
X156648179Y-59902142D01*
X156712871Y-59928538D01*
X156753023Y-59985719D01*
X156755886Y-60055530D01*
X156720552Y-60115807D01*
X156658239Y-60147412D01*
X156635577Y-60149500D01*
X153139808Y-60149500D01*
X153072769Y-60129815D01*
X153027014Y-60077011D01*
X153017070Y-60007853D01*
X153046095Y-59944297D01*
X153052127Y-59937819D01*
X157533127Y-55456819D01*
X157594450Y-55423334D01*
X157620808Y-55420500D01*
X172877979Y-55420500D01*
X172945018Y-55440185D01*
X172990773Y-55492989D01*
X173000717Y-55562147D01*
X172971692Y-55625703D01*
X172962110Y-55635031D01*
X172962145Y-55635066D01*
X172839376Y-55757834D01*
X172839373Y-55757837D01*
X172746295Y-55897139D01*
X172682184Y-56051917D01*
X172682182Y-56051925D01*
X172649500Y-56216228D01*
X172649500Y-56383771D01*
X172682182Y-56548074D01*
X172682184Y-56548082D01*
X172746295Y-56702860D01*
X172839373Y-56842162D01*
X172957837Y-56960626D01*
X173006473Y-56993123D01*
X173097137Y-57053703D01*
X173251918Y-57117816D01*
X173399326Y-57147137D01*
X173416228Y-57150499D01*
X173416232Y-57150500D01*
X173416233Y-57150500D01*
X173583768Y-57150500D01*
X173583769Y-57150499D01*
X173748082Y-57117816D01*
X173902863Y-57053703D01*
X174016607Y-56977701D01*
X174083282Y-56956824D01*
X174150662Y-56975308D01*
X174173177Y-56993123D01*
X174713181Y-57533127D01*
X174746666Y-57594450D01*
X174749500Y-57620808D01*
X174749500Y-61179192D01*
X174729815Y-61246231D01*
X174713181Y-61266873D01*
X174066873Y-61913181D01*
X174005550Y-61946666D01*
X173979192Y-61949500D01*
X148035929Y-61949500D01*
X147910261Y-61974497D01*
X147910255Y-61974499D01*
X147835954Y-62005276D01*
X147835953Y-62005276D01*
X147791876Y-62023532D01*
X147685326Y-62094726D01*
X147685325Y-62094727D01*
X141466873Y-68313181D01*
X141405550Y-68346666D01*
X141379192Y-68349500D01*
X140598107Y-68349500D01*
X140531068Y-68329815D01*
X140495005Y-68294391D01*
X140490626Y-68287838D01*
X140490623Y-68287834D01*
X140372162Y-68169373D01*
X140232860Y-68076295D01*
X140078082Y-68012184D01*
X140078074Y-68012182D01*
X139913771Y-67979500D01*
X139913767Y-67979500D01*
X139746233Y-67979500D01*
X139746228Y-67979500D01*
X139581925Y-68012182D01*
X139581917Y-68012184D01*
X139427139Y-68076295D01*
X139287837Y-68169373D01*
X139169373Y-68287837D01*
X139076295Y-68427139D01*
X139012184Y-68581917D01*
X139012182Y-68581925D01*
X138979500Y-68746228D01*
X138979500Y-68913771D01*
X139012182Y-69078074D01*
X139012184Y-69078082D01*
X139049449Y-69168047D01*
X139056918Y-69237517D01*
X139025643Y-69299996D01*
X138965554Y-69335648D01*
X138934888Y-69339500D01*
X135864166Y-69339500D01*
X135797127Y-69319815D01*
X135751372Y-69267011D01*
X135741428Y-69197853D01*
X135761064Y-69146610D01*
X135810574Y-69072512D01*
X135823703Y-69052863D01*
X135887816Y-68898082D01*
X135920500Y-68733767D01*
X135920500Y-68566233D01*
X135887816Y-68401918D01*
X135823703Y-68247137D01*
X135771743Y-68169373D01*
X135730626Y-68107837D01*
X135726761Y-68103128D01*
X135728894Y-68101377D01*
X135701096Y-68050469D01*
X135706080Y-67980777D01*
X135734577Y-67936434D01*
X135797968Y-67873044D01*
X135887003Y-67728697D01*
X135940349Y-67567708D01*
X135950500Y-67468345D01*
X135950499Y-66871656D01*
X135947069Y-66838082D01*
X135940349Y-66772292D01*
X135940348Y-66772289D01*
X135914798Y-66695183D01*
X135887003Y-66611303D01*
X135886999Y-66611297D01*
X135886998Y-66611294D01*
X135797970Y-66466959D01*
X135797969Y-66466958D01*
X135797968Y-66466956D01*
X135686818Y-66355806D01*
X135653334Y-66294483D01*
X135650500Y-66268125D01*
X135650500Y-63585928D01*
X135625502Y-63460261D01*
X135625501Y-63460260D01*
X135625501Y-63460256D01*
X135598982Y-63396233D01*
X135576466Y-63341874D01*
X135542210Y-63290606D01*
X135505278Y-63235332D01*
X135505272Y-63235325D01*
X132155949Y-59886003D01*
X132122464Y-59824680D01*
X132127448Y-59754988D01*
X132169320Y-59699055D01*
X132170746Y-59698003D01*
X132229788Y-59655107D01*
X132229788Y-59655106D01*
X132229792Y-59655104D01*
X132380104Y-59504792D01*
X132380106Y-59504788D01*
X132380109Y-59504786D01*
X132505048Y-59332820D01*
X132505047Y-59332820D01*
X132505051Y-59332816D01*
X132601557Y-59143412D01*
X132667246Y-58941243D01*
X132700500Y-58731287D01*
X132700500Y-58268713D01*
X132667246Y-58058757D01*
X132601557Y-57856588D01*
X132505051Y-57667184D01*
X132505049Y-57667181D01*
X132505048Y-57667179D01*
X132380109Y-57495213D01*
X132229786Y-57344890D01*
X132057820Y-57219951D01*
X131868414Y-57123444D01*
X131868413Y-57123443D01*
X131868412Y-57123443D01*
X131666243Y-57057754D01*
X131666241Y-57057753D01*
X131666240Y-57057753D01*
X131504957Y-57032208D01*
X131456287Y-57024500D01*
X131243713Y-57024500D01*
X131195042Y-57032208D01*
X131033760Y-57057753D01*
X131004411Y-57067289D01*
X130841314Y-57120283D01*
X130831585Y-57123444D01*
X130642179Y-57219951D01*
X130470215Y-57344889D01*
X130331398Y-57483706D01*
X130270075Y-57517190D01*
X130200383Y-57512206D01*
X130144450Y-57470334D01*
X130138178Y-57461120D01*
X130042712Y-57306344D01*
X129918657Y-57182289D01*
X129918656Y-57182288D01*
X129769334Y-57090186D01*
X129602797Y-57035001D01*
X129602795Y-57035000D01*
X129500010Y-57024500D01*
X128199998Y-57024500D01*
X128199981Y-57024501D01*
X128097203Y-57035000D01*
X128097200Y-57035001D01*
X127930668Y-57090185D01*
X127930663Y-57090187D01*
X127781342Y-57182289D01*
X127657289Y-57306342D01*
X127565187Y-57455663D01*
X127565185Y-57455668D01*
X127561684Y-57466233D01*
X127510001Y-57622203D01*
X127510001Y-57622204D01*
X127510000Y-57622204D01*
X127499500Y-57724983D01*
X127499500Y-59275001D01*
X127499501Y-59275018D01*
X127510000Y-59377796D01*
X127510001Y-59377799D01*
X127555894Y-59516294D01*
X127565186Y-59544334D01*
X127657288Y-59693656D01*
X127781344Y-59817712D01*
X127930666Y-59909814D01*
X128097203Y-59964999D01*
X128199991Y-59975500D01*
X129500008Y-59975499D01*
X129602797Y-59964999D01*
X129769334Y-59909814D01*
X129918656Y-59817712D01*
X130042712Y-59693656D01*
X130134814Y-59544334D01*
X130134814Y-59544331D01*
X130138178Y-59538879D01*
X130190126Y-59492154D01*
X130259088Y-59480931D01*
X130323170Y-59508774D01*
X130331398Y-59516294D01*
X130470208Y-59655104D01*
X130642184Y-59780051D01*
X130642188Y-59780053D01*
X130646126Y-59782914D01*
X130645146Y-59784262D01*
X130687160Y-59830690D01*
X130699500Y-59884617D01*
X130699500Y-60064069D01*
X130699500Y-60064071D01*
X130699499Y-60064071D01*
X130724497Y-60189738D01*
X130724499Y-60189744D01*
X130773534Y-60308125D01*
X130844726Y-60414673D01*
X130844727Y-60414674D01*
X132871265Y-62441211D01*
X132904750Y-62502534D01*
X132899766Y-62572226D01*
X132857894Y-62628159D01*
X132792430Y-62652576D01*
X132759394Y-62650510D01*
X132693265Y-62637356D01*
X132653767Y-62629500D01*
X132486233Y-62629500D01*
X132486228Y-62629500D01*
X132321925Y-62662182D01*
X132321917Y-62662184D01*
X132167139Y-62726295D01*
X132027837Y-62819373D01*
X131909373Y-62937837D01*
X131816295Y-63077139D01*
X131752184Y-63231917D01*
X131752182Y-63231925D01*
X131719500Y-63396228D01*
X131719500Y-63563771D01*
X131752182Y-63728074D01*
X131752184Y-63728082D01*
X131816295Y-63882860D01*
X131909373Y-64022162D01*
X132027837Y-64140626D01*
X132109525Y-64195208D01*
X132167137Y-64233703D01*
X132321918Y-64297816D01*
X132444521Y-64322203D01*
X132486228Y-64330499D01*
X132486232Y-64330500D01*
X132486233Y-64330500D01*
X132653768Y-64330500D01*
X132653769Y-64330499D01*
X132818082Y-64297816D01*
X132972863Y-64233703D01*
X133112162Y-64140626D01*
X133230626Y-64022162D01*
X133323703Y-63882863D01*
X133387816Y-63728082D01*
X133420500Y-63563767D01*
X133420500Y-63396233D01*
X133399490Y-63290606D01*
X133405717Y-63221015D01*
X133448580Y-63165837D01*
X133514470Y-63142593D01*
X133582467Y-63158661D01*
X133608788Y-63178734D01*
X134313181Y-63883127D01*
X134346666Y-63944450D01*
X134349500Y-63970808D01*
X134349500Y-66268125D01*
X134329815Y-66335164D01*
X134313182Y-66355806D01*
X134202029Y-66466959D01*
X134113001Y-66611294D01*
X134112996Y-66611305D01*
X134059651Y-66772290D01*
X134049500Y-66871647D01*
X134049500Y-67468337D01*
X134049501Y-67468355D01*
X134059650Y-67567707D01*
X134059651Y-67567710D01*
X134112996Y-67728694D01*
X134113001Y-67728705D01*
X134202029Y-67873040D01*
X134202032Y-67873044D01*
X134313181Y-67984193D01*
X134327884Y-68011120D01*
X134344477Y-68036939D01*
X134345368Y-68043139D01*
X134346666Y-68045516D01*
X134349500Y-68071874D01*
X134349500Y-68159829D01*
X134329815Y-68226868D01*
X134328603Y-68228719D01*
X134316299Y-68247132D01*
X134316295Y-68247140D01*
X134252184Y-68401917D01*
X134252182Y-68401925D01*
X134219500Y-68566228D01*
X134219500Y-68733771D01*
X134252182Y-68898074D01*
X134252184Y-68898082D01*
X134316296Y-69052861D01*
X134316298Y-69052865D01*
X134378936Y-69146610D01*
X134399814Y-69213287D01*
X134381329Y-69280667D01*
X134329350Y-69327357D01*
X134275834Y-69339500D01*
X129774500Y-69339500D01*
X129707461Y-69319815D01*
X129661706Y-69267011D01*
X129650500Y-69215500D01*
X129650500Y-69086232D01*
X129650499Y-69086228D01*
X129635336Y-69010000D01*
X129617816Y-68921918D01*
X129553703Y-68767137D01*
X129490638Y-68672754D01*
X129460626Y-68627837D01*
X129342162Y-68509373D01*
X129202860Y-68416295D01*
X129048082Y-68352184D01*
X129048074Y-68352182D01*
X128883771Y-68319500D01*
X128883767Y-68319500D01*
X128716233Y-68319500D01*
X128716228Y-68319500D01*
X128551925Y-68352182D01*
X128551917Y-68352184D01*
X128397139Y-68416295D01*
X128257837Y-68509373D01*
X128139373Y-68627837D01*
X128046295Y-68767139D01*
X127982184Y-68921917D01*
X127982182Y-68921925D01*
X127949500Y-69086228D01*
X127949500Y-69215500D01*
X127929815Y-69282539D01*
X127877011Y-69328294D01*
X127825500Y-69339500D01*
X118009618Y-69339500D01*
X117942579Y-69319815D01*
X117908900Y-69285408D01*
X117907915Y-69286125D01*
X117780109Y-69110213D01*
X117629786Y-68959890D01*
X117457820Y-68834951D01*
X117268414Y-68738444D01*
X117268413Y-68738443D01*
X117268412Y-68738443D01*
X117066243Y-68672754D01*
X117066241Y-68672753D01*
X117066240Y-68672753D01*
X116904957Y-68647208D01*
X116856287Y-68639500D01*
X116643713Y-68639500D01*
X116595042Y-68647208D01*
X116433760Y-68672753D01*
X116231585Y-68738444D01*
X116042179Y-68834951D01*
X115870213Y-68959890D01*
X115719890Y-69110213D01*
X115594951Y-69282179D01*
X115498444Y-69471585D01*
X115432753Y-69673760D01*
X115399500Y-69883713D01*
X108100500Y-69883713D01*
X108100500Y-57466228D01*
X122809500Y-57466228D01*
X122809500Y-57633771D01*
X122842182Y-57798074D01*
X122842184Y-57798082D01*
X122906295Y-57952860D01*
X122999373Y-58092162D01*
X123117837Y-58210626D01*
X123204771Y-58268713D01*
X123257137Y-58303703D01*
X123411918Y-58367816D01*
X123576228Y-58400499D01*
X123576232Y-58400500D01*
X123576233Y-58400500D01*
X123743768Y-58400500D01*
X123743769Y-58400499D01*
X123908082Y-58367816D01*
X124062863Y-58303703D01*
X124202162Y-58210626D01*
X124320626Y-58092162D01*
X124413703Y-57952863D01*
X124477816Y-57798082D01*
X124510500Y-57633767D01*
X124510500Y-57466233D01*
X124477816Y-57301918D01*
X124413703Y-57147137D01*
X124360350Y-57067289D01*
X124320626Y-57007837D01*
X124202162Y-56889373D01*
X124062860Y-56796295D01*
X123908082Y-56732184D01*
X123908074Y-56732182D01*
X123743771Y-56699500D01*
X123743767Y-56699500D01*
X123576233Y-56699500D01*
X123576228Y-56699500D01*
X123411925Y-56732182D01*
X123411917Y-56732184D01*
X123257139Y-56796295D01*
X123117837Y-56889373D01*
X122999373Y-57007837D01*
X122906295Y-57147139D01*
X122842184Y-57301917D01*
X122842182Y-57301925D01*
X122809500Y-57466228D01*
X108100500Y-57466228D01*
X108100500Y-56548551D01*
X142524500Y-56548551D01*
X142524500Y-57291448D01*
X142554675Y-57481969D01*
X142554676Y-57481972D01*
X142614285Y-57665429D01*
X142701859Y-57837302D01*
X142815241Y-57993359D01*
X142951641Y-58129759D01*
X143107698Y-58243141D01*
X143279571Y-58330715D01*
X143463028Y-58390324D01*
X143653551Y-58420500D01*
X143653552Y-58420500D01*
X143846448Y-58420500D01*
X143846449Y-58420500D01*
X144036972Y-58390324D01*
X144220429Y-58330715D01*
X144392302Y-58243141D01*
X144548359Y-58129759D01*
X144684759Y-57993359D01*
X144798141Y-57837302D01*
X144885715Y-57665429D01*
X144945324Y-57481972D01*
X144975500Y-57291449D01*
X144975500Y-56889806D01*
X144995185Y-56822767D01*
X145047989Y-56777012D01*
X145075309Y-56768189D01*
X145237658Y-56735896D01*
X145237661Y-56735894D01*
X145237666Y-56735894D01*
X145401547Y-56668013D01*
X145549035Y-56569464D01*
X145674464Y-56444035D01*
X145773013Y-56296547D01*
X145840894Y-56132666D01*
X145856955Y-56051925D01*
X145875499Y-55958695D01*
X145875500Y-55958693D01*
X145875500Y-55781306D01*
X145875499Y-55781304D01*
X149074500Y-55781304D01*
X149074500Y-55958695D01*
X149109103Y-56132658D01*
X149109106Y-56132667D01*
X149176983Y-56296540D01*
X149176990Y-56296553D01*
X149275535Y-56444034D01*
X149275538Y-56444038D01*
X149400961Y-56569461D01*
X149400965Y-56569464D01*
X149548446Y-56668009D01*
X149548459Y-56668016D01*
X149624470Y-56699500D01*
X149712334Y-56735894D01*
X149712336Y-56735894D01*
X149712341Y-56735896D01*
X149874691Y-56768189D01*
X149936602Y-56800574D01*
X149971176Y-56861289D01*
X149974500Y-56889806D01*
X149974500Y-57291448D01*
X150004675Y-57481969D01*
X150004676Y-57481972D01*
X150064285Y-57665429D01*
X150151859Y-57837302D01*
X150265241Y-57993359D01*
X150401641Y-58129759D01*
X150557698Y-58243141D01*
X150729571Y-58330715D01*
X150913028Y-58390324D01*
X151103551Y-58420500D01*
X151103552Y-58420500D01*
X151296448Y-58420500D01*
X151296449Y-58420500D01*
X151486972Y-58390324D01*
X151670429Y-58330715D01*
X151842302Y-58243141D01*
X151998359Y-58129759D01*
X152134759Y-57993359D01*
X152248141Y-57837302D01*
X152335715Y-57665429D01*
X152395324Y-57481972D01*
X152425500Y-57291449D01*
X152425500Y-56548551D01*
X152395324Y-56358028D01*
X152335715Y-56174571D01*
X152248141Y-56002698D01*
X152134759Y-55846641D01*
X151998359Y-55710241D01*
X151842302Y-55596859D01*
X151670429Y-55509285D01*
X151486972Y-55449676D01*
X151486970Y-55449675D01*
X151486969Y-55449675D01*
X151340614Y-55426495D01*
X151296449Y-55419500D01*
X151103551Y-55419500D01*
X151040043Y-55429558D01*
X150913026Y-55449676D01*
X150913018Y-55449678D01*
X150890672Y-55456938D01*
X150820831Y-55458931D01*
X150760999Y-55422849D01*
X150749256Y-55407897D01*
X150674464Y-55295965D01*
X150674461Y-55295961D01*
X150549038Y-55170538D01*
X150549034Y-55170535D01*
X150401553Y-55071990D01*
X150401540Y-55071983D01*
X150237667Y-55004106D01*
X150237658Y-55004103D01*
X150063694Y-54969500D01*
X150063691Y-54969500D01*
X149886309Y-54969500D01*
X149886306Y-54969500D01*
X149712341Y-55004103D01*
X149712332Y-55004106D01*
X149548459Y-55071983D01*
X149548446Y-55071990D01*
X149400965Y-55170535D01*
X149400961Y-55170538D01*
X149275538Y-55295961D01*
X149275535Y-55295965D01*
X149176990Y-55443446D01*
X149176983Y-55443459D01*
X149109106Y-55607332D01*
X149109103Y-55607341D01*
X149074500Y-55781304D01*
X145875499Y-55781304D01*
X145840896Y-55607341D01*
X145840893Y-55607332D01*
X145773016Y-55443459D01*
X145773009Y-55443446D01*
X145674464Y-55295965D01*
X145674461Y-55295961D01*
X145549038Y-55170538D01*
X145549034Y-55170535D01*
X145401553Y-55071990D01*
X145401540Y-55071983D01*
X145237667Y-55004106D01*
X145237658Y-55004103D01*
X145063694Y-54969500D01*
X145063691Y-54969500D01*
X144886309Y-54969500D01*
X144886306Y-54969500D01*
X144712341Y-55004103D01*
X144712332Y-55004106D01*
X144548459Y-55071983D01*
X144548446Y-55071990D01*
X144400965Y-55170535D01*
X144400961Y-55170538D01*
X144275538Y-55295961D01*
X144200743Y-55407899D01*
X144147130Y-55452703D01*
X144077805Y-55461410D01*
X144059325Y-55456939D01*
X144058956Y-55456819D01*
X144036972Y-55449676D01*
X144036968Y-55449675D01*
X144036967Y-55449675D01*
X143928790Y-55432541D01*
X143846449Y-55419500D01*
X143653551Y-55419500D01*
X143629344Y-55423334D01*
X143463030Y-55449675D01*
X143279568Y-55509286D01*
X143107697Y-55596859D01*
X143049181Y-55639374D01*
X142951641Y-55710241D01*
X142951639Y-55710243D01*
X142951638Y-55710243D01*
X142815243Y-55846638D01*
X142815243Y-55846639D01*
X142815241Y-55846641D01*
X142778554Y-55897137D01*
X142701859Y-56002697D01*
X142614286Y-56174568D01*
X142554675Y-56358030D01*
X142524500Y-56548551D01*
X108100500Y-56548551D01*
X108100500Y-54203750D01*
X108100726Y-54196263D01*
X108103788Y-54145639D01*
X108118271Y-53906201D01*
X108120076Y-53891340D01*
X108126214Y-53857849D01*
X108171780Y-53609197D01*
X108175364Y-53594663D01*
X108260696Y-53320822D01*
X108265998Y-53306841D01*
X108383731Y-53045249D01*
X108390676Y-53032016D01*
X108539080Y-52786526D01*
X108547567Y-52774230D01*
X108724480Y-52548417D01*
X108734395Y-52537226D01*
X108937226Y-52334395D01*
X108948417Y-52324480D01*
X109174230Y-52147567D01*
X109186526Y-52139080D01*
X109432016Y-51990676D01*
X109445249Y-51983731D01*
X109706841Y-51865998D01*
X109720822Y-51860696D01*
X109994668Y-51775362D01*
X110009197Y-51771780D01*
X110291344Y-51720075D01*
X110306201Y-51718271D01*
X110596264Y-51700726D01*
X110603751Y-51700500D01*
X110665892Y-51700500D01*
X142895066Y-51700500D01*
X142962105Y-51720185D01*
G37*
%TD.AperFunction*%
%TD*%
M02*
