M48
; DRILL file {KiCad 9.0.6} date 2026-04-08T11:52:09-0400
; FORMAT={-:-/ absolute / inch / decimal}
; #@! TF.CreationDate,2026-04-08T11:52:09-04:00
; #@! TF.GenerationSoftware,Kicad,Pcbnew,9.0.6
; #@! TF.FileFunction,Plated,1,4,PTH
FMAT,2
INCH
; #@! TA.AperFunction,Plated,PTH,ViaDrill
T1C0.0118
; #@! TA.AperFunction,Plated,PTH,ComponentDrill
T2C0.0217
; #@! TA.AperFunction,Plated,PTH,ComponentDrill
T3C0.0335
; #@! TA.AperFunction,Plated,PTH,ComponentDrill
T4C0.0374
; #@! TA.AperFunction,Plated,PTH,ComponentDrill
T5C0.0394
; #@! TA.AperFunction,Plated,PTH,ComponentDrill
T6C0.1260
%
G90
G05
T1
X4.2972Y-2.3091
X4.2972Y-2.5059
X4.2972Y-2.7028
X4.2972Y-2.8996
X4.2972Y-3.0965
X4.2972Y-3.2933
X4.2972Y-3.4902
X4.2972Y-3.687
X4.315Y-2.1811
X4.315Y-3.815
X4.3736Y-3.2008
X4.378Y-2.8028
X4.4094Y-2.0945
X4.4094Y-3.7283
X4.4134Y-2.2795
X4.4134Y-3.9134
X4.4449Y-3.4921
X4.4953Y-3.6097
X4.5039Y-2.185
X4.5039Y-3.8189
X4.5102Y-2.3335
X4.5118Y-3.9232
X4.5256Y-2.0728
X4.6091Y-2.5976
X4.6106Y-3.7732
X4.6253Y-3.6097
X4.6524Y-3.0346
X4.7087Y-3.9232
X4.7224Y-2.0728
X4.7799Y-2.5083
X4.8268Y-3.3331
X4.8685Y-2.2657
X4.8969Y-3.1484
X4.9035Y-2.6441
X4.9055Y-3.9232
X4.9193Y-2.0728
X4.9791Y-3.8433
X5.022Y-3.4598
X5.0709Y-2.7232
X5.1024Y-3.9232
X5.1161Y-2.0728
X5.1386Y-3.4563
X5.1606Y-3.1953
X5.1996Y-3.3039
X5.2071Y-3.1752
X5.2193Y-2.4992
X5.2445Y-3.2291
X5.2697Y-3.2866
X5.2992Y-3.9232
X5.3012Y-2.9902
X5.3098Y-2.9528
X5.313Y-2.0728
X5.3177Y-2.7028
X5.3228Y-2.8661
X5.3228Y-2.9134
X5.3524Y-3.2283
X5.3571Y-3.0335
X5.3606Y-2.5339
X5.3713Y-3.8398
X5.4031Y-2.7236
X5.4091Y-3.4575
X5.4122Y-2.8102
X5.4547Y-3.3189
X5.4646Y-2.5669
X5.4953Y-3.3091
X5.4961Y-3.9232
X5.5039Y-2.5669
X5.5051Y-2.7098
X5.5091Y-2.7602
X5.5098Y-2.0728
X5.5201Y-3.4709
X5.5213Y-2.5087
X5.5232Y-3.0346
X5.5591Y-2.2965
X5.5689Y-2.8142
X5.6091Y-3.3024
X5.6213Y-3.4606
X5.6496Y-3.1063
X5.6591Y-3.1854
X5.6929Y-3.9232
X5.7323Y-3.1299
X5.7339Y-3.25
X5.7441Y-3.0787
X5.7504Y-3.8465
X5.7559Y-3.0276
X5.7685Y-2.6217
X5.7705Y-2.4736
X5.7972Y-2.0768
X5.7992Y-2.7283
X5.8016Y-3.4602
X5.8898Y-3.9232
X5.9004Y-3.4496
X5.9185Y-3.0299
X5.9626Y-3.0311
X5.9791Y-3.4531
X6.0051Y-3.0311
X6.0866Y-3.9232
X6.1004Y-2.0728
X6.1587Y-2.5772
X6.1642Y-3.4528
X6.1724Y-3.8528
X6.2339Y-2.7236
X6.2673Y-3.4488
X6.2835Y-3.9232
X6.2972Y-2.0728
X6.3445Y-3.6791
X6.378Y-3.0146
X6.4295Y-3.0858
X6.4339Y-2.2602
X6.4354Y-2.3406
X6.4669Y-3.2563
X6.4803Y-3.9232
X6.4941Y-2.0728
X6.5697Y-3.6843
X6.6772Y-3.9232
X6.6909Y-2.0728
X6.7012Y-2.7004
X6.7217Y-3.1071
X6.7362Y-2.8898
X6.8307Y-2.2165
X6.8307Y-2.3937
X6.8425Y-2.8898
X6.8496Y-2.3453
X6.874Y-3.9232
X6.8878Y-2.0728
X6.9531Y-2.2244
X6.9555Y-3.7378
X7.0146Y-3.4811
X7.0205Y-2.3055
X7.0709Y-3.9232
X7.0811Y-3.0567
X7.0846Y-2.0728
X7.1102Y-2.1772
X7.1102Y-3.7953
X7.1575Y-2.7248
X7.1992Y-2.5083
X7.2047Y-2.0906
X7.2047Y-3.7087
X7.2087Y-2.2756
X7.2087Y-3.8937
X7.2213Y-3.0673
X7.2378Y-3.5988
X7.2992Y-2.1811
X7.2992Y-3.7992
X7.3248Y-2.3051
X7.3248Y-2.502
X7.3248Y-2.6988
X7.3248Y-2.8957
X7.3248Y-3.0925
X7.3248Y-3.2894
X7.3248Y-3.4862
X7.3248Y-3.6831
T4
X5.0728Y-2.3031
X5.1713Y-2.3031
X5.2697Y-2.3031
X6.5709Y-2.5669
X6.5709Y-2.8071
X6.5709Y-3.0394
X6.5709Y-3.2648
X6.6693Y-2.5669
X6.6693Y-2.8071
X6.6693Y-3.0394
X6.6693Y-3.2648
X6.7677Y-2.5669
X6.7677Y-2.8071
X6.7677Y-3.0394
X6.7677Y-3.2648
T5
X4.5965Y-2.6555
X4.5965Y-2.7555
X4.5965Y-2.8555
X4.5965Y-2.9555
X4.5974Y-3.0953
X4.5974Y-3.1953
X4.5974Y-3.2953
X4.5974Y-3.3953
X4.8868Y-3.6024
X4.9852Y-3.6024
X5.2766Y-3.6014
X5.375Y-3.6014
X5.6624Y-3.6014
X5.7608Y-3.6014
X6.0433Y-3.6024
X6.1417Y-3.6024
X6.1961Y-2.2996
X6.2945Y-2.2996
X7.0Y-2.5669
X7.0Y-2.6669
X7.0Y-2.7669
X7.0Y-2.8669
X7.0Y-3.0075
X7.0Y-3.1075
X7.0Y-3.2075
X7.0Y-3.3075
T6
X4.4094Y-2.185
X4.4094Y-3.8189
X7.2047Y-2.185
X7.2047Y-3.7992
T2
G00X5.6535Y-2.1041
M15
G01X5.6535Y-2.0785
M16
G05
G00X5.9587Y-2.1041
M15
G01X5.9587Y-2.0785
M16
G05
T3
G00X5.6594Y-2.2518
M15
G01X5.6594Y-2.2301
M16
G05
G00X5.9528Y-2.2518
M15
G01X5.9528Y-2.2301
M16
G05
M30
