%TF.GenerationSoftware,KiCad,Pcbnew,9.0.6*%
%TF.CreationDate,2026-04-08T10:23:24-04:00*%
%TF.ProjectId,f411_shimmer,66343131-5f73-4686-996d-6d65722e6b69,rev?*%
%TF.SameCoordinates,Original*%
%TF.FileFunction,Paste,Top*%
%TF.FilePolarity,Positive*%
%FSLAX46Y46*%
G04 Gerber Fmt 4.6, Leading zero omitted, Abs format (unit mm)*
G04 Created by KiCad (PCBNEW 9.0.6) date 2026-04-08 10:23:24*
%MOMM*%
%LPD*%
G01*
G04 APERTURE LIST*
G04 Aperture macros list*
%AMRoundRect*
0 Rectangle with rounded corners*
0 $1 Rounding radius*
0 $2 $3 $4 $5 $6 $7 $8 $9 X,Y pos of 4 corners*
0 Add a 4 corners polygon primitive as box body*
4,1,4,$2,$3,$4,$5,$6,$7,$8,$9,$2,$3,0*
0 Add four circle primitives for the rounded corners*
1,1,$1+$1,$2,$3*
1,1,$1+$1,$4,$5*
1,1,$1+$1,$6,$7*
1,1,$1+$1,$8,$9*
0 Add four rect primitives between the rounded corners*
20,1,$1+$1,$2,$3,$4,$5,0*
20,1,$1+$1,$4,$5,$6,$7,0*
20,1,$1+$1,$6,$7,$8,$9,0*
20,1,$1+$1,$8,$9,$2,$3,0*%
G04 Aperture macros list end*
%ADD10RoundRect,0.200000X-0.200000X-0.275000X0.200000X-0.275000X0.200000X0.275000X-0.200000X0.275000X0*%
%ADD11RoundRect,0.075000X-0.700000X-0.075000X0.700000X-0.075000X0.700000X0.075000X-0.700000X0.075000X0*%
%ADD12RoundRect,0.075000X-0.075000X-0.700000X0.075000X-0.700000X0.075000X0.700000X-0.075000X0.700000X0*%
%ADD13RoundRect,0.225000X0.225000X0.250000X-0.225000X0.250000X-0.225000X-0.250000X0.225000X-0.250000X0*%
%ADD14RoundRect,0.225000X0.250000X-0.225000X0.250000X0.225000X-0.250000X0.225000X-0.250000X-0.225000X0*%
%ADD15RoundRect,0.250000X-0.250000X-0.475000X0.250000X-0.475000X0.250000X0.475000X-0.250000X0.475000X0*%
%ADD16RoundRect,0.250000X0.262500X0.450000X-0.262500X0.450000X-0.262500X-0.450000X0.262500X-0.450000X0*%
%ADD17RoundRect,0.200000X0.200000X0.275000X-0.200000X0.275000X-0.200000X-0.275000X0.200000X-0.275000X0*%
%ADD18RoundRect,0.225000X-0.225000X-0.250000X0.225000X-0.250000X0.225000X0.250000X-0.225000X0.250000X0*%
%ADD19RoundRect,0.250000X-0.350000X0.450000X-0.350000X-0.450000X0.350000X-0.450000X0.350000X0.450000X0*%
%ADD20RoundRect,0.225000X-0.250000X0.225000X-0.250000X-0.225000X0.250000X-0.225000X0.250000X0.225000X0*%
%ADD21RoundRect,0.218750X-0.256250X0.218750X-0.256250X-0.218750X0.256250X-0.218750X0.256250X0.218750X0*%
%ADD22R,0.450000X1.300000*%
%ADD23RoundRect,0.218750X-0.218750X-0.256250X0.218750X-0.256250X0.218750X0.256250X-0.218750X0.256250X0*%
%ADD24RoundRect,0.375000X-0.375000X0.625000X-0.375000X-0.625000X0.375000X-0.625000X0.375000X0.625000X0*%
%ADD25RoundRect,0.500000X-1.400000X0.500000X-1.400000X-0.500000X1.400000X-0.500000X1.400000X0.500000X0*%
G04 APERTURE END LIST*
D10*
%TO.C,R6*%
X137300000Y-63450000D03*
X138950000Y-63450000D03*
%TD*%
D11*
%TO.C,U1*%
X132475000Y-69125000D03*
X132475000Y-69625000D03*
X132475000Y-70125000D03*
X132475000Y-70625000D03*
X132475000Y-71125000D03*
X132475000Y-71625000D03*
X132475000Y-72125000D03*
X132475000Y-72625000D03*
X132475000Y-73125000D03*
X132475000Y-73625000D03*
X132475000Y-74125000D03*
X132475000Y-74625000D03*
X132475000Y-75125000D03*
X132475000Y-75625000D03*
X132475000Y-76125000D03*
X132475000Y-76625000D03*
D12*
X134400000Y-78550000D03*
X134900000Y-78550000D03*
X135400000Y-78550000D03*
X135900000Y-78550000D03*
X136400000Y-78550000D03*
X136900000Y-78550000D03*
X137400000Y-78550000D03*
X137900000Y-78550000D03*
X138400000Y-78550000D03*
X138900000Y-78550000D03*
X139400000Y-78550000D03*
X139900000Y-78550000D03*
X140400000Y-78550000D03*
X140900000Y-78550000D03*
X141400000Y-78550000D03*
X141900000Y-78550000D03*
D11*
X143825000Y-76625000D03*
X143825000Y-76125000D03*
X143825000Y-75625000D03*
X143825000Y-75125000D03*
X143825000Y-74625000D03*
X143825000Y-74125000D03*
X143825000Y-73625000D03*
X143825000Y-73125000D03*
X143825000Y-72625000D03*
X143825000Y-72125000D03*
X143825000Y-71625000D03*
X143825000Y-71125000D03*
X143825000Y-70625000D03*
X143825000Y-70125000D03*
X143825000Y-69625000D03*
X143825000Y-69125000D03*
D12*
X141900000Y-67200000D03*
X141400000Y-67200000D03*
X140900000Y-67200000D03*
X140400000Y-67200000D03*
X139900000Y-67200000D03*
X139400000Y-67200000D03*
X138900000Y-67200000D03*
X138400000Y-67200000D03*
X137900000Y-67200000D03*
X137400000Y-67200000D03*
X136900000Y-67200000D03*
X136400000Y-67200000D03*
X135900000Y-67200000D03*
X135400000Y-67200000D03*
X134900000Y-67200000D03*
X134400000Y-67200000D03*
%TD*%
D13*
%TO.C,C22*%
X128200000Y-65000000D03*
X126650000Y-65000000D03*
%TD*%
D14*
%TO.C,C20*%
X128900000Y-80550000D03*
X128900000Y-79000000D03*
%TD*%
%TO.C,C19*%
X130250000Y-75550000D03*
X130250000Y-74000000D03*
%TD*%
D15*
%TO.C,C13*%
X151700000Y-70050000D03*
X153600000Y-70050000D03*
%TD*%
D16*
%TO.C,R4*%
X155225000Y-87700000D03*
X153400000Y-87700000D03*
%TD*%
%TO.C,R5*%
X146050000Y-87875000D03*
X144225000Y-87875000D03*
%TD*%
D17*
%TO.C,R3*%
X119260000Y-57510000D03*
X117610000Y-57510000D03*
%TD*%
D18*
%TO.C,C14*%
X133875000Y-63450000D03*
X135425000Y-63450000D03*
%TD*%
D19*
%TO.C,Y2*%
X123800000Y-72200000D03*
X123800000Y-74400000D03*
X125500000Y-74400000D03*
X125500000Y-72200000D03*
%TD*%
D15*
%TO.C,C12*%
X151700000Y-67550000D03*
X153600000Y-67550000D03*
%TD*%
D18*
%TO.C,C15*%
X133900000Y-65200000D03*
X135450000Y-65200000D03*
%TD*%
D20*
%TO.C,C18*%
X145900000Y-67950000D03*
X145900000Y-69500000D03*
%TD*%
D21*
%TO.C,FB2*%
X128900000Y-82350000D03*
X128900000Y-83925000D03*
%TD*%
D14*
%TO.C,C21*%
X130750000Y-83925000D03*
X130750000Y-82375000D03*
%TD*%
D16*
%TO.C,R8*%
X168732500Y-58407500D03*
X166907500Y-58407500D03*
%TD*%
D18*
%TO.C,C7*%
X140905000Y-82650000D03*
X142455000Y-82650000D03*
%TD*%
D16*
%TO.C,R2*%
X136050000Y-87825000D03*
X134225000Y-87825000D03*
%TD*%
D14*
%TO.C,C1*%
X130200000Y-69150000D03*
X130200000Y-67600000D03*
%TD*%
D22*
%TO.C,J7*%
X148775000Y-56970000D03*
X148125000Y-56970000D03*
X147475000Y-56970000D03*
X146825000Y-56970000D03*
X146175000Y-56970000D03*
%TD*%
D13*
%TO.C,C17*%
X142450000Y-80900000D03*
X140900000Y-80900000D03*
%TD*%
D16*
%TO.C,R7*%
X168732500Y-56182500D03*
X166907500Y-56182500D03*
%TD*%
D23*
%TO.C,D4*%
X170682500Y-60657500D03*
X172257500Y-60657500D03*
%TD*%
%TO.C,D1*%
X120935000Y-57520000D03*
X122510000Y-57520000D03*
%TD*%
%TO.C,D3*%
X170607500Y-58457500D03*
X172182500Y-58457500D03*
%TD*%
%TO.C,D2*%
X170632500Y-56257500D03*
X172207500Y-56257500D03*
%TD*%
D13*
%TO.C,C16*%
X135950000Y-80850000D03*
X134400000Y-80850000D03*
%TD*%
D20*
%TO.C,C24*%
X127850000Y-74025000D03*
X127850000Y-75575000D03*
%TD*%
D16*
%TO.C,R9*%
X168682500Y-60707500D03*
X166857500Y-60707500D03*
%TD*%
D14*
%TO.C,C23*%
X127850000Y-72325000D03*
X127850000Y-70775000D03*
%TD*%
D16*
%TO.C,R1*%
X126225000Y-87875000D03*
X124400000Y-87875000D03*
%TD*%
D24*
%TO.C,U2*%
X153850000Y-72600000D03*
X151550000Y-72600000D03*
D25*
X151550000Y-78900000D03*
D24*
X149250000Y-72600000D03*
%TD*%
M02*
