M48
; DRILL file {KiCad 9.0.6} date 2026-04-08T10:23:20-0400
; FORMAT={-:-/ absolute / metric / decimal}
; #@! TF.CreationDate,2026-04-08T10:23:20-04:00
; #@! TF.GenerationSoftware,Kicad,Pcbnew,9.0.6
; #@! TF.FileFunction,Plated,1,4,PTH
FMAT,2
METRIC
; #@! TA.AperFunction,Plated,PTH,ViaDrill
T1C0.300
; #@! TA.AperFunction,Plated,PTH,ComponentDrill
T2C0.550
; #@! TA.AperFunction,Plated,PTH,ComponentDrill
T3C0.850
; #@! TA.AperFunction,Plated,PTH,ComponentDrill
T4C0.950
; #@! TA.AperFunction,Plated,PTH,ComponentDrill
T5C1.000
; #@! TA.AperFunction,Plated,PTH,ComponentDrill
T6C3.200
%
G90
G05
T1
X109.15Y-58.65
X109.15Y-63.65
X109.15Y-68.65
X109.15Y-73.65
X109.15Y-78.65
X109.15Y-83.65
X109.15Y-88.65
X109.15Y-93.65
X109.6Y-55.4
X109.6Y-96.9
X111.09Y-81.3
X111.2Y-71.19
X112.0Y-53.2
X112.0Y-94.7
X112.1Y-57.9
X112.1Y-99.4
X112.9Y-88.7
X114.182Y-91.687
X114.4Y-55.5
X114.4Y-97.0
X114.56Y-59.27
X114.6Y-99.65
X114.95Y-52.65
X117.07Y-65.98
X117.11Y-95.84
X117.482Y-91.687
X118.17Y-77.08
X119.6Y-99.65
X119.95Y-52.65
X121.41Y-63.71
X122.6Y-84.66
X123.66Y-57.55
X124.38Y-79.97
X124.55Y-67.16
X124.6Y-99.65
X124.95Y-52.65
X126.47Y-97.62
X127.56Y-87.88
X128.8Y-69.17
X129.6Y-99.65
X129.95Y-52.65
X130.52Y-87.79
X131.08Y-81.16
X132.07Y-83.92
X132.26Y-80.65
X132.57Y-63.48
X133.21Y-82.02
X133.85Y-83.48
X134.6Y-99.65
X134.65Y-75.95
X134.87Y-75.0
X134.95Y-52.65
X135.07Y-68.65
X135.2Y-72.8
X135.2Y-74.0
X135.95Y-82.0
X136.07Y-77.05
X136.16Y-64.36
X136.43Y-97.53
X137.24Y-69.18
X137.39Y-87.82
X137.47Y-71.38
X138.55Y-84.3
X138.8Y-65.2
X139.58Y-84.05
X139.6Y-99.65
X139.8Y-65.2
X139.83Y-68.83
X139.93Y-70.11
X139.95Y-52.65
X140.21Y-88.16
X140.24Y-63.72
X140.29Y-77.08
X141.2Y-58.33
X141.45Y-71.48
X142.47Y-83.88
X142.78Y-87.9
X143.5Y-78.9
X143.74Y-80.91
X144.6Y-99.65
X145.6Y-79.5
X145.64Y-82.55
X145.9Y-78.2
X146.06Y-97.7
X146.2Y-76.9
X146.52Y-66.59
X146.57Y-62.83
X147.25Y-52.75
X147.3Y-69.3
X147.36Y-87.89
X149.6Y-99.65
X149.87Y-87.62
X150.33Y-76.96
X151.45Y-76.99
X151.87Y-87.71
X152.53Y-76.99
X154.6Y-99.65
X154.95Y-52.65
X156.43Y-65.46
X156.57Y-87.7
X156.78Y-97.86
X158.34Y-69.18
X159.19Y-87.6
X159.6Y-99.65
X159.95Y-52.65
X161.15Y-93.45
X162.0Y-76.57
X163.31Y-78.38
X163.42Y-57.41
X163.46Y-59.45
X164.26Y-82.71
X164.6Y-99.65
X164.95Y-52.65
X166.87Y-93.58
X169.6Y-99.65
X169.95Y-52.65
X170.21Y-68.59
X170.73Y-78.92
X171.1Y-73.4
X173.5Y-56.3
X173.5Y-60.8
X173.8Y-73.4
X173.98Y-59.57
X174.6Y-99.65
X174.95Y-52.65
X176.61Y-56.5
X176.67Y-94.94
X178.17Y-88.42
X178.32Y-58.56
X179.6Y-99.65
X179.86Y-77.64
X179.95Y-52.65
X180.6Y-55.3
X180.6Y-96.4
X181.8Y-69.21
X182.86Y-63.71
X183.0Y-53.1
X183.0Y-94.2
X183.1Y-57.8
X183.1Y-98.9
X183.42Y-77.91
X183.84Y-91.41
X185.4Y-55.4
X185.4Y-96.5
X186.05Y-58.55
X186.05Y-63.55
X186.05Y-68.55
X186.05Y-73.55
X186.05Y-78.55
X186.05Y-83.55
X186.05Y-88.55
X186.05Y-93.55
T4
X128.85Y-58.5
X131.35Y-58.5
X133.85Y-58.5
X166.9Y-65.2
X166.9Y-71.3
X166.9Y-77.2
X166.9Y-82.925
X169.4Y-65.2
X169.4Y-71.3
X169.4Y-77.2
X169.4Y-82.925
X171.9Y-65.2
X171.9Y-71.3
X171.9Y-77.2
X171.9Y-82.925
T5
X116.75Y-67.45
X116.75Y-69.99
X116.75Y-72.53
X116.75Y-75.07
X116.775Y-78.62
X116.775Y-81.16
X116.775Y-83.7
X116.775Y-86.24
X124.125Y-91.5
X126.625Y-91.5
X134.025Y-91.475
X136.525Y-91.475
X143.825Y-91.475
X146.325Y-91.475
X153.5Y-91.5
X156.0Y-91.5
X157.38Y-58.41
X159.88Y-58.41
X177.8Y-65.2
X177.8Y-67.74
X177.8Y-70.28
X177.8Y-72.82
X177.8Y-76.39
X177.8Y-78.93
X177.8Y-81.47
X177.8Y-84.01
T6
X112.0Y-55.5
X112.0Y-97.0
X183.0Y-55.5
X183.0Y-96.5
T2
G00X143.6Y-53.445
M15
G01X143.6Y-52.795
M16
G05
G00X151.35Y-53.445
M15
G01X151.35Y-52.795
M16
G05
T3
G00X143.75Y-57.195
M15
G01X143.75Y-56.645
M16
G05
G00X151.2Y-57.195
M15
G01X151.2Y-56.645
M16
G05
M30
